<?xml version="1.0" encoding="UTF-8"?>
<svg width="155px" height="61px" viewBox="0 0 155 61" version="1.1" xmlns="http://www.w3.org/2000/svg" xmlns:xlink="http://www.w3.org/1999/xlink">
    <title>F61463ED-5C94-45F7-86C3-DEAD43560FF0</title>
    <defs>
        <polygon id="path-1" points="0 0.0118157677 105.696052 0.0118157677 105.696052 38.4621849 0 38.4621849"></polygon>
        <polygon id="path-3" points="0.739566362 0.290932313 83.5164828 0.290932313 83.5164828 13.4566287 0.739566362 13.4566287"></polygon>
    </defs>
    <g id="Footer-IA" stroke="none" stroke-width="1" fill="none" fill-rule="evenodd">
        <g id="Footer-IA---New-Motif---Desktop" transform="translate(-165.000000, -5078.000000)">
            <g id="AU-Nav-Footer" transform="translate(0.000000, 5030.000000)">
                <g id="AU-Logo" transform="translate(165.000000, 48.000000)">
                    <g id="Group-3" transform="translate(0.000000, 4.805939)">
                        <mask id="mask-2" fill="white">
                            <use xlink:href="#path-1"></use>
                        </mask>
                        <g id="Clip-2"></g>
                        <path d="M61.672389,17.4485228 L65.3401666,17.4485228 L65.3401666,26.549127 C65.3401666,31.4930713 62.5092622,33.1132067 59.1126935,33.1132067 C55.6954613,33.1132067 52.7741539,31.4930713 52.7974004,26.549127 L52.8206469,17.4485228 L56.4884245,17.4485228 L56.4884245,26.812399 C56.4884245,28.4983523 57.1238282,29.8957191 59.1126935,29.8957191 C61.1067247,29.8957191 61.672389,28.4983523 61.672389,26.812399 L61.672389,17.4485228 Z M83.1779639,29.4527133 L83.1779639,22.2861457 L79.7581488,22.2861457 L79.7581488,30.0754529 C79.7581488,32.138594 80.7319179,33.092955 82.5890532,33.092955 C83.5628223,33.092955 84.0819936,32.9157527 84.0819936,32.9157527 L84.0819936,30.3640395 C83.3820164,30.3640395 83.1779639,30.0526697 83.1779639,29.4527133 L83.1779639,29.4527133 Z M101.379956,22.2861457 L101.379956,28.1439477 C101.35671,28.6780861 100.995098,30.0754529 99.5460673,30.0754529 C98.7763506,30.0754529 98.2545963,29.5438459 98.2545963,28.3894995 L98.2545963,25.3036479 C98.2545963,23.2405067 97.2808271,22.2861457 95.4262748,22.2861457 L89.5165036,22.2861457 L89.5165036,18.9344907 L86.0992713,18.9344907 L86.0992713,22.2861457 L84.4926814,22.2861457 L84.4926814,24.9264601 L86.0992713,24.9264601 L86.0992713,28.1439477 C86.0992713,31.3184005 87.3881594,33.1132067 90.7640645,33.1132067 C92.5721239,33.1132067 93.7292819,32.0499929 93.7292819,32.0499929 L92.7322663,29.6096639 C92.7322663,29.6096639 92.1433556,30.1184877 91.1463399,30.1184877 C90.0382578,30.1184877 89.5165036,29.4527133 89.5165036,27.9895286 L89.5165036,24.9264601 L93.9565808,24.9264601 C94.6358946,24.9264601 94.837364,25.2378299 94.837364,25.8377863 L94.837364,29.275511 C94.837364,31.4728196 95.6974837,33.1132067 98.3010892,33.1132067 C100.114314,33.1132067 101.085501,32.4043975 101.584008,31.6272388 L101.584008,33.2043393 C101.584008,34.8447264 100.269291,35.4902491 98.980403,35.4902491 C97.1930071,35.4902491 96.353551,34.3131195 96.353551,34.3131195 L94.5894016,36.1104571 C94.5894016,36.1104571 95.8782897,38.4621849 99.4789108,38.4621849 C102.715337,38.4621849 104.799771,36.3762606 104.799771,33.2271225 L104.799771,22.2861457 L101.379956,22.2861457 Z M77.6323875,29.4527133 L77.6323875,26.412428 C77.6323875,24.0834834 76.5475519,22.1519783 73.7605575,22.1519783 C71.7691092,22.1519783 70.9296531,23.0177381 70.6377806,23.8404631 L70.6377806,23.6404777 C70.3200788,22.6177672 69.5503621,22.1747614 68.2821376,22.1747614 C67.3083684,22.1747614 66.7659506,22.3519637 66.7659506,22.3519637 L66.7659506,24.903677 C67.4685108,24.903677 67.6699803,25.2378299 67.6699803,25.79222 L67.6699803,32.9815707 L71.0897955,32.9815707 L71.0897955,26.8579653 C71.1337055,26.1694077 71.5211468,25.1922636 72.7428784,25.1922636 C73.602998,25.1922636 74.2125723,25.8352548 74.2125723,26.8579653 L74.2125723,30.0754529 C74.2125723,32.138594 75.1889244,33.092955 77.0434767,33.092955 C78.0172459,33.092955 78.5364172,32.9157527 78.5364172,32.9157527 L78.5364172,30.3640395 C77.8571035,30.3640395 77.6323875,30.0526697 77.6323875,29.4527133 L77.6323875,29.4527133 Z M81.4603075,20.9470026 C82.4960673,20.9470026 83.353604,20.2280675 83.353604,19.1926998 C83.353604,18.1725208 82.4960673,17.4358655 81.4603075,17.4358655 C80.4219649,17.4358655 79.5850917,18.1725208 79.5850917,19.1926998 C79.5850917,20.2280675 80.4219649,20.9470026 81.4603075,20.9470026 L81.4603075,20.9470026 Z M31.6999303,7.91503866 C31.6999303,7.57582281 32.0227981,7.26445304 33.0585578,7.26445304 C34.3345311,7.26445304 35.2514755,7.96819935 35.6285851,8.33019835 L37.5735404,6.52273482 C37.056952,5.88733797 35.7293198,4.7734949 32.7511877,4.7734949 C29.4166096,4.85956459 28.2181245,6.51514043 28.2181245,8.00363981 C28.2181245,12.0843558 33.985834,10.9983588 33.985834,12.4412919 C33.985834,12.8842976 33.6681321,13.3956529 32.6736994,13.3956529 C30.6822512,13.3956529 29.5276761,11.8438669 29.5276761,11.8438669 L27.6498773,13.5956383 C27.6498773,13.5956383 28.0089062,14.3981116 29.1454007,15.0613545 C30.1243357,15.623339 31.2659961,15.8157301 32.0925375,15.8967369 C32.3275852,15.9144571 32.5755476,15.9220515 32.8338418,15.9220515 C36.2484911,15.9220515 37.855081,14.5449364 37.855081,12.2640896 C37.855081,8.59600181 31.6999303,9.80097749 31.6999303,7.91503866 L31.6999303,7.91503866 Z M91.9987108,12.0210693 L91.9987108,4.85703313 L88.9870005,4.85703313 L88.9870005,5.87721213 C88.5814786,5.52280751 87.6077094,4.72539713 85.977873,4.72539713 C83.6041494,4.72539713 81.3854022,6.23161674 81.3854022,10.2237316 C81.3854022,13.9930778 83.6713059,15.6815626 85.7764036,15.6815626 C87.9460748,15.6815626 88.7622845,14.4158319 88.9870005,13.9272598 L88.9870005,14.0386441 C89.3072853,15.1702074 90.120912,15.6587795 91.4098,15.6587795 C92.3603227,15.6587795 92.9027405,15.4815772 92.9027405,15.4815772 L92.9027405,12.9298639 C92.2027632,12.9298639 91.9987108,12.6210256 91.9987108,12.0210693 L91.9987108,12.0210693 Z M88.5814786,11.1553094 C88.5582321,11.0692397 88.3541797,12.7070953 86.7501727,12.7070953 C85.8228965,12.7070953 84.779388,11.9982861 84.779388,10.1806967 C84.779388,8.5175265 85.5955976,7.69733296 86.7269262,7.69733296 C88.0829708,7.69733296 88.5582321,8.87193111 88.5814786,9.33772003 L88.5814786,11.1553094 Z M46.7481503,12.1780199 L47.7425829,14.6158173 C47.7425829,14.6158173 46.5880079,15.6815626 44.7799485,15.6815626 C41.4066263,15.6815626 40.1177382,13.8842249 40.1177382,10.7123036 L40.1177382,7.4973475 L38.5111483,7.4973475 L38.5111483,4.85703313 L40.1177382,4.85703313 L40.1177382,1.51044099 L43.5349705,1.51044099 L43.5349705,4.85703313 L47.1304257,4.85703313 L47.1304257,7.4973475 L43.5349705,7.4973475 L43.5349705,10.5578845 C43.5349705,12.0210693 44.0541418,12.6868436 45.1622239,12.6868436 C46.1592395,12.6868436 46.7481503,12.1780199 46.7481503,12.1780199 L46.7481503,12.1780199 Z M5.83951522,0.0244730754 L-0.000516588396,15.5473952 L3.84806696,15.5473952 L5.06979852,11.8666501 L10.388076,11.8666501 L11.6537176,15.5473952 L15.4532253,15.5473952 L9.64160582,0.0244730754 L5.83951522,0.0244730754 Z M5.97382821,9.20608403 L7.73797758,4.0368396 L9.50470989,9.20608403 L5.97382821,9.20608403 Z M26.8362506,12.9298639 L26.8362506,15.4815772 C26.8362506,15.4815772 26.2938328,15.6587795 25.3407272,15.6587795 C24.0311756,15.6587795 23.2175489,15.1474242 22.899847,13.9930778 L22.899847,13.8386586 C22.5149886,14.6588522 21.564466,15.6815626 19.4154583,15.6815626 C16.8118527,15.6815626 15.9517331,14.0386441 15.9517331,11.8438669 L15.9517331,4.85703313 L19.3922118,4.85703313 L19.3922118,10.9553239 C19.3922118,12.1096704 19.8907196,12.6412773 20.6604363,12.6412773 C22.3341827,12.6412773 22.5149886,10.9553239 22.5149886,10.6895205 L22.5149886,4.85703313 L25.9322209,4.85703313 L25.9322209,12.0210693 C25.9322209,12.6210256 26.1336903,12.9298639 26.8362506,12.9298639 L26.8362506,12.9298639 Z M57.131577,5.19118605 L55.7290395,8.14033873 C55.7290395,8.14033873 55.2770247,7.76315096 54.2593456,7.76315096 C53.0608605,7.76315096 52.6760021,8.74029511 52.6295092,9.42632119 L52.6295092,15.5473952 L49.2148599,15.5473952 L49.2148599,8.36310735 C49.2148599,7.80618581 49.0082245,7.47456435 48.3082472,7.47456435 L48.3082472,4.92538259 C48.3082472,4.92538259 48.7602621,4.74818029 49.7340312,4.74818029 C50.9996728,4.74818029 51.7693895,5.27978721 52.1310014,6.32274935 L52.1310014,6.49995166 C52.4254567,5.70000982 53.2184199,4.72539713 55.2770247,4.72539713 C56.5220027,4.72539713 57.131577,5.19118605 57.131577,5.19118605 L57.131577,5.19118605 Z M80.1430071,12.9298639 L80.1430071,15.4815772 C80.1430071,15.4815772 79.6238358,15.6587795 78.6500667,15.6587795 C76.7955143,15.6587795 75.8243281,14.7044185 75.8243281,12.6412773 L75.8243281,4.85703313 L79.2389774,4.85703313 L79.2389774,12.0210693 C79.2389774,12.6210256 79.4430298,12.9298639 80.1430071,12.9298639 L80.1430071,12.9298639 Z M75.6486881,1.76611861 C75.6486881,0.745939611 76.4829783,0.0118157677 77.521321,0.0118157677 C78.5570807,0.0118157677 79.4146175,0.745939611 79.4146175,1.76611861 C79.4146175,2.80148637 78.5570807,3.52042144 77.521321,3.52042144 C76.4829783,3.52042144 75.6486881,2.80148637 75.6486881,1.76611861 L75.6486881,1.76611861 Z M105.696052,12.9298639 L105.696052,15.4815772 C105.696052,15.4815772 105.174298,15.6587795 104.200529,15.6587795 C102.345976,15.6587795 101.372207,14.7044185 101.372207,12.6412773 L101.372207,9.42632119 C101.372207,8.40614219 100.762633,7.76568243 99.9025133,7.76568243 C98.6807817,7.76568243 98.2959233,8.73776365 98.2494304,9.42632119 L98.2494304,15.5473952 L94.8321982,15.5473952 L94.8321982,8.36310735 C94.8321982,7.80871727 94.6307287,7.47456435 93.9281685,7.47456435 L93.9281685,4.92538259 C93.9281685,4.92538259 94.4705863,4.74564882 95.4443554,4.74564882 C96.7125799,4.74564882 97.4797137,5.19118605 97.7974155,6.21136505 L97.7974155,6.41135051 C98.0918709,5.59115697 98.9287441,4.72539713 100.920192,4.72539713 C103.702021,4.72539713 104.789439,6.65437082 104.789439,8.98331542 L104.789439,12.0210693 C104.789439,12.6210256 105.014155,12.9298639 105.696052,12.9298639 L105.696052,12.9298639 Z M74.2461506,12.9298639 L74.2461506,15.4815772 C74.2461506,15.4815772 73.7269792,15.6587795 72.7532101,15.6587795 C70.8986578,15.6587795 69.9248887,14.7044185 69.9248887,12.6412773 L69.9248887,0.0244730754 L73.3653674,0.0244730754 L73.3653674,12.0210693 C73.3653674,12.6210256 73.5694198,12.9298639 74.2461506,12.9298639 L74.2461506,12.9298639 Z M67.5847432,12.0210693 L67.5847432,4.85703313 L64.5756158,4.85703313 L64.5756158,5.87721213 C64.167511,5.52280751 63.1963248,4.72539713 61.5690714,4.72539713 C59.1927647,4.72539713 56.9740176,6.23161674 56.9740176,10.2237316 C56.9740176,13.9930778 59.2599212,15.6815626 61.362436,15.6815626 C63.5346902,15.6815626 64.3508999,14.4158319 64.5756158,13.9272598 L64.5756158,14.0386441 C64.8933177,15.1702074 65.7069444,15.6587795 66.9984154,15.6587795 C67.9463551,15.6587795 68.4913559,15.4815772 68.4913559,15.4815772 L68.4913559,12.9298639 C67.7887956,12.9298639 67.5847432,12.6210256 67.5847432,12.0210693 L67.5847432,12.0210693 Z M64.167511,11.1553094 C64.1468474,11.0692397 63.942795,12.7070953 62.3362051,12.7070953 C61.408929,12.7070953 60.3680033,11.9982861 60.3680033,10.1806967 C60.3680033,8.5175265 61.184213,7.69733296 62.3129586,7.69733296 C63.6690032,7.69733296 64.1468474,8.87193111 64.167511,9.33772003 L64.167511,11.1553094 Z" id="Fill-1" fill="#FFFFFF" mask="url(#mask-2)"></path>
                    </g>
                    <path d="M130.060405,18.9254294 C130.360577,21.9688688 127.056137,23.692972 122.894423,28.6193473 C118.727622,33.5482844 122.077852,33.750668 120.411641,35.7155821 C119.048146,37.31928 114.49977,37.4857981 114.49977,37.4857981 C113.446622,37.5062926 114.413279,36.9196364 114.413279,36.9196364 C116.427996,35.5157603 117.163164,33.8480171 115.987913,34.5012806 C112.21795,36.4585092 111.439537,36.4431383 111.439537,36.4431383 C110.378758,36.7172528 111.233486,36.1613384 111.233486,36.1613384 C116.598433,32.87965 121.215493,28.0992983 121.215493,28.0992983 C119.602701,28.3759746 118.117102,27.3435621 117.908508,27.1949767 C117.705001,27.0438295 117.743158,26.8363222 117.979735,26.854255 C118.829376,26.7031077 119.437352,26.3521387 119.83419,25.8448988 C120.007171,25.6245825 119.699367,25.6681334 119.699367,25.6681334 C117.37939,26.5929496 115.547829,25.0046226 114.413279,23.890232 C114.14872,23.6314884 114.382753,23.5853757 114.535383,23.5981848 C119.175337,23.8415574 121.164616,22.0841505 121.418999,21.9278797 C121.645401,21.7921033 121.541103,21.6383943 121.289264,21.7716088 C121.042512,21.9022615 119.615421,22.2019942 119.073584,22.3172759 C116.567907,22.8450104 113.098117,21.9458124 112.248476,20.4189691 C112.060232,20.0859328 112.225582,19.9680892 112.439264,19.9885837 C115.112834,20.2422037 115.998088,20.1884055 117.967016,19.6939747 C118.287539,19.6119965 118.254469,19.3558148 117.964472,19.4019275 C112.856452,19.7452111 110.551738,18.6564386 109.493503,15.4311102 C109.399381,15.1467484 109.32561,14.759914 109.628327,14.9622976 C110.661123,15.6258083 112.052601,15.8281919 113.184607,15.6334938 C113.403377,15.5950665 113.403377,15.5002793 113.192239,15.4439193 C108.089307,14.1194596 107.845099,8.27851537 107.827292,7.45873373 C107.806941,6.64407572 108.051149,7.15643925 108.051149,7.15643925 C109.39175,9.44670421 112.385843,11.1810547 114.604067,12.2749509 C115.026343,12.4824581 115.201868,12.1776018 114.761784,11.97778 C114.209772,11.7267219 113.60434,11.3398874 112.907329,10.8992548 C110.986734,9.6926387 109.236576,7.60731915 108.910965,4.87385975 C108.730353,3.33676917 109.076314,1.44870958 109.340873,0.593062496 C109.592713,-0.231842779 109.839465,-0.126808257 110.032796,0.482904338 C112.070408,5.87553044 117.911052,10.4996112 122.383113,12.2800745 C126.85263,14.0605377 129.760233,15.8819901 130.060405,18.9254294 M137.696996,10.1179004 C137.910678,10.1435186 138.147255,10.1435186 138.307516,10.053855 C138.46269,9.96675318 138.584794,9.82585321 138.645846,9.69520051 C138.709442,9.56710963 138.80102,9.26225334 138.696723,9.00350976 C138.513567,8.55262985 138.025151,8.42453897 137.577436,8.60642802 C137.129721,8.79087889 136.893144,9.21870244 137.076301,9.66702052 C137.200948,9.97956227 137.483314,10.0922822 137.696996,10.1179004 M154.598232,18.579584 C153.367016,19.7144692 148.780483,21.4385725 144.341492,20.0526292 C139.991535,18.692304 139.632854,20.0782473 139.536188,20.3728564 C139.449698,20.5419363 139.299612,20.5778018 139.307243,20.3677327 C139.279261,20.0577528 139.167332,18.3362114 139.129175,17.6650151 C139.091017,16.9656389 139.625223,16.2970045 139.996622,15.3081429 C140.365478,14.3218431 141.11591,11.739531 141.558537,11.388562 C142.235197,10.8505803 144.440701,8.95483522 144.936749,8.31950445 C145.432797,7.67905004 145.809284,7.09239381 146.246824,6.09840857 C144.107459,5.56042687 141.250733,7.23073196 140.721615,7.53302644 C140.721615,7.53302644 137.775855,6.18038673 135.023426,7.00016837 C132.270997,7.81995001 131.373024,10.138395 131.187324,11.0247839 C130.752328,13.0998561 130.159615,13.9068287 129.432078,14.3039104 C128.707085,14.7009922 128.475596,14.2577977 128.704541,14.619014 C128.933486,14.9827921 130.121457,16.1099918 131.296709,15.0109721 C133.530195,12.9179671 133.041779,11.3501347 134.369661,9.64140234 C135.694998,7.93266999 136.707445,7.98902998 138.07094,7.84556819 C139.431891,7.70466822 140.011885,8.08637905 139.922851,8.35280808 C139.828729,8.61923711 139.709169,8.97532976 139.32505,9.54917691 C139.197858,9.7361896 138.946019,9.96419137 138.757775,10.0871586 C138.569531,10.2101259 138.312604,10.3535876 137.724978,10.5534094 C137.144984,10.7429839 136.524288,10.8172766 136.015522,11.0529639 C133.659931,12.1494218 133.631949,13.0306871 133.591247,13.5686688 C133.982998,13.5456124 135.043777,13.6660178 135.987539,13.0230016 C136.928758,12.3825472 136.875338,11.92142 137.41463,11.4141801 C137.953923,10.9095021 138.549181,10.7045567 139.742239,9.97700045 C140.937841,9.25200607 142.883875,8.45528078 144.944381,7.36138466 C144.305878,8.47833714 140.596967,10.8352094 140.011885,11.1579984 C139.429347,11.4833492 139.910132,11.7651492 140.507933,11.6370583 C140.317146,11.8829928 139.971184,12.2237145 139.971184,12.2237145 C139.902501,12.9717653 138.322779,16.3482409 138.25664,16.5019499 C138.187956,16.6530972 138.076027,16.6530972 138.162518,18.1671314 C138.200675,18.8178331 138.205763,19.732402 138.205763,19.732402 C138.304973,23.4726557 136.364027,25.5118625 133.283443,27.5971821 C130.10365,29.7491089 127.765866,29.7798507 123.756783,34.7856423 C123.756783,34.7856423 122.645128,36.251002 125.392469,33.8121516 C126.310793,32.9974936 128.294984,31.7370794 129.185326,31.2990085 C132.324418,29.7593561 132.026789,31.1478613 132.245559,31.5039539 C132.507574,31.9317775 133.146076,29.3673981 133.743877,30.1154488 C134.178873,30.6534305 134.392555,31.1119959 135.628859,31.3681776 C135.862891,31.419414 135.959557,31.4270994 135.893417,31.2477722 C135.796752,30.9787813 135.781489,30.4536087 135.934119,30.0104143 C136.061311,29.6466362 136.211397,29.4544999 136.404728,29.8848852 C136.842268,30.8737468 137.46042,31.2580195 138.7476,31.5193249 C138.976545,31.5679994 139.014702,31.4501558 138.874791,31.2938849 C138.633127,31.0172086 138.162518,30.4279905 138.007344,30.0052906 C137.834363,29.5390398 137.981906,29.4186344 138.231201,29.7798507 C138.844265,30.5970705 140.563898,31.0479504 142.080023,31.053074 C142.334406,31.053074 142.405634,30.9019268 142.209758,30.7840832 C141.517835,30.3613833 140.584248,29.7824125 139.930483,29.0984072 C139.724432,28.8832145 139.805835,28.6449655 140.006798,28.8089218 C141.413538,29.9847961 143.575798,30.2614724 145.549813,29.410949 C145.977177,29.2290599 145.885599,29.0753508 145.478586,29.0241145 C144.153248,28.8499109 143.204398,28.5322455 141.952831,27.7893184 C141.647571,27.5690021 141.815464,27.4383494 142.095286,27.5510694 C145.931388,29.0855981 147.679003,27.850802 149.536002,25.7347407 C149.920121,25.2992317 149.777666,25.1788262 149.32232,25.3658389 C148.00207,25.645077 146.488488,25.3940189 146.488488,25.3940189 C146.094194,25.3632771 146.150158,25.1583317 146.475769,25.1327135 C150.871515,24.8201718 154.57025,19.4736584 154.956913,18.7025513 C155.112087,18.3900095 154.814458,18.3848859 154.598232,18.579584" id="Fill-4" fill="#FC5400"></path>
                    <g id="Group-8" transform="translate(21.180124, 46.137013)">
                        <mask id="mask-4" fill="white">
                            <use xlink:href="#path-3"></use>
                        </mask>
                        <g id="Clip-7"></g>
                        <path d="M0.739566362,10.195011 L4.40911156,10.195011 L4.40911156,9.47104442 L3.3470778,9.34993476 L3.3470778,6.33026728 L4.53768707,6.33026728 C4.74340789,6.41908103 4.94141419,6.64784372 5.12656293,7.01924667 C5.30914016,7.3879583 5.53029005,7.90469284 5.78229805,8.56406764 C5.99830492,9.12924605 6.17316762,9.54101889 6.30945767,9.80207749 C6.4431762,10.0631361 6.57175172,10.195011 6.69518421,10.195011 L8.65724657,10.195011 L8.65724657,9.48180972 L8.27666304,9.36070006 C8.17637414,9.33647813 8.07351373,9.23959041 7.97065332,9.06465423 C7.86779291,8.89240939 7.71864531,8.60982018 7.52578204,8.2141953 C7.25577346,7.63286894 7.00376545,7.16188693 6.76461499,6.80124928 C6.52546453,6.43792031 6.25288444,6.18762701 5.9443032,6.0503694 C6.48432037,5.87543323 6.89576201,5.54709149 7.18119966,5.07341816 C7.46406579,4.5970535 7.60807037,4.08301028 7.60807037,3.52590585 C7.60807037,2.96341877 7.50006693,2.50858472 7.28406007,2.1614037 C7.0680532,1.81691401 6.72089931,1.55854674 6.24516991,1.38899322 C5.76686899,1.21943969 5.13427746,1.1360086 4.33968078,1.1360086 C4.07995824,1.1360086 3.74823341,1.15215655 3.3470778,1.18445246 C3.25450343,1.19252644 3.1207849,1.20060041 2.94335069,1.20867439 C2.76591648,1.21674837 2.60648284,1.21943969 2.45990675,1.21943969 L0.785853547,1.21943969 L0.785853547,1.95686295 L1.65245252,2.12641647 L1.65245252,9.34993476 L0.739566362,9.47104442 L0.739566362,10.195011 Z M4.40911156,5.59284403 L4.01824199,5.59284403 C3.66337357,5.59284403 3.43965217,5.58477005 3.3470778,5.56862209 L3.3470778,1.94340632 C3.39336499,1.94340632 3.49108238,1.93533234 3.64280149,1.91380174 C3.79194908,1.89496246 3.97452632,1.88419715 4.19053318,1.88419715 C4.78198055,1.88419715 5.20113673,2.02414609 5.4428587,2.30673529 C5.68458066,2.5893245 5.80544165,3.02262794 5.80544165,3.61202828 C5.80544165,4.27140309 5.68458066,4.76660702 5.43771568,5.09764009 C5.19085069,5.42867315 4.84883982,5.59284403 4.40911156,5.59284403 L4.40911156,5.59284403 Z M11.8073467,10.326886 C12.2856476,10.326886 12.756234,10.2299983 13.2216773,10.0308402 C13.6871207,9.83437339 14.0239886,9.61906734 14.2322809,9.384922 L13.9442717,8.72016454 C13.759123,8.86549613 13.507115,8.99198844 13.1882477,9.09695014 C12.8693804,9.19922052 12.5582277,9.25304703 12.257361,9.25304703 C11.7044863,9.25304703 11.2776156,9.04850628 10.9767489,8.64211609 C10.6758822,8.2357259 10.5113055,7.66516485 10.4804474,6.93312424 L14.2322809,6.93312424 C14.2939971,6.67475697 14.3248553,6.28182342 14.3248553,5.74894092 C14.3094262,4.96845645 14.0934193,4.36559949 13.6768347,3.94306134 C13.2628215,3.5205232 12.6688026,3.3105998 11.8999211,3.3105998 C11.2853301,3.3105998 10.7427414,3.45054873 10.272155,3.73313794 C9.80414016,4.01303581 9.4389857,4.42211733 9.18183467,4.9523085 C8.92468364,5.485191 8.79610812,6.11226989 8.79610812,6.83623652 C8.79610812,7.91545814 9.04297311,8.7686084 9.5392746,9.39299597 C10.0355761,10.0146922 10.7916001,10.326886 11.8073467,10.326886 L11.8073467,10.326886 Z M10.4804474,6.20915762 C10.503591,5.42059918 10.6193089,4.8688774 10.8276013,4.55399229 C11.0358936,4.23910718 11.3264743,4.08301028 11.7044863,4.08301028 C12.388508,4.08301028 12.7305189,4.61858411 12.7305189,5.68973175 C12.7305189,5.81084141 12.7228043,5.98308626 12.7073753,6.20915762 L10.4804474,6.20915762 Z M14.8905875,8.31108302 C14.8905875,8.73631249 14.9780189,9.10233279 15.1554531,9.40376128 C15.3328873,9.70518976 15.5694662,9.93664377 15.8651899,10.0927407 C16.1609136,10.2488376 16.4874954,10.326886 16.8397923,10.326886 C17.256377,10.326886 17.629246,10.2299983 17.9609708,10.0389142 C18.2901241,9.8451387 18.5601327,9.62714131 18.7684251,9.384922 L18.7684251,9.71057241 C18.7684251,9.9608657 18.8121407,10.1277279 18.8995721,10.2057763 C18.9895749,10.2865161 19.1644376,10.326886 19.4267317,10.326886 C19.640167,10.326886 19.8921751,10.3080467 20.1750412,10.2676768 C20.4604788,10.227307 20.6790572,10.1869371 20.8333478,10.1465672 L20.8333478,9.47104442 L20.2110423,9.47104442 L20.2110423,5.77316285 C20.2110423,5.17837986 20.1364685,4.7020152 19.992464,4.34945153 C19.8458879,3.99419653 19.6041659,3.73582926 19.2698696,3.57434972 C18.9355732,3.4155615 18.4727014,3.33482173 17.8786825,3.33482173 C17.4800984,3.33482173 17.0892288,3.38864824 16.7137883,3.49630127 C16.3357763,3.60664563 16.011766,3.73313794 15.7391859,3.87846953 C15.4640343,4.02110979 15.2711711,4.1476021 15.1554531,4.25256381 L15.512893,5.02497429 C15.8369033,4.86349475 16.1480561,4.73431111 16.4489228,4.63204074 C16.747218,4.53246168 17.0866573,4.48132649 17.4646693,4.48132649 C17.7938227,4.48132649 18.0458307,4.52707903 18.2206934,4.62127543 C18.3929846,4.71278051 18.511274,4.85272945 18.5781333,5.0357396 C18.6424211,5.22144107 18.6758507,5.47980834 18.6758507,5.81084141 L18.6758507,6.08804796 C17.5598152,6.09612194 16.6495006,6.28451474 15.9449068,6.65591769 C15.2428844,7.02732065 14.8905875,7.57904242 14.8905875,8.31108302 L14.8905875,8.31108302 Z M17.5778158,9.32571283 C17.2795206,9.32571283 17.0429416,9.22344245 16.8680789,9.02428435 C16.6957878,8.82243492 16.6083564,8.52908041 16.6083564,8.1415295 C16.6083564,7.7539786 16.7806476,7.43909348 17.1226585,7.19418284 C17.4646693,6.94658087 17.9841144,6.82547121 18.6758507,6.82547121 L18.6758507,8.80628696 C18.5215601,8.95161855 18.3415543,9.07272821 18.133262,9.17499859 C17.9249697,9.27457764 17.7398209,9.32571283 17.5778158,9.32571283 L17.5778158,9.32571283 Z M21.9879559,9.36070006 L21.1805017,9.47104442 L21.1805017,10.195011 L24.4463198,10.195011 L24.4463198,9.47104442 L23.6028644,9.37415669 L23.6028644,0.519695001 L23.2917117,0.290932313 L23.2685681,0.290932313 L21.1342145,0.554682235 L21.1342145,1.20867439 L21.9879559,1.36477128 L21.9879559,9.36070006 Z M26.7889657,1.96762825 L27.4935595,2.13718177 L29.8722065,10.2542202 L31.371397,10.2542202 L32.8963026,4.61320145 L34.4880675,10.2542202 L36.0104016,10.2542202 L38.2038999,2.12641647 L38.9419233,1.96762825 L38.9419233,1.21943969 L36.1621207,1.21943969 L36.1621207,1.96762825 L37.2010109,2.12641647 L35.8843976,7.57365977 L35.6426756,9.02428435 L35.3315229,7.57365977 L33.8889056,2.12641647 L34.994655,1.96762825 L34.994655,1.21943969 L31.3842546,1.21943969 L31.3842546,1.96762825 L32.1454216,2.12641647 L32.4668604,3.15181158 L31.2325355,7.57365977 L30.9676699,8.91393999 L30.7028043,7.57365977 L29.2473295,2.12641647 L30.25279,1.96762825 L30.25279,1.21943969 L26.7889657,1.21943969 L26.7889657,1.96762825 Z M41.9325898,10.326886 C42.4083192,10.326886 42.8814771,10.2299983 43.3469205,10.0308402 C43.8123638,9.83437339 44.1492317,9.61906734 44.357524,9.384922 L44.0669434,8.72016454 C43.8843661,8.86549613 43.6297866,8.99198844 43.3109193,9.09695014 C42.9920521,9.19922052 42.6834708,9.25304703 42.3826041,9.25304703 C41.8297294,9.25304703 41.4028587,9.04850628 41.101992,8.64211609 C40.8011253,8.2357259 40.6365486,7.66516485 40.6056905,6.93312424 L44.357524,6.93312424 C44.4166688,6.67475697 44.4475269,6.28182342 44.4475269,5.74894092 C44.4320978,4.96845645 44.2186625,4.36559949 43.8020778,3.94306134 C43.3880646,3.5205232 42.7940458,3.3105998 42.0251642,3.3105998 C41.4080017,3.3105998 40.8679846,3.45054873 40.3973982,3.73313794 C39.9268118,4.01303581 39.5642288,4.42211733 39.3070778,4.9523085 C39.0499268,5.485191 38.9213513,6.11226989 38.9213513,6.83623652 C38.9213513,7.91545814 39.1682162,8.7686084 39.6645177,9.39299597 C40.1608192,10.0146922 40.9168432,10.326886 41.9325898,10.326886 L41.9325898,10.326886 Z M40.6056905,6.20915762 C40.6288341,5.42059918 40.7445521,4.8688774 40.9502729,4.55399229 C41.1585652,4.23910718 41.4517174,4.08301028 41.8297294,4.08301028 C42.5137511,4.08301028 42.855762,4.61858411 42.855762,5.68973175 C42.855762,5.81084141 42.8480475,5.98308626 42.8326184,6.20915762 L40.6056905,6.20915762 Z M45.8104273,9.36070006 L45.0029731,9.47104442 L45.0029731,10.195011 L48.2687912,10.195011 L48.2687912,9.47104442 L47.4253358,9.37415669 L47.4253358,0.519695001 L47.1141831,0.290932313 L47.0910395,0.290932313 L44.9566859,0.554682235 L44.9566859,1.20867439 L45.8104273,1.36477128 L45.8104273,9.36070006 Z M49.5031161,9.36070006 L48.6956619,9.47104442 L48.6956619,10.195011 L51.96148,10.195011 L51.96148,9.47104442 L51.1205961,9.37415669 L51.1205961,0.519695001 L50.8068719,0.290932313 L50.7862998,0.290932313 L48.6493747,0.554682235 L48.6493747,1.20867439 L49.5031161,1.36477128 L49.5031161,9.36070006 Z M52.0077672,1.18445246 L52.8743661,1.32978405 L52.8743661,9.86936063 C52.9977986,9.95817438 53.2806648,10.0550621 53.7281076,10.1654065 C54.1755503,10.2730595 54.70271,10.326886 55.3095864,10.326886 C55.9936081,10.326886 56.5953415,10.1654065 57.1147866,9.83975605 C57.6342317,9.51141431 58.0328158,9.06734556 58.3105389,8.50485848 C58.588262,7.93968007 58.7245521,7.31260117 58.7245521,6.61823913 C58.7245521,5.50133895 58.4931161,4.6697193 58.0276728,4.1260715 C57.5622294,3.5824237 56.960496,3.3105998 56.2224725,3.3105998 C55.8676041,3.3105998 55.5384508,3.38326559 55.2350126,3.53397983 C54.9315744,3.68200275 54.6744233,3.8650129 54.466131,4.08301028 L54.466131,0.519695001 L54.1446922,0.290932313 L54.1215486,0.290932313 L52.0077672,0.554682235 L52.0077672,1.18445246 Z M55.6104531,4.37367346 C56.0244662,4.37367346 56.3587626,4.56744892 56.6133421,4.95769115 C56.8679216,5.34793338 56.9939256,5.95079035 56.9939256,6.76357072 C56.9939256,7.70553473 56.8473495,8.41873605 56.5490543,8.89779204 C56.2533307,9.37684802 55.8598896,9.61637601 55.3661596,9.61637601 C55.1527243,9.61637601 54.959861,9.58677143 54.7901413,9.53025359 C54.6204216,9.47373575 54.5124182,9.40106995 54.466131,9.3122562 L54.466131,4.90386463 C54.5895635,4.76660702 54.7541402,4.64549736 54.9572895,4.53515301 C55.1604388,4.42749998 55.3790172,4.37367346 55.6104531,4.37367346 L55.6104531,4.37367346 Z M62.337524,10.326886 C62.8158249,10.326886 63.2864113,10.2299983 63.7518547,10.0308402 C64.2172981,9.83437339 64.5541659,9.61906734 64.7624582,9.384922 L64.4744491,8.72016454 C64.2893003,8.86549613 64.0372923,8.99198844 63.7184251,9.09695014 C63.3995578,9.19922052 63.088405,9.25304703 62.7875383,9.25304703 C62.2346636,9.25304703 61.8077929,9.04850628 61.5069262,8.64211609 C61.2060595,8.2357259 61.0414828,7.66516485 61.0106247,6.93312424 L64.7624582,6.93312424 C64.8241745,6.67475697 64.8550326,6.28182342 64.8550326,5.74894092 C64.8396035,4.96845645 64.6235967,4.36559949 64.207012,3.94306134 C63.7929989,3.5205232 63.19898,3.3105998 62.4300984,3.3105998 C61.8155074,3.3105998 61.2729188,3.45054873 60.8023324,3.73313794 C60.3343175,4.01303581 59.969163,4.42211733 59.712012,4.9523085 C59.454861,5.485191 59.3262855,6.11226989 59.3262855,6.83623652 C59.3262855,7.91545814 59.5731505,8.7686084 60.0694519,9.39299597 C60.5657534,10.0146922 61.3217775,10.326886 62.337524,10.326886 L62.337524,10.326886 Z M61.0106247,6.20915762 C61.0337683,5.42059918 61.1494863,4.8688774 61.3577786,4.55399229 C61.5660709,4.23910718 61.8566516,4.08301028 62.2346636,4.08301028 C62.9186854,4.08301028 63.2606962,4.61858411 63.2606962,5.68973175 C63.2606962,5.81084141 63.2529817,5.98308626 63.2375526,6.20915762 L61.0106247,6.20915762 Z M66.9199554,2.37940109 L66.9328129,2.37940109 C67.2619662,2.37940109 67.5216888,2.28251336 67.704266,2.08873791 C67.8894148,1.89496246 67.9819891,1.63928651 67.9819891,1.31632742 C67.9819891,1.05796015 67.9022723,0.84265409 67.7402672,0.670409242 C67.578262,0.498164395 67.3442546,0.409350645 67.0356733,0.409350645 C66.7270921,0.409350645 66.4827986,0.511621024 66.2976499,0.713470454 C66.1125011,0.912628559 66.0199268,1.1683045 66.0199268,1.47242431 C66.0199268,1.73886556 66.1022151,1.95686295 66.2616487,2.12641647 C66.4236539,2.29596999 66.6422323,2.37940109 66.9199554,2.37940109 L66.9199554,2.37940109 Z M66.3079359,9.36070006 L65.5004817,9.47104442 L65.5004817,10.195011 L68.7200126,10.195011 L68.7200126,9.47104442 L67.9485595,9.37415669 L67.9485595,3.56358442 L67.6245492,3.3213651 L67.6014056,3.3213651 L65.4901957,3.58780635 L65.4901957,4.3978954 L66.3079359,4.62665808 L66.3079359,9.36070006 Z M69.9671951,9.36070006 L69.2986024,9.47104442 L69.2986024,10.195011 L72.309841,10.195011 L72.309841,9.47104442 L71.6181047,9.36070006 L71.6181047,4.96576513 C72.1169777,4.57014024 72.5875641,4.37367346 73.0247208,4.37367346 C73.2870149,4.37367346 73.4901642,4.42749998 73.6315973,4.53515301 C73.7730303,4.64549736 73.8733192,4.81774221 73.9273209,5.05457888 C73.9787511,5.29141554 74.0070378,5.61975728 74.0070378,6.0396041 L74.0070378,9.37415669 L73.3847323,9.47104442 L73.3847323,10.195011 L76.3625412,10.195011 L76.3625412,9.47104442 L75.6579474,9.37415669 L75.6579474,6.0396041 C75.6579474,5.38022929 75.5988026,4.85542077 75.4856562,4.46786986 C75.3699382,4.08301028 75.1796465,3.79772975 74.9122094,3.61741093 C74.6473438,3.43709211 74.2796178,3.34558703 73.811603,3.34558703 C73.3718747,3.34558703 72.9372895,3.44247476 72.5078473,3.63625021 C72.0758335,3.83002566 71.7261081,4.05878835 71.4560995,4.3252296 L71.4689571,4.03456642 L71.4689571,3.56358442 L71.1783764,3.3213651 L71.1449468,3.3213651 L69.2291716,3.57434972 L69.2291716,4.4086607 L69.9671951,4.62665808 L69.9671951,9.36070006 Z M79.7440772,13.4568978 C80.3740973,13.4568978 80.9706876,13.3465535 81.5312769,13.1312474 C82.0944376,12.91325 82.5444519,12.6064389 82.8838913,12.2135054 C83.2207592,11.8178805 83.3904788,11.3711204 83.3904788,10.8705338 C83.3904788,9.68096783 82.6061682,9.08349351 81.0349754,9.08349351 L79.8006505,9.08349351 C79.3326356,9.08349351 79.0060538,9.03504965 78.8260481,8.93816192 C78.6460423,8.8412742 78.553468,8.66095537 78.553468,8.39451412 C78.553468,8.30570037 78.5766116,8.20343 78.6177557,8.08770299 C78.6614714,7.96928466 78.7206161,7.8589403 78.7977614,7.7539786 C79.0420549,7.81049644 79.3480646,7.84010102 79.7080761,7.84010102 C80.5772466,7.84010102 81.2638398,7.61941231 81.7627128,7.18072621 C82.2641573,6.74204012 82.5084508,6.15533111 82.5007363,5.4232905 C82.5007363,5.13262732 82.444163,4.86080342 82.3284451,4.60243615 L83.5164828,4.60243615 L83.5164828,3.28637786 L83.1127557,3.28637786 C82.8607477,3.28637786 82.6138827,3.34558703 82.3747323,3.46669669 C82.1355818,3.58780635 81.9658621,3.71698998 81.8681447,3.8542476 C81.4284165,3.49091862 80.7598238,3.3105998 79.8597952,3.3105998 C79.3506362,3.3105998 78.8800498,3.40210487 78.4454645,3.58780635 C78.0108793,3.77350782 77.6637254,4.03725775 77.4065744,4.37905612 C77.1494233,4.72085448 77.0182763,5.12186202 77.0182763,5.5793874 C77.0182763,6.05575205 77.1237082,6.46752489 77.3320006,6.81201459 C77.5377214,7.15919561 77.8540172,7.41756288 78.2783164,7.5871164 C78.0083078,7.72168269 77.7897294,7.91276681 77.6200097,8.16036878 C77.45029,8.40527943 77.3654302,8.66633802 77.3654302,8.93816192 C77.3654302,9.41452658 77.5428644,9.75901627 77.8977328,9.97701366 C77.5968661,10.1223452 77.3397151,10.343034 77.1288513,10.6363885 C76.9179874,10.929743 76.8125555,11.2419368 76.8125555,11.5729698 C76.8125555,12.1516049 77.0414199,12.6118216 77.5042918,12.9482373 C77.9671636,13.2873443 78.7129016,13.4568978 79.7440772,13.4568978 L79.7440772,13.4568978 Z M79.8237941,7.08922114 C79.0549125,7.08922114 78.6691859,6.56441262 78.6691859,5.5067216 C78.6691859,5.01690032 78.7669033,4.64818869 78.9649096,4.40327805 C79.1603444,4.1583674 79.440639,4.03456642 79.8006505,4.03456642 C80.1709479,4.03456642 80.4460995,4.1583674 80.6261053,4.40327805 C80.806111,4.64818869 80.8986854,5.03304827 80.8986854,5.55516546 C80.8986854,6.57786925 80.5386739,7.08922114 79.8237941,7.08922114 L79.8237941,7.08922114 Z M79.9163684,12.6225869 C79.3789228,12.6225869 78.9931962,12.5068599 78.7617603,12.2727145 C78.5303244,12.0385692 78.4171779,11.7021535 78.4171779,11.2580847 C78.4171779,10.8543859 78.5200383,10.5098962 78.7283307,10.219233 C78.8903358,10.2434549 79.0651985,10.2542202 79.2580618,10.2542202 L80.5155303,10.2542202 C80.9629731,10.2542202 81.2715543,10.3322687 81.446417,10.4856742 C81.6187082,10.6390798 81.7061396,10.8866818 81.7061396,11.2338628 C81.7061396,11.6698576 81.5287054,12.0089646 81.173837,12.2538752 C80.82154,12.5014772 80.4023839,12.6225869 79.9163684,12.6225869 L79.9163684,12.6225869 Z" id="Fill-6" fill="#FC5400" mask="url(#mask-4)"></path>
                    </g>
                </g>
            </g>
        </g>
    </g>
</svg>