<?xml version="1.0" encoding="utf-8"?>
<!-- Generator: Adobe Illustrator 24.0.1, SVG Export Plug-In . SVG Version: 6.00 Build 0)  -->
<svg version="1.1" id="Layer_1" xmlns="http://www.w3.org/2000/svg" xmlns:xlink="http://www.w3.org/1999/xlink" x="0px" y="0px"
	 viewBox="0 0 189 72.6" style="enable-background:new 0 0 189 72.6;" xml:space="preserve">
<style type="text/css">
	.st0{fill:#FFFFFF;}
</style>
<g>
	<g>
		<g>
			<path class="st0" d="M59.9,20.4c0,22.5-12.1,40-29.1,50.9C13.7,60.4,1.6,42.9,1.6,20.4H59.9L59.9,20.4z"/>
		</g>
		<g>
			<path d="M30.7,72.6l-0.6-0.4C11.1,60.1,0.5,41.7,0.5,20.4v-1.1h19.3v2.1H2.6C3,41.3,12.9,58.6,30.7,70.1
				c17.8-11.6,27.7-28.8,28.1-48.7H41.2v-2.1h19.7v1.1c0,21.3-10.5,39.7-29.6,51.9L30.7,72.6z"/>
		</g>
		<g>
			<path d="M59.9,20c0,0.6,0,0.1,0,0.4c-0.4-0.2-0.9,0-1.4,0c-1.9,0-3.1,1.7-3.1,3.4c0,0.4,0.1,0.9,0.2,1.3
				c-0.4-0.2-0.8-0.3-1.3-0.3c-1.7,0-3.1,1.4-3.1,3.1c0,0.6,0.2,1.1,0.4,1.6c-0.5-0.3-1-0.5-1.6-0.5c-2,0-3.1,1.6-3.1,3.5
				c0,0.6,0,0.7,0.3,1.1c-0.5-0.3-1-0.4-1.6-0.4c-1.7,0-3.1,1.8-3.1,3.5c0,0.5,0.1,0.7,0.3,1.1c-0.4-0.2-0.8-0.2-1.3-0.2
				c-1.7,0-3.1,1.6-3.1,3.3c0,1.7,1.4,3.1,3.1,3.1c0.5,0,0.9-0.1,1.4-0.3c-0.2,0.4-0.3,0.8-0.3,1.3c0,1.7,1.4,3.1,3.1,3.1
				c0.5,0,0.9,0,1.4-0.2c-0.4,0.5-0.2,1-0.2,1.5c0,1.7,1.7,2.9,3.4,2.9c0.2,0,0.4-0.2,0.7-0.2c-2.5,3.8-5.7,7.6-9,10.7
				c0.6-0.6,1.5-1.5,1.5-2.4c0-1.8-1.4-3.2-3.2-3.2c-0.9,0-1.4,0-2,0.6c0.4-0.5,0.7-1.2,0.7-2c0-1.7-1.4-3.1-3.1-3.1
				c-0.8,0-1.4,0.3-2,0.7c0.3-0.5,0.5-1.1,0.5-1.8c0-1.6-0.6-3.1-3.4-3.1c-1.6,0-2.8,1.5-2.8,3.1c0,0.7,0.2,1.3,0.5,1.8
				c-0.5-0.4-1.2-0.7-2-0.7c-1.7,0-3.1,1.4-3.1,3.1c0,0.8,0.3,1.5,0.7,2c-0.6-0.5-1.4-0.9-2.2-0.9c-1.8,0-3.2,1.4-3.2,3.2
				c0,0.9,0.5,2.1,1.1,2.7c-3.3-3.1-6.2-6.6-8.7-10.4c0.2,0,0.6,0.1,0.9,0.1c1.7,0,3.1-1.4,3.1-3.1c0-0.6-0.2-1.1-0.4-1.6
				c0.4,0.2,0.9,0.4,1.5,0.4c1.7,0,3.1-1.4,3.1-3.1c0-0.5-0.1-1-0.4-1.4c0.4,0.2,0.9,0.3,1.3,0.3c1.7,0,3.1-1.4,3.1-3.1
				c0-1.7-1.4-3.1-3.1-3.1c-0.5,0-1,0.1-1.4,0.3c0.2-0.4,0.3-0.9,0.3-1.4c0-1.7-1.4-3.1-3.1-3.1c-0.6,0-1.2,0.2-1.7,0.5
				c0.3-0.5,0.4-1,0.4-1.5c0-1.7-1.4-3.1-3.1-3.1c-0.6,0-1.2,0.2-1.6,0.5c0.3-0.5,0.4-1,0.4-1.6c0-1.7-1.4-3.1-3.1-3.1
				c-0.5,0-1,0.2-1.5,0.4C6.1,25,6.2,24.6,6.2,24c0-1.7-1.4-3.6-3.1-3.6c-0.5,0-1-0.2-1.4,0c0-0.8,0,0.6,0-0.4h17.9
				c-0.4,0.9-0.8,1.3-0.8,2c0,1.7,1.4,3.1,3.1,3.1c0.6,0,1.2-0.2,1.7-0.5c-0.3,0.5-0.5,1-0.5,1.7c0,1.7,1.4,3.1,3.1,3.1
				c0.7,0,1.3-0.2,1.8-0.6c-0.3,0.5-0.5,1.1-0.5,1.7c0,1.7,1.4,3.1,3.1,3.1c1.7,0,3.1-1.4,3.1-3.1c0-0.6-0.2-1.2-0.5-1.7
				c0.5,0.3,1,0.4,1.6,0.4c1.7,0,3.1-1.4,3.1-3.1c0-0.5-0.1-0.9-0.3-1.3c0.5,0.3,0.8,0.3,1.5,0.3c1.7,0,3-1.4,3-3.1
				c0-0.8-0.4-1.1-0.8-2H59.9L59.9,20z"/>
		</g>
		<g>
			<path class="st0" d="M28.8,38.7c0.2-0.3,0.3-0.5,0.4-0.9c0.1-0.4,0.1-0.5-0.3-0.5c-0.4,0-0.4,0-0.6,0c-0.2,0-0.3,0.2-0.2,0.5
				c0.1,0.3,0.2,0.5,0.3,0.8C28.5,38.8,28.6,38.9,28.8,38.7"/>
		</g>
		<g>
			<path class="st0" d="M32.5,38.7c-0.1-0.3-0.3-0.5-0.4-0.9c-0.1-0.4-0.1-0.5,0.3-0.5c0.3,0,0.3,0,0.6,0c0.2,0,0.3,0.2,0.2,0.5
				c-0.1,0.3-0.2,0.5-0.3,0.8C32.7,38.8,32.7,38.9,32.5,38.7"/>
		</g>
		<g>
			<path class="st0" d="M30.7,44.6c0.3,0,0.5,0,0.7-0.1c0.2-0.1,0.4-0.1,0.1-0.7c-0.2-0.6-0.4-1.2-0.4-1.7c0-0.5,0-0.6,0-0.7
				c0-0.4,0.3-0.4,0.4,0c0,0.4,0.3,1.5,0.6,2.1c0.3,0.6,0.8,0.3,0.9,0.2c0.1-0.1,0.5-0.4,0.6-0.6c0.1-0.2,0.2-0.4-0.1-0.7
				c-0.4-0.4-0.9-1.1-1.1-1.6c-0.2-0.5,0-0.7,0.3-0.2c0.3,0.5,0.8,1,1.2,1.3c0.2,0.2,0.3,0.2,0.5,0c0.2-0.2,0.5-0.7,0.4-1.3
				c-0.1-0.5-0.3-0.6-0.6-0.6c-0.3,0-0.9,0-1.4-0.4c-0.6-0.5-0.9-1.1-1.2-2.5c-0.1-0.7-0.5-0.9-0.8-0.9c-0.4,0-0.7,0.2-0.8,0.9
				c-0.3,1.4-0.8,2.1-1.4,2.6c-0.4,0.4-1,0.4-1.2,0.4c-0.2,0-0.4,0-0.5,0.5c-0.1,0.5,0.2,1,0.4,1.3c0.2,0.2,0.3,0.2,0.5,0
				c0.4-0.3,0.8-0.8,1.2-1.3c0.4-0.5,0.6-0.3,0.3,0.2c-0.2,0.5-0.8,1.2-1.1,1.6c-0.3,0.3-0.2,0.4-0.1,0.7c0.1,0.2,0.5,0.5,0.6,0.6
				c0.1,0.1,0.6,0.4,0.9-0.2c0.3-0.6,0.5-1.7,0.6-2.1c0-0.4,0.3-0.4,0.4,0c0,0.2,0,0.3,0,0.7c0,0.5-0.1,1.1-0.4,1.7
				c-0.2,0.6,0,0.6,0.1,0.7C30.2,44.6,30.4,44.6,30.7,44.6L30.7,44.6z"/>
		</g>
		<g>
			<path class="st0" d="M16.8,27.2c0.2-0.3,0.3-0.6,0.4-0.9c0.1-0.4,0.1-0.5-0.3-0.5c-0.4,0-0.4,0-0.6,0c-0.2,0-0.3,0.2-0.2,0.5
				c0.1,0.3,0.2,0.5,0.3,0.8C16.5,27.4,16.5,27.5,16.8,27.2"/>
		</g>
		<g>
			<path class="st0" d="M20.4,27.2c-0.1-0.3-0.3-0.6-0.4-0.9c-0.1-0.4-0.1-0.5,0.3-0.5c0.3,0,0.3,0,0.6,0c0.2,0,0.3,0.2,0.2,0.5
				c-0.1,0.3-0.2,0.5-0.3,0.8C20.7,27.4,20.6,27.5,20.4,27.2"/>
		</g>
		<g>
			<path class="st0" d="M18.7,33.2c0.3,0,0.5,0,0.7-0.1c0.2-0.1,0.4-0.1,0.1-0.7c-0.2-0.6-0.4-1.2-0.4-1.7c0-0.5,0-0.6,0-0.7
				c0-0.4,0.3-0.4,0.4,0c0,0.5,0.3,1.5,0.6,2.1c0.3,0.6,0.8,0.3,0.9,0.2c0.1-0.1,0.5-0.4,0.6-0.6c0.1-0.2,0.2-0.4-0.1-0.7
				c-0.4-0.4-0.9-1.1-1.1-1.6c-0.2-0.5,0-0.7,0.3-0.2c0.3,0.5,0.8,1,1.2,1.3c0.2,0.2,0.3,0.2,0.5,0c0.2-0.2,0.5-0.7,0.4-1.3
				c-0.1-0.5-0.3-0.6-0.6-0.6c-0.3,0-0.9,0-1.4-0.4c-0.6-0.5-0.9-1.1-1.2-2.5c-0.1-0.7-0.5-0.9-0.8-0.9c-0.4,0-0.7,0.2-0.8,0.9
				c-0.3,1.4-0.8,2.1-1.4,2.6c-0.4,0.4-1,0.4-1.2,0.4c-0.2,0-0.4,0-0.5,0.5c-0.1,0.5,0.2,1,0.4,1.3c0.2,0.2,0.3,0.2,0.5,0
				c0.4-0.3,0.8-0.8,1.2-1.3c0.4-0.5,0.6-0.3,0.3,0.2c-0.2,0.5-0.8,1.2-1.1,1.6c-0.3,0.3-0.2,0.4-0.1,0.7c0.1,0.2,0.5,0.5,0.6,0.6
				c0.1,0.1,0.6,0.4,0.9-0.2c0.3-0.6,0.5-1.7,0.6-2.1c0-0.4,0.3-0.4,0.4,0c0,0.2,0,0.3,0,0.7c0,0.5-0.1,1.1-0.4,1.7
				c-0.2,0.6,0,0.6,0.1,0.7C18.2,33.1,18.3,33.2,18.7,33.2L18.7,33.2z"/>
		</g>
		<g>
			<path class="st0" d="M40.7,27c0.2-0.3,0.3-0.6,0.4-0.9c0.1-0.4,0.1-0.5-0.3-0.5c-0.4,0-0.4,0-0.6,0c-0.2,0-0.3,0.2-0.2,0.5
				c0.1,0.3,0.2,0.5,0.3,0.8C40.5,27.2,40.5,27.3,40.7,27"/>
		</g>
		<g>
			<path class="st0" d="M44.4,27c-0.1-0.3-0.3-0.6-0.4-0.9c-0.1-0.4-0.1-0.5,0.3-0.5c0.3,0,0.3,0,0.6,0c0.2,0,0.3,0.2,0.2,0.5
				c-0.1,0.3-0.2,0.5-0.3,0.8C44.7,27.2,44.6,27.3,44.4,27"/>
		</g>
		<g>
			<path class="st0" d="M42.6,33c0.3,0,0.5,0,0.7-0.1c0.2-0.1,0.4-0.1,0.1-0.7c-0.2-0.6-0.4-1.2-0.4-1.7c0-0.5,0-0.6,0-0.7
				c0-0.4,0.3-0.4,0.4,0c0,0.4,0.3,1.5,0.6,2.1c0.3,0.6,0.8,0.3,0.9,0.2c0.1-0.1,0.5-0.4,0.6-0.6c0.1-0.2,0.2-0.4-0.1-0.7
				c-0.4-0.4-0.9-1.1-1.1-1.6c-0.2-0.5,0-0.7,0.3-0.2c0.3,0.5,0.8,1,1.2,1.3c0.2,0.2,0.3,0.2,0.5,0c0.2-0.2,0.5-0.7,0.4-1.3
				c-0.1-0.5-0.3-0.6-0.6-0.6c-0.3,0-0.9,0-1.4-0.4c-0.6-0.5-0.9-1.1-1.2-2.5c-0.1-0.7-0.5-0.9-0.8-0.9c-0.4,0-0.7,0.2-0.8,0.9
				c-0.3,1.4-0.8,2.1-1.4,2.6c-0.4,0.4-1,0.4-1.2,0.4c-0.2,0-0.4,0-0.5,0.5c-0.1,0.5,0.2,1,0.4,1.3c0.2,0.2,0.3,0.2,0.5,0
				c0.4-0.3,0.8-0.8,1.2-1.3c0.4-0.5,0.6-0.3,0.3,0.2c-0.2,0.5-0.8,1.2-1.1,1.6c-0.3,0.3-0.2,0.5-0.1,0.7c0.1,0.2,0.5,0.5,0.6,0.6
				c0.1,0.1,0.6,0.4,0.9-0.2c0.3-0.6,0.5-1.7,0.6-2.1c0-0.4,0.3-0.4,0.4,0c0,0.2,0,0.3,0,0.7c0,0.5-0.1,1.1-0.4,1.7
				c-0.2,0.6,0,0.6,0.1,0.7C42.2,32.9,42.3,33,42.6,33L42.6,33z"/>
		</g>
		<g>
			<path class="st0" d="M17.2,50.8c0.2-0.3,0.3-0.6,0.4-0.9c0.1-0.4,0.1-0.5-0.3-0.5c-0.4,0-0.4,0-0.6,0s-0.3,0.2-0.2,0.5
				c0.1,0.3,0.2,0.5,0.3,0.8C16.9,50.9,16.9,51.1,17.2,50.8"/>
		</g>
		<g>
			<path class="st0" d="M20.8,50.8c-0.1-0.3-0.3-0.6-0.4-0.9c-0.1-0.4-0.1-0.5,0.3-0.5c0.3,0,0.3,0,0.6,0c0.2,0,0.3,0.2,0.2,0.5
				c-0.1,0.3-0.2,0.5-0.3,0.8C21.1,50.9,21,51.1,20.8,50.8"/>
		</g>
		<g>
			<path class="st0" d="M19.1,56.8c0.3,0,0.5,0,0.7-0.1c0.2-0.1,0.4-0.1,0.1-0.7c-0.2-0.6-0.4-1.2-0.4-1.7c0-0.5,0-0.6,0-0.7
				c0-0.4,0.3-0.4,0.4,0c0,0.4,0.3,1.5,0.6,2.1c0.3,0.6,0.8,0.3,0.9,0.2c0.1-0.1,0.5-0.4,0.6-0.6c0.1-0.2,0.2-0.4-0.1-0.7
				c-0.4-0.4-0.9-1.1-1.1-1.6c-0.2-0.5,0-0.7,0.3-0.2c0.3,0.5,0.8,1,1.2,1.3c0.2,0.2,0.3,0.2,0.5,0c0.2-0.2,0.5-0.7,0.4-1.3
				c-0.1-0.5-0.3-0.6-0.6-0.6c-0.3,0-0.9,0-1.4-0.4c-0.6-0.5-0.9-1.1-1.2-2.5c-0.1-0.7-0.5-0.9-0.8-0.9c-0.4,0-0.7,0.2-0.8,0.9
				c-0.3,1.4-0.8,2.1-1.4,2.6c-0.4,0.4-1,0.4-1.2,0.4c-0.2,0-0.4,0-0.5,0.5c-0.1,0.5,0.2,1,0.4,1.3c0.2,0.2,0.3,0.2,0.5,0
				c0.4-0.3,0.8-0.8,1.2-1.3c0.4-0.5,0.6-0.3,0.3,0.2c-0.2,0.5-0.8,1.2-1.1,1.6c-0.3,0.3-0.2,0.5-0.1,0.7c0.1,0.2,0.5,0.5,0.6,0.6
				c0.1,0.1,0.6,0.4,0.9-0.2c0.3-0.6,0.5-1.7,0.6-2.1c0-0.4,0.3-0.4,0.4,0c0,0.2,0,0.3,0,0.7c0,0.5-0.1,1.1-0.4,1.7
				c-0.2,0.6,0,0.6,0.1,0.7C18.6,56.7,18.7,56.8,19.1,56.8L19.1,56.8z"/>
		</g>
		<g>
			<path class="st0" d="M40.5,50.6c0.2-0.3,0.3-0.5,0.4-0.9c0.1-0.4,0.1-0.5-0.3-0.5c-0.4,0-0.4,0-0.6,0c-0.2,0-0.3,0.2-0.2,0.5
				c0.1,0.3,0.2,0.5,0.3,0.8C40.3,50.8,40.3,50.9,40.5,50.6"/>
		</g>
		<g>
			<path class="st0" d="M44.2,50.6c-0.1-0.3-0.3-0.5-0.4-0.9c-0.1-0.4-0.1-0.5,0.3-0.5c0.3,0,0.3,0,0.6,0c0.2,0,0.3,0.2,0.2,0.5
				c-0.1,0.3-0.2,0.5-0.3,0.8C44.5,50.8,44.4,50.9,44.2,50.6"/>
		</g>
		<g>
			<path class="st0" d="M42.5,56.6c0.3,0,0.5,0,0.7-0.1c0.2-0.1,0.4-0.1,0.1-0.7c-0.2-0.6-0.4-1.2-0.4-1.7c0-0.5,0-0.6,0-0.7
				c0-0.4,0.3-0.4,0.4,0c0,0.5,0.3,1.5,0.6,2.1c0.3,0.6,0.8,0.3,0.9,0.2c0.1-0.1,0.5-0.4,0.6-0.6c0.1-0.2,0.2-0.4-0.1-0.7
				c-0.4-0.4-0.9-1.1-1.1-1.6c-0.2-0.5,0-0.7,0.3-0.2c0.3,0.5,0.8,1,1.2,1.3c0.2,0.2,0.3,0.2,0.5,0c0.2-0.2,0.5-0.7,0.4-1.3
				c-0.1-0.5-0.3-0.6-0.6-0.6c-0.3,0-0.9,0-1.4-0.4c-0.6-0.5-0.9-1.1-1.2-2.5c-0.1-0.7-0.5-0.9-0.8-0.9c-0.4,0-0.7,0.2-0.8,0.9
				c-0.3,1.4-0.8,2.1-1.4,2.6c-0.4,0.4-1,0.4-1.2,0.4c-0.2,0-0.4,0-0.5,0.5c-0.1,0.5,0.2,1,0.4,1.3c0.2,0.2,0.3,0.2,0.5,0
				c0.4-0.3,0.8-0.8,1.2-1.3c0.4-0.5,0.6-0.3,0.3,0.2c-0.2,0.5-0.8,1.2-1.1,1.6c-0.3,0.3-0.2,0.4-0.1,0.7c0.1,0.2,0.5,0.5,0.6,0.6
				c0.1,0.1,0.6,0.4,0.9-0.2c0.3-0.6,0.5-1.7,0.6-2.1c0-0.4,0.3-0.4,0.4,0c0,0.2,0,0.3,0,0.7c0,0.5-0.1,1.1-0.4,1.7
				c-0.2,0.6,0,0.6,0.1,0.7C42,56.5,42.1,56.6,42.5,56.6L42.5,56.6z"/>
		</g>
		<g>
			<polygon points="1.6,2.1 59.9,2.1 59.9,20.3 1.6,20.3 1.6,2.1 			"/>
			<path d="M60.9,21.4H0.5V1.1h60.4V21.4z M2.7,19.2h56.1v-16H2.7V19.2z"/>
		</g>
		<g>
			<path class="st0" d="M12.6,7.5c0-1.1,0.9-1.9,1.9-1.9h4.8v1.9h0.8c0.3,0,0.6,0.3,0.6,0.6c0,0.3-0.3,0.6-0.6,0.6h-0.8V13h0.8
				c0.3,0,0.6,0.3,0.6,0.6c0,0.3-0.3,0.6-0.6,0.6h-0.8v2h-5.8c-0.2,0.3-0.5,0.6-0.9,0.6c-0.4,0-0.8-0.2-0.9-0.6H5.9v-2H5.1
				c-0.3,0-0.6-0.3-0.6-0.6c0-0.3,0.3-0.6,0.6-0.6h0.8V8.7H5.1C4.7,8.7,4.5,8.4,4.5,8c0-0.3,0.3-0.6,0.6-0.6h0.8V5.5h4.8
				C11.8,5.5,12.6,6.4,12.6,7.5L12.6,7.5z"/>
			<path d="M12.6,17c-0.4,0-0.8-0.2-1-0.6H5.7v-2H5.1c-0.4,0-0.8-0.3-0.8-0.8s0.3-0.8,0.8-0.8h0.6v-4H5.1C4.7,8.8,4.3,8.5,4.3,8
				c0-0.4,0.3-0.8,0.8-0.8h0.6V5.4h5c0.9,0,1.6,0.5,1.9,1.3c0.3-0.8,1.1-1.3,1.9-1.3h5v1.9h0.6c0.4,0,0.8,0.3,0.8,0.8
				c0,0.4-0.3,0.8-0.8,0.8h-0.6v4h0.6c0.4,0,0.8,0.3,0.8,0.8s-0.3,0.8-0.8,0.8h-0.6v2h-5.9C13.4,16.8,13,17,12.6,17z M6,16.1h5.8
				l0,0.1c0.1,0.3,0.5,0.5,0.8,0.5c0.3,0,0.6-0.2,0.8-0.5l0-0.1h5.8v-2h0.9c0.3,0,0.5-0.2,0.5-0.5s-0.2-0.5-0.5-0.5h-0.9V8.5h0.9
				c0.3,0,0.5-0.2,0.5-0.5c0-0.3-0.2-0.5-0.5-0.5h-0.9V5.7h-4.7c-1,0-1.8,0.8-1.8,1.8h-0.3c0-1-0.8-1.8-1.8-1.8H6v1.9H5.1
				C4.8,7.6,4.6,7.8,4.6,8c0,0.3,0.2,0.5,0.5,0.5H6v4.6H5.1c-0.3,0-0.5,0.2-0.5,0.5s0.2,0.5,0.5,0.5H6V16.1z"/>
		</g>
		<g>
			<rect x="12.5" y="7.5" width="0.3" height="7.3"/>
		</g>
		<g>
			<path d="M14.7,9.7c0,0.2,0.1,0.2,0.3,0.2c0.2,0,0.2,0,0.3-0.1c0.1-0.1,0.4-0.5,0.4,0v0.7c0,0.5-0.4,0.2-0.4,0
				c-0.1-0.2-0.1-0.2-0.3-0.2c-0.2,0-0.3,0-0.3,0.2c0,0.7,0,1.3,0,1.6c0,0.1,0.1,0.2,0.2,0.2h0.4c0.6,0,0.7-0.3,0.8-0.7
				c0.1-0.6,0.4-0.5,0.4,0c0,0.3,0,0.6,0,0.9c0,0.3-0.3,0.2-0.4,0.1l-1.8,0c-0.2,0-0.2,0-0.4,0c-0.2,0-0.2-0.1-0.1-0.2
				c0.1-0.1,0.1-0.1,0.1-0.5V8.5c0-0.4,0-0.4-0.1-0.5c-0.1-0.1-0.1-0.2,0.1-0.2c0.2,0,0.2,0,0.4,0h1.7c0.1,0,0.4-0.1,0.4,0.1
				c0,0.3,0,0.6,0,0.9c0,0.3-0.3,0.4-0.4,0c-0.1-0.4-0.1-0.8-0.7-0.8h-0.4c-0.2,0-0.2,0.1-0.2,0.2C14.7,8.9,14.7,9.4,14.7,9.7
				L14.7,9.7z"/>
		</g>
		<g>
			<rect x="6.7" y="14.8" transform="matrix(0.7474 -0.6644 0.6644 0.7474 -8.0627 8.7435)" width="1.5" height="0.3"/>
		</g>
		<g>
			<path d="M13.7,16.4l-0.3-0.1c0.1-0.1,0.1-0.2,0.1-0.4c0-0.5-0.4-0.9-0.9-0.9c-0.5,0-0.9,0.4-0.9,0.9c0,0.1,0,0.3,0.1,0.4
				l-0.3,0.1c-0.1-0.2-0.1-0.3-0.1-0.5c0-0.6,0.5-1.2,1.2-1.2c0.6,0,1.2,0.5,1.2,1.2C13.8,16,13.8,16.2,13.7,16.4z"/>
		</g>
		<g>
			<path d="M11.7,15.6H6.8V6.4l0.9-0.9h0.5v8.9h3.4c0.5,0,0.9,0.2,1,0.4l-0.3,0.1c-0.1-0.1-0.3-0.3-0.8-0.3H7.9V5.8H7.8L7.1,6.5v8.8
				h4.6V15.6z"/>
		</g>
		<g>
			<path d="M18.5,15.6h-4.9v-0.3h4.6V6.5l-0.7-0.7h-0.1v8.9h-3.7c-0.5,0-0.7,0.1-0.8,0.3l-0.3-0.1c0.1-0.3,0.5-0.4,1-0.4h3.4V5.5
				h0.5l0.9,0.9V15.6z"/>
		</g>
		<g>
			<rect x="17.6" y="14.2" transform="matrix(0.665 -0.7469 0.7469 0.665 -5.2273 18.2965)" width="0.3" height="1.5"/>
		</g>
		<g>
			<path d="M10.5,12.2c-0.1,0.3-0.2,0.5-0.4,0.5c-0.2,0-0.3-0.2-0.3-0.5L9,8.5C8.9,8.2,8.8,8.2,8.7,8.1C8.6,8,8.6,7.8,8.8,7.8
				c0.2,0,0.3,0,0.4,0c0.2,0,0.2,0,0.4,0c0.2,0,0.2,0.1,0.1,0.2C9.7,8.2,9.6,8.2,9.7,8.5l0.5,2.3c0.1,0.4,0.3,0.3,0.3,0l0.7-2.3
				c0.1-0.4-0.1-0.4-0.1-0.5c-0.1-0.1,0-0.2,0.1-0.2c0.1,0,0.2,0,0.3,0c0.1,0,0.2,0,0.3,0c0.1,0,0.1,0.2,0,0.3
				c-0.1,0.1-0.1,0.1-0.3,0.4L10.5,12.2L10.5,12.2z"/>
		</g>
		<g>
			<path class="st0" d="M30.3,16.9c0.4,0,0.8-0.2,0.9-0.6h5.2v-2h0.8c0.3,0,0.6-0.3,0.6-0.6c0-0.3-0.3-0.6-0.6-0.6h-0.8V8.7h0.8
				c0.3,0,0.6-0.3,0.6-0.6c0-0.3-0.3-0.6-0.6-0.6h-0.8V5.5h-4.2c-1.1,0-1.9,0.9-1.9,1.9c0-1.1-0.9-1.9-1.9-1.9h-4.8v1.9h-0.8
				c-0.3,0-0.6,0.3-0.6,0.6c0,0.3,0.3,0.6,0.6,0.6h0.8V13h-0.8c-0.3,0-0.6,0.3-0.6,0.6c0,0.3,0.3,0.6,0.6,0.6h0.8v2h5.8
				C29.5,16.6,29.9,16.9,30.3,16.9L30.3,16.9z"/>
			<path d="M30.3,17c-0.4,0-0.8-0.2-1-0.6h-5.9v-2h-0.6c-0.4,0-0.8-0.3-0.8-0.8s0.3-0.8,0.8-0.8h0.6v-4h-0.6C22.3,8.8,22,8.5,22,8
				c0-0.4,0.3-0.8,0.8-0.8h0.6V5.4h5c0.9,0,1.6,0.5,1.9,1.3c0.3-0.8,1.1-1.3,1.9-1.3h4.3v1.9h0.6C37.6,7.3,38,7.6,38,8
				c0,0.4-0.3,0.8-0.8,0.8h-0.6v4h0.6c0.4,0,0.8,0.3,0.8,0.8s-0.3,0.8-0.8,0.8h-0.6v2h-5.3C31.1,16.8,30.7,17,30.3,17z M23.7,16.1
				h5.8l0,0.1c0.1,0.3,0.5,0.5,0.8,0.5c0.3,0,0.6-0.2,0.8-0.5l0-0.1h5.2v-2h0.9c0.3,0,0.5-0.2,0.5-0.5s-0.2-0.5-0.5-0.5h-0.9V8.5
				h0.9c0.3,0,0.5-0.2,0.5-0.5c0-0.3-0.2-0.5-0.5-0.5h-0.9V5.7h-4c-1,0-1.8,0.8-1.8,1.8h-0.3c0-1-0.8-1.8-1.8-1.8h-4.7v1.9h-0.9
				c-0.3,0-0.5,0.2-0.5,0.5c0,0.3,0.2,0.5,0.5,0.5h0.9v4.6h-0.9c-0.3,0-0.5,0.2-0.5,0.5s0.2,0.5,0.5,0.5h0.9V16.1z"/>
		</g>
		<g>
			<path d="M29.2,16.4c-0.1-0.2-0.1-0.3-0.1-0.5c0-0.6,0.5-1.2,1.2-1.2c0.6,0,1.2,0.5,1.2,1.2c0,0.2,0,0.3-0.1,0.5l-0.3-0.1
				c0.1-0.1,0.1-0.2,0.1-0.4c0-0.5-0.4-0.9-0.9-0.9c-0.5,0-0.9,0.4-0.9,0.9c0,0.1,0,0.3,0.1,0.4L29.2,16.4z"/>
		</g>
		<g>
			<path d="M29.3,15.6h-4.9V6.4l0.9-0.9h0.5v8.9h3.4c0.5,0,0.9,0.2,1,0.4L30,14.9c-0.1-0.1-0.3-0.3-0.8-0.3h-3.7V5.8h-0.1l-0.7,0.7
				v8.8h4.6V15.6z"/>
		</g>
		<g>
			<rect x="24.4" y="14.8" transform="matrix(0.7474 -0.6644 0.6644 0.7474 -3.6059 20.4657)" width="1.5" height="0.3"/>
		</g>
		<g>
			<rect x="30.1" y="7.5" width="0.3" height="7.3"/>
		</g>
		<g>
			<path d="M35.5,15.6h-4.3v-0.3h4V6.5l-0.7-0.7h-0.1v8.9h-3.1c-0.5,0-0.7,0.1-0.8,0.3l-0.3-0.1c0.1-0.3,0.5-0.4,1-0.4h2.8V5.5h0.5
				l0.9,0.9V15.6z"/>
		</g>
		<g>
			<rect x="34.7" y="14.2" transform="matrix(0.665 -0.7469 0.7469 0.665 0.4761 31.0114)" width="0.3" height="1.5"/>
		</g>
		<g>
			<path d="M27,12.6c-0.2,0-0.3,0-0.5,0c-0.2,0-0.2-0.1-0.1-0.2c0.1-0.1,0.2-0.1,0.2-0.5c0-0.4,0-3.3,0-3.5c0-0.2,0-0.2-0.1-0.3
				c-0.1-0.1,0-0.2,0.2-0.2c0.2,0,0.7,0,1,0c1.2,0,1.6,0.4,1.6,1.1c0,0.5-0.3,0.9-0.7,1.1c-0.1,0-0.1,0.1-0.1,0.2
				c0,0.1,0,0.1,0.1,0.2c0.1,0.1,0.8,1.6,0.9,1.7c0.1,0.1,0.2,0.2,0.2,0.2c0,0,0,0.2-0.2,0.2c-0.1,0-0.7,0-0.7,0s0,0-0.1-0.1
				c-0.1-0.1-1-2-1.1-2.2l-0.3,0l0,1.6c0,0.4,0.1,0.4,0.2,0.5c0.1,0.1,0.1,0.3-0.1,0.3C27.4,12.6,27.2,12.6,27,12.6L27,12.6z
				 M27.4,9l0,0.7c0,0.1,0.1,0.2,0.3,0.2c0.3,0,0.8-0.1,0.8-0.9c0-0.8-0.4-0.9-0.6-0.9c-0.2,0-0.5,0-0.5,0.4V9L27.4,9z"/>
		</g>
		<g>
			<path d="M32.9,11.9c0,0.4,0,0.4,0.1,0.5c0.1,0.1,0.1,0.2-0.1,0.2c-0.2,0-0.2,0-0.4,0c-0.2,0-0.2,0-0.4,0c-0.2,0-0.2-0.1-0.1-0.2
				c0.1-0.1,0.1-0.1,0.1-0.5V8.6c0-0.4,0-0.4-0.1-0.5c-0.1-0.1-0.1-0.2,0.1-0.2c0.2,0,0.2,0,0.4,0c0.2,0,0.2,0,0.4,0
				c0.2,0,0.2,0.1,0.1,0.2c-0.1,0.1-0.1,0.1-0.1,0.5V11.9L32.9,11.9z"/>
		</g>
		<g>
			<path class="st0" d="M48,7c0.2-0.8,1-1.4,1.9-1.4h5.7v1.9h0.8c0.3,0,0.6,0.3,0.6,0.6c0,0.3-0.3,0.6-0.6,0.6h-0.8V13h0.8
				c0.3,0,0.6,0.3,0.6,0.6c0,0.3-0.3,0.6-0.6,0.6h-0.8v2h-6.7c-0.2,0.3-0.5,0.6-0.9,0.6c-0.4,0-0.8-0.2-0.9-0.6h-6.4v-2h-0.8
				c-0.3,0-0.6-0.3-0.6-0.6c0-0.3,0.3-0.6,0.6-0.6h0.8V8.7h-0.8c-0.3,0-0.6-0.3-0.6-0.6c0-0.3,0.3-0.6,0.6-0.6h0.8V5.5H46
				c0.9,0,1.7,0.6,1.9,1.4H48L48,7z"/>
			<path d="M47.9,17c-0.4,0-0.8-0.2-1-0.6h-6.5v-2h-0.6c-0.4,0-0.8-0.3-0.8-0.8s0.3-0.8,0.8-0.8h0.6v-4h-0.6C39.4,8.8,39,8.5,39,8
				c0-0.4,0.3-0.8,0.8-0.8h0.6V5.4H46c0.9,0,1.6,0.5,1.9,1.3c0.3-0.8,1.1-1.3,1.9-1.3h5.8v1.9h0.6c0.4,0,0.8,0.3,0.8,0.8
				c0,0.4-0.3,0.8-0.8,0.8h-0.6v4h0.6c0.4,0,0.8,0.3,0.8,0.8s-0.3,0.8-0.8,0.8h-0.6v2h-6.7C48.7,16.8,48.3,17,47.9,17z M40.7,16.1
				h6.3l0,0.1c0.1,0.3,0.5,0.5,0.8,0.5c0.3,0,0.6-0.2,0.8-0.5l0-0.1h6.6v-2h0.9c0.3,0,0.5-0.2,0.5-0.5s-0.2-0.5-0.5-0.5h-0.9V8.5
				h0.9c0.3,0,0.5-0.2,0.5-0.5c0-0.3-0.2-0.5-0.5-0.5h-0.9V5.7h-5.5c-0.8,0-1.5,0.5-1.7,1.3l0,0.1h-0.4l0-0.1
				c-0.2-0.8-0.9-1.3-1.7-1.3h-5.2v1.9h-0.9c-0.3,0-0.5,0.2-0.5,0.5c0,0.3,0.2,0.5,0.5,0.5h0.9v4.6h-0.9c-0.3,0-0.5,0.2-0.5,0.5
				s0.2,0.5,0.5,0.5h0.9V16.1z"/>
		</g>
		<g>
			<polygon points="41.7,15.6 41.5,15.3 42.6,14.4 42.8,14.6 			"/>
		</g>
		<g>
			<path d="M49,16.4l-0.3-0.1c0.1-0.1,0.1-0.2,0.1-0.4c0-0.5-0.4-0.9-0.9-0.9c-0.5,0-0.9,0.4-0.9,0.9c0,0.1,0,0.3,0.1,0.4l-0.3,0.1
				c-0.1-0.2-0.1-0.3-0.1-0.5c0-0.6,0.5-1.2,1.2-1.2c0.6,0,1.2,0.5,1.2,1.2C49.1,16,49,16.2,49,16.4z"/>
		</g>
		<g>
			<path d="M46.9,15.6h-5.5V6.4l0.9-0.9h0.5v8.9h4c0.5,0,0.9,0.2,1,0.4l-0.3,0.1c-0.1-0.1-0.3-0.3-0.8-0.3h-4.3V5.8h-0.1l-0.7,0.7
				v8.8h5.2V15.6z"/>
		</g>
		<g>
			<path d="M54.6,15.6h-5.8v-0.3h5.5V6.5l-0.7-0.7h-0.1v8.9H49c-0.5,0-0.7,0.1-0.8,0.3l-0.3-0.1c0.1-0.3,0.5-0.4,1-0.4h4.3V5.5h0.5
				l0.9,0.9V15.6z"/>
		</g>
		<g>
			<rect x="53.8" y="14.2" transform="matrix(0.6639 -0.7478 0.7478 0.6639 6.9234 45.3549)" width="0.3" height="1.5"/>
		</g>
		<g>
			<path d="M48.4,11.2l0.2,0.6c0.1,0.4,0,0.4-0.1,0.5c-0.1,0.1,0,0.2,0.1,0.2c0.2,0,0.3,0,0.5,0c0.2,0,0.2,0,0.4,0
				c0.2,0,0.1-0.2,0.1-0.3c-0.1-0.1-0.1-0.2-0.2-0.4l-1-3.6c-0.1-0.3-0.2-0.5-0.3-0.5c-0.2,0.1-0.5,0.1-0.5,0.3l0,0.4l-1,3.5
				c-0.1,0.4-0.2,0.4-0.3,0.4c-0.1,0.1-0.1,0.3,0,0.3c0.1,0,0.2,0,0.3,0c0.1,0,0.2,0,0.3,0c0.1,0,0.2-0.1,0.1-0.2
				c-0.1-0.1-0.2-0.1-0.1-0.5l0.2-0.7c0.1-0.1,0.4-0.1,0.6-0.1C47.9,11.1,48.3,11,48.4,11.2L48.4,11.2z M47.6,9.5
				c0.2-0.6,0.3-0.6,0.4,0l0.2,1c0.1,0.2,0.1,0.3-0.4,0.3c-0.6,0-0.6,0-0.5-0.3L47.6,9.5L47.6,9.5z"/>
		</g>
		<g>
			<path d="M44.9,7.9c0.2,0,0.5,0,0.9,0c0.6,0,0.6,0,0.6,0.2c0,0.1,0,0.6,0,0.7s0,0.3-0.1,0.3c-0.1,0-0.2-0.1-0.2-0.3
				c-0.2-0.6-0.4-0.7-0.6-0.7c-0.2,0-0.2,0.1-0.2,0.4v3.3c0,0.4,0,0.4,0.2,0.5c0.1,0.1,0.1,0.3-0.1,0.2c-0.2,0-0.3,0-0.4,0
				c-0.2,0-0.3,0-0.4,0c-0.2,0-0.2-0.2-0.1-0.2c0.1-0.1,0.2-0.1,0.2-0.5V8.5c0-0.3,0-0.4-0.2-0.4c-0.1,0-0.4,0.1-0.6,0.7
				c-0.1,0.2-0.1,0.3-0.2,0.3c-0.1,0-0.1-0.2-0.1-0.3s0-0.6,0-0.7c0-0.2,0-0.2,0.6-0.2C44.4,7.9,44.6,7.9,44.9,7.9L44.9,7.9z"/>
		</g>
		<g>
			<path d="M50,11.4c0-0.4,0.3-0.4,0.4,0.1c0.1,0.4,0.3,0.9,0.9,0.9c0.5,0,0.7-0.6,0.7-0.9c0-0.5-0.2-0.7-1-1.2
				c-0.7-0.6-0.9-0.9-0.9-1.4c0-0.4,0.4-1.1,1.1-1.1c0.3,0,0.5,0,0.7,0.2c0,0,0.3,0,0.3,0c0.1-0.1,0.2,0,0.2,0.2c0,0.1,0,0.7,0,0.9
				c0,0.2-0.2,0.3-0.4,0c-0.1-0.4-0.2-1-0.8-1c-0.4,0-0.6,0.5-0.6,0.7c0,0.6,0.6,0.8,1.2,1.2c0.6,0.5,0.8,0.7,0.8,1.3
				c0,0.7-0.7,1.4-1.4,1.4c-0.3,0-0.6-0.2-0.8-0.2s-0.2,0.1-0.3,0.1c-0.1,0-0.2-0.1-0.2-0.2C50,12.2,50,11.7,50,11.4L50,11.4z"/>
		</g>
	</g>
	<g>
		<path d="M85.3,40.5c0,3.3-2.2,5.5-7.2,5.5h-9.3V25.7h9.1c4.3,0,6.6,2,6.6,5.3c0,2.4-1.4,4-3.6,4.6C83.7,36.2,85.3,38.1,85.3,40.5
			L85.3,40.5z M74.3,34.1h2.2c1.5,0,2.4-0.6,2.4-1.9c0-1.4-0.9-1.9-2.4-1.9h-2.2V34.1L74.3,34.1z M74.3,41.4h2.9
			c1.4,0,2.2-0.6,2.2-1.8c0-1.2-0.8-1.8-2.2-1.8h-2.9V41.4L74.3,41.4z"/>
		<path d="M96.3,43c-0.4,2.1-2.1,3.4-4.8,3.4c-2.9,0-4.9-1.8-4.9-5.6V30h5.6v9.6c0,1.6,0.4,2.6,1.7,2.6c1.5,0,2.3-1.3,2.3-3.9V30
			h5.6v16h-5L96.3,43L96.3,43z"/>
		<path d="M107.6,40.5c0.3,1.3,1.3,2,2.5,2c1,0,1.7-0.3,1.7-1c0-0.7-0.6-1-1.7-1.2l-2.1-0.4c-2.9-0.6-4.4-2.1-4.4-4.7
			c0-3.9,3.3-5.4,6.9-5.4c3.8,0,6.2,1.6,6.7,4.6L112,35c-0.2-0.9-0.7-1.4-1.8-1.4c-0.8,0-1.3,0.4-1.3,1c0,0.6,0.4,0.9,1.3,1.1
			l2.1,0.4c3.5,0.6,5,2.5,5,5.2c0,3.8-3.3,5.2-7.2,5.2c-3.6,0-6-1.3-6.9-4.1L107.6,40.5L107.6,40.5z"/>
		<path d="M121.7,23.1c1.7,0,3.1,1.1,3.1,2.9c0,1.8-1.4,2.9-3.1,2.9c-1.7,0-3.1-1.1-3.1-2.9C118.6,24.3,120,23.1,121.7,23.1
			L121.7,23.1z M124.5,30v16h-5.6V30H124.5L124.5,30z"/>
		<path d="M132.4,33.1c0.8-2.4,2.7-3.5,5.1-3.5c2.5,0,4.7,1.5,4.7,5.1V46h-5.6v-9.1c0-1.6-0.5-2.6-1.9-2.6c-1.2,0-2.2,0.7-2.2,3.2
			V46h-5.6V30h5L132.4,33.1L132.4,33.1z"/>
		<path d="M154.1,40.2l4.6,1.5c-0.9,3.4-3.7,4.7-6.9,4.7c-4.7,0-8.2-3-8.2-8.2c0-5.4,3-8.5,8.1-8.5c4.7,0,7.2,3,7.2,7.5
			c0,0.6,0,1.3-0.1,2h-9.7c0.1,2,1.1,3,2.7,3C153,42.2,153.8,41.7,154.1,40.2L154.1,40.2z M153.6,36.3c0-1.4-0.5-2.6-2-2.6
			c-1.3,0-2.2,1.1-2.4,2.6H153.6L153.6,36.3z"/>
		<path d="M164,40.5c0.3,1.3,1.3,2,2.5,2c1,0,1.7-0.3,1.7-1c0-0.7-0.6-1-1.7-1.2l-2.1-0.4c-2.9-0.6-4.4-2.1-4.4-4.7
			c0-3.9,3.3-5.4,6.9-5.4c3.8,0,6.2,1.6,6.7,4.6l-5.1,0.8c-0.2-0.9-0.7-1.4-1.8-1.4c-0.8,0-1.3,0.4-1.3,1c0,0.6,0.5,0.9,1.3,1.1
			l2.1,0.4c3.5,0.6,5,2.5,5,5.2c0,3.8-3.3,5.2-7.2,5.2c-3.6,0-6-1.3-6.9-4.1L164,40.5L164,40.5z"/>
		<path d="M178.8,40.5c0.3,1.3,1.3,2,2.5,2c1,0,1.7-0.3,1.7-1c0-0.7-0.6-1-1.7-1.2l-2.1-0.4c-2.9-0.6-4.4-2.1-4.4-4.7
			c0-3.9,3.3-5.4,6.9-5.4c3.8,0,6.2,1.6,6.7,4.6l-5.1,0.8c-0.2-0.9-0.7-1.4-1.8-1.4c-0.8,0-1.3,0.4-1.3,1c0,0.6,0.5,0.9,1.3,1.1
			l2.1,0.4c3.5,0.6,5,2.5,5,5.2c0,3.8-3.3,5.2-7.2,5.2c-3.6,0-6-1.3-6.9-4.1L178.8,40.5L178.8,40.5z"/>
		<path d="M80.2,70.7c-0.7-0.6-0.9-1.3-1.1-2.3l-0.6-2.5c-0.3-1.5-0.9-1.7-2.2-1.7h-1.8v6.5h-5.6V50.3h8.7c4.6,0,7.7,1.8,7.7,6.4
			c0,3.2-2.1,4.8-4.3,5.2c1.9,0.4,2.8,1.2,3.3,3l1,3.5c0.2,0.9,0.5,1.6,1.2,2.3H80.2L80.2,70.7z M74.4,59.6h2.2c2,0,2.8-0.8,2.8-2.2
			c0-1.5-0.9-2.2-2.8-2.2h-2.2V59.6L74.4,59.6z"/>
		<path d="M96.5,64.9l4.6,1.5c-0.9,3.4-3.7,4.7-6.9,4.7c-4.7,0-8.2-3-8.2-8.2c0-5.4,3-8.5,8.1-8.5c4.7,0,7.2,3,7.2,7.5
			c0,0.6,0,1.3-0.1,2h-9.7c0.1,2,1.1,3,2.7,3C95.3,66.8,96.1,66.3,96.5,64.9L96.5,64.9z M95.9,61c0-1.4-0.5-2.6-2-2.6
			c-1.3,0-2.2,1.1-2.4,2.6H95.9L95.9,61z"/>
		<path d="M100.8,54.7h5.9l1.8,6.4c0.7,2.3,1,3.9,1,3.9h0.1c0,0,0.3-1.6,1.1-3.9l2.1-6.4h5.4l-5.8,16h-6L100.8,54.7L100.8,54.7z"/>
		<path d="M122.1,47.8c1.7,0,3.1,1.1,3.1,2.9c0,1.8-1.4,2.9-3.1,2.9c-1.7,0-3.1-1.1-3.1-2.9C119.1,48.9,120.5,47.8,122.1,47.8
			L122.1,47.8z M124.9,54.7v16h-5.6v-16H124.9L124.9,54.7z"/>
		<path d="M137.1,64.9l4.6,1.5c-0.9,3.4-3.7,4.7-6.9,4.7c-4.7,0-8.2-3-8.2-8.2c0-5.4,3-8.5,8.1-8.5c4.7,0,7.2,3,7.2,7.5
			c0,0.6,0,1.3-0.1,2h-9.7c0.1,2,1.1,3,2.7,3C136,66.8,136.8,66.3,137.1,64.9L137.1,64.9z M136.6,61c0-1.4-0.5-2.6-2-2.6
			c-1.3,0-2.2,1.1-2.4,2.6H136.6L136.6,61z"/>
		<path d="M156.8,54.7l1.1,5.6c0.6,2.9,0.9,5,0.9,5h0.1c0,0,0.3-2.1,1-4.9l1.3-5.6h5.4l-4.3,16H156l-1-4.7c-0.5-2.3-0.9-5.1-0.9-5.1
			h-0.1c0,0-0.4,2.8-0.9,5.1l-1,4.7h-6.2l-4.3-16h5.6l1.3,5.6c0.7,2.8,1,4.9,1,4.9h0.1c0,0,0.3-2.1,0.9-5l1.1-5.6H156.8L156.8,54.7z
			"/>
		<path d="M102.6,16.1c0,0.8,0.2,1.2,0.8,1.2c0.3,0,0.7-0.1,1-0.3v3.9c-0.8,0.6-1.5,0.8-2.8,0.8c-2.1,0-3.3-1-3.9-2.5
			c-0.9,1.7-2.3,2.6-4.6,2.6c-2.9,0-4.8-1.7-4.8-4.5c0-3.4,2.5-5.2,7.3-5.2h1.6v-1.1c0-1-0.3-1.8-1.3-1.8c-1,0-1.4,0.6-1.5,1.9
			l-5.3-0.8c0.3-3.3,2.9-5.4,7-5.4c4.6,0,6.6,2,6.6,5.5V16.1L102.6,16.1z M97.2,15h-0.7c-2,0-2.7,0.6-2.7,1.7c0,0.8,0.5,1.3,1.5,1.3
			c0.9,0,1.9-0.5,1.9-2V15L97.2,15z"/>
		<path d="M116.2,11.7c-0.7-0.2-1-0.4-1.9-0.4c-1.3,0-2.9,0.5-2.9,3.4v6.7h-5.6v-16h4.8l0.6,3.9c0.4-2.7,2.7-3.9,5.4-3.9L116.2,11.7
			L116.2,11.7z"/>
		<path d="M117.1,5.4h5.9l1.8,6.4c0.7,2.3,1,3.9,1,3.9h0.1c0,0,0.3-1.6,1.1-3.9l2.1-6.4h5.4l-5.8,16h-6L117.1,5.4L117.1,5.4z"/>
		<path d="M147.9,16.1c0,0.8,0.2,1.2,0.8,1.2c0.3,0,0.7-0.1,1-0.3v3.9c-0.8,0.6-1.5,0.8-2.8,0.8c-2.1,0-3.3-1-3.9-2.5
			c-0.9,1.7-2.3,2.6-4.6,2.6c-2.9,0-4.8-1.7-4.8-4.5c0-3.4,2.5-5.2,7.3-5.2h1.6v-1.1c0-1-0.3-1.8-1.3-1.8c-1,0-1.4,0.6-1.5,1.9
			l-5.3-0.8c0.3-3.3,2.9-5.4,7-5.4c4.6,0,6.6,2,6.6,5.5V16.1L147.9,16.1z M142.5,15h-0.7c-2,0-2.7,0.6-2.7,1.7
			c0,0.8,0.5,1.3,1.5,1.3c0.9,0,1.9-0.5,1.9-2V15L142.5,15z"/>
		<path d="M161.5,11.7c-0.7-0.2-1-0.4-1.9-0.4c-1.3,0-2.9,0.5-2.9,3.4v6.7h-5.6v-16h4.8l0.6,3.9c0.4-2.7,2.7-3.9,5.4-3.9L161.5,11.7
			L161.5,11.7z"/>
		<path d="M173.6,0h5.6v21.4h-5l-0.5-2.8c-0.6,2.1-2.5,3.2-4.9,3.2c-3.7,0-6.4-2.9-6.4-8.1c0-5.4,2.6-8.7,7.1-8.7
			c2,0,3.7,0.9,4.2,2.5V0L173.6,0z M173.6,12.2c0-2-1-3.1-2.6-3.1c-1.6,0-3,1.2-3,4.4c0,2.6,1.1,4,2.9,4c1.4,0,2.7-1.1,2.7-3.2V12.2
			L173.6,12.2z"/>
		<polygon points="68.7,21.4 68.7,1 74.4,1 74.4,8.6 81.4,8.6 81.4,1 87.1,1 87.1,21.4 81.4,21.4 81.4,13.5 74.4,13.5 74.4,21.4 
			68.7,21.4 		"/>
	</g>
</g>
<image style="overflow:visible;" width="790" height="380" xlink:href="Screen Shot 2021-06-21 at 2.27.35 PM.png"  transform="matrix(0.5 0 0 0.5 293.3493 3.9257)">
</image>
</svg>
