<svg xmlns="http://www.w3.org/2000/svg" viewBox="0 0 385.48 517.47"><defs><style>.cls-1{fill:none;}.cls-2{fill:#cee8fa;}.cls-3{fill:#2d527c;}</style></defs><title>ICO_AgesStages</title><g id="Layer_2" data-name="Layer 2"><g id="Layer_4" data-name="Layer 4"><rect class="cls-1" width="385.48" height="517.47"/></g><g id="Layer_6" data-name="Layer 6"><path class="cls-2" d="M266.16,221.57l.1-9.92c0-2.76,68.14,76.3,68.14,76.3a70.08,70.08,0,0,1,17.7,46.56v81.56a10,10,0,1,1-20,0V389.84l-63.39-61.51a9.91,9.91,0,0,1-2.43-6.65h-.1V221.57h0Z"/><path class="cls-3" d="M342.08,438.94a22.9,22.9,0,0,1-22.88-22.88V395.28l-59.48-57.71c-.23-.22-.45-.45-.65-.68A22.68,22.68,0,0,1,253.5,324a12.84,12.84,0,0,1-.21-2.3V222c0-.18,0-.35,0-.53l.1-9.9a13,13,0,0,1,12.93-12.84c6.48,0,9,2.78,21.12,16.16,5.79,6.39,13.67,15.27,23.44,26.41,16.06,18.33,32.07,36.88,33.2,38.2a82.88,82.88,0,0,1,20.88,55v81.56A22.91,22.91,0,0,1,342.08,438.94Zm-63-118.47,60.14,58.37V334.5a57.15,57.15,0,0,0-14.45-38l-.13-.15c-13.95-16.18-31.87-36.77-45.61-52.27v76C279,320.23,279.06,320.35,279.07,320.47Z"/><path class="cls-2" d="M120.64,221.57l-.1-9.92c0-2.76-68.13,76.3-68.13,76.3a70.05,70.05,0,0,0-17.7,46.56v81.56a10,10,0,0,0,20,0V389.84l63.38-61.51a9.88,9.88,0,0,0,2.43-6.65h.09V221.57h0Z"/><path class="cls-3" d="M44.72,438.94a22.91,22.91,0,0,1-22.88-22.88V334.5a82.85,82.85,0,0,1,20.89-55c1.13-1.31,17.14-19.87,33.2-38.2,9.76-11.14,17.65-20,23.43-26.41,12.12-13.38,14.64-16.16,21.12-16.16a13,13,0,0,1,12.93,12.94l.1,9.8c0,.16,0,.32,0,.49v99.75a13,13,0,0,1-.2,2.29,22.65,22.65,0,0,1-5.57,12.91c-.21.24-.43.46-.65.68L67.61,395.28v20.78A22.91,22.91,0,0,1,44.72,438.94Zm63-194.86c-13.74,15.5-31.66,36.08-45.6,52.26l-.13.15a57.14,57.14,0,0,0-14.45,38v44.34l60.15-58.37c0-.12,0-.23,0-.35v-76h0Z"/><path class="cls-3" d="M241.9,390.72h-97c-20.47,0-37.12-15.42-37.12-34.37V152.73a52.21,52.21,0,0,1,8.16-27.88L172.4,35.37a24.55,24.55,0,0,1,21-11.26h0a24.55,24.55,0,0,1,21,11.26l56.46,89.48A52.17,52.17,0,0,1,279,152.72a12.87,12.87,0,0,1-25.74,0,26.46,26.46,0,0,0-4.19-14.13L193.4,50.33l-55.7,88.26a26.51,26.51,0,0,0-4.19,14.14V356.34c0,4.68,5.21,8.63,11.38,8.63h97c6.17,0,11.38-4,11.38-8.63V212A12.87,12.87,0,0,1,279,212V356.34C279,375.3,262.37,390.72,241.9,390.72Z"/><path class="cls-2" d="M233.66,428.05c0,22.23-40.26,56.76-40.26,56.76s-40.26-34.53-40.26-56.76a40.26,40.26,0,1,1,80.52,0Z"/><path class="cls-3" d="M193.4,497.69a12.84,12.84,0,0,1-8.38-3.1c-7.47-6.41-44.75-39.74-44.75-66.53a53.13,53.13,0,1,1,106.26,0c0,26.79-37.28,60.12-44.75,66.53A12.83,12.83,0,0,1,193.4,497.69Zm0-97A27.42,27.42,0,0,0,166,428.05c0,8.72,14.05,26.17,27.39,39.26,13.33-13.09,27.39-30.54,27.39-39.26A27.42,27.42,0,0,0,193.4,400.67Z"/><path class="cls-3" d="M193.4,228.72a45,45,0,0,1,0-90.1,12.87,12.87,0,0,1,0,25.74,19.31,19.31,0,1,0,19.31,19.31,12.87,12.87,0,1,1,25.74,0A45.1,45.1,0,0,1,193.4,228.72Z"/><path class="cls-2" d="M120.64,305.09v51.26c0,11.88,10.86,21.5,24.25,21.5h97c13.4,0,24.25-9.62,24.25-21.5V305.09H120.64Z"/><path class="cls-3" d="M241.9,390.72h-97c-20.47,0-37.12-15.42-37.12-34.37V305.09a12.87,12.87,0,0,1,12.87-12.87H266.16A12.87,12.87,0,0,1,279,305.09v51.26C279,375.3,262.37,390.72,241.9,390.72ZM133.51,318v38.38c0,4.68,5.21,8.63,11.38,8.63h97c6.17,0,11.38-4,11.38-8.63V318Z"/></g></g></svg>