<svg xmlns="http://www.w3.org/2000/svg" xmlns:xlink="http://www.w3.org/1999/xlink" viewBox="0 0 385.48 517.47"><defs><style>.cls-1{fill:none;}.cls-2{clip-path:url(#clip-path);}.cls-3{fill:#2d527c;}.cls-4{fill:#cee8fa;}</style><clipPath id="clip-path"><rect class="cls-1" x="6.96" y="55.9" width="370.8" height="410.9"/></clipPath></defs><title>ICO_EverydayHealth</title><g id="Layer_2" data-name="Layer 2"><g id="Layer_3" data-name="Layer 3"><g class="cls-2"><path class="cls-3" d="M250,465.8c-32.5,0-45.3-6.3-53.9-10.4a17.77,17.77,0,0,0-3.7-1.6c-.4.2-1.5.7-2.5,1.3-8.4,4.3-21,10.8-55.5,10.8-29.8,0-56.9-19.7-80.8-58.6-17.8-29.1-29.2-61.5-34.4-78.2l-.5-1.7c-10.3-33-29.4-94.4,25-148.7,17.9-17.9,38.4-26.6,62.7-26.6,21.4,0,41,6.9,58.3,13,10.3,3.6,20.9,7.4,27.5,7.7,6.6-.3,17.2-4.1,27.4-7.7,17.3-6.1,36.9-13.1,58.3-13.1,24.3,0,44.8,8.7,62.7,26.6,54.4,54.4,35.2,115.8,25,148.8l-.5,1.7a388.26,388.26,0,0,1-15.7,42,12,12,0,0,1-21.9-9.7,391.23,391.23,0,0,0,14.8-39.5l.5-1.7c10-32.1,25.1-80.6-19-124.7-13.4-13.4-27.9-19.6-45.8-19.6-17.3,0-34.9,6.2-50.3,11.7-12.8,4.5-24.8,8.8-35.1,9.1h-.7c-10.3-.3-22.3-4.6-35.1-9.1-15.5-5.5-33.1-11.7-50.4-11.7-17.9,0-32.4,6.2-45.8,19.6-44.1,44.1-29,92.6-19,124.7l.5,1.7c18,58,51.7,119.9,92.3,119.9,28.7,0,37.4-4.5,44.5-8.2,3.9-2,7.2-3.7,12.8-4h1c6,.2,9.6,2,13.9,4.1,7.3,3.6,16.4,8,43.4,8,16.3,0,32.4-9.9,48-29.4a12,12,0,1,1,18.7,14.9c-20.3,25.7-42.7,38.6-66.7,38.6Z"/></g><g class="cls-2"><path class="cls-3" d="M189,196.3a15,15,0,0,1-2-.2c-18.9-3.1-60.9-16.3-77.4-34.2-18.7-20.3-24.5-43.5-26.1-59.4-1.5-14.6-.2-34.4,8.2-42.4,4.2-3.9,10.1-4.9,20.7-3.3a138.68,138.68,0,0,1,23.7,5.9c12.9,4.3,37.1,14.2,54.2,32,9.3,9.7,16.4,22.9,20.5,38.2a11.95,11.95,0,1,1-23.1,6.1c-3-11.4-8.1-21-14.6-27.8-18.6-19.4-51.9-29.3-65.2-31-2.5,11.7-1.8,42.4,19.3,65.4,10.7,11.6,45.4,23.8,63.7,26.8a12,12,0,0,1-1.9,23.9Z"/></g><path class="cls-4" d="M231.16,244.7c-21.2,0-33.4,19.2-37.9,19.2-4.8,0-15.7-19.2-37.9-19.2-21.6,0-39.2,17.8-40.4,39.3-.6,12.2,3.3,21.4,8.8,29.8,11,16.8,65.1,59.2,69.5,59.2,4.9,0,58.2-42.3,69.4-59.2,5.5-8.4,9.5-17.7,8.8-29.8-1.1-21.5-18.8-39.3-40.3-39.3"/><path class="cls-3" d="M193.26,385.1c-3.5,0-8.2,0-39.9-26.1-11.6-9.6-32.2-27.3-39.6-38.6-5.1-7.7-11.7-19.9-10.8-37.1,1.5-28.4,24.5-50.7,52.3-50.7,18.5,0,30.8,10.1,37.9,16.4,7.3-6.3,20-16.4,37.8-16.4,27.8,0,50.8,22.3,52.3,50.7.9,17.1-5.7,29.4-10.8,37-7.5,11.5-27.9,29.1-39.4,38.6-31.2,26.2-36.4,26.2-39.8,26.2Zm-37.9-128.4c-14.8,0-27.6,12.6-28.4,28-.4,7.9,1.6,14.7,6.8,22.6,8.2,12.4,46.2,43.1,59.6,52.3,13.8-9.2,51.3-40.1,59.3-52.3,5.3-8.1,7.3-14.6,6.9-22.6-.8-15.4-13.6-28-28.4-28-10.1,0-17.8,6.8-23.4,11.7-4.6,4-8.5,7.5-14.4,7.5-6.1,0-10.2-3.7-14.6-7.7-5.8-5.2-12.9-11.5-23.4-11.5Z"/></g><g id="Layer_4" data-name="Layer 4"><rect class="cls-1" width="385.48" height="517.47"/></g></g></svg>