<svg xmlns="http://www.w3.org/2000/svg" viewBox="0 0 385.48 517.47"><defs><style>.cls-1{fill:#2d527c;}.cls-2{fill:#cee8fa;}.cls-3{fill:none;}</style></defs><title>ICO_HTBW</title><g id="Layer_2" data-name="Layer 2"><g id="Layer_2-2" data-name="Layer 2"><path class="cls-1" d="M192.78,162.27A119.79,119.79,0,0,1,73.13,42.62a12.51,12.51,0,0,1,25,0,94.73,94.73,0,0,0,94.63,94.63c43.76,0,94.63-41.34,94.63-94.63a12.51,12.51,0,0,1,25,0C312.43,111.1,249.26,162.27,192.78,162.27Z"/><path class="cls-1" d="M299.92,491.9a12.51,12.51,0,0,1-12.51-12.51,94.63,94.63,0,0,0-189.26,0,12.51,12.51,0,0,1-25,0,119.65,119.65,0,1,1,239.3,0A12.51,12.51,0,0,1,299.92,491.9Z"/><circle class="cls-2" cx="192.78" cy="261" r="108.15"/><path class="cls-1" d="M192.78,381.65A120.65,120.65,0,1,1,313.43,261,120.79,120.79,0,0,1,192.78,381.65Zm0-216.29A95.63,95.63,0,1,0,288.41,261,95.74,95.74,0,0,0,192.78,165.37Z"/><path class="cls-1" d="M223.36,90.82H92.52a12.51,12.51,0,0,1,0-25H223.36a12.51,12.51,0,1,1,0,25Z"/><path class="cls-1" d="M293,456.2H162.2a12.51,12.51,0,0,1,0-25H293a12.51,12.51,0,1,1,0,25Z"/><path class="cls-1" d="M224.67,216.74H102.36a12.51,12.51,0,1,1,0-25H224.67a12.51,12.51,0,1,1,0,25Z"/><path class="cls-1" d="M283.2,330.28H160.89a12.51,12.51,0,1,1,0-25H283.2a12.51,12.51,0,1,1,0,25Z"/><path class="cls-1" d="M300.92,273.51H84.64a12.51,12.51,0,0,1,0-25H300.92a12.51,12.51,0,1,1,0,25Z"/></g><g id="Layer_4" data-name="Layer 4"><rect class="cls-3" width="385.48" height="517.47"/></g></g></svg>