<svg xmlns="http://www.w3.org/2000/svg" viewBox="0 0 385.48 517.47"><defs><style>.cls-1{fill:none;}.cls-2{fill:#2d527c;}.cls-3{fill:#cee8fa;}</style></defs><title>ICO_DrugA-Z</title><g id="Layer_2" data-name="Layer 2"><g id="Layer_4" data-name="Layer 4"><rect class="cls-1" width="385.48" height="517.47"/></g><g id="Layer_5" data-name="Layer 5"><path class="cls-2" d="M291.22,465.5H94.92a51.09,51.09,0,0,1-51-51V241.2a51.09,51.09,0,0,1,51-51h29.3V179.9a11.5,11.5,0,1,1,23,0v21.8a11.5,11.5,0,0,1-11.5,11.5H94.92a28.12,28.12,0,0,0-28.1,28.1V414.6a28.12,28.12,0,0,0,28.1,28.1h196.3a28.12,28.12,0,0,0,28.1-28.1V326.8a11.5,11.5,0,0,1,23,0v87.8a51.21,51.21,0,0,1-51.1,50.9Z"/><path class="cls-2" d="M330.72,276.2a11.5,11.5,0,0,1-11.5-11.5V241.1a28.12,28.12,0,0,0-28.1-28.1h-40.8a11.5,11.5,0,0,1-11.5-11.5V179.7a11.5,11.5,0,0,1,23,0V190h29.3a51.09,51.09,0,0,1,51,51v23.6a11.32,11.32,0,0,1-11.4,11.6Z"/><path class="cls-3" d="M269.32,138.5H116.82a35.6,35.6,0,0,1,0-71.2h152.6a35.6,35.6,0,1,1-.1,71.2Z"/><path class="cls-2" d="M269.32,150H116.82a47,47,0,0,1,0-94h152.6a47,47,0,1,1-.1,94ZM116.82,78.8a24.1,24.1,0,0,0,0,48.2h152.6a24.1,24.1,0,0,0,0-48.2Z"/><path class="cls-3" d="M260.12,384.8H126a13.61,13.61,0,0,1-13.6-13.6V284.6A13.61,13.61,0,0,1,126,271h134.1a13.61,13.61,0,0,1,13.6,13.6v86.6a13.68,13.68,0,0,1-13.6,13.6Z"/><path class="cls-2" d="M260.12,396.2H126a25.12,25.12,0,0,1-25.1-25.1V284.5A25.12,25.12,0,0,1,126,259.4h134.1a25.18,25.18,0,0,1,25.1,25.1v86.6a25.05,25.05,0,0,1-25.1,25.1ZM126,282.4a2.22,2.22,0,0,0-2.2,2.2v86.6a2.22,2.22,0,0,0,2.2,2.2h134.1a2.22,2.22,0,0,0,2.2-2.2V284.6a2.22,2.22,0,0,0-2.2-2.2Z"/><path class="cls-2" d="M193.12,361.1a11.5,11.5,0,0,1-11.5-11.5V306.1a11.5,11.5,0,0,1,23,0v43.5a11.63,11.63,0,0,1-11.5,11.5Z"/><path class="cls-2" d="M214.82,339.3h-43.5a11.5,11.5,0,1,1,0-23h43.5a11.5,11.5,0,0,1,0,23Z"/></g></g></svg>