<svg xmlns="http://www.w3.org/2000/svg" viewBox="0 0 385.48 517.47"><defs><style>.cls-1{fill:#2d527c;}.cls-2{fill:#cee8fa;}.cls-3{fill:none;}</style></defs><title>ICO_HealthA-Z</title><g id="Layer_2" data-name="Layer 2"><g id="Layer_4" data-name="Layer 4"><path class="cls-1" d="M94.44,261.8a89,89,0,0,1-88.9-88.9V84.1A28.12,28.12,0,0,1,33.64,56h25.9a11.7,11.7,0,1,1,0,23.4H33.64a4.69,4.69,0,0,0-4.7,4.7v88.8a65.4,65.4,0,0,0,130.8,0V84.1a4.69,4.69,0,0,0-4.7-4.7h-25.9a11.7,11.7,0,1,1,0-23.4H155a28.12,28.12,0,0,1,28.1,28.1v88.8c.2,49-39.7,88.9-88.7,88.9Z"/><path class="cls-1" d="M194.94,465.5A112.46,112.46,0,0,1,82.64,353.2v-51a11.7,11.7,0,1,1,23.4,0v51a88.8,88.8,0,0,0,177.6,0v-12a11.7,11.7,0,1,1,23.4,0v12c.2,61.9-50.2,112.3-112.1,112.3Z"/><path class="cls-2" d="M367.54,216.7a72,72,0,1,1-72-72,72,72,0,0,1,72,72Z"/><path class="cls-1" d="M295.44,300.4a83.75,83.75,0,1,1,83.7-83.7c.1,46.1-37.5,83.7-83.7,83.7Zm0-144a60.3,60.3,0,1,0,60.3,60.3,60.37,60.37,0,0,0-60.3-60.3Z"/><path class="cls-1" d="M308.64,216.7a13.1,13.1,0,1,1-13.1-13.1,13.14,13.14,0,0,1,13.1,13.1Z"/><path class="cls-1" d="M295.44,241.5a24.9,24.9,0,1,1,24.9-24.9,25,25,0,0,1-24.9,24.9Zm0-26.3a1.4,1.4,0,1,0,1.4,1.4,1.43,1.43,0,0,0-1.4-1.4Z"/><rect class="cls-3" width="385.48" height="517.47"/></g></g></svg>