<svg xmlns="http://www.w3.org/2000/svg" viewBox="0 0 385.48 517.47"><defs><style>.cls-1{fill:#cee8fa;}.cls-2{fill:#2d527c;}.cls-3{fill:none;}</style></defs><title>ICO_AboutUs</title><g id="Layer_2" data-name="Layer 2"><g id="Layer_1-2" data-name="Layer 1"><g id="Layer_2-2" data-name="Layer 2"><path class="cls-1" d="M192.1,123.4a30.92,30.92,0,0,0-30.9,30.9v24.3H136.9a30.9,30.9,0,0,0,0,61.8h24.3v24.3a30.9,30.9,0,0,0,61.8,0V240.4h24.4a30.9,30.9,0,1,0,0-61.8H223.1V154.3a30.94,30.94,0,0,0-31-30.9Z"/><path class="cls-2" d="M192.1,306.9A42.17,42.17,0,0,1,150,264.8V251.6H136.8a42.1,42.1,0,0,1,0-84.2H150V154.3a42.1,42.1,0,0,1,84.2,0v13.2h13.2a42.1,42.1,0,1,1,0,84.2H234.2v13.2a42.14,42.14,0,0,1-42.1,42ZM136.9,189.7a19.8,19.8,0,1,0,0,39.6h24.3a11.14,11.14,0,0,1,11.1,11.1v24.3a19.8,19.8,0,0,0,39.6,0V240.4A11.07,11.07,0,0,1,223,229.3h24.4a19.8,19.8,0,0,0,0-39.6H223.1A11.07,11.07,0,0,1,212,178.6V154.3a19.8,19.8,0,0,0-39.6,0v24.3a11.14,11.14,0,0,1-11.1,11.1Z"/><path class="cls-1" d="M226.9,431.2h64.2v41.1c0,2.2-2.7,3.7-5.1,2.9l-25.6-8.9a4.47,4.47,0,0,0-2.8,0L232,475.2c-2.4.8-5.1-.6-5.1-2.9Z"/><path class="cls-2" d="M287.4,486.5a15.24,15.24,0,0,1-5.1-.9L259,477.5l-23.3,8.1a14.4,14.4,0,0,1-5.1.9c-8.2,0-14.8-6.4-14.8-14.2V431.2a11.07,11.07,0,0,1,11.1-11.1h64.2a11.14,11.14,0,0,1,11.1,11.1v41.1c0,7.8-6.6,14.2-14.8,14.2ZM259,454.9a15.24,15.24,0,0,1,5.1.9l15.9,5.5V442.4H238.1v18.9l15.9-5.5a11.73,11.73,0,0,1,5-.9Z"/><path class="cls-2" d="M312.5,441.6H86.3a50.19,50.19,0,0,1-50.1-50.1V86A50.19,50.19,0,0,1,86.3,35.9H312.5a35.72,35.72,0,0,1,35.7,35.7v241a11.1,11.1,0,1,1-22.2,0V71.6a13.4,13.4,0,0,0-13.4-13.4H86.3A27.91,27.91,0,0,0,58.4,86.1V391.5a27.91,27.91,0,0,0,27.9,27.9H312.5A13.4,13.4,0,0,0,325.9,406V369.4a11.1,11.1,0,0,1,22.2,0v36.5a35.7,35.7,0,0,1-35.6,35.7Z"/><path class="cls-2" d="M250.4,368.5H133.9a11.1,11.1,0,0,1,0-22.2H250.4a11.1,11.1,0,1,1,0,22.2Z"/></g></g><g id="Layer_4" data-name="Layer 4"><rect class="cls-3" width="385.48" height="517.47"/></g></g></svg>