<svg id="Layer_1" data-name="Layer 1" xmlns="http://www.w3.org/2000/svg" viewBox="0 0 163.99 55.2"><defs><style>.cls-1{fill:#0046ad;}.cls-2{fill:#fff;}.cls-3{fill:#f47b29;}</style></defs><title>Artboard 1 copy</title><rect class="cls-1" x="6.06" y="6.03" width="60.06" height="43.13"/><path class="cls-2" d="M18,15.44l2.19,9.73H19.09l-.61-2.81H16.3l-.6,2.81H14.65l2.23-9.73Zm.26,6-.89-4.86-.92,4.86Z"/><path class="cls-2" d="M20.75,15.44h1V19a1.55,1.55,0,0,1,1.49-1.15c2.09,0,2.11,2.77,2.11,3.65a5.21,5.21,0,0,1-.79,3.12,1.94,1.94,0,0,1-1.47.69,1.55,1.55,0,0,1-1.56-1l-.25.87h-.54Zm1,7A2.85,2.85,0,0,0,22.11,24a1,1,0,0,0,.82.47c1.08,0,1.33-1.39,1.33-3,0-1.85-.28-2.81-1.21-2.81-.55,0-1.28.41-1.28,2.48Z"/><path class="cls-2" d="M30.65,21.63c0,2.23-.64,3.7-2.38,3.7s-2.35-1.66-2.35-3.73c0-1.08.2-3.81,2.36-3.81S30.65,20.32,30.65,21.63ZM27.4,19.23A6.3,6.3,0,0,0,27,21.61c0,2.14.42,2.87,1.25,2.87s1.25-.57,1.25-2.74-.39-3.08-1.25-3.08A.93.93,0,0,0,27.4,19.23Z"/><path class="cls-2" d="M35.38,25.16h-.92V24.3a1.62,1.62,0,0,1-1.57,1,1.58,1.58,0,0,1-1.37-.67,3.92,3.92,0,0,1-.23-1.87V18h1v4.89c0,.74,0,1.56.9,1.56s1.18-1.09,1.18-1.82V18h1Z"/><path class="cls-2" d="M36,18h.82V16.17l1-.12V18H39v.83H37.81v3.91c0,1.18.1,1.5.87,1.5a3,3,0,0,0,.54,0V25a2,2,0,0,1-.86.15c-1.5,0-1.56-1.06-1.56-2.48V18.81H36Z"/><path class="cls-2" d="M44.49,25.16l-2-5.1-1.14,1.88v3.22H40.2V15.44h1.11v4.89L44,15.44h1.2L43.1,19l2.64,6.18Z"/><path class="cls-2" d="M47.38,15.44v1.24H46.28V15.44ZM46.33,18h1v7.19h-1Z"/><path class="cls-2" d="M52.68,25.16h-.87v-.93a1.59,1.59,0,0,1-1.59,1.06c-1.94,0-2.14-2.41-2.14-3.59,0-2.87,1.11-3.86,2.25-3.86a1.37,1.37,0,0,1,1.36.95V15.44h1Zm-1-4.58c0-.67-.22-1.88-1.24-1.88s-1.25,1.5-1.25,2.79a6.53,6.53,0,0,0,.34,2.35,1,1,0,0,0,.95.64,1,1,0,0,0,.9-.51,2.48,2.48,0,0,0,.31-1.44Z"/><path class="cls-2" d="M56.64,19.83c-.15-.53-.35-1.17-1.14-1.17a.93.93,0,0,0-1,1c0,.73.47,1,1.12,1.31,1.46.76,2,1,2,2.25a2,2,0,0,1-2.1,2.13,2.1,2.1,0,0,1-2.26-2l.89-.23c.1.5.26,1.39,1.36,1.39a1,1,0,0,0,1.08-1.11c0-.8-.36-1-1.47-1.55-.92-.47-1.62-1-1.62-2.07a1.86,1.86,0,0,1,2-2,2,2,0,0,1,2,1.81Z"/><path class="cls-2" d="M18.85,32.41V27.64h2.49V39.74H18.85V34.53H17v5.21H14.53V27.64H17v4.77Z"/><path class="cls-2" d="M25,32.57h2.92v2H25v3h3.81v2.12h-6.3V27.64h6.3v2.12H25Z"/><path class="cls-2" d="M34.61,27.64l2.74,12.11h-2.5l-.49-2.61H32l-.47,2.61H29.25L32,27.64Zm-.53,7.53-.67-3.23a10.48,10.48,0,0,1-.25-2c-.07.51-.15,1.18-.29,1.92l-.65,3.34Z"/><path class="cls-2" d="M38,27.64h2.49v9.88h3.07v2.23H38Z"/><path class="cls-2" d="M47.14,39.74H44.65V29.92h-2V27.64h6.5v2.29h-2Z"/><path class="cls-2" d="M54.4,32.41V27.64h2.49V39.74H54.4V34.53H52.56v5.21H50.08V27.64h2.49v4.77Z"/><path class="cls-3" d="M95.92,47.2c0,.17-.06.34-.06.5a.48.48,0,0,1-.17.28c-.11.11-.56.34-.62.39a3.16,3.16,0,0,0-.73.06,8.46,8.46,0,0,1-1.68.11c-.62.06-1.23-.17-1.9-.11-.34-.11-.67,0-1-.11a5.15,5.15,0,0,0-.9-.06.06.06,0,0,1-.06-.06c-.11,0-.22.06-.34.06a.2.2,0,0,0-.06-.17.19.19,0,0,0-.11.06,1.4,1.4,0,0,1-.39-.11c-.67-.67-.9-1-1-1.46,0-.06-.06-.06-.11-.06s-.06-.22-.11-.34.06-.06.06-.11-.11-.06-.17-.11.06-.06.06-.11c0-.28-.28-.45-.22-.78-.06-.06-.17-.11-.22-.17a.64.64,0,0,1-.17-.45,1.29,1.29,0,0,0-.22-.78,4.24,4.24,0,0,1-.34-.73l.11-.11c-.06-.11-.06-.22-.11-.28l-.34-.17a8.1,8.1,0,0,0-.39-1.06.17.17,0,0,0,.06-.11l-.17-.5a1.26,1.26,0,0,0-.28-.17c.06-.06.06-.11.11-.17-.28-.11-.34-.34-.34-.62l-.28-.28c.06-.06.06-.11.11-.22a.21.21,0,0,1-.17-.06c-.06-.06,0-.17-.06-.22-.22-.17-.22-.45-.34-.62-.17-.5-.39-1-.56-1.46a1.64,1.64,0,0,1-.17-.56.51.51,0,0,0-.22-.45.64.64,0,0,1-.17-.45.21.21,0,0,0-.06-.17c-.22-.22-.28-.62-.5-.9.06-.06.06-.11.11-.11a3.4,3.4,0,0,1-.34-.62,1.74,1.74,0,0,0-.34-.73,6.59,6.59,0,0,1-.28-.62c-.34.5-.62,1.06-.9,1.57a4.57,4.57,0,0,0-.5,1.06,9.62,9.62,0,0,0-.39,1.18l-.17.5c-.06.17-.06.39-.11.56s-.06.34-.06.45.06.34-.11.45v.11c.06.45-.11.84-.06,1.29A13.81,13.81,0,0,0,78.5,41a9,9,0,0,1,.06,1.74c.06.56,0,1.12,0,1.74a9.24,9.24,0,0,1-.11,1.29,2.29,2.29,0,0,1-.34,1.34c-.06.11-.17.22-.22.34-.11.34-.39.45-.67.56a1.61,1.61,0,0,1-.9.17,2.49,2.49,0,0,1-1.29.11H71.95a2.14,2.14,0,0,1-.9-.62,1.69,1.69,0,0,0-.22-.45l.06-.06c-.45-.28-.28-.78-.5-1.23a.2.2,0,0,0-.11-.06,2.81,2.81,0,0,1,.17-.39,1.24,1.24,0,0,1-.28-.62.42.42,0,0,0-.06-.28,2.8,2.8,0,0,1-.11-.67c0-.11.06-.22-.06-.34a.25.25,0,0,1,0-.28c0-.06.11-.06,0-.17.17-.22-.11-.39-.06-.62a.66.66,0,0,1-.06-.45c.06-.39-.11-.78.06-1.12-.22-.11.06-.22,0-.39s.06-.17-.06-.34,0-.34,0-.45a15.8,15.8,0,0,1,.11-1.62c0-.06.06-.11.06-.17a2.51,2.51,0,0,1-.17-1.29h.11a.91.91,0,0,0,.11-.84c0-.17-.06-.28-.06-.45s-.11-.28-.06-.39a1.69,1.69,0,0,1,.17-.67c0-.06-.22-.17-.06-.28s-.06-.28,0-.39a6.55,6.55,0,0,1,.22-1c-.17-.28-.06-.56-.11-.84,0-.11-.06-.28.11-.39-.06,0-.06-.06-.11-.06s.06-.11.11-.11l-.11-.11a.42.42,0,0,0,.11-.22c0-.11.06-.17.06-.28s.06-.28.06-.39a2.59,2.59,0,0,1-.11-1.29,1.72,1.72,0,0,1,.28-.67.87.87,0,0,1-.17-.67.79.79,0,0,0-.17-.11c.06-.28.06-.45.11-.67a.34.34,0,0,0-.06-.22c-.17-.11.06-.22,0-.28s-.11-.17-.11-.28v-.39a.42.42,0,0,0,.06-.28A.79.79,0,0,0,70.1,25c.17-.17,0-.28,0-.45s-.11-.34.06-.45c-.11-.17-.06-.34-.06-.5.17-.06-.06-.22.06-.39s0-.28,0-.5c0-.06-.11-.06-.17-.11s-.06-.34.06-.5-.06-.17-.06-.28v-.39A.71.71,0,0,1,70,21.1c.06,0-.11-.22,0-.28s-.11-.22.06-.28v-.11A5.65,5.65,0,0,1,70,18.75c0-.22.11-.34.17-.56a.66.66,0,0,0-.06-.56c0-.06.06-.06.06-.11L70,17.41c.06-.06.11-.11.11-.17L70,17.13a2.4,2.4,0,0,0,0-.9c.06-.17.22-.34.06-.62-.06-.11.06-.28-.11-.34.17-.17-.06-.28,0-.39s-.06-.39,0-.56c.17-.34,0-.73.17-1.06.06-.06,0-.17,0-.22V11.36c.06-.5.17-1,.22-1.4,0-.06.06-.06.06-.11l-.06-.06a6.55,6.55,0,0,0,.22-1c.06-.34.45-.56.39-1a2.64,2.64,0,0,1,1.12-.11.74.74,0,0,1,.67-.11c.06.06.11.06.11,0s.28,0,.39,0,.28-.06.45-.06a1.18,1.18,0,0,1,.45,0c.11,0,.22-.17.39,0A.6.6,0,0,1,75,7.44h.45A7.1,7.1,0,0,1,77,7.66c.11.06.17.17.28.22h.28a3,3,0,0,1,.56.9c.11.28.22.5.34.78.06.06.06.06.06.11,0,.62.11,1.23.06,1.85v1.12c0,.11.06.22-.06.34v.17a.27.27,0,0,1,0,.39c-.06.06.06.17.06.34s-.06.39-.06.62a1.55,1.55,0,0,1,.06.5v2.63c0,.11.06.22,0,.28s.11.22,0,.34a2.44,2.44,0,0,0-.06.28c0,.11.06.28.06.39,0,.34.11.67-.06,1a1,1,0,0,1,.06.56v2.13l.22-.22c-.06,0-.06-.06-.11-.06a.05.05,0,0,0,.06-.06c0,.06,0,.06.06.11.22-.11.28-.39.34-.56a3.88,3.88,0,0,1,.28-.73c0-.06-.06-.06-.11-.17a1.23,1.23,0,0,0,.17-.28h.22v-.34c.34,0,.28-.34.39-.5L80,19.65c.28-.17.17-.62.45-.84.06-.22.06-.45.11-.67.06,0,.11-.06.17-.11a1.77,1.77,0,0,0,.17-.5c.06-.17.06-.34.22-.39a.34.34,0,0,0,.06-.22,5.69,5.69,0,0,1,.5-1.23,1,1,0,0,0,.28-.11,2.34,2.34,0,0,0,.11-.34.19.19,0,0,1-.06-.11c.17-.34.34-.62.5-1,0-.06-.06-.06-.06-.11s.06-.11.11-.22.06-.11.11-.22a1,1,0,0,1,.22-.28,1.27,1.27,0,0,1,.45-.78,1.56,1.56,0,0,1,.56-1.12c-.06-.34.22-.56.39-.9a3.76,3.76,0,0,1,.5-.78c.34-.11.28-.62.67-.67,0-.06-.06-.11-.06-.22.17,0,.22-.17.28-.22a1.16,1.16,0,0,0,.22-.34,1.16,1.16,0,0,0,.34-.22.21.21,0,0,0,.06-.17h.22c0,.06.06.06.06.11l.06-.06c-.06,0-.06,0-.11-.06s.28,0,.39-.11V7.72a2.55,2.55,0,0,1,1.57-.28c.17,0,.34.06.5-.06a.35.35,0,0,1,.34,0,2.44,2.44,0,0,0,.9.06c.06,0,.17.06.22.06a3.88,3.88,0,0,0,.73-.11,2,2,0,0,0,.84.06v.17c.17.11.28-.17.39,0,.34,0,.34,0,.5.11a.43.43,0,0,0,.28.11,4.88,4.88,0,0,0,.84.28,2.26,2.26,0,0,0,.28.5,1.46,1.46,0,0,1-.17.62c-.22.34-.34.73-.56,1.06s-.34.73-.62,1a1.12,1.12,0,0,0-.22.45.4.4,0,0,1-.28.22c.11.22-.06.45-.22.62a13.32,13.32,0,0,1-.67,1.23,12.29,12.29,0,0,0-.67,1.23c0,.06-.11.11-.22.22a1.14,1.14,0,0,1-.45.84c-.06.17-.06.34-.11.45-.45.62-.9,1.29-1.29,1.9-.56.78-1.06,1.57-1.62,2.3a1.43,1.43,0,0,1-.39.56v.28h-.17v.28c-.17.11-.28.22-.28.39a.79.79,0,0,1-.11.34,9.76,9.76,0,0,0-.39,1.18,3.27,3.27,0,0,0,.11,1.29,3,3,0,0,1,.22,1,.4.4,0,0,0,.17.34,6.49,6.49,0,0,1,.73,1.23c.06.11.06.22.17.34s0,.11,0,.17c.22.22.45.39.39.73.28.34.34.39.28.62H88c.11.28.22.5.34.78.06.06.17.06.17.11a1.84,1.84,0,0,1,.39.73c0,.11,0,.28.06.34s.17.28.22.45l.34.67a.43.43,0,0,0-.11.17c.11.06.17.11.28.17.22.5.5,1.06.73,1.62a13.14,13.14,0,0,0,.67,1.57c.22.62.5,1.12.78,1.74s.5,1.18.78,1.79c.56,1.23,1.06,2.46,1.68,3.64a1,1,0,0,1,.28.39c.06.22.22.34.22.62a.69.69,0,0,0,.22.45,1.39,1.39,0,0,1,.22.5c.06.17.22.34.28.5a.2.2,0,0,0,.06.11C95.69,46.3,96,46.69,95.92,47.2ZM72.67,14.94a.21.21,0,0,0-.17.06l-.34.06L72,14.89a1.06,1.06,0,0,1-.39-.62c-.06,0-.06.06-.11.11h-.06c0,.11,0,.17-.06.22v.11a1.63,1.63,0,0,1,.11.5.21.21,0,0,0,.06.17,1.42,1.42,0,0,1,.39.22c.06,0,.17-.06.22-.06s.22.06.34.06.06-.06.06-.11.06-.17.06-.22v-.17ZM72,26.25h-.11c-.06.11-.11.11-.22.17a.2.2,0,0,1,.06.17c.06,0,.11-.06.22-.17v-.11A.05.05,0,0,0,72,26.25Zm.9,16.24h-.11l-.06-.06v.11a.21.21,0,0,1,.17.06Zm.28-24.75h0ZM77,17.18c0-.06.06-.11.06-.22v-.84H77c-.06.17-.28.22-.5.22a.56.56,0,0,1-.62-.5l-.34-.34-.39-.28A.87.87,0,0,1,74,15.05H74a.6.6,0,0,1-.28-.06v.06a.34.34,0,0,1,.06.22.78.78,0,0,1,.17.22,1.23,1.23,0,0,1-.22.9c0,.11-.06.17-.11.28a1.49,1.49,0,0,1,.34.28.49.49,0,0,1,.39.22c.11-.11.28-.11.39-.17s.22-.06.22-.11a.51.51,0,0,1,.39-.17H76l.39.62ZM74.75,37.12h-.06v.06Zm.11-.06v.17l-.06-.06v.06h.06A.11.11,0,0,0,74.86,37.06ZM75,11a1.14,1.14,0,0,1,.39.34.48.48,0,0,1,.34.11h.06l.06.06a.42.42,0,0,1,.22.11l.67.06a1.62,1.62,0,0,1-.06-.73,1.73,1.73,0,0,1,.34-.73V10a6,6,0,0,1-.22-.56h-.17L76.2,9a2.78,2.78,0,0,0-.67-.11.61.61,0,0,1-.28.06,1.73,1.73,0,0,0,.11.45l.11.67-.34.11a1.27,1.27,0,0,0-.06.22v.28A.43.43,0,0,1,75,11Zm1.29,35.73-.39.11a1.19,1.19,0,0,1,.28.17C76.2,46.86,76.2,46.81,76.26,46.69Zm.84-27.27v-.11a.42.42,0,0,0-.11.22s-.06,0,0,.06Zm7.45-6.1a.51.51,0,0,1,.28-.06,1.32,1.32,0,0,1,.45.11l.39.17v-.28L85.33,13l.22-.34-.11-.06v-.11h-.28V12.2l-.34.28-.11.11v.56Zm.56,3.53a.8.8,0,0,1,.67.34,1.22,1.22,0,0,0,.28.22,2.35,2.35,0,0,1,.45.34c.06.06.17.17.22.17l.39-.11.11.34a.43.43,0,0,1,.11-.22,1,1,0,0,1,.17-.73v-.06l-.06.06a.53.53,0,0,1-.39.11.42.42,0,0,1-.22-.06A1,1,0,0,1,86.39,16v-.11a.05.05,0,0,0-.06-.06,1.22,1.22,0,0,0-.17.28l-.06.11v.11l-.22.5-.5-.28a3.35,3.35,0,0,1-.45-.22.59.59,0,0,1-.34-.39,1,1,0,0,1,.11-.56l.06-.11c.22-.39.34-.62.22-.9v-.11l-.45.28V17A.94.94,0,0,1,85.11,16.85Zm-.06,17a.21.21,0,0,0,.17-.06l-.06-.28h-.22l-.06.28-.11.06A.26.26,0,0,0,85.05,33.81Zm4,1.46a.19.19,0,0,0-.11-.06h-.06a.62.62,0,0,1-.45-.73,2.69,2.69,0,0,1,.17-.39.17.17,0,0,0-.06-.11l-.06-.17L88,33.48a.6.6,0,0,1-.34-.11.34.34,0,0,0-.06.22,1,1,0,0,0-.11.39,3.35,3.35,0,0,1-.22.45l.5-.11.17.56c.17.11.28.28.28.67l.06.22-.73.45-.22-.06c-.39-.17-.56-.34-.39-.84a.2.2,0,0,0,.06-.17l.06-.22v-.28a.2.2,0,0,0-.11.06.8.8,0,0,0-.22.17,1.15,1.15,0,0,1-.34.22c0,.06-.06.06-.11.06l-.11.11L86,35.21a.56.56,0,0,1-.5-.39l-.34.22h.06c.06.06.28.11.34.34v.28c.06,0,.11.06.17.11a.64.64,0,0,1,.28.67l1,.22L86.9,37a.56.56,0,0,1-.39.5c0,.06,0,.06.06.11l.06.22-.11.17c0,.06-.06.06-.06.11l-.11.11a.19.19,0,0,1,.06.11c0,.06.06.11.06.22l.11.39-.5.06c-.06,0-.06,0-.06.06a.42.42,0,0,0-.22.06c-.06,0-.11.06-.17.06v.06l.9.28.17-.17c.17-.17.17-.17.11-.39a.91.91,0,0,1,.06-.84L87,38a1,1,0,0,1,.11-.56v-.06l.11-.06a.29.29,0,0,1,.22-.11c0-.06.06-.06.06-.11.22-.34.56-.62.84-1l.17-.11c.11-.17.34-.17.5-.17v-.22A.61.61,0,0,1,89,35.27ZM85.55,11.19l.45.06c.06-.11.11-.17.11-.22a.25.25,0,0,1-.17-.17c-.06-.06-.06-.11-.11-.17s-.06.06-.06.11a.84.84,0,0,0-.22.34Zm.22,26.15c.06,0,.06,0,.11-.06s-.11-.11-.11-.17-.06.11-.11.17Zm.39-23.24.06.06.22.28v.28c0,.06.06.06.11.11a2.73,2.73,0,0,1,1-.17.63.63,0,0,1,.17-.45.78.78,0,0,1-.39-.28.42.42,0,0,1-.11-.22c-.06.11-.06.17-.11.22A.9.9,0,0,1,86.17,14.1Zm.67-1.34a.05.05,0,0,0,.06.06l.06.06c.06,0,.06.06.11.06l.17.11v.22c0-.06.06-.11.11-.17s.06-.06.06-.11a.83.83,0,0,1,.11-.5l.06-.06c.06-.06.11-.17.17-.22a.72.72,0,0,1,.56-.73l-.11-.17c-.06-.11-.06-.17-.11-.22v-.22a.05.05,0,0,0-.06.06l-.34.5-.28-.56a.89.89,0,0,1-.17-.45H87l.11.17a2.35,2.35,0,0,1,.22.84l.56.06-.39.56a.46.46,0,0,1-.28.28C86.9,12.42,86.84,12.53,86.84,12.76ZM88,43.67a2,2,0,0,1-.34-.06c-.06-.06-.17-.06-.22-.11h-.06v.06c.06.17.06.34.11.5l.45.28a.21.21,0,0,1-.06-.17l-.39-.11Zm.11.9a.05.05,0,0,1-.06-.06H88v.17Zm.11-34.5a1.23,1.23,0,0,1,.06.45c.06-.06.11-.11.17-.11s.17-.11.28-.11a4.08,4.08,0,0,0,.45-.17.91.91,0,0,0,.39-.22l.34-.11.11.06a1.15,1.15,0,0,1,.28.06l.11-.28.34.17a.94.94,0,0,1,.56.67v.28l.28-.06h.06a.05.05,0,0,0-.06-.06c0-.06-.06-.06-.06-.11s-.06-.11-.11-.11l-.11-.17.06-.17L91.1,10l-.22-.28-.34-.5h-.06L90.26,9l-.34-.11h-.17a2.52,2.52,0,0,1-.62-.06.21.21,0,0,1-.17.06.87.87,0,0,1-.34.45,1.42,1.42,0,0,1-.39.22ZM89,42v0Zm1.4-30.13a.36.36,0,0,1-.28-.11h-.17A.21.21,0,0,1,90,12c0,.17-.06.34-.06.5V13l-.34.06h-.22c-.06,0-.11,0-.11.06s-.06.06-.06.11a.76.76,0,0,1,.34.62c.06.06.06.06.06.11l.06.06a.07.07,0,1,0,.11,0,7.87,7.87,0,0,1,.5-1l-.22-.5.28-.17A.66.66,0,0,1,90.37,11.92Zm-.06,27.5a.7.7,0,0,0,.34.06.17.17,0,0,1,.06-.11c0-.11.06-.22.06-.34s-.06-.17-.11-.28a1,1,0,0,1-.39.5.2.2,0,0,0-.17.06l-.28.28v-.11h-.34a.8.8,0,0,1-.11.34.05.05,0,0,0,.06.06.34.34,0,0,1,.06.22c.06,0,.06,0,.06-.06a.78.78,0,0,1,.73-.62Zm-.62-2.24a1.16,1.16,0,0,1,.28.67l.22-.11c-.06-.11-.06-.17-.11-.22s-.11-.17-.11-.28A.51.51,0,0,1,89.7,37.17Zm1,6.55a.19.19,0,0,1-.11.06l.39.22C90.82,43.89,90.71,43.84,90.65,43.73Zm.78-34.5.06-.06v.11l.06.06c0-.06-.06-.11-.06-.17A.05.05,0,0,1,91.43,9.23Zm1.46,38.14c-.34-.39-.34-.39-.62-.22C92.44,47.37,92.61,47.48,92.89,47.37Z"/><path class="cls-3" d="M106,19.09a.43.43,0,0,1,.06.56c-.06.17,0,.34-.06.39s.11.22,0,.34V22.5c.06.11-.22.28,0,.39-.11.17.06.28,0,.39v1.46a10.76,10.76,0,0,1-.11,1.34c0,.06-.06.06,0,.06v.34a16.12,16.12,0,0,1,0,2.86c-.06.84-.06,1.68-.06,2.52v5.26a.73.73,0,0,1-.11.56c-.06.06,0,.22,0,.39a5.7,5.7,0,0,1,.06,1.68v.06c.11.17.06.34.06.5v.56c0,.22-.11.39-.06.62a1.73,1.73,0,0,1,.06.56v4.09l-.17.17c0,.06.06.06.06.11-.28,1.06-.39.9-.67,1.23a1.33,1.33,0,0,1-.62.34c-.06,0-.06-.06-.11-.06l-.17.17c-.67-.06-1.4.17-2.07.11-.06,0-.06-.11-.06-.17a1.44,1.44,0,0,1-1.18.06h-.06c-.67.06-1.29-.17-2-.11a.6.6,0,0,1-.45-.06,2.41,2.41,0,0,1-.5-1.23,1.56,1.56,0,0,1-.06-.5l-.17-1c0-.06.06-.11.11-.17a1.8,1.8,0,0,1-.17-1.18.79.79,0,0,0,.11-.34.25.25,0,0,0-.17-.06c.06-.06.06-.17.11-.22v-.45c.06-.17-.06-.28-.06-.45s0-.28-.06-.45a.72.72,0,0,0-.06-.34v-.06a10.8,10.8,0,0,1-.06-1.9,8.31,8.31,0,0,0,.06-1.18,6.1,6.1,0,0,1-.11-1c0-.11.06-.17.11-.34s-.17-.17-.06-.28c-.11-.22.17-.45-.06-.67a4.49,4.49,0,0,1,.17-1.46,3.37,3.37,0,0,0,0-1.06c-.11-.06-.06-.17-.06-.28s-.06-.28-.06-.39,0-.06.06-.11l-.11-.11c.06-.28-.06-.56.11-.78s0-.22,0-.28V29.17a2.36,2.36,0,0,1,.17-1.06.78.78,0,0,0,0-.5,2.29,2.29,0,0,1,0-1.23,4.23,4.23,0,0,0,0-.84V25.3c-.06-.06-.06-.11-.11-.22a.34.34,0,0,0,.22-.06c-.06-.17,0-.39-.11-.56s.06-.45,0-.67a13.57,13.57,0,0,1,.11-1.51.94.94,0,0,0,.06-.67,5.61,5.61,0,0,0-.11-.9v-.62c0-.06,0-.11-.06-.11-.11-.17.11-.34,0-.5a.37.37,0,0,1,.11-.45v-.17c-.17-.11-.11-.28-.11-.45a.28.28,0,0,1,.06-.28c.17-.06-.11-.17.06-.28s0-.17,0-.28a.06.06,0,0,1,.06-.06.36.36,0,0,1,.06-.5c-.06-.06-.11-.11-.11-.17v-.06c.06-.73-.11-1.4-.11-2.13a.42.42,0,0,1,.06-.28c.11-.17,0-.28,0-.34s.06-.34.06-.45a.66.66,0,0,1,.06-.56v-.28a2.64,2.64,0,0,0-.11-1,3.68,3.68,0,0,1,0-.78,2.46,2.46,0,0,1,.06-.28,1,1,0,0,1,.11-.78c-.06,0-.11-.06-.17-.11l.17-.17c-.06-.06-.06-.11-.11-.17a.21.21,0,0,1,.17-.06V9.06a1.5,1.5,0,0,1,.34-.28.17.17,0,0,0-.06-.11.56.56,0,0,0,.39-.39h.22c.06-.11.17-.22.28-.39.06.06.11.11.17.11a.21.21,0,0,1,.06-.17.43.43,0,0,1,.22.11,3.12,3.12,0,0,1,.9-.39,1.49,1.49,0,0,1,.67-.17c.17,0,.34.06.45,0s.28.06.39,0a1.18,1.18,0,0,1,.45,0,1.5,1.5,0,0,1,.5,0,1.53,1.53,0,0,0,.5,0l.17.17h.45l.28.28h.28a4.14,4.14,0,0,1,.5.28,2,2,0,0,1,.45,1.18c.11.45.11,1,.22,1.4s0,.73.06,1.06c.11.56,0,1.12.11,1.68.11,1,0,1.85.06,2.8v1.51a1.77,1.77,0,0,0,.11.78A.54.54,0,0,1,106,19.09Zm-5.77,16h.17V35c-.06-.17-.11-.34-.17-.56a.69.69,0,0,1-.11-.17l-.06.06v.22l-.06.39-.22.06h-.11a.05.05,0,0,1-.06.06.06.06,0,0,0-.06.06c-.06,0-.06.06-.11.11s-.17.11-.28.11a.51.51,0,0,1-.06.28,1.72,1.72,0,0,0-.06.62,1.42,1.42,0,0,1,.11.67l.28.56-.28.34-.06.11c0,.06,0,.06-.06.06a.19.19,0,0,0,.06.11c0-.06.06-.06.11-.11l.11-.11c.11-.17.34-.17.5-.17v-.17h-.06l-.17-.22a.48.48,0,0,1-.17-.34v-.06a.9.9,0,0,1-.17-.5,1.64,1.64,0,0,1,.22-.45l.06-.06c.06-.06.17-.11.22-.17a1.33,1.33,0,0,1,.34-.62Zm3.81-20.44a.36.36,0,0,1,.28-.11,1.24,1.24,0,0,1,.45-.06.71.71,0,0,0-.06-.34,6.47,6.47,0,0,1-.06-1v-.56c0-.11-.06-.17-.06-.22l-.5.17a.34.34,0,0,1-.22.06c-.11.06-.22.06-.28.11a.57.57,0,0,0-.06.17.76.76,0,0,0-.17.22c-.06.11-.17.11-.28.17H103l-.39.22-.11-.45a.2.2,0,0,1-.06-.17.21.21,0,0,0-.06-.17.19.19,0,0,1-.06-.11c-.06-.06-.06-.11-.11-.11l-.11-.17.06-.17-.28-.06-.17-.28-.34-.5h-.06l-.11-.11c-.11-.11-.28-.22-.39-.34s-.06-.06-.11-.06l-.11-.11a.2.2,0,0,1-.17-.06v.17c.06.11,0,.22,0,.34v.06l-.11.39-.39-.06a1,1,0,0,1-.28-.11.67.67,0,0,0-.28.28.21.21,0,0,1-.06.17V12l.06.11a.6.6,0,0,0,.06.28.55.55,0,0,1,.45-.17H100l.22-.56.34.22.22-.06.11.06a1.13,1.13,0,0,1,.28.06l.11-.22.34.11a.94.94,0,0,1,.56.67.82.82,0,0,1-.28.73v.45a.54.54,0,0,1,.5.45v.06l.11.06a.9.9,0,0,1,.22.39l.17-.17.22.39a3.09,3.09,0,0,1,.22.39l.17-.17C103.71,14.89,103.88,14.72,104.05,14.61Zm-4.37-.39h-.22v.06A.34.34,0,0,0,99.68,14.21Zm.39,7.34a1.22,1.22,0,0,1-.39.34l-.11.11-.06.06c0,.06.06.06.11.11a.93.93,0,0,1,.56.73v.22l-.11.11-.06.28h.34a.82.82,0,0,1,.39.11h.11l.17.06.06.17a.17.17,0,0,1,.06.11c0,.06,0,.06.06.11h.11a.79.79,0,0,1,.34.11.81.81,0,0,1-.45-.73.63.63,0,0,1,.45-.62l.11-.06a.8.8,0,0,1,.34-.11h.11a2.44,2.44,0,0,1,.28.06l.06-.28v-.39l-.34-.17c-.11.11-.22.17-.28.22a.17.17,0,0,1-.11.06l-.34.45-.34-.5a.29.29,0,0,1-.11-.22c-.06-.06-.11-.11-.17-.11h-.17A1.66,1.66,0,0,1,100.07,21.55Zm-.22,22.29v0Zm1.34-27.44.22-.45v-.11a3.83,3.83,0,0,0-.11-.39c0-.06,0-.11-.06-.11l-.28.28-.17-.84V15h-.56v.06c-.06,0-.11,0-.11.06s-.06.06-.06.11a.76.76,0,0,1,.34.62l.06.06.06.06a.79.79,0,0,1,.11.34.94.94,0,0,1,.62.22.05.05,0,0,1,.06.06.21.21,0,0,1,.17-.06Zm.67,23.91c-.06,0-.11.06-.17.06h-.11c-.06,0-.06,0-.06.06a.67.67,0,0,1-.39.62c-.06.06-.11.06-.17.11l-.28.22v-.11a.61.61,0,0,1-.28.06l-.17.34a.05.05,0,0,1,.06.06c.06.06.06.11.11.17a.77.77,0,0,1,.73-.62h.06a.71.71,0,0,1,.34.06c0-.06,0-.06.06-.11s.06-.22.06-.34A1.17,1.17,0,0,1,101.87,40.31ZM101,34v0h-.11v.06Zm2.18,5V39c-.06-.06-.06-.11-.11-.17s-.17-.11-.22-.11a2.34,2.34,0,0,1-.39-.28.45.45,0,0,1-.28-.5.42.42,0,0,0-.06-.22l-.56-.22a3.29,3.29,0,0,1-.11,1.06c0,.11-.06.22-.06.34h-.06l.11.22a2,2,0,0,1,.06.34h.11a2.42,2.42,0,0,1,.28.06l.39.28.17-.17h.06a.57.57,0,0,1,.34-.28c.11,0,.17-.11.28-.17S103.21,39.13,103.21,39.08Zm-1.68-6.5a.29.29,0,0,1-.11.22.77.77,0,0,1,.28.5v.11c.06-.11.11-.17.11-.28a.72.72,0,0,1,.28-.39c-.06,0-.11-.06-.17-.06a.19.19,0,0,0-.11-.06A.61.61,0,0,1,101.53,32.58Zm-.11,4a2.46,2.46,0,0,1,.06.28l.5-.17c0-.06,0-.06.06-.11a1.2,1.2,0,0,1,.17-.28.17.17,0,0,0-.11.06.84.84,0,0,1-.39.06v.17Zm.11,8.9c0,.06-.06.06-.11.06l.39.22C101.7,45.69,101.59,45.63,101.53,45.52Zm.39-5.77a.52.52,0,0,0-.28-.17l.11.22Zm0-15.46c0,.06,0,.06.06.06s-.11-.06-.17-.11h-.06C101.81,24.24,101.87,24.29,101.92,24.29Zm1.85-8.06a.86.86,0,0,1-.22-.34H103l-.22.34-.62.11c0,.11-.06.17-.11.17s.11.06.22.11a2.42,2.42,0,0,0,.28.06,1,1,0,0,1,.39.06.78.78,0,0,0,.22-.17Zm-1.46-5h.06v.06l.06.06a.17.17,0,0,1-.06-.11Zm.5,13.61-.17.11c.06,0,.11-.06.17-.11a.05.05,0,0,1-.06-.06v.06ZM103.27,35a.43.43,0,0,1-.11-.28c-.11.06-.11.06-.11.34a.7.7,0,0,1-.06.34c.06,0,.06,0,.11-.06l.06-.06C103.21,35.27,103.21,35.16,103.27,35Zm.45-23.86.9,1.12c0-.22-.06-.45-.06-.62v-.17a.64.64,0,0,1-.17-.67.57.57,0,0,1-.34.28l-.22.17Zm0,8.68v0Zm1.06-3v-.39a.61.61,0,0,0-.45,0l-.34.06-.06-.22-.06.34a.7.7,0,0,1,.34-.06A.56.56,0,0,1,104.78,16.9Z"/><path class="cls-3" d="M131.36,25.86V28c-.06.17-.11.34-.17.56v.22c0,.06-.06.11-.17.22a.44.44,0,0,1,.22.22c0,.9-.06,1.74,0,2.63.17,1.57.06,3.14.11,4.7a2.61,2.61,0,0,1-.17,1c-.06.11.06.22.06.28s.17.28-.06.39v.39c-.06.17,0,.28-.11.45s0,.28,0,.45l-.17.34c.17.11-.06.22-.06.39s0,.22-.06.34a8,8,0,0,1-.39,1.23l-.34.84a1.27,1.27,0,0,0-.17.28,3.57,3.57,0,0,0-.45.78,2.62,2.62,0,0,1-.78.78c-.06.06-.06.11-.11.17-.11.34-.17.39-.45.45-.06.06-.06.17-.11.17l-1,.78c-.56.34-1.18.62-1.74.9a6.45,6.45,0,0,1-1.74.62,14.79,14.79,0,0,1-1.68.39c-.17.11-.45,0-.62.11s-.39,0-.62.06-.45.06-.67.06-.45-.06-.62.06a2.15,2.15,0,0,1-.84.06h-3.86c-.73,0-1.4-.11-2.13-.11s-1.4.06-2.07.06a2.21,2.21,0,0,0-.22-.17,1.1,1.1,0,0,0-.45.06,1,1,0,0,1-.45-.11c-.06-.06-.11-.28-.28-.28s-.06-.22-.11-.34.06-.17.11-.34c-.11.06-.11.11-.17.17a.71.71,0,0,1-.06-.34c-.06-.06-.11-.06-.17-.11s.11-.39-.11-.5c0-.06.06-.06.06-.11s0-.22.11-.28-.11-.22,0-.34,0-.28.06-.39-.17-.11-.22-.17a2.38,2.38,0,0,1,.06-.28c0-.11-.06-.17-.06-.28a1.53,1.53,0,0,1,0-.5c.11-.17,0-.34,0-.5a1.84,1.84,0,0,0,0-.56c.06-.17.06-.34.11-.5s-.06-.28,0-.34-.06-.17,0-.28v-.34a.2.2,0,0,1,.17-.06v-.22a7.24,7.24,0,0,1-.06-1.9c-.06-.06.06-.17.06-.22a1,1,0,0,0,.06-.56c-.11-.17,0-.39-.06-.56-.06,0-.06,0-.06-.06a.2.2,0,0,0,.06-.11,3.62,3.62,0,0,1-.06-1.34,4.42,4.42,0,0,1,.11-.78.19.19,0,0,1-.06-.11l.11-.11c-.06-.06-.11-.11-.17-.11s-.06-.22,0-.28-.11-.22,0-.39a.53.53,0,0,0,.06-.5,3.88,3.88,0,0,1-.06-1.4c-.06-.11.06-.28,0-.39s.06-.22.06-.34-.06-.22-.06-.45l.06-.11a.18.18,0,0,0-.06-.11.49.49,0,0,0,.06-.39,2.42,2.42,0,0,1-.06-.9c0-.22-.11-.45.06-.67-.28-.11.17-.34-.06-.45,0-.06.06-.06.06-.11s-.06-.11-.11-.22a1.42,1.42,0,0,0,.22-1l-.06-.06H109a.9.9,0,0,1-.17-.9c0-.17.06-.28-.06-.39.17-.22.06-.56.17-.78,0-.06.06-.11.06-.22a.78.78,0,0,1-.11-.34c0-.11.11-.28.11-.34a5.44,5.44,0,0,1-.11-1.34c0-.22.11-.39.11-.62a2.39,2.39,0,0,0-.11-1.06,1.92,1.92,0,0,1-.06-.56c0-.22.06-.39.06-.62s-.06-.17-.06-.28.11-.06.11-.11a2.28,2.28,0,0,0-.11-1.23.77.77,0,0,1,0-.5,1.73,1.73,0,0,0,0-1.06,1.13,1.13,0,0,1,0-.62,2.74,2.74,0,0,1,.06-1.18c-.17-.11,0-.22,0-.34a.51.51,0,0,0-.06-.28c.06-.06.06-.22.11-.34l-.06-.06a7.62,7.62,0,0,0-.11-1.12c.06-1,0-1.9.06-2.91V10a.17.17,0,0,0-.06-.11c.06-.06.11-.11.11-.17-.17-.34,0-.62.17-.9l-.11-.11a4.87,4.87,0,0,0,.39-.56c.06-.22.34-.22.39-.45h.22c0-.06.06-.11.06-.17a.94.94,0,0,0,.67-.17.05.05,0,0,1,.06.06,1,1,0,0,1,1-.11.21.21,0,0,0,.17.06h1.12c.06,0,.11-.06.17-.11l.11.11a.19.19,0,0,1,.06-.11c.45.17.9,0,1.29.11l.9.17a1.12,1.12,0,0,0,.73-.11h.28c.34.22.67.06,1,.11.17-.17.39-.11.62-.11s.45,0,.62.22c.17-.06.39.06.5-.11.06.06.11.11.17.06.34-.11.73.11,1.06.06.06-.06.17,0,.22.06.22.06.45.11.62.17s.17,0,.28,0,.17-.11.22-.06c.56.17,1.12.17,1.62.34a2.65,2.65,0,0,1,.39.17.17.17,0,0,0,.11-.06l.17.17a.21.21,0,0,0,.17-.06,10.12,10.12,0,0,1,3.36,1.74h.17a3,3,0,0,1,.34.45h.11a8.67,8.67,0,0,1,.73.67.29.29,0,0,0,.22.34.37.37,0,0,1,.28.39,3.3,3.3,0,0,1,.84,1.57v.06c.06.22.11.39.17.62.28.11.28.11.17.45h.11c.22.5.22,1.06.45,1.57v.06c0,.34.06.73.06,1.12s.17.5.11.73a3.68,3.68,0,0,0,0,.78c0,.17.11.28.11.45s-.06.22-.06.39.06.39.06.56a2.74,2.74,0,0,0-.06.67v2.63l.22-.11-.22.17a7.19,7.19,0,0,0,.06,1.12A7.69,7.69,0,0,0,131.36,25.86ZM111.87,39V39a.42.42,0,0,1-.39.17h-.06a.42.42,0,0,1-.39-.28c0-.11-.06-.22,0-.34-.06.06-.11.11-.17.11v.06c-.11.06-.17.17-.34.22s-.22,0-.34,0-.06.06-.11.11v.34c.11.06.28.11.34.22l.17-.17a.8.8,0,0,1,.39-.11.53.53,0,0,1,.45.34c.06.11.06.11.11.11l.11.11v-.17A5.78,5.78,0,0,1,111.87,39Zm-1.68-8.57c0,.11.06.28.06.39l.11-.17.34.62c0,.11.06.11.17.17l.06-.06-.06-.45-.17-.06a1.1,1.1,0,0,1-.5-.5Zm.06-6.5.17-.17.22.45h.06c0-.06,0-.06.06-.06v-.06a.6.6,0,0,1,.11-.34v-.17a.6.6,0,0,1-.62.06v.28Zm.84-3.42v.06c.34.11.45.22.5.5,0-.11.06-.17.11-.28h-.06l-.11-.17a.79.79,0,0,1-.11-.34.42.42,0,0,0-.11-.22A.7.7,0,0,1,111.08,20.49Zm.45,7.84c.06,0,.11.06.17.11h.06l.17-.06a.48.48,0,0,1,0-.39A1.8,1.8,0,0,0,111.53,28.33Zm.39,2.3-.22.06v.06l.34.06-.06-.11Zm.06,4.26v-.06h-.11c-.06,0-.11,0-.11.06h-.06v.06c.06,0,.11.06.17.11l.06-.06Zm.45-2.52c-.06-.06-.06-.06-.11-.06H112a.17.17,0,0,0-.11.06v.06c0,.17.06.28.06.39h.17a.34.34,0,0,1,.22.06c.06-.17.06-.34.11-.45Zm.11-7.67a.29.29,0,0,1-.11-.22l-.06-.06v.06c-.06.06-.06.06-.06.11A.29.29,0,0,1,112.54,24.69Zm.06.11a1.1,1.1,0,0,1,.22.45v.06h.06a.43.43,0,0,1,.28.11.72.72,0,0,1,.06.34.06.06,0,0,0-.06.06v.06h.62c0-.06,0-.34-.06-.39a.78.78,0,0,0-.17-.22c-.11.06-.28.17-.45.06a.49.49,0,0,1-.34-.45C112.71,24.85,112.65,24.8,112.6,24.8Zm1.4,4.93c-.06-.11-.06-.17-.11-.22h-.11a.05.05,0,0,1-.06-.06l-.11.22h-.28a1.91,1.91,0,0,1-.34-.17c-.06.06-.11.06-.11.11s-.06.11-.11.17a1.92,1.92,0,0,1,.06.56c.11.06.22.17.22.22s.06,0,.06.06v-.56l.5.06v-.06A.46.46,0,0,1,114,29.73ZM113,23v.06c.06.06.06.11.11.17h-.06a2.42,2.42,0,0,0,.28-.06.74.74,0,0,0-.17-.39.8.8,0,0,1-.17-.11C112.93,22.73,112.93,22.78,113,23Zm.34,4.76h-.28c0,.11,0,.22.06.22s.06.11.06.17l.06-.06a.06.06,0,0,1,.06-.06A.61.61,0,0,0,113.38,27.77Zm.73-10.36.28-.17.11.06h.17v-.22h-.06a.47.47,0,0,1-.39,0,.37.37,0,0,1-.11-.45l.17-.34h-.06c-.11-.17-.17-.22-.28-.22l-.5.39c.06.06.11.06.22.11s.17.11.28.17l.06.06v.5Zm0,2.58c-.06,0-.11-.06-.17-.06h-.17a.75.75,0,0,1,.17.22c0-.06,0-.06.06-.06Zm-.06,11.54v0h-.22c.06.06.06.11.11.22C114,31.63,114.05,31.57,114.05,31.52Zm.45,2.69c0-.06-.06-.11-.06-.17s-.06-.11-.11-.11a.06.06,0,0,0-.06-.06.34.34,0,0,0-.06.22c0,.11,0,.22.06.22s.11.11.17.11S114.5,34.26,114.5,34.21Zm0-11.65c-.06,0-.11.06-.17.06v.06l.11.11a.2.2,0,0,0,.06-.17Zm-.11-7.17v.06a.48.48,0,0,1,.39.34.51.51,0,0,1-.06.28.61.61,0,0,1,.28.22.42.42,0,0,1,.11-.22.38.38,0,0,1-.22-.39.91.91,0,0,0-.22-.39l-.06-.06c0,.06-.11.11-.17.17Zm.34,18.37c.06.06.11.06.11.11a.82.82,0,0,0,.34.06V33.7a.54.54,0,0,1,.39-.56V33l-.06-.06c-.06-.22-.11-.34-.28-.39a.19.19,0,0,0-.11-.06c-.06.06-.11.11-.17.11a3.14,3.14,0,0,1-.5.39.06.06,0,0,0-.06.06v.06a2,2,0,0,0,.22.5C114.67,33.65,114.67,33.7,114.72,33.76Zm2-22.62-.17-.22a.77.77,0,0,1-.11-.62h-.06v-.06a.29.29,0,0,1-.11-.22l-.11-.11-.06-.06a.2.2,0,0,1-.17-.06l-.11.34-.56-.28c-.17-.06-.28-.17-.45-.22s-.28-.22-.28-.39a.36.36,0,0,1,0-.34c-.06,0-.06-.06-.11-.06v1.46a1.08,1.08,0,0,1,.56-.17.8.8,0,0,1,.67.34,3.26,3.26,0,0,1,.34.22c.11.06.22.17.39.28s.17.22.22.22Zm-1.62,16-.06-.28v-.06h-.17l-.06.28-.17.06a.26.26,0,0,0,.34.06C115,27.09,115.06,27.09,115.12,27.09Zm.56,12.71v-.73l-.22.06-.17-.11.11-.17-.11.11-.11-.11-.11-.22v-.06a.27.27,0,0,0,.06-.17v-.11l.06-.11v-.06c-.11,0-.22.06-.34,0a.42.42,0,0,1,0,.5.51.51,0,0,0,0,.67.34.34,0,0,1,.06.22h.17a.71.71,0,0,1,.5.22C115.62,39.75,115.62,39.81,115.68,39.81Zm-.17-16.13v.22h.11l.06-.06v-.06a.17.17,0,0,0-.06-.11,3.1,3.1,0,0,1-.5-.39l-.06.28h0l.11.06h.11Zm-.06,4.59V28.1l-.39.22c.06,0,.06,0,.06.06h.06A.44.44,0,0,1,115.45,28.27Zm-.34,3.42-.06.06c0,.06,0,.06.17.06l.06.06C115.23,31.74,115.23,31.69,115.12,31.69Zm.56,8.85-.22.22-.11.11a.17.17,0,0,1,.11.06c.06.06.11.06.22,0ZM123,19.93a1.1,1.1,0,0,0,.06-.39c0-.06.17-.17,0-.28a1.14,1.14,0,0,0,.06-.28l-.11-.11a1.88,1.88,0,0,0-.06-.56c0-.17.17-.28.06-.45a.52.52,0,0,1,.06-.5c-.11-.28-.34-.5-.28-.78l-.17-.17a2.46,2.46,0,0,0-.67-1c-.06,0-.06,0-.06-.06a1,1,0,0,0-.67-.39,1,1,0,0,1-.39-.11,1.73,1.73,0,0,0-.73-.17,3,3,0,0,0-.73-.06c-.11-.17-.28-.11-.45-.11s-.34-.11-.5-.11a2,2,0,0,0-1,.34c-.11.17-.22.22-.34.39l.06.06c-.06.06-.11.17-.06.22a.58.58,0,0,1-.11.67,11.31,11.31,0,0,1,.06,1.34,24.45,24.45,0,0,1,0,2.86c0,.17.11.34-.06.5.11.17-.11.34,0,.5a1.39,1.39,0,0,1,.06.67v8.9a1,1,0,0,1-.06.56.61.61,0,0,0,0,.45c.11.11.06.22.06.34v3.19a.57.57,0,0,1-.17.56,1.62,1.62,0,0,0,.11.5,1.13,1.13,0,0,1,0,1c-.06.11.11.17,0,.34a.47.47,0,0,0,0,.39c.11.17.06.34.06.5.06.78,0,1.57,0,2.35a.42.42,0,0,1,.17.11,8.32,8.32,0,0,0,1.18-.06c.17-.06.34,0,.5-.11a.19.19,0,0,1,.28.06h.06a.17.17,0,0,0,.06-.11c.5-.11,1-.39,1.4-.45.06,0,.11.06.17.06s.17-.28.28-.34a1.14,1.14,0,0,0,.39-.34h.22l.34-.34-.06-.06c.06-.06.11-.17.22-.22l.11.11v-.22c.28-.22.28-.62.5-.84a1.2,1.2,0,0,0,.22-.84c-.11-.11-.06-.28-.06-.39v-.62c.22-.17,0-.39.06-.62s-.06-.39-.06-.62a2.25,2.25,0,0,1,0-.62c-.06-.17.11-.34.06-.56a6.82,6.82,0,0,1-.06-1.51,2.25,2.25,0,0,1,.06-1.06.48.48,0,0,0,0-.39c-.11-.17-.06-.34-.06-.56V28.38a1,1,0,0,1,.06-.56c.06,0-.06-.11-.06-.22s.06-.34,0-.56a2.23,2.23,0,0,1,0-.62v-.62a2.23,2.23,0,0,1,0-.62c.06-.22-.11-.34,0-.56s.06-.39.06-.62a2.27,2.27,0,0,0,0-.62,1.21,1.21,0,0,1-.06-.62,2.25,2.25,0,0,1,0-.62,2.24,2.24,0,0,1,0-.62c0-.22-.11-.45.06-.62,0-.06-.06-.06-.06-.11A1.24,1.24,0,0,0,123,19.93ZM117,11.08l.11.45a2.35,2.35,0,0,0,.62.11l.06-.06-.5-.17v-.22a.34.34,0,0,1-.06-.22Zm.73,32.09c-.06-.11-.11-.17-.17-.28v-.06c-.06.11-.11.28-.17.39a1.26,1.26,0,0,1-.28.34c.06.06.11.06.17.17v-.06c.06,0,.06,0,.06-.06a.47.47,0,0,1,.39-.39Zm-.22-.45c.06,0,.06,0,.06-.06l-.06-.34v.39Zm.78-30.35.06.17.06-.06-.06-.11Zm1.12,31.58a.19.19,0,0,1-.06-.11h-.11l-.06.06v.17C119.26,44,119.37,44,119.43,43.95Zm.56-1.29c-.11,0-.17-.06-.22-.06a.67.67,0,0,0-.45.06c.06.11.06.17.11.28V43a1,1,0,0,1,.56-.17A.11.11,0,0,1,120,42.66ZM120.6,44h-.34l-.11.17a.78.78,0,0,1,.17.22,1.25,1.25,0,0,1,.17.28,1.43,1.43,0,0,0,.11-.39Zm1.79,2.8c0-.06-.06-.11-.11-.17a.79.79,0,0,1-.17.22C122.23,46.86,122.28,46.81,122.4,46.81Zm.34-35.28v0Zm.62,2.3v-.06a.42.42,0,0,0-.06-.22.51.51,0,0,1-.45.22h-.06l.17.62.22-.06a.48.48,0,0,1,.17-.34Zm.11,25.48h-.06v0Zm1.4-28.84a.84.84,0,0,1-.73-.06l-.11.06s-.06,0-.11.11a.8.8,0,0,1-.17.22.81.81,0,0,1,.11.39h.34a.17.17,0,0,0,.11-.06c.11,0,.17-.06.28-.11v-.11l.11-.11a.12.12,0,0,1,.11-.11C124.8,10.63,124.86,10.63,124.86,10.46ZM124.69,38c-.06,0-.06-.06-.11-.06l-.17.17c.06.06.06.11.11.17s.06-.06.11-.06A.34.34,0,0,0,124.69,38Zm.22-10.58h0Zm.11,0v-.06H125v.06l.06-.06v.06Zm.45-1.85c.06,0,.11,0,.17-.11a.42.42,0,0,0-.11-.22,2.4,2.4,0,0,1-.22-.39l-.17.45a.12.12,0,0,1,.11.11C125.42,25.58,125.48,25.58,125.48,25.58Zm.62,7.06H126c-.17.06-.22.17-.39.34,0,.06-.06.11-.11.17s0,.17.06.22h.22l.11-.11c.11-.06.17-.11.28-.17Zm0,12c0-.06-.06-.06-.11-.11l-.06-.06-.06.06-.06.06a.06.06,0,0,1,.06.06l.11.06A.17.17,0,0,1,126.09,44.62Zm.67-6.61v-.5h-.11c-.06,0-.11,0-.11.11a.43.43,0,0,0,.11.28ZM128.39,31a.77.77,0,0,1-.5-.45l-.17-.22.11-.11h-.06l.06-.22a.48.48,0,0,1,.11-.34c-.06,0-.06,0-.06-.06a.31.31,0,0,1-.17.28.54.54,0,0,1-.11.5c.06.06.17.11.17.22a1.5,1.5,0,0,0,.34.56.12.12,0,0,1,.11.11l.06.06A.81.81,0,0,1,128.39,31Zm-.5-2.3c0,.06.06.06.06.11l.11-.06a.19.19,0,0,0-.06-.11C127.94,28.61,127.94,28.66,127.88,28.66Zm.5-12.6c0-.06-.06-.06-.06-.11l-.11.06.06.11Zm1.18,18.82a.85.85,0,0,0,.06-1,.06.06,0,0,0-.06-.06c0-.06-.06-.06-.11-.11v.11l-.22.73-.17-.22a4.92,4.92,0,0,1-.39.56c0,.06.06.11.11.17a.19.19,0,0,1,.06.11l.17-.06.17.28a.42.42,0,0,1,.11.39V36a1,1,0,0,1-.28.73c-.06.06-.06.06-.06.11s.11.06.17.06a2.17,2.17,0,0,1,.45-1.12.56.56,0,0,1,.06-.17v-.06C129.45,35.38,129.51,35,129.56,34.88Z"/><path class="cls-3" d="M157.19,18.58c-.06.06-.06.11-.06.22a2.35,2.35,0,0,1-.67,1.57,2.32,2.32,0,0,1-.73.39,4.36,4.36,0,0,1-.84.11h-1.4a.82.82,0,0,1-.39-.06.49.49,0,0,0-.39.06h-.17c-.17,0-.17-.22-.34-.17s-.22.06-.34.06a1,1,0,0,1-.45-.11c-.17-.11-.34-.06-.5-.06a.49.49,0,0,1-.39.06.79.79,0,0,0-.62-.06c-.17.06-.28-.11-.5-.06-.06.06-.22-.06-.34-.11a1.77,1.77,0,0,1-.62-1,3.26,3.26,0,0,1-.22-1c0-.06-.06-.17,0-.22s.11-.17-.06-.17V18c0-.11.06-.22.06-.34s-.28-.34-.11-.62c0-.06-.11-.17-.17-.22a2.28,2.28,0,0,1-.28-.5,1.34,1.34,0,0,0-.39-.67c-.11-.11-.17-.28-.34-.39s-.34-.11-.34-.34h-.17a3.44,3.44,0,0,1-.73-.17c-.22-.06-.45,0-.73-.06a3.47,3.47,0,0,0-1.79.5c-.17.11-.39.17-.56.28l-.34.34c-.06.11-.06.28-.11.45-.22-.06-.17.22-.34.28v.11c0,.5-.28,1-.22,1.46,0,.11-.06.28-.06.39s-.06.28.06.34c-.11.11.06.22,0,.34s0,.28.11.28-.11.22.06.22.11.17.11.28a6.88,6.88,0,0,0,.78,1.4c.06.06.06.11.11.17a3.17,3.17,0,0,0,.28.45c.11.17.34.11.45.28s.11.06.11.11.34.17.39.34.11.17.17.17a1.54,1.54,0,0,1,.73.11c.11.11.11.28.34.28s.34.11.45.17a2,2,0,0,1,.62.17c.22.17.5,0,.67.22.06,0,.17,0,.17.06a.51.51,0,0,0,.45.22.1.1,0,0,0,.17,0c.11,0,.34-.11.39.17a2,2,0,0,0,.62.17,7,7,0,0,1,1.51.56c.17.06.39.06.45.22.17-.11.22.06.34.06s.28,0,.34.06c.22.22.62.22.78.45a1.39,1.39,0,0,0,.39.22,2.5,2.5,0,0,1,.39.34c.11.11.28.06.34.28s.28-.06.28.22c0,.06.22.11.28.17s.17.34.34.39a1.51,1.51,0,0,1,.34.28,1.16,1.16,0,0,0,.22.34c.11.11.11.34.28.39s.17.34.28.45.06.11.06.22h-.06v.06a.06.06,0,0,0,.06-.06,3.8,3.8,0,0,1,.67,1.34c.17.39.17.78.34,1.12.11.17.06.39.11.56a4.91,4.91,0,0,1,.11.9,10.82,10.82,0,0,1,.11,1.29,9.69,9.69,0,0,1,.11,1.79v.11c-.28.11-.17.34-.11.5a15.94,15.94,0,0,1-.11,1.62c.06.11-.22.11-.11.34a.35.35,0,0,1,0,.34,10.66,10.66,0,0,1-.28,1.29,10.5,10.5,0,0,1-.39,1.23c-.11.22-.11.5-.39.67a.25.25,0,0,0-.17.22c0,.39-.28.62-.45,1-.06,0-.06.06-.11.11l-.17.34c-.11.11-.17.22-.28.22s-.11.28-.22.34-.34.11-.28.34h-.17v.17a3.2,3.2,0,0,1-1.23.9c-.11.06-.11.06-.11.17a.19.19,0,0,1-.06.11.26.26,0,0,0-.28.17.56.56,0,0,1-.28.22,6.32,6.32,0,0,0-1.06.56,1,1,0,0,1-.39.11.21.21,0,0,1-.17.06,1,1,0,0,1-.62.34,3.12,3.12,0,0,1-.67.22,2.76,2.76,0,0,0-.73.17l-.78.17c-.22.06-.5.06-.78.11a5.52,5.52,0,0,1-.9.11c-.17,0-.34.06-.45-.11H145a4.92,4.92,0,0,1-1.57.11,1,1,0,0,1-.45-.11c-.62-.17-1.23-.06-1.74-.39a1.63,1.63,0,0,1-.78-.17c-.22-.06-.5-.11-.62-.34s-.11.06-.22,0c-.34-.17-.73-.34-1.12-.56a8.32,8.32,0,0,1-1.12-.84,1,1,0,0,0-.39-.28.81.81,0,0,1-.5-.34c-.11-.17-.34-.28-.39-.5,0-.06-.22,0-.17-.17-.22,0-.17-.17-.22-.28-.11-.28-.39-.39-.5-.62-.17,0-.17-.11-.17-.22s-.06-.28-.11-.39-.34-.22-.28-.45c.06-.06-.06-.11-.11-.17a1.32,1.32,0,0,1-.17-.5c0-.17-.06-.39-.06-.56a.19.19,0,0,0-.06-.11c-.45-.17-.34-.67-.5-1a1.43,1.43,0,0,1-.22-1c0-.17-.22-.39,0-.56v-.06l-.17-.17c.11-.06,0-.17,0-.17s0-.17,0-.22.06-.28-.11-.34c.17-.11,0-.17,0-.28v-.34c0-.22-.11-.39-.11-.62a1.49,1.49,0,0,1,.17-.67.56.56,0,0,1,.22-.28.29.29,0,0,0,.22-.11c.11-.22.28-.28.5-.39a.79.79,0,0,1,.62.06c.06.06.22,0,.34,0s.28-.06.39.06.11,0,.22,0c-.06-.06-.06-.06-.06-.11l.39-.17c.11,0,.22.06.34,0a1,1,0,0,0,.56-.06c.06-.06.28,0,.39,0s.17.11.22.06c.17-.22.39.06.56,0,.22.22.45.11.67.11a.69.69,0,0,0,.56-.11.66.66,0,0,1,.56-.06,2.7,2.7,0,0,1,1.18.45.06.06,0,0,0,.06.06c.06.17.22.22.28.39a3.28,3.28,0,0,1,.5,1.4,1.74,1.74,0,0,0,.11.45,1.2,1.2,0,0,0,0,.45,9,9,0,0,0,.28,1.62c0,.06.06.11.11.22a.78.78,0,0,1,.17.22c.11.11.11.17.22.22a.75.75,0,0,1,.17.22c.06.06.17.06.28.11a2.26,2.26,0,0,0,1.06.17c.11,0,.28-.06.39.06s.06,0,.06,0c.11-.17.34-.11.5-.17a1.38,1.38,0,0,1,.67-.06.25.25,0,0,0,.28,0c.17-.11.28.06.45,0s.11-.06.11-.11.06-.17.17-.17.28-.06.22-.22l.06-.06a1.52,1.52,0,0,1,.34-.28.19.19,0,0,1,.06-.11c.39,0,.34-.34.39-.56s.06-.28.22-.34h.06l-.06-.06h.06c.06-.11-.11-.22,0-.34a1,1,0,0,0,.11-.39,10.48,10.48,0,0,0,.22-1.4c-.06-.11.06-.22.06-.34a.7.7,0,0,0,.06-.34.93.93,0,0,0,0-.67c-.06-.11-.11-.17-.11-.28s0-.06,0-.06,0-.06-.06-.11.22-.17.06-.28c0-.06.06-.11.06-.17s.11-.17-.06-.17v-.06c-.06-.28,0-.5-.22-.73.17-.11.17-.22-.06-.28-.06,0-.06-.22-.11-.34s-.28-.34-.28-.5-.22-.11-.17-.28-.22,0-.17-.17a.21.21,0,0,1-.17.06c-.06-.06-.11-.11-.11-.17a1.12,1.12,0,0,0-.45-.22c-.28-.11-.56-.34-.9-.5a2.08,2.08,0,0,0-.62-.28c-.39-.06-.67-.28-1-.34-.28-.22-.62-.17-.9-.28l-.67-.17c-.06-.06-.06-.11-.11-.17-.06.11-.17.06-.22,0a.42.42,0,0,0-.28-.06h-.11a.47.47,0,0,0-.39-.11c-.17,0-.28-.11-.45-.17s-.28-.06-.45-.11-.17-.06-.28-.11a1,1,0,0,0-.56-.17s-.06.06-.06,0c-.34-.22-.78-.28-1.12-.5a13.38,13.38,0,0,1-1.18-.73c-.22-.17-.39-.45-.73-.56-.11-.34-.39-.5-.67-.73a1.16,1.16,0,0,1-.5-.73c0-.06-.11-.06-.11-.06-.17-.17-.39-.28-.39-.62a.82.82,0,0,1-.17-.11c-.06-.39-.39-.62-.45-1-.22-.17-.17-.45-.28-.67v-.11c.11-.11.11-.17-.06-.17l-.17-.17c-.06-.11.11-.34-.11-.45s0-.34-.17-.39c.17-.28-.17-.56.06-.78a.06.06,0,0,0,.06-.06c-.22-.17-.11-.39-.11-.56a.31.31,0,0,0-.17-.28c-.17-.06-.11-.06-.06-.22a.61.61,0,0,0,0-.45c0-.22-.17-.39,0-.56-.17-.22,0-.39.06-.62s.06-.39.06-.62-.06-.45.06-.62,0-.22-.06-.28-.22-.34.06-.39c.06,0,.06,0,.06-.06-.22-.17-.06-.34.06-.56s.06-.39.11-.56a3.18,3.18,0,0,0,.22-.78c.11-.22.17-.5.28-.73s.11-.56.45-.67a.12.12,0,0,0,.11-.11c0-.22.22-.39.28-.62a6.35,6.35,0,0,1,.84-1.29.05.05,0,0,0,.06-.06c.06-.17.39.06.39-.28,0-.11.17-.28.28-.39s.06-.06.11-.11h.11c0-.28.34-.28.39-.45a.38.38,0,0,1,.28-.22H138c0-.22.34-.17.39-.34s.11-.11.17-.11.22-.17.28-.17.17.06.28,0,.22-.06.34-.11.06-.11.11-.11a1.39,1.39,0,0,1,.9-.56c.11,0,.11-.06.17-.11a.31.31,0,0,1,.28-.17c.11-.06.28-.06.39-.11s.22.06.28-.06.22-.11.34-.17a3.84,3.84,0,0,1,1.9-.34c.11,0,.22.11.28-.06s.22-.11.28-.06a.43.43,0,0,0,.45,0c.11-.11.22.06.34-.06s.22,0,.34-.11h.06a2,2,0,0,0,1.12.17,1.37,1.37,0,0,1,1.12.28.19.19,0,0,1,.11-.06h.22c.11.06.22.17.28.11s.17.11.34.06.17.11.28.06a.92.92,0,0,1,.56.11c.17.11.39.11.5.28s.17-.17.17.06a.31.31,0,0,1,.28.11c.06.06.17.06.28.11s.17.11.28.11.45.28.67.39.56.39.9.56c0,.06.11.06.11.11s.17.28.28.34.17,0,.22.06a1.32,1.32,0,0,1,.62.62,2.18,2.18,0,0,0,.45.56,1.42,1.42,0,0,0,.22.39c.06.11.28.22.28.34.11.28.34.45.45.73a4.67,4.67,0,0,1,.39.73c.06.06.11.11.11.17-.06.28.11.5.22.78l.17.17a.23.23,0,0,1,.17.34c0,.06-.11.11,0,.17a2.07,2.07,0,0,1,.39.78,4.78,4.78,0,0,1,.28,1.29s.11.06.06.11a.52.52,0,0,0,.06.56A1.26,1.26,0,0,1,157.19,18.58Zm-16.69,4.65a.92.92,0,0,1-.67,0,.8.8,0,0,1-.11.34.51.51,0,0,1-.39.17v.06a.46.46,0,0,1-.28.28c0,.06-.06.11-.11.17s-.06.11-.11.22l-.28.34-.34-.28a.79.79,0,0,1-.17-.22c0,.06-.06.06-.06.11l-.17.11a.21.21,0,0,1,.06.17v.06h.22l.17.17a1.17,1.17,0,0,1,.45.73v.17a.53.53,0,0,1,.17.39v.34c.06.06.06.11.11.22h.34l-.06-.06a.9.9,0,0,1,0-1.06,1.05,1.05,0,0,1,.39-.34v-.5l-.39-.67.78-.84.22.45c.06,0,.06,0,.06-.06a.82.82,0,0,1,.11-.39ZM138,41.49h0Zm2.58-2.74c0-.06-.06-.11-.06-.17a1.19,1.19,0,0,1-.28.17c-.11.06-.22,0-.34,0v.11c.06,0,.11.06.17.06h.06A.64.64,0,0,1,140.56,38.74Zm.67-10.81c.06,0,.06.06.11.06Zm1.79-2.8v.11h.17v-.06c-.06-.06-.06-.06-.06-.11S143.08,25.13,143,25.13Zm6.22-12.82-.34.06-.17-.17a1.22,1.22,0,0,1-.28-.45v.06h-.06A1.21,1.21,0,0,1,148,12H148l.06.39a1.78,1.78,0,0,1,.78.17h.39v-.17A.18.18,0,0,0,149.24,12.31Zm.34,2.13h0Zm.22,0h0v0Zm3-.5a.48.48,0,0,1,.17-.34v-.22a.21.21,0,0,0-.06-.17.58.58,0,0,1-.45.22.6.6,0,0,1-.56-.5,1,1,0,0,1-.28-.22l-.22-.17a.84.84,0,0,1-1-.17h-.11a.29.29,0,0,1,.11.22,1.18,1.18,0,0,1-.17.84c0,.06-.06.06-.06.11l.17.17a.48.48,0,0,1,.34.17.42.42,0,0,1,.22-.11.25.25,0,0,0,.17-.06.51.51,0,0,1,.39-.17h.62l.28.5ZM151,30.06v.06H151Zm.11.11a.1.1,0,0,0,0-.17Zm2.3-14.39c-.06,0-.11-.06-.17-.17H153a1.18,1.18,0,0,1-.17.28l.06.06h.45Zm-.28,23.07h0Z"/></svg>