<svg id="Layer_1" data-name="Layer 1" xmlns="http://www.w3.org/2000/svg" viewBox="0 0 456 157"><defs><style>.cls-1{fill:red;}.cls-2{fill:#fff;}.cls-3{fill:#282828;}</style></defs><title>Artboard 1</title><path class="cls-1" d="M158.28,50.24A15.22,15.22,0,0,0,147.54,39.5C138.06,37,100.07,37,100.07,37s-38,0-47.46,2.54A15.22,15.22,0,0,0,41.87,50.24c-2.54,9.47-2.54,29.24-2.54,29.24s0,19.77,2.54,29.24a15.22,15.22,0,0,0,10.74,10.74C62.08,122,100.07,122,100.07,122s38,0,47.46-2.54a15.22,15.22,0,0,0,10.74-10.74c2.54-9.47,2.54-29.24,2.54-29.24S160.82,59.71,158.28,50.24Z"/><polygon class="cls-2" points="87.93 97.7 119.49 79.48 87.93 61.26 87.93 97.7"/><path class="cls-3" d="M215.67,114.32a13.23,13.23,0,0,1-5.13-7.56A49.46,49.46,0,0,1,209,93.12V85.39a44.82,44.82,0,0,1,1.74-13.81,13.86,13.86,0,0,1,5.43-7.6,17.58,17.58,0,0,1,9.69-2.39q5.91,0,9.47,2.43a13.94,13.94,0,0,1,5.21,7.6,46.64,46.64,0,0,1,1.65,13.77v7.73a47.41,47.41,0,0,1-1.61,13.68,13.43,13.43,0,0,1-5.21,7.56q-3.61,2.39-9.77,2.39Q219.27,116.75,215.67,114.32ZM229.13,106q1-2.61,1-8.51V80.87a25.68,25.68,0,0,0-1-8.38,3.58,3.58,0,0,0-3.52-2.65,3.52,3.52,0,0,0-3.43,2.65,25.64,25.64,0,0,0-1,8.38V97.47q0,5.91,1,8.51a3.49,3.49,0,0,0,3.47,2.61A3.57,3.57,0,0,0,229.13,106Z"/><path class="cls-3" d="M400.19,93.25v2.69a70.75,70.75,0,0,0,.3,7.69,7.29,7.29,0,0,0,1.26,3.74,3.58,3.58,0,0,0,3,1.17,3.72,3.72,0,0,0,3.69-2.09q1-2.08,1.09-7l10.34.61a16.37,16.37,0,0,1,.09,1.91q0,7.39-4,11t-11.42,3.65q-8.86,0-12.42-5.56t-3.56-17.2v-9.3q0-12,3.69-17.51t12.64-5.52q6.17,0,9.47,2.26a12.12,12.12,0,0,1,4.65,7,50.87,50.87,0,0,1,1.35,13.21v9.12Zm1.52-22.41a7.33,7.33,0,0,0-1.22,3.69,71.89,71.89,0,0,0-.3,7.78v3.82H409V82.3a64.89,64.89,0,0,0-.35-7.78,7.45,7.45,0,0,0-1.26-3.74,3.48,3.48,0,0,0-2.82-1.09A3.42,3.42,0,0,0,401.71,70.84Z"/><path class="cls-3" d="M186.47,92.25,172.83,43h11.9l4.78,22.33q1.83,8.25,2.69,14.07h.35q.61-4.17,2.69-14l5-22.41h11.9L198.29,92.25v23.63H186.47Z"/><path class="cls-3" d="M280.92,62.63v53.26h-9.38l-1-6.52h-.26q-3.82,7.39-11.47,7.38-5.3,0-7.82-3.47t-2.52-10.86V62.63h12v39.09a11.93,11.93,0,0,0,.78,5.08,2.7,2.7,0,0,0,2.61,1.52,5.32,5.32,0,0,0,3-1,5.92,5.92,0,0,0,2.13-2.43V62.63Z"/><path class="cls-3" d="M342.41,62.63v53.26H333l-1-6.52h-.26q-3.82,7.39-11.47,7.38-5.3,0-7.82-3.47t-2.52-10.86V62.63h12v39.09a11.93,11.93,0,0,0,.78,5.08,2.7,2.7,0,0,0,2.61,1.52,5.32,5.32,0,0,0,3-1,5.92,5.92,0,0,0,2.13-2.43V62.63Z"/><path class="cls-3" d="M313.5,52.64h-11.9v63.25H289.87V52.64H278V43H313.5Z"/><path class="cls-3" d="M382.09,71.14q-1.09-5-3.52-7.3a9.45,9.45,0,0,0-6.69-2.26,11.09,11.09,0,0,0-6.17,1.87,12.7,12.7,0,0,0-4.43,4.91h-.09V40.3H349.64v75.58h9.9l1.22-5H361a10.17,10.17,0,0,0,4.17,4.26,12.36,12.36,0,0,0,6.17,1.56,9.44,9.44,0,0,0,8.95-5.6q2.87-5.6,2.87-17.51V85.13A70,70,0,0,0,382.09,71.14Zm-11,21.72a67.4,67.4,0,0,1-.48,9.12,9.85,9.85,0,0,1-1.61,4.69,3.71,3.71,0,0,1-3,1.39,5.56,5.56,0,0,1-2.74-.7,5.24,5.24,0,0,1-2-2.08V75.06a7.57,7.57,0,0,1,2.09-3.56,4.61,4.61,0,0,1,3.21-1.39,3.24,3.24,0,0,1,2.82,1.43,11,11,0,0,1,1.39,4.82A89.92,89.92,0,0,1,371.1,86Z"/></svg>