<svg id="Layer_1" data-name="Layer 1" xmlns="http://www.w3.org/2000/svg" viewBox="0 0 197.16 55.2"><defs><style>.cls-1{fill:#0046ad;}.cls-2{fill:#fff;}.cls-3{fill:#de4561;}</style></defs><title>Artboard 1 copy</title><rect class="cls-1" x="6.06" y="6.03" width="60.06" height="43.13"/><path class="cls-2" d="M18,15.44l2.19,9.73H19.09l-.61-2.81H16.3l-.6,2.81H14.65l2.23-9.73Zm.26,6-.89-4.86-.92,4.86Z"/><path class="cls-2" d="M20.75,15.44h1V19a1.55,1.55,0,0,1,1.49-1.15c2.09,0,2.11,2.77,2.11,3.65a5.21,5.21,0,0,1-.79,3.12,1.94,1.94,0,0,1-1.47.69,1.55,1.55,0,0,1-1.56-1l-.25.87h-.54Zm1,7A2.85,2.85,0,0,0,22.11,24a1,1,0,0,0,.82.47c1.08,0,1.33-1.39,1.33-3,0-1.85-.28-2.81-1.21-2.81-.55,0-1.28.41-1.28,2.48Z"/><path class="cls-2" d="M30.65,21.63c0,2.23-.64,3.7-2.38,3.7s-2.35-1.66-2.35-3.73c0-1.08.2-3.81,2.36-3.81S30.65,20.32,30.65,21.63ZM27.4,19.23A6.3,6.3,0,0,0,27,21.61c0,2.14.42,2.87,1.25,2.87s1.25-.57,1.25-2.74-.39-3.08-1.25-3.08A.93.93,0,0,0,27.4,19.23Z"/><path class="cls-2" d="M35.38,25.16h-.92V24.3a1.62,1.62,0,0,1-1.57,1,1.58,1.58,0,0,1-1.37-.67,3.92,3.92,0,0,1-.23-1.87V18h1v4.89c0,.74,0,1.56.9,1.56s1.18-1.09,1.18-1.82V18h1Z"/><path class="cls-2" d="M36,18h.82V16.17l1-.12V18H39v.83H37.81v3.91c0,1.18.1,1.5.87,1.5a3,3,0,0,0,.54,0V25a2,2,0,0,1-.86.15c-1.5,0-1.56-1.06-1.56-2.48V18.81H36Z"/><path class="cls-2" d="M44.49,25.16l-2-5.1-1.14,1.88v3.22H40.2V15.44h1.11v4.89L44,15.44h1.2L43.1,19l2.64,6.18Z"/><path class="cls-2" d="M47.38,15.44v1.24H46.28V15.44ZM46.33,18h1v7.19h-1Z"/><path class="cls-2" d="M52.68,25.16h-.87v-.93a1.59,1.59,0,0,1-1.59,1.06c-1.94,0-2.14-2.41-2.14-3.59,0-2.87,1.11-3.86,2.25-3.86a1.37,1.37,0,0,1,1.36.95V15.44h1Zm-1-4.58c0-.67-.22-1.88-1.24-1.88s-1.25,1.5-1.25,2.79a6.53,6.53,0,0,0,.34,2.35,1,1,0,0,0,.95.64,1,1,0,0,0,.9-.51,2.48,2.48,0,0,0,.31-1.44Z"/><path class="cls-2" d="M56.64,19.83c-.15-.53-.35-1.17-1.14-1.17a.93.93,0,0,0-1,1c0,.73.47,1,1.12,1.31,1.46.76,2,1,2,2.25a2,2,0,0,1-2.1,2.13,2.1,2.1,0,0,1-2.26-2l.89-.23c.1.5.26,1.39,1.36,1.39a1,1,0,0,0,1.08-1.11c0-.8-.36-1-1.47-1.55-.92-.47-1.62-1-1.62-2.07a1.86,1.86,0,0,1,2-2,2,2,0,0,1,2,1.81Z"/><path class="cls-2" d="M18.85,32.41V27.64h2.49V39.74H18.85V34.53H17v5.21H14.53V27.64H17v4.77Z"/><path class="cls-2" d="M25,32.57h2.92v2H25v3h3.81v2.12h-6.3V27.64h6.3v2.12H25Z"/><path class="cls-2" d="M34.61,27.64l2.74,12.11h-2.5l-.49-2.61H32l-.47,2.61H29.25L32,27.64Zm-.53,7.53-.67-3.23a10.48,10.48,0,0,1-.25-2c-.07.51-.15,1.18-.29,1.92l-.65,3.34Z"/><path class="cls-2" d="M38,27.64h2.49v9.88h3.07v2.23H38Z"/><path class="cls-2" d="M47.14,39.74H44.65V29.92h-2V27.64h6.5v2.29h-2Z"/><path class="cls-2" d="M54.4,32.41V27.64h2.49V39.74H54.4V34.53H52.56v5.21H50.08V27.64h2.49v4.77Z"/><path class="cls-3" d="M92.86,12a14.35,14.35,0,0,1-.28,1.51.82.82,0,0,1-.34.5,1.18,1.18,0,0,1-.62.22c-.34,0-.67.11-1,.11H89.56c-.17,0-.28-.06-.45-.06s-.28.11-.45.06a26.22,26.22,0,0,0-3-.11,1.1,1.1,0,0,0-.45.06c-.06.06,0,.28,0,.39a.93.93,0,0,0-.11.28c.11.11.11.17,0,.28s.11.22.11.28V16.9c-.06.17-.17.34-.06.56.06.06-.06.28-.06.34a.47.47,0,0,1,.11.39v5.94a6.84,6.84,0,0,0-.11,1.06c0,.11-.06.28.11.39v.17c-.06.06-.17.11-.06.17s0,.11,0,.17-.11.28-.06.34.11.39.11.62c0,.62-.06,1.23,0,1.79,0,.28-.11.5-.06.73a4.23,4.23,0,0,1,.06.84v2.35c-.06.17.06.34-.11.45a.34.34,0,0,0,.06.22c0,.06.06.11,0,.22a.66.66,0,0,0-.06.56,8.5,8.5,0,0,1,.11,1.68c0,.17-.22.22-.06.45.06.06-.11.22-.06.34a1.29,1.29,0,0,1,.11.78V40.7a14.24,14.24,0,0,0,.11,2.18,5.16,5.16,0,0,0,.06,1,12.87,12.87,0,0,1,.11,2.07,3,3,0,0,1-.17.67c-.34.9-.45.73-1.18,1.06a2,2,0,0,1-.62.11c-.06.06-.17-.06-.28,0a2.45,2.45,0,0,1-.28.06c-.17.06-.34.06-.5.11s-.34-.06-.5.06-.17,0-.22.06-.34-.17-.5-.06-.34.06-.5.06h-.62a1.53,1.53,0,0,0-.5,0,6.1,6.1,0,0,0-1-.11,2.63,2.63,0,0,1-1-.22c-.11,0-.34-.06-.28-.28s-.06-.22-.11-.28a.76.76,0,0,1-.28-.5,5.88,5.88,0,0,1-.06-1.4c0-.22.06-.39.06-.62s-.06-.39.11-.56c-.11-.22,0-.45,0-.67s-.06-.34.11-.5-.22-.17-.06-.28a.71.71,0,0,0,.06-.34v-.39c-.06-.06-.06-.11,0-.22a1.54,1.54,0,0,0-.11-.73.66.66,0,0,1-.06-.56,1.55,1.55,0,0,0,.06-.5.48.48,0,0,0,0-.39c0-.06.06-.11.06-.22s-.11-.11-.11-.22a.17.17,0,0,1-.06-.11c.28-.28,0-.62,0-.9a4.78,4.78,0,0,0,0-.9,5.44,5.44,0,0,1,.11-1.34A.62.62,0,0,0,77,35.1c.06-.28-.06-.56.06-.84a.44.44,0,0,0,.06-.45c-.11-.11.06-.22,0-.39A1,1,0,0,1,77,33a1.52,1.52,0,0,0,0-.5V32c.06-.17.06-.34.11-.45a1.13,1.13,0,0,0,0-1v-.17c.22-.11-.06-.28.11-.39s-.17-.17-.06-.28.06-.22-.06-.28V29c0-.17.06-.34,0-.45s.06-.22,0-.28.06-.22-.06-.28c.17-.17-.17-.39.06-.5V26.31c.06-.17-.22-.28,0-.45-.17-.17-.06-.34-.11-.56V22.67c.06-.22.06-.45.11-.67s-.06-.45.06-.73c.06-.06,0-.28-.06-.34s-.06-.28-.06-.45.06-.17,0-.28.06-.22.06-.28c-.17-.11.06-.17,0-.28v-1a1.65,1.65,0,0,0-.11-.56v-.67c.06-.17-.06-.34.11-.5s0-.17-.06-.22a.2.2,0,0,0-.06-.17c-.06-.11.17-.22.06-.34a1.09,1.09,0,0,1-.06-.45.29.29,0,0,1,.11-.22.72.72,0,0,0,.06-.34c-.06-.22-.11-.5-.28-.62a1.4,1.4,0,0,0-.78-.34,6.85,6.85,0,0,0-1.85-.11c-.22,0-.45.11-.73.11a1.58,1.58,0,0,0-.73,0,5.11,5.11,0,0,1-1.29.06,1.6,1.6,0,0,1-1.23-.34c-.22,0,.11-.22-.11-.28s-.17-.17-.28-.22-.06-.28-.11-.34-.06-.22-.11-.34a.71.71,0,0,0-.06-.34,3.3,3.3,0,0,1-.06-1.51c.06-.39.28-.73.06-1.12.11-.11.06-.28.11-.39s.11-.11-.06-.22c.06,0,.17-.06.06-.17s-.06-.06,0-.11a.5.5,0,0,0,.06-.56c-.06-.11.17-.11.06-.28s.06-.17.06-.28.22,0,.17-.17l.45-.17c.11-.06.22,0,.28-.06s.17-.11.34-.11a.84.84,0,0,0,.56-.11A.8.8,0,0,1,72,7a1.67,1.67,0,0,1,.56.11c.17.06.39,0,.5.17.06-.11.17,0,.22,0s.17,0,.17-.06a.51.51,0,0,1,.62-.06.05.05,0,0,0,.06.06,1.88,1.88,0,0,1,.56,0,1,1,0,0,1,.56.06.77.77,0,0,0,.5,0c.17-.11.28,0,.45-.06a.62.62,0,0,1,.45,0,3.87,3.87,0,0,1,1.4.22h.11c.11-.22.28-.17.5-.17h.9c.17.06.34-.06.56,0a.94.94,0,0,0,.56,0,3.42,3.42,0,0,1,1.06-.06,1,1,0,0,1,.56,0c.11.06.28-.11.39.06h.06c.17.06.28-.17.39-.06a.66.66,0,0,0,.45.06,1.5,1.5,0,0,0,.5,0,3.72,3.72,0,0,1,1.57-.06c.34,0,.67.17,1,.06a4.47,4.47,0,0,1,1.23-.06c.34.17.73,0,1.12.06A7.23,7.23,0,0,1,91,7.27c.17,0,.34-.11.5.06h.11a.26.26,0,0,1,.34-.06.78.78,0,0,1,.39.45,8.21,8.21,0,0,1,.39,1.06,3,3,0,0,0,.06.73,1.77,1.77,0,0,1,.11.73V12ZM72.37,10.8c-.06,0-.11.06-.17.06l-.39.06-.17-.11a4.24,4.24,0,0,1-.39-.67,3.39,3.39,0,0,1-.11.84c0,.06-.06.11-.06.17v.17a1.34,1.34,0,0,1,.5.17h.22a.71.71,0,0,1,.34.06c.06-.06.06-.11.11-.17a.42.42,0,0,1,.06-.22V11ZM75.78,12a.21.21,0,0,1-.06-.17,1,1,0,0,1-.34-.34l-.45-.39a.42.42,0,0,1-.22.11l.28.39-.67.17a.21.21,0,0,0-.17.06h-.28l-.17-.22a.73.73,0,0,1-.06-.45l.17-.17c-.06,0-.06,0-.06-.06h-.34c0,.11.06.17.06.22a1.21,1.21,0,0,1,.17.28,1.4,1.4,0,0,1-.22,1c-.06.06-.11.17-.17.22l.06.06a.51.51,0,0,1,.28.06,2.1,2.1,0,0,1,.67-.11h1.29v-.06A.72.72,0,0,1,75.78,12ZM74,11.58a.2.2,0,0,0,.11.06c.17,0,.28-.11.28-.17s.06-.11.06-.22h-.17v.11Zm.5-2.8.11.34a1.65,1.65,0,0,0,.73.11V9.17L74.78,9l-.06-.17H74.5Zm4.26,2.91h.11a.41.41,0,0,1,.28.06l.06-.34V11l-.34-.17a1.16,1.16,0,0,1-.34.22.17.17,0,0,1-.11.06l-.34.5-.34-.56a.76.76,0,0,1-.17-.22.12.12,0,0,0-.11-.11.21.21,0,0,0-.17-.06,1.35,1.35,0,0,1-.73-.22.66.66,0,0,1-.34.34c-.06.11-.11.11-.11.17h-.06l.17.17.11.11.11-.11.22.06h.22a1.31,1.31,0,0,1,.73.28l.11.06.06.34a.61.61,0,0,1,.06.28.79.79,0,0,1,.45-.34h.06A.81.81,0,0,1,78.75,11.69Zm-1.23-2.8c0,.11.06.17.06.28a1.18,1.18,0,0,1,.45,0L77.86,9A.42.42,0,0,0,77.63,9C77.58,8.89,77.58,8.89,77.52,8.89Zm.73,4.37a.76.76,0,0,1-.34-.39c-.06.11-.06.17-.11.28h.11A.79.79,0,0,1,78.25,13.26Zm.39.17c-.11-.06-.17-.11-.22-.11a.2.2,0,0,1,.11.06.05.05,0,0,1,.06.06Zm1.29,15.46-.06-.06c0-.06-.06-.11-.06-.17h-.06a.29.29,0,0,0-.22-.11c-.11-.06-.17-.11-.28-.17v.06l-.56.11c0,.22-.06.34-.06.45v.06a.05.05,0,0,0,.06.06c.06-.11.22-.22.56-.22a.53.53,0,0,1,.39.11l.06-.11V29c0,.06,0,.06.06.06l.06-.06Zm-.45-15-.17.17c.06,0,.11-.06.17-.17h0ZM80,24.69a1.87,1.87,0,0,1-.17-.34c-.06.06-.11.11-.06.34s-.06.28-.06.39a.17.17,0,0,0,.11-.06V25A1.23,1.23,0,0,0,80,24.69Zm.45-15.79v0ZM82.62,45h-.06a3.36,3.36,0,0,0-.45-.22.87.87,0,0,1-.39.56c-.11.06-.17.17-.22.45h.06c.06-.11.17-.22.22-.34s.11-.06.11-.11l.06-.06.17-.22.28.17ZM81.83,24.8c0,.11.06.22.06.34v0c.06-.11.06-.17,0-.39Zm.34,12c.06.06.06.17.11.22l.11-.11a.57.57,0,0,1,.06-.17l-.11-.11Zm1.51-5v-.62a2.19,2.19,0,0,0-.28.34c-.06.06-.11.06-.11.11s0,.17,0,.28h.28A.12.12,0,0,1,83.68,31.74Zm.17,11.82V43.5l-.06-.06a.05.05,0,0,1-.06-.06c-.06.06-.06.06-.11.06s0,.06-.06.06.06,0,.11.06l.11.06Z"/><path class="cls-3" d="M115.77,44.79c-.06.34,0,.67-.06,1a4.84,4.84,0,0,1-.5,1.51,1.13,1.13,0,0,1-.5.39,2.76,2.76,0,0,1-1.29.34,11.86,11.86,0,0,1-2,.06H110a1.21,1.21,0,0,1-.62-.06.71.71,0,0,0-.34-.06c-.28.06-.5.11-.73-.06h-.11a6.43,6.43,0,0,1-1.46-.11,24.25,24.25,0,0,0-2.86-.06c-1-.06-1.9,0-2.91,0s-1.9,0-2.86-.06c-.17,0-.28.06-.45-.06,0-.06-.17.11-.28.06a2.74,2.74,0,0,1-1.18-.06.2.2,0,0,0-.11.06c-.28.11-.5-.11-.78-.06l-.06-.06c.06-.22-.17-.34-.28-.45S94.94,47,95,47s0-.17-.06-.28-.06-.11-.06-.11c.11-.17.06-.17-.06-.17a.57.57,0,0,1-.06-.17v-.62c0-.17.06-.28-.06-.39s0-.17.06-.28.06-.28,0-.34-.17-.17-.11-.34-.11-.22,0-.39-.17-.11,0-.17a.54.54,0,0,1,0-.5c.06-.11,0-.22.11-.34a2.6,2.6,0,0,0-.11-.28c0-.17.22-.28.06-.45s.06-.28.06-.45v-1c.06-.17.17-.39.11-.56-.22-.45-.06-.9-.11-1.34a1.89,1.89,0,0,0,.11-1.12,4.92,4.92,0,0,1-.11-1,6.84,6.84,0,0,1,.11-1.06,1.21,1.21,0,0,0,0-.45c-.06-.45-.06-1-.11-1.46a1.39,1.39,0,0,1,.06-.45c.06-.11-.11-.28.06-.39-.06-.17.11-.45-.11-.62a3.41,3.41,0,0,1,.06-1.06,3.66,3.66,0,0,0,0-.78,3,3,0,0,1,0-1.23c.11-.17-.06-.45.17-.62a.19.19,0,0,1-.06-.11c-.06-.11-.17-.17-.11-.34s-.06-.17-.06-.28v-.39c0-.06.06-.11.06-.17s.22-.34.06-.56V26.7c0-.17.17-.39.06-.5s-.06-.34-.06-.5-.22-.28,0-.45a.92.92,0,0,1-.11-.56V23.06c.06-.17.06-.34.11-.45a1.37,1.37,0,0,0,.06-.67,3.06,3.06,0,0,1,0-1,4.14,4.14,0,0,0-.06-1.18,5.3,5.3,0,0,1-.11-1.62.2.2,0,0,0,.06-.11.35.35,0,0,0,.11-.5c-.06,0,.06-.06.06-.11-.06-.28.06-.56-.11-.78.06-.17-.17-.34,0-.5V16a.31.31,0,0,1,0-.5c0-.39-.06-.78-.06-1.18-.11-.11.06-.17.06-.28-.06-.34-.06-.73-.11-1.12a.19.19,0,0,0-.06-.11,1.73,1.73,0,0,0-.06-.78.21.21,0,0,1-.06-.17,5.09,5.09,0,0,1,.06-1.29c0-.22-.06-.5-.06-.73s-.22-.5.06-.73a3.87,3.87,0,0,1,.11-.73,1.22,1.22,0,0,1,.73-.84c.17,0,.28.11.45.06s.17-.06.22-.17.22-.11.34-.11.28.17.39-.06h.45c.11,0,.28.06.39-.06s.11-.06.17,0c.28.17.56.06.84.06a2.42,2.42,0,0,0,.9-.06.19.19,0,0,0,.11.06c.11.11.39.11.56.11a1,1,0,0,1,.39.11c.11.06.17.11.28,0h.17c0,.06.11.11.11.06s.34.17.45,0a.34.34,0,0,1,.22-.06c.17-.06.28.11.45,0a.78.78,0,0,1,.5,0H104a4.55,4.55,0,0,0,.9-.06,5.28,5.28,0,0,1,1.34-.06c.39-.06.84.11,1.23-.06.06-.06.17.06.28.06h.17c.34-.22.34-.17.62-.11h1.12c.17-.17.39,0,.56-.11a.5.5,0,0,1,.56,0c.11-.11.22-.06.39-.06s.22.11.34,0,.28.06.39.06S112,7,112.13,7c.28.06.62-.11.9.06.11.06.22,0,.28.06s.28-.11.28.11a1.28,1.28,0,0,0,.22.06c.22,0,.22,0,.56.28h.11a.85.85,0,0,1,.56.5.51.51,0,0,1,.17.39c.06.11.22.28.06.39s.06.06.06.11c.06.28.17.5.22.78a9.65,9.65,0,0,1,.06,1.79,5.87,5.87,0,0,1-.28,1.68,3.57,3.57,0,0,1-.45,1.06.87.87,0,0,1-.9.22,1.29,1.29,0,0,0-.78-.06.5.5,0,0,1-.28.06h-2.13c-.11,0-.22.06-.34-.06a.17.17,0,0,0-.22,0,2.78,2.78,0,0,1-1.18.06c-.17,0-.34-.11-.45-.06a13.21,13.21,0,0,1-2.58.06h-2.86c-.06.06-.17.17-.17.22,0,.45-.11.84-.11,1.23v2.41c0,.17-.11.28,0,.5a1.88,1.88,0,0,1,0,.56v4.09c0,.17,0,.22.22.28s.28.06.45.06h1.18c.11,0,.34-.06.39,0s.22-.06.28.06.11.06.11.06a2.87,2.87,0,0,1,1-.06c.45.06,1,.34,1.4.06.06-.06.17,0,.28,0s.39.06.5-.06.28.17.45.06.17,0,.17,0c.11-.17.22-.06.34,0s.17-.11.34,0,.11.17.22,0h.17c.28.22.5,0,.73-.06.06,0,.11-.06.17,0s.17.11.28.17a.18.18,0,0,1,.28-.11c.17.11.22-.17.39,0s.22-.11.39-.11a.72.72,0,0,1,.56.22,1.88,1.88,0,0,1,.62,1.29.8.8,0,0,1,.11.34,1.62,1.62,0,0,1,.11.5v.45a2.77,2.77,0,0,0,.11.67,14.63,14.63,0,0,1-.17,1.46,3.37,3.37,0,0,1-.45,1.62l-.17.34a.79.79,0,0,1-.34.11,2.4,2.4,0,0,0-.39.22,1.83,1.83,0,0,1-.78.22h-1.34a2.43,2.43,0,0,1-.56-.11c-.17,0-.34.06-.5-.11h-.28c-.11,0-.17.06-.22,0-.17-.28-.45-.17-.67-.17-.45-.06-.84-.17-1.29-.22a.34.34,0,0,0-.22-.06,1.05,1.05,0,0,1-.45-.11c-.17-.06-.28-.17-.45,0a.69.69,0,0,0-.28-.11h-.73c-.11.06-.17-.11-.34,0a1,1,0,0,1-.39.06,1.09,1.09,0,0,0-.45.06c-.22.17-.62.17-.78.56,0,.06-.06.11-.06.22a.66.66,0,0,1-.06.45c-.11.11.06.28-.11.45.17.17-.11.34.06.56a.35.35,0,0,1,0,.34,2.73,2.73,0,0,0-.06,1,4.91,4.91,0,0,0-.11.9,1.56,1.56,0,0,0,.06.5c.06.11-.11.22-.06.34.17.67,0,1.4.11,2a15,15,0,0,1,.06,1.57,2.83,2.83,0,0,1,.11.67.5.5,0,0,0,.22.28,8.51,8.51,0,0,0,1.06.45c.17-.17.28,0,.45,0a.78.78,0,0,1,.5,0c.17,0,.34-.06.45.06s.11-.17.22,0,.28,0,.34.06.17-.11.28-.06h.06a4.85,4.85,0,0,0,.9-.06.72.72,0,0,1,.67.06.25.25,0,0,0,.28,0c.17-.11.45-.06.67-.11a1.38,1.38,0,0,0,.45-.06c.17-.11.34-.06.5-.11s.28.11.45.06.22.06.28.06c.22-.17.5-.11.78-.22a4.14,4.14,0,0,1,1.18-.06,2,2,0,0,1,.56-.11c.39-.06.78.17,1.23.11a.21.21,0,0,1,.17.06,2.82,2.82,0,0,1,1,1.62,7.5,7.5,0,0,0,.28,1.06A15.84,15.84,0,0,1,115.77,44.79ZM98.3,31.57a.05.05,0,0,0-.06-.06c0-.06-.06-.11-.06-.17h-.06c-.06-.06-.17-.11-.22-.17s-.28-.17-.45-.22a.89.89,0,0,1-.28-.56c0-.11,0-.17-.06-.22l-.56-.28a4.25,4.25,0,0,1-.17,1.18c0,.06,0,.11-.06.11a1.08,1.08,0,0,1-.06.45.83.83,0,0,0,.06.34v.11l.11-.11h.17a.43.43,0,0,1,.28.11l.45.28.17-.17.06-.06a.57.57,0,0,1,.34-.28c.11,0,.17-.06.28-.17S98.25,31.57,98.3,31.57ZM96.79,45.52a1.13,1.13,0,0,1-.45-.22v.5c0,.06.06.11.06.22s.06.06.06.11h.06V46c0-.11,0-.22.06-.22l.06-.28Zm-.17-31.25.11-.06c.11,0,.22-.06.39-.06l.11-.06c.11,0,.17.06.28.06l.06-.28v-.39a.9.9,0,0,0-.39-.22,1.27,1.27,0,0,1-.28.28.19.19,0,0,0-.11.06l-.34.45c0,.11-.06.22-.06.34C96.51,14.33,96.57,14.27,96.62,14.27Zm-.22,14.9v.06l.56-.17c0-.06.06-.06.06-.11a1.18,1.18,0,0,1,.22-.34.17.17,0,0,1-.11.06.79.79,0,0,1-.62.06A1,1,0,0,1,96.4,29.17Zm.22-13.44c-.06-.06-.11-.06-.17-.11v.06C96.51,15.67,96.57,15.73,96.62,15.73Zm-.11,9a.17.17,0,0,0-.06.11l.34.56v-.11a.59.59,0,0,1,.34-.39c-.06-.06-.17-.06-.22-.11h-.11A.42.42,0,0,0,96.51,24.69Zm.34,8.18c-.06,0-.11.06-.17.06h-.06a.2.2,0,0,1-.17-.06v.22l.11.56a.42.42,0,0,0,.06-.22A.8.8,0,0,1,96.85,32.86Zm-.06,5.82a.67.67,0,0,1-.28-.28l-.06.06v.06Zm.11-6.44a.36.36,0,0,0-.28-.11l.11.22Zm0-16.41c0,.06,0,.06.06.06s-.11-.06-.17-.11h-.06A.21.21,0,0,0,96.9,15.84Zm.62.5.34.06-.17.17c.06,0,.11-.06.17-.17H97.8C97.69,16.34,97.63,16.23,97.52,16.34Zm.84,11L98.19,27c-.06.06-.11.06-.11.34a1,1,0,0,1-.06.39.19.19,0,0,0,.11-.06c.06,0,.06,0,.06-.06S98.3,27.43,98.36,27.32Zm.45-16.18v0Zm1.46,16.24v.39h.06A1.1,1.1,0,0,0,100.26,27.37ZM100.32,9v.11a.5.5,0,0,1,.06.28V9.4a1,1,0,0,0,.28.22l.06.06h.06c.17-.11.17-.17.17-.17,0-.17.06-.28.06-.45A2.79,2.79,0,0,1,100.32,9Zm.5,30.52c0-.06-.06-.06-.11-.11l-.17.17c.06.11.11.17.11.28.06-.06.11-.11.11-.17S100.82,39.53,100.82,39.47Zm4.42,6.22v-.06a.21.21,0,0,1-.06-.17.19.19,0,0,1-.06-.11H105l.17.22.06.06A.06.06,0,0,0,105.25,45.69Zm.9-19a1.44,1.44,0,0,1,.11.39.21.21,0,0,1,.06.17h.17a.34.34,0,0,1,.34.17,1.52,1.52,0,0,1,.5.9v.28a.49.49,0,0,1,.22.45.43.43,0,0,1,.06.22v.06c.17.06.39.06.56.11a1.27,1.27,0,0,1,.11-1.06,1.2,1.2,0,0,1,.56-.45v-.78l-.45-.84.67-.67a.71.71,0,0,1-.34-.06h-.17c-.06.11-.17.11-.28.11s-.06.11-.11.11a.83.83,0,0,1-.28.34,1.22,1.22,0,0,0-.22.28c-.06.11-.06.17-.11.22l-.28.39-.34-.34c-.11-.06-.28-.17-.28-.34v-.06a.56.56,0,0,1-.22.28l-.17.17Zm4.65,18.93h-.28a.66.66,0,0,1-.62-.5V45a1.14,1.14,0,0,1-.5.34,1.4,1.4,0,0,1-.45-.06.84.84,0,0,0-.06.39.48.48,0,0,1,.34.17c.06-.06.11-.06.11-.11a1.45,1.45,0,0,1,.56-.22.9.9,0,0,1,.78.56v.06C110.73,45.91,110.73,45.74,110.79,45.57Zm-1.51-20,.17.28a.2.2,0,0,0,.11.06V26c.06-.06.11-.11.11-.17l.06-.06v-.17a.21.21,0,0,1-.17-.06h-.22A.05.05,0,0,0,109.28,25.58ZM112.41,9h.06c.11-.06.22-.17.34-.22h-.11A.29.29,0,0,0,112.41,9Z"/><path class="cls-3" d="M138.71,44.79c-.06.34,0,.67-.06,1a4.79,4.79,0,0,1-.5,1.51,1.13,1.13,0,0,1-.5.39,2.76,2.76,0,0,1-1.29.34,11.86,11.86,0,0,1-2,.06h-1.46a1.21,1.21,0,0,1-.62-.06A.71.71,0,0,0,132,48c-.28.06-.5.11-.73-.06h-.11a6.43,6.43,0,0,1-1.46-.11,24.24,24.24,0,0,0-2.86-.06c-1-.06-1.9,0-2.91,0s-1.9,0-2.86-.06c-.17,0-.28.06-.45-.06,0-.06-.17.11-.28.06a2.74,2.74,0,0,1-1.18-.06.19.19,0,0,0-.11.06c-.28.11-.5-.11-.78-.06l-.06-.06c.06-.22-.17-.34-.28-.45s-.06-.11,0-.11,0-.17-.06-.28-.06-.11-.06-.11c.11-.17.06-.17-.06-.17a.57.57,0,0,1-.06-.17v-.62c0-.17.06-.28-.06-.39s0-.17.06-.28.06-.28,0-.34-.17-.17-.11-.34-.11-.22,0-.39-.17-.11,0-.17a.54.54,0,0,1,0-.5c.06-.11,0-.22.11-.34a2.78,2.78,0,0,0-.11-.28c0-.17.22-.28.06-.45s.06-.28.06-.45v-1c.06-.17.17-.39.11-.56-.22-.45-.06-.9-.11-1.34a1.89,1.89,0,0,0,.11-1.12,5,5,0,0,1-.11-1,6.89,6.89,0,0,1,.11-1.06,1.19,1.19,0,0,0,0-.45c-.06-.45-.06-1-.11-1.46a1.4,1.4,0,0,1,.06-.45c.06-.11-.11-.28.06-.39-.06-.17.11-.45-.11-.62a3.39,3.39,0,0,1,.06-1.06,3.69,3.69,0,0,0,0-.78,3,3,0,0,1,0-1.23c.11-.17-.06-.45.17-.62a.19.19,0,0,1-.06-.11c-.06-.11-.17-.17-.11-.34s-.06-.17-.06-.28v-.39c0-.06.06-.11.06-.17s.22-.34.06-.56V26.7c0-.17.17-.39.06-.5s-.06-.34-.06-.5-.22-.28,0-.45a.92.92,0,0,1-.11-.56V23.06c.06-.17.06-.34.11-.45a1.37,1.37,0,0,0,.06-.67,3,3,0,0,1,0-1,4.14,4.14,0,0,0-.06-1.18,5.3,5.3,0,0,1-.11-1.62.2.2,0,0,0,.06-.11.35.35,0,0,0,.11-.5c-.06,0,.06-.06.06-.11-.06-.28.06-.56-.11-.78.06-.17-.17-.34,0-.5V16a.31.31,0,0,1,0-.5c0-.39-.06-.78-.06-1.18-.11-.11.06-.17.06-.28-.06-.34-.06-.73-.11-1.12a.19.19,0,0,0-.06-.11,1.72,1.72,0,0,0-.06-.78.21.21,0,0,1-.06-.17,5.06,5.06,0,0,1,.06-1.29c0-.22-.06-.5-.06-.73s-.22-.5.06-.73a3.8,3.8,0,0,1,.11-.73,1.22,1.22,0,0,1,.73-.84c.17,0,.28.11.45.06s.17-.06.22-.17.22-.11.34-.11.28.17.39-.06h.45c.11,0,.28.06.39-.06s.11-.06.17,0c.28.17.56.06.84.06a2.42,2.42,0,0,0,.9-.06.19.19,0,0,0,.11.06c.11.11.39.11.56.11a1,1,0,0,1,.39.11c.11.06.17.11.28,0h.17c0,.06.11.11.11.06s.34.17.45,0a.34.34,0,0,1,.22-.06c.17-.06.28.11.45,0a.78.78,0,0,1,.5,0h1.06a4.56,4.56,0,0,0,.9-.06,5.28,5.28,0,0,1,1.34-.06c.39-.06.84.11,1.23-.06.06-.06.17.06.28.06h.17c.34-.22.34-.17.62-.11h1.12c.17-.17.39,0,.56-.11a.51.51,0,0,1,.56,0c.11-.11.22-.06.39-.06s.22.11.34,0,.28.06.39.06S135,7,135.07,7c.28.06.62-.11.9.06.11.06.22,0,.28.06s.28-.11.28.11a1.27,1.27,0,0,0,.22.06c.22,0,.22,0,.56.28h.11a.85.85,0,0,1,.56.5.51.51,0,0,1,.17.39c.06.11.22.28.06.39s.06.06.06.11c.06.28.17.5.22.78a9.56,9.56,0,0,1,.06,1.79,5.87,5.87,0,0,1-.28,1.68,3.6,3.6,0,0,1-.45,1.06.87.87,0,0,1-.9.22,1.29,1.29,0,0,0-.78-.06.5.5,0,0,1-.28.06h-2.13c-.11,0-.22.06-.34-.06a.17.17,0,0,0-.22,0,2.79,2.79,0,0,1-1.18.06c-.17,0-.34-.11-.45-.06a13.21,13.21,0,0,1-2.58.06h-2.86c-.06.06-.17.17-.17.22,0,.45-.11.84-.11,1.23v2.41c0,.17-.11.28,0,.5a1.88,1.88,0,0,1,0,.56v4.09c0,.17,0,.22.22.28s.28.06.45.06h1.18c.11,0,.34-.06.39,0s.22-.06.28.06.11.06.11.06a2.87,2.87,0,0,1,1-.06c.45.06,1,.34,1.4.06.06-.06.17,0,.28,0s.39.06.5-.06.28.17.45.06.17,0,.17,0c.11-.17.22-.06.34,0s.17-.11.34,0,.11.17.22,0h.17c.28.22.5,0,.73-.06.06,0,.11-.06.17,0s.17.11.28.17a.18.18,0,0,1,.28-.11c.17.11.22-.17.39,0s.22-.11.39-.11a.72.72,0,0,1,.56.22,1.87,1.87,0,0,1,.62,1.29.79.79,0,0,1,.11.34,1.64,1.64,0,0,1,.11.5v.45a2.82,2.82,0,0,0,.11.67,14.35,14.35,0,0,1-.17,1.46,3.38,3.38,0,0,1-.45,1.62l-.17.34a.79.79,0,0,1-.34.11,2.45,2.45,0,0,0-.39.22,1.82,1.82,0,0,1-.78.22h-1.34a2.43,2.43,0,0,1-.56-.11c-.17,0-.34.06-.5-.11H132c-.11,0-.17.06-.22,0-.17-.28-.45-.17-.67-.17-.45-.06-.84-.17-1.29-.22a.34.34,0,0,0-.22-.06,1.06,1.06,0,0,1-.45-.11c-.17-.06-.28-.17-.45,0a.69.69,0,0,0-.28-.11h-.73c-.11.06-.17-.11-.34,0a.94.94,0,0,1-.39.06,1.1,1.1,0,0,0-.45.06c-.22.17-.62.17-.78.56,0,.06-.06.11-.06.22a.67.67,0,0,1-.06.45c-.11.11.06.28-.11.45.17.17-.11.34.06.56a.35.35,0,0,1,0,.34,2.75,2.75,0,0,0-.06,1,4.92,4.92,0,0,0-.11.9,1.53,1.53,0,0,0,.06.5c.06.11-.11.22-.06.34.17.67,0,1.4.11,2a15.28,15.28,0,0,1,.06,1.57,2.79,2.79,0,0,1,.11.67.5.5,0,0,0,.22.28,8.53,8.53,0,0,0,1.06.45c.17-.17.28,0,.45,0a.78.78,0,0,1,.5,0c.17,0,.34-.06.45.06s.11-.17.22,0,.28,0,.34.06.17-.11.28-.06h.06a4.84,4.84,0,0,0,.9-.06.72.72,0,0,1,.67.06.25.25,0,0,0,.28,0c.17-.11.45-.06.67-.11a1.38,1.38,0,0,0,.45-.06c.17-.11.34-.06.5-.11s.28.11.45.06.22.06.28.06c.22-.17.5-.11.78-.22a4.14,4.14,0,0,1,1.18-.06,2,2,0,0,1,.56-.11c.39-.06.78.17,1.23.11a.21.21,0,0,1,.17.06,2.82,2.82,0,0,1,1,1.62,7.37,7.37,0,0,0,.28,1.06A15.84,15.84,0,0,1,138.71,44.79ZM121.23,31.57a.05.05,0,0,0-.06-.06c0-.06-.06-.11-.06-.17h-.06c-.06-.06-.17-.11-.22-.17s-.28-.17-.45-.22a.9.9,0,0,1-.28-.56c0-.11,0-.17-.06-.22l-.56-.28a4.29,4.29,0,0,1-.17,1.18c0,.06,0,.11-.06.11a1.1,1.1,0,0,1-.06.45.84.84,0,0,0,.06.34v.11l.11-.11h.17a.43.43,0,0,1,.28.11l.45.28.17-.17.06-.06a.57.57,0,0,1,.34-.28c.11,0,.17-.06.28-.17S121.18,31.57,121.23,31.57Zm-1.51,13.94a1.13,1.13,0,0,1-.45-.22v.5c0,.06.06.11.06.22s.06.06.06.11h.06V46c0-.11,0-.22.06-.22l.06-.28Zm-.17-31.25.11-.06c.11,0,.22-.06.39-.06l.11-.06c.11,0,.17.06.28.06l.06-.28v-.39a.9.9,0,0,0-.39-.22,1.27,1.27,0,0,1-.28.28.19.19,0,0,0-.11.06l-.34.45c0,.11-.06.22-.06.34C119.44,14.33,119.5,14.27,119.55,14.27Zm-.22,14.9v.06l.56-.17c0-.06.06-.06.06-.11a1.18,1.18,0,0,1,.22-.34.18.18,0,0,1-.11.06.79.79,0,0,1-.62.06A1.05,1.05,0,0,1,119.33,29.17Zm.22-13.44c-.06-.06-.11-.06-.17-.11v.06C119.44,15.67,119.5,15.73,119.55,15.73Zm-.11,9a.17.17,0,0,0-.06.11l.34.56v-.11a.59.59,0,0,1,.34-.39c-.06-.06-.17-.06-.22-.11h-.11A.42.42,0,0,0,119.44,24.69Zm.34,8.18c-.06,0-.11.06-.17.06h-.06a.2.2,0,0,1-.17-.06v.22l.11.56a.43.43,0,0,0,.06-.22A.8.8,0,0,1,119.78,32.86Zm-.06,5.82a.67.67,0,0,1-.28-.28l-.06.06v.06Zm.11-6.44a.36.36,0,0,0-.28-.11l.11.22Zm0-16.41c0,.06,0,.06.06.06s-.11-.06-.17-.11h-.06A.2.2,0,0,0,119.83,15.84Zm.62.5.34.06-.17.17c.06,0,.11-.06.17-.17h-.06C120.62,16.34,120.56,16.23,120.45,16.34Zm.84,11-.17-.34c-.06.06-.11.06-.11.34a1,1,0,0,1-.06.39.19.19,0,0,0,.11-.06c.06,0,.06,0,.06-.06S121.23,27.43,121.29,27.32Zm.45-16.18v0Zm1.46,16.24v.39h.06A1.08,1.08,0,0,0,123.19,27.37ZM123.25,9v.11a.51.51,0,0,1,.06.28V9.4a1,1,0,0,0,.28.22l.06.06h.06c.17-.11.17-.17.17-.17,0-.17.06-.28.06-.45A2.77,2.77,0,0,1,123.25,9Zm.5,30.52c0-.06-.06-.06-.11-.11l-.17.17c.06.11.11.17.11.28.06-.06.11-.11.11-.17S123.75,39.53,123.75,39.47Zm4.42,6.22v-.06a.21.21,0,0,1-.06-.17.19.19,0,0,1-.06-.11h-.17l.17.22.06.06A.05.05,0,0,0,128.18,45.69Zm.9-19a1.44,1.44,0,0,1,.11.39.21.21,0,0,1,.06.17h.17a.34.34,0,0,1,.34.17,1.52,1.52,0,0,1,.5.9v.28a.49.49,0,0,1,.22.45.43.43,0,0,1,.06.22v.06c.17.06.39.06.56.11a1.26,1.26,0,0,1,.11-1.06,1.21,1.21,0,0,1,.56-.45v-.78l-.45-.84.67-.67a.72.72,0,0,1-.34-.06h-.17c-.06.11-.17.11-.28.11s-.06.11-.11.11a.83.83,0,0,1-.28.34,1.22,1.22,0,0,0-.22.28c-.06.11-.06.17-.11.22l-.28.39-.34-.34c-.11-.06-.28-.17-.28-.34v-.06a.56.56,0,0,1-.22.28l-.17.17Zm4.65,18.93h-.28a.66.66,0,0,1-.62-.5V45a1.13,1.13,0,0,1-.5.34,1.4,1.4,0,0,1-.45-.06.82.82,0,0,0-.06.39.48.48,0,0,1,.34.17c.06-.06.11-.06.11-.11a1.45,1.45,0,0,1,.56-.22.9.9,0,0,1,.78.56v.06C133.67,45.91,133.67,45.74,133.72,45.57Zm-1.51-20,.17.28a.19.19,0,0,0,.11.06V26c.06-.06.11-.11.11-.17l.06-.06v-.17a.21.21,0,0,1-.17-.06h-.22A.05.05,0,0,0,132.21,25.58ZM135.35,9h.06c.11-.06.22-.17.34-.22h-.11A.29.29,0,0,0,135.35,9Z"/><path class="cls-3" d="M164.83,36.84c0,.11.06.22,0,.28s-.11.34-.11.5V40.7a1.65,1.65,0,0,1-.22.9c.11.06.17.11.22.11,0,.22.06.45,0,.5-.22.28.06.56-.17.78,0,.06.06.11.06.17a6.83,6.83,0,0,1-.06,1.51v.22c.11.22-.11.5.06.78a.48.48,0,0,1,0,.39c-.11.11-.11.34-.17.5a3,3,0,0,1-.28.62,2,2,0,0,1-.78.73c-.28.17-.56.45-1,.39-.17.17-.45,0-.67.17s-.22-.06-.39,0a1.53,1.53,0,0,1-.5,0c-.17,0-.39.06-.5,0s-.5.06-.73-.17c-.22.06-.45-.11-.67-.17a5,5,0,0,1-.56-.28h-.22v-.22a1.73,1.73,0,0,1-1.4-1.06h-.22c0-.06.06-.11.06-.17l-.34-.5a.69.69,0,0,1-.22-.45,2.3,2.3,0,0,0-.28-.5c-.06-.17-.17-.28-.22-.45l.06-.06c-.06-.06-.11-.11-.17-.11v-.28a5.16,5.16,0,0,1-.28-.45c-.17-.45-.34-.84-.5-1.23-.06-.17,0-.39-.22-.45v-.39l-.17-.17c.06-.06.06-.11.11-.17a1.49,1.49,0,0,0-.34-.28l.11-.11a.45.45,0,0,0-.17-.11,12,12,0,0,1-.5-1.18c-.06-.11-.06-.22-.11-.34s-.11-.34-.17-.56-.17-.34-.28-.45,0-.17-.06-.22c-.17-.34-.28-.67-.45-1a1.57,1.57,0,0,1-.22-.62l-.11-.11v-.34a1,1,0,0,0-.28-.22v-.11a.57.57,0,0,0-.22-.56c-.11-.06-.17-.34-.22-.5s-.28-.56-.34-.84-.28-.62-.39-1a.19.19,0,0,0,.06-.11c-.06-.11-.06-.28-.17-.34-.28-.17-.22-.45-.34-.62s-.17-.39-.28-.62l.11-.11c-.11-.17-.39-.39-.28-.67a1,1,0,0,1-.22-.17,9.35,9.35,0,0,1-.34-.9c-.17-.22-.17-.5-.34-.78a1,1,0,0,0-.06.34.43.43,0,0,1-.11.28c.06.06.06.11.11.11s-.06.11-.11.17.11.11.11.17c-.28.34.06.78-.06,1.18,0,.11.06.22.06.34a13.71,13.71,0,0,1,0,1.51,4.84,4.84,0,0,0-.06.9,13.79,13.79,0,0,1,.06,2.63v5.38c0,.17.06.34-.06.45s.06.22.06.34v3.08a5,5,0,0,1-.17.78l.11.11c-.11.11-.11.39-.39.39.06.06.06.11.11.11a3.19,3.19,0,0,0-.28.62,1.91,1.91,0,0,1-1.06.5,5.66,5.66,0,0,1-1.4.22c-.17-.06-.34.11-.5.06s-.39.11-.56-.06c-.17.17-.39.06-.56.06h-.62a1.86,1.86,0,0,1-.56,0,3,3,0,0,1-1.34-.34l-.06.06.06-.06a.76.76,0,0,1-.22-.17c-.17-.11-.28-.22-.45-.34a1,1,0,0,1-.11-.39c-.11-.06-.17-.06-.22-.11s.06-.39-.17-.5c.22-.11,0-.28.11-.45a1.89,1.89,0,0,0,0-.56v-.56c.06-.06.11-.11.17-.11a6.06,6.06,0,0,0,0-1,4.14,4.14,0,0,1-.06-1.18c0-.06.06-.11.06-.17a1.39,1.39,0,0,1,0-1c-.06,0-.11-.11-.22-.17.06-.06.11-.11.11-.17s-.06-.28-.06-.39.17-.22.06-.34.11-.22-.06-.28a.28.28,0,0,1,.06-.17c.06-.11,0-.22,0-.34a7.55,7.55,0,0,1-.06-1.12c.22-.11,0-.28.06-.39a.44.44,0,0,0-.06-.45c.17,0,0-.11.06-.22a.61.61,0,0,1,.06-.28V35.33a1.53,1.53,0,0,1,0-.5c.06-.17-.06-.28.06-.45a1.89,1.89,0,0,0,0-.56,2.7,2.7,0,0,0-.06-.67,1.64,1.64,0,0,1-.11-.5V31.29c0-.11-.06-.22.06-.34s0-.22.06-.28-.22-.22-.06-.34c-.11-.17-.06-.28-.06-.45v-.84a1.92,1.92,0,0,1,.06-.78c.06-.17.11-.39-.06-.5a2.48,2.48,0,0,1,.11-1.12c.06-.17.11-.28,0-.39v-.11a13.57,13.57,0,0,1-.11-1.51c0-.11.06-.17.06-.22v-.34c0-.06-.06-.17-.06-.22s0-.34,0-.56a10.73,10.73,0,0,0,.11-1.34c0-.06.06-.06.06-.11a.2.2,0,0,1-.06-.17,11,11,0,0,1-.11-2.35c0-.22.06-.39.06-.62a2.31,2.31,0,0,0,.06-.62c-.06-.17,0-.34-.11-.5s0-.17.06-.22a.34.34,0,0,1-.06-.22,8.53,8.53,0,0,1,.11-1.68v-.78a1.55,1.55,0,0,0-.06-.73,9.09,9.09,0,0,1,.11-1.29.8.8,0,0,0-.11-.34c0-.06-.06-.11-.06-.17s.11-.34.06-.45a.83.83,0,0,1-.06-.39c0-.11-.06-.28,0-.34s-.06-.17,0-.28v-.34c.06-.39.06-.73.11-1.12l.17-.17L140.64,9l.17-.17a1,1,0,0,1,.45-.78,1.41,1.41,0,0,0,.22-.39c.28-.06.56-.17.84-.22.06.06.17.06.28.11a.43.43,0,0,1,.22-.22c.11.22.28-.06.45.06a8.32,8.32,0,0,1,1.18-.06s.06.11.11.11a.61.61,0,0,1,.62-.06c.11,0,.22-.06.28,0,.11-.11.22.11.34.06a1.18,1.18,0,0,1,.45,0h.34a1.48,1.48,0,0,1,.67.17,3.43,3.43,0,0,1,1.34,1,.55.55,0,0,0,.28.22c.06.11.06.22.11.34h.17v.22c.11.17.34.28.28.56.06.06.17.11.28.22-.06.11-.06.17-.11.22s.11.06.17.06v.22c.06,0,.11,0,.11.06a11.15,11.15,0,0,1,.56,1.46,3.58,3.58,0,0,1,.22.73,10,10,0,0,1,.28,1.06,2.86,2.86,0,0,0,.34.73,4.17,4.17,0,0,1,.22.78c0,.06-.06.11-.06.17l.17.34c.06-.06.11-.06.17-.17-.06.17-.06.28-.11.34s0,.06.06.06.22.17.28.22-.06.22-.06.34c.28,0,.22.28.39.45-.06.34.22.56.28.84a4.08,4.08,0,0,0,.17.45c.06.11.22.22.11.39a.05.05,0,0,1,.06.06,5,5,0,0,1,.45,1c.11.39.28.67.39,1.06s.28.62.39.9a.51.51,0,0,1,.06.28.51.51,0,0,0,.17.39,1.18,1.18,0,0,1,.22.62.19.19,0,0,0,.11.06c.11.28.28.62.39.9.22.78.67,1.46.84,2.24l.17.5c0,.06.06.06.17.17V25a.94.94,0,0,1,.17-.56c-.06-.06-.11-.06-.17-.11a4.57,4.57,0,0,1,.11-.11,1.47,1.47,0,0,1-.11-.84,1.47,1.47,0,0,1,.11-.84v-.17a1.57,1.57,0,0,1-.06-1c0-.22.06-.39.06-.62a.71.71,0,0,0-.06-.34c-.06-.06,0-.17,0-.34a4.56,4.56,0,0,1,0-1.23c.06-.34,0-.62.06-1-.17-.22-.11-.45-.11-.73a1.12,1.12,0,0,1,.11-.73V16c0-.06-.06-.11-.11-.17s.06-.11.06-.17a1.71,1.71,0,0,1,.11-1.06c-.06-.28-.06-.5-.11-.78a.17.17,0,0,1,.06-.11c-.06-.17-.22-.34,0-.45a10.8,10.8,0,0,0,.11-1.29c-.06-.17-.11-.34-.17-.56,0-.06-.06-.11-.11-.17v-.39a.34.34,0,0,1,.06-.22c-.17-.11,0-.28,0-.28s-.06-.22-.06-.34.11-.17.06-.34V9c0-.11-.06-.17-.11-.34a.55.55,0,0,0,.17-.06c.11-.34.17-.62.28-1a.8.8,0,0,0,.17-.11.8.8,0,0,1,.62-.28c.06,0,.11-.11.22-.17s.28.11.45,0a1.88,1.88,0,0,1,.56,0c.17,0,.34.11.5-.22a2.32,2.32,0,0,0,.11.28h.45c.06-.06.17,0,.28-.06s.28,0,.45,0,.28.06.39-.06c.11.06.28.11.5.22H162c.11,0,.22-.06.39-.06s.45.06.67.06.56.22.9.28a5.79,5.79,0,0,1,.22,1c0,.34.17.67.17,1,.17.11.06.34.06.45a2.85,2.85,0,0,0,.11.73,3.18,3.18,0,0,0,0,.73c.06.22.17.39,0,.56.17.22.06.45.06.62a10,10,0,0,1,.11,1.29,10.64,10.64,0,0,0,0,1.34c.11.56.06,1.12.11,1.68v1.74a.71.71,0,0,1-.06.34c-.06.06.06.17.06.28a.94.94,0,0,1-.11.28,1.27,1.27,0,0,1,.17.28v3.42h-.06a.82.82,0,0,1,.06.34v2.13c0,1.23,0,2.46.06,3.64,0,.73-.17,1.46-.11,2.18v4.42c0,.11-.11.22-.06.28s-.11.22-.06.34S164.77,36.73,164.83,36.84ZM142.21,10c-.11,0-.11-.06-.17-.11s-.06,0-.11-.06V9.9c0,.17-.06.34-.06.56a.94.94,0,0,1,.06.39c.17-.06.17-.11.17-.11,0-.17.06-.28.06-.39v-.28ZM142,39.08a.19.19,0,0,0-.11-.06v.17c.06,0,.06.06.06.11v-.06C142,39.25,142,39.13,142,39.08Zm1.4-5.38h-.11a1,1,0,0,0-.34.34l-.17.17a.58.58,0,0,1,.06.22H143l.11-.11a1.23,1.23,0,0,1,.28-.17Zm0,11.93a.2.2,0,0,0-.11-.06v-.06l-.06.11.11.06Zm.67-6.61v-.45h-.11c-.06,0-.06,0-.11.11a.43.43,0,0,0,.11.28A.17.17,0,0,0,144.05,39Zm1.62-7a.84.84,0,0,1-.5-.39l-.17-.28.11-.11h-.06l.06-.22a.47.47,0,0,1,.11-.34h-.06a.3.3,0,0,1-.17.22.53.53,0,0,1-.06.5.29.29,0,0,1,.11.22c.06.22.22.34.34.56a.12.12,0,0,1,.11.11l.06.06A.79.79,0,0,1,145.68,32Zm-.5-2.3c.06.06.06.06.06.11l.11-.06c0-.06-.06-.06-.06-.11A.19.19,0,0,1,145.17,29.73Zm1,15.23V44.9c-.06-.06-.06-.06-.06-.11s-.06-.06-.06-.11h-.17l.17.17a.05.05,0,0,0,.06.06A.06.06,0,0,0,146.18,45Zm.22-7a2.16,2.16,0,0,1,.45-1.12c0-.06.06-.17.06-.22a.51.51,0,0,1,0-.67,1,1,0,0,0,0-1,.17.17,0,0,0-.06-.11.17.17,0,0,1-.11-.06v.06l-.22.78-.17-.22A4.87,4.87,0,0,1,146,36c.06.06.06.11.11.11s.06.11.06.17l.17-.06.17.22a.83.83,0,0,1,.17.45.17.17,0,0,0-.06.11,1.13,1.13,0,0,1-.28.78.05.05,0,0,1-.06.06C146.29,37.9,146.35,38,146.41,38Zm.67,8.74-.34-.5c0,.06-.06.06-.06.11s-.06.17-.11.22a.51.51,0,0,1,.06.28.21.21,0,0,1,.17-.06A2.44,2.44,0,0,0,147.08,46.69Zm.34-20c0,.06-.06.11-.11.17l-.17.11H147a1,1,0,0,1,.11.39.19.19,0,0,0,.06.11h.17Zm.67-3.64.17.22a2.44,2.44,0,0,1-.06-.28C148.14,23.06,148.14,23.06,148.08,23.06Zm.28.5c0-.06-.06-.11-.06-.17l-.06.17a.21.21,0,0,0-.06.17.43.43,0,0,0-.11.28A5.21,5.21,0,0,1,148.37,23.57Zm1.68,1.9a1,1,0,0,1-.39-.11h-.11a.64.64,0,0,1-.17.45A.35.35,0,0,1,149,26c-.06,0-.06.06-.11.11a.19.19,0,0,0-.06.11l.28.34.73-.78.28.45h.06a.06.06,0,0,0,.06.06c0-.06.06-.11.11-.17l.06-.06a1,1,0,0,1,.11-.45c0-.06.06-.11.06-.17v-.22A.86.86,0,0,1,150,25.47Zm.62-1.23-.22-.22v.11a.75.75,0,0,1,.22.17Zm1-2.18v-.17h-.17l-.06-.17a.81.81,0,0,1-.11-.39c0-.17-.11-.28-.34-.45a.86.86,0,0,1-.28.73c0,.11,0,.11.06.17.39.11.56.22.56.56l.17.17A.64.64,0,0,1,151.61,22.05Zm.28,8.68a1.16,1.16,0,0,0-.34.22l.11.22-.11.11a.78.78,0,0,1,.17.22l.17-.11v.11A1.81,1.81,0,0,1,151.89,30.73Zm-.11-7.39v.11c.06,0,.06,0,.11-.06A.19.19,0,0,1,151.78,23.34Zm2.13,10.14a.65.65,0,0,1,.56-.39c-.06-.11-.11-.28-.17-.39a.05.05,0,0,0-.06-.06H154l-.11.22h-.34a1.13,1.13,0,0,1-.45-.22.79.79,0,0,1-.22.17.52.52,0,0,1-.17.28,1.91,1.91,0,0,1,.11.78.86.86,0,0,1,.34.22.42.42,0,0,1,.11.22l.06.11a.12.12,0,0,0,.11.11c0,.06,0,.06.06.06v-.06a.05.05,0,0,1-.06-.06c-.11-.11-.06-.34-.06-.45v-.5l.45.06h.06S153.91,33.59,153.91,33.48Zm-.67-9a.21.21,0,0,0,.06.17c0,.06.06.11.06.17h.06a.94.94,0,0,0-.11-.28Zm.22,3.25a.7.7,0,0,1,.06.34h.39v-.28l-.17-.17A.42.42,0,0,1,153.46,27.77Zm1.06,7.45-.06-.11c-.06,0-.06,0-.11-.06v.11H154a.18.18,0,0,1-.11-.06l.34.5.06.06c.06-.11.17-.28.22-.39Zm.34,3.36c-.06-.06-.06-.17-.11-.22v.11c0,.06,0,.11.06.11v.06C154.81,38.57,154.81,38.57,154.86,38.57Zm1.74-2.35a.17.17,0,0,0-.11-.06c.06.06.06.11.11.17ZM157.72,42c-.06-.06-.06-.06-.11-.06h-.06l.17.17Zm.45-18.42a.42.42,0,0,0,.11-.22c.06-.11.11-.17.11-.22a.05.05,0,0,0,.06-.06c0,.06-.06.06-.11.11a.76.76,0,0,1-.45.28Zm.11,14.56V38a.2.2,0,0,0-.17.06.17.17,0,1,0,0,.34A.78.78,0,0,0,158.28,38.13Zm.28,3.36v-.06c0-.06-.06-.11,0-.17a.06.06,0,0,1-.06-.06.17.17,0,0,0-.11-.06c-.06,0-.11.06-.17.06a.43.43,0,0,1,.11.22C158.39,41.54,158.45,41.54,158.56,41.49Zm.78-20.33c-.11-.06-.17-.06-.22-.11a.42.42,0,0,1-.28.06h-.11a1.23,1.23,0,0,1-.34.56.2.2,0,0,0-.06.11v.17a.55.55,0,0,1,.06.45.42.42,0,0,1,.11.22.21.21,0,0,1,.06.17.43.43,0,0,1,.11-.28v-.06l.06-.22a.21.21,0,0,0,.06-.17,1.5,1.5,0,0,1,.34-.67c0-.06.06-.06.06-.11S159.29,21.21,159.34,21.16Zm2.07-9.35a.21.21,0,0,1-.17.06l-.34.11-.17-.17a4.13,4.13,0,0,1-.39-.67c0,.06-.06.06-.11.11l-.06.06c-.11.06-.22.22-.45.22h-.22v.17l.06-.06.11.62a1.83,1.83,0,0,1,1.06.22h.5a.19.19,0,0,0,.06-.11c.06-.06.06-.11.06-.22a.21.21,0,0,1,.06-.17Zm-.67,11.31h-.11c-.11.17-.28.17-.34.22a1,1,0,0,0-.39.06h-.17a.34.34,0,0,1-.06.22v.22c.06,0,.11.06.17.06s.06-.11.11-.17l.17-.34.28.06a.31.31,0,0,0,.28-.17l.06-.06ZM160,46.36c-.11-.06-.22-.06-.28.11a1.68,1.68,0,0,0,.56.22C160.24,46.41,160.07,46.41,160,46.36Zm1.74-7h-.17l-.06-.06v.06c.06.06.11.06.17.11S161.69,39.41,161.69,39.36Zm.22-24.75h-.22l.06.06Zm1.29-1.18a1.81,1.81,0,0,1-.06-.78l-.5-.56.11-.17a.06.06,0,0,1-.06.06.34.34,0,0,0-.22-.06v.22a.31.31,0,0,1,.17.28c.11.34-.17.84-.17.9s-.11.17-.17.22c.11.11.22.17.34.28s.28.06.39.22a.21.21,0,0,1,.17-.06v-.22C163.26,13.71,163.21,13.54,163.21,13.43ZM162.93,46c-.06.17-.11.28-.17.45.17,0,.34.06.39-.11A.38.38,0,0,0,162.93,46Zm.56-12-.06-.06c0,.06.06.06.06.11Zm.11-.06v.17l-.06-.06a.06.06,0,0,0,.06.06C163.65,34,163.65,33.93,163.6,33.93Z"/><path class="cls-3" d="M190.68,18.41c-.06.06-.06.11-.06.22a2.35,2.35,0,0,1-.67,1.57,2.32,2.32,0,0,1-.73.39,4.36,4.36,0,0,1-.84.11H187a.82.82,0,0,1-.39-.06.49.49,0,0,0-.39.06H186c-.17,0-.17-.22-.34-.17s-.22.06-.34.06a1,1,0,0,1-.45-.11c-.17-.11-.34-.06-.5-.06a.49.49,0,0,1-.39.06.79.79,0,0,0-.62-.06c-.17.06-.28-.11-.5-.06-.06.06-.22-.06-.34-.11a1.77,1.77,0,0,1-.62-1,3.26,3.26,0,0,1-.22-1c0-.06-.06-.17,0-.22s.11-.17-.06-.17v-.06c0-.11.06-.22.06-.34s-.28-.34-.11-.62c0-.06-.11-.17-.17-.22a2.28,2.28,0,0,1-.28-.5,1.34,1.34,0,0,0-.39-.67c-.11-.11-.17-.28-.34-.39s-.34-.11-.34-.34h-.17a3.44,3.44,0,0,1-.73-.17c-.22-.06-.45,0-.73-.06a3.47,3.47,0,0,0-1.79.5c-.17.11-.39.17-.56.28l-.34.34c-.06.11-.06.28-.11.45-.22-.06-.17.22-.34.28v.11c0,.5-.28,1-.22,1.46,0,.11-.06.28-.06.39s-.06.28.06.34c-.11.11.06.22,0,.34s0,.28.11.28-.11.22.06.22.11.17.11.28a6.88,6.88,0,0,0,.78,1.4c.06.06.06.11.11.17a3.17,3.17,0,0,0,.28.45c.11.17.34.11.45.28s.11.06.11.11.34.17.39.34.11.17.17.17a1.54,1.54,0,0,1,.73.11c.11.11.11.28.34.28s.34.11.45.17a2,2,0,0,1,.62.17c.22.17.5,0,.67.22.06,0,.17,0,.17.06a.51.51,0,0,0,.45.22.1.1,0,0,0,.17,0c.11,0,.34-.11.39.17a2,2,0,0,0,.62.17,7,7,0,0,1,1.51.56c.17.06.39.06.45.22.17-.11.22.06.34.06s.28,0,.34.06c.22.22.62.22.78.45a1.39,1.39,0,0,0,.39.22,2.5,2.5,0,0,1,.39.34c.11.11.28.06.34.28s.28-.06.28.22c0,.06.22.11.28.17s.17.34.34.39a1.51,1.51,0,0,1,.34.28,1.16,1.16,0,0,0,.22.34c.11.11.11.34.28.39s.17.34.28.45.06.11.06.22h-.06V29a.06.06,0,0,0,.06-.06,3.8,3.8,0,0,1,.67,1.34c.17.39.17.78.34,1.12.11.17.06.39.11.56a4.91,4.91,0,0,1,.11.9,10.82,10.82,0,0,1,.11,1.29,9.69,9.69,0,0,1,.11,1.79v.11c-.28.11-.17.34-.11.5a15.94,15.94,0,0,1-.11,1.62c.06.11-.22.11-.11.34a.35.35,0,0,1,0,.34,10.66,10.66,0,0,1-.28,1.29,10.5,10.5,0,0,1-.39,1.23c-.11.22-.11.5-.39.67a.25.25,0,0,0-.17.22c0,.39-.28.62-.45,1-.06,0-.06.06-.11.11l-.17.34c-.11.11-.17.22-.28.22s-.11.28-.22.34-.34.11-.28.34h-.17v.17a3.2,3.2,0,0,1-1.23.9c-.11.06-.11.06-.11.17a.19.19,0,0,1-.06.11.26.26,0,0,0-.28.17.56.56,0,0,1-.28.22,6.32,6.32,0,0,0-1.06.56,1,1,0,0,1-.39.11.21.21,0,0,1-.17.06,1,1,0,0,1-.62.34,3.12,3.12,0,0,1-.67.22,2.76,2.76,0,0,0-.73.17l-.78.17c-.22.06-.5.06-.78.11a5.52,5.52,0,0,1-.9.11c-.17,0-.34.06-.45-.11h-.11a4.92,4.92,0,0,1-1.57.11,1,1,0,0,1-.45-.11c-.62-.17-1.23-.06-1.74-.39a1.63,1.63,0,0,1-.78-.17c-.22-.06-.5-.11-.62-.34s-.11.06-.22,0c-.34-.17-.73-.34-1.12-.56a8.32,8.32,0,0,1-1.12-.84,1,1,0,0,0-.39-.28.81.81,0,0,1-.5-.34c-.11-.17-.34-.28-.39-.5,0-.06-.22,0-.17-.17-.22,0-.17-.17-.22-.28-.11-.28-.39-.39-.5-.62-.17,0-.17-.11-.17-.22s-.06-.28-.11-.39-.34-.22-.28-.45c.06-.06-.06-.11-.11-.17a1.32,1.32,0,0,1-.17-.5c0-.17-.06-.39-.06-.56a.19.19,0,0,0-.06-.11c-.45-.17-.34-.67-.5-1a1.43,1.43,0,0,1-.22-1c0-.17-.22-.39,0-.56v-.06l-.17-.17c.11-.06,0-.17,0-.17s0-.17,0-.22.06-.28-.11-.34c.17-.11,0-.17,0-.28v-.34c0-.22-.11-.39-.11-.62a1.49,1.49,0,0,1,.17-.67.56.56,0,0,1,.22-.28.29.29,0,0,0,.22-.11c.11-.22.28-.28.5-.39a.79.79,0,0,1,.62.06c.06.06.22,0,.34,0s.28-.06.39.06.11,0,.22,0c-.06-.06-.06-.06-.06-.11l.39-.17c.11,0,.22.06.34,0a1,1,0,0,0,.56-.06c.06-.06.28,0,.39,0s.17.11.22.06c.17-.22.39.06.56,0,.22.22.45.11.67.11a.69.69,0,0,0,.56-.11.66.66,0,0,1,.56-.06,2.7,2.7,0,0,1,1.18.45.06.06,0,0,0,.06.06c.06.17.22.22.28.39a3.28,3.28,0,0,1,.5,1.4,1.74,1.74,0,0,0,.11.45,1.2,1.2,0,0,0,0,.45,9,9,0,0,0,.28,1.62c0,.06.06.11.11.22a.78.78,0,0,1,.17.22c.11.11.11.17.22.22a.75.75,0,0,1,.17.22c.06.06.17.06.28.11a2.26,2.26,0,0,0,1.06.17c.11,0,.28-.06.39.06s.06,0,.06,0c.11-.17.34-.11.5-.17a1.38,1.38,0,0,1,.67-.06.25.25,0,0,0,.28,0c.17-.11.28.06.45,0s.11-.06.11-.11.06-.17.17-.17.28-.06.22-.22l.06-.06a1.52,1.52,0,0,1,.34-.28.19.19,0,0,1,.06-.11c.39,0,.34-.34.39-.56s.06-.28.22-.34h.06l-.06-.06h.06c.06-.11-.11-.22,0-.34A1,1,0,0,0,182,38a10.48,10.48,0,0,0,.22-1.4c-.06-.11.06-.22.06-.34a.7.7,0,0,0,.06-.34.93.93,0,0,0,0-.67c-.06-.11-.11-.17-.11-.28s0-.06,0-.06,0-.06-.06-.11.22-.17.06-.28c0-.06.06-.11.06-.17s.11-.17-.06-.17v-.06c-.06-.28,0-.5-.22-.73.17-.11.17-.22-.06-.28-.06,0-.06-.22-.11-.34s-.28-.34-.28-.5-.22-.11-.17-.28-.22,0-.17-.17a.21.21,0,0,1-.17.06c-.06-.06-.11-.11-.11-.17a1.12,1.12,0,0,0-.45-.22c-.28-.11-.56-.34-.9-.5a2.08,2.08,0,0,0-.62-.28c-.39-.06-.67-.28-1-.34-.28-.22-.62-.17-.9-.28l-.67-.17c-.06-.06-.06-.11-.11-.17-.06.11-.17.06-.22,0a.42.42,0,0,0-.28-.06h-.11a.47.47,0,0,0-.39-.11c-.17,0-.28-.11-.45-.17s-.28-.06-.45-.11-.17-.06-.28-.11a1,1,0,0,0-.56-.17s-.06.06-.06,0c-.34-.22-.78-.28-1.12-.5a13.38,13.38,0,0,1-1.18-.73c-.22-.17-.39-.45-.73-.56-.11-.34-.39-.5-.67-.73a1.16,1.16,0,0,1-.5-.73c0-.06-.11-.06-.11-.06-.17-.17-.39-.28-.39-.62a.82.82,0,0,1-.17-.11c-.06-.39-.39-.62-.45-1-.22-.17-.17-.45-.28-.67v-.11c.11-.11.11-.17-.06-.17l-.17-.17c-.06-.11.11-.34-.11-.45s0-.34-.17-.39c.17-.28-.17-.56.06-.78a.06.06,0,0,0,.06-.06c-.22-.17-.11-.39-.11-.56a.31.31,0,0,0-.17-.28c-.17-.06-.11-.06-.06-.22a.61.61,0,0,0,0-.45c0-.22-.17-.39,0-.56-.17-.22,0-.39.06-.62s.06-.39.06-.62-.06-.45.06-.62,0-.22-.06-.28-.22-.34.06-.39c.06,0,.06,0,.06-.06-.22-.17-.06-.34.06-.56s.06-.39.11-.56a3.18,3.18,0,0,0,.22-.78c.11-.22.17-.5.28-.73s.11-.56.45-.67a.12.12,0,0,0,.11-.11c0-.22.22-.39.28-.62a6.35,6.35,0,0,1,.84-1.29.05.05,0,0,0,.06-.06c.06-.17.39.06.39-.28,0-.11.17-.28.28-.39s.06-.06.11-.11h.11c0-.28.34-.28.39-.45a.38.38,0,0,1,.28-.22h.11c0-.22.34-.17.39-.34s.11-.11.17-.11.22-.17.28-.17.17.06.28,0,.22-.06.34-.11.06-.11.11-.11a1.39,1.39,0,0,1,.9-.56c.11,0,.11-.06.17-.11a.31.31,0,0,1,.28-.17c.11-.06.28-.06.39-.11s.22.06.28-.06.22-.11.34-.17a3.84,3.84,0,0,1,1.9-.34c.11,0,.22.11.28-.06s.22-.11.28-.06a.43.43,0,0,0,.45,0c.11-.11.22.06.34-.06s.22,0,.34-.11H179a2,2,0,0,0,1.12.17,1.37,1.37,0,0,1,1.12.28.19.19,0,0,1,.11-.06h.22c.11.06.22.17.28.11s.17.11.34.06.17.11.28.06a.92.92,0,0,1,.56.11c.17.11.39.11.5.28s.17-.17.17.06a.31.31,0,0,1,.28.11c.06.06.17.06.28.11s.17.11.28.11.45.28.67.39.56.39.9.56c0,.06.11.06.11.11s.17.28.28.34.17,0,.22.06a1.32,1.32,0,0,1,.62.62,2.18,2.18,0,0,0,.45.56,1.42,1.42,0,0,0,.22.39c.06.11.28.22.28.34.11.28.34.45.45.73a4.67,4.67,0,0,1,.39.73c.06.06.11.11.11.17-.06.28.11.5.22.78l.17.17a.23.23,0,0,1,.17.34c0,.06-.11.11,0,.17a2.07,2.07,0,0,1,.39.78,4.78,4.78,0,0,1,.28,1.29s.11.06.06.11a.52.52,0,0,0,.06.56A1.26,1.26,0,0,1,190.68,18.41ZM174,23.06a.92.92,0,0,1-.67,0,.8.8,0,0,1-.11.34.51.51,0,0,1-.39.17v.06a.46.46,0,0,1-.28.28c0,.06-.06.11-.11.17s-.06.11-.11.22l-.28.34-.34-.28a.79.79,0,0,1-.17-.22c0,.06-.06.06-.06.11l-.17.11a.21.21,0,0,1,.06.17v.06h.22l.17.17a1.17,1.17,0,0,1,.45.73v.17a.53.53,0,0,1,.17.39v.34c.06.06.06.11.11.22h.34l-.06-.06a.9.9,0,0,1,0-1.06,1.05,1.05,0,0,1,.39-.34v-.5l-.39-.67.78-.84.22.45c.06,0,.06,0,.06-.06a.82.82,0,0,1,.11-.39Zm-2.52,18.26h0ZM174,38.57c0-.06-.06-.11-.06-.17a1.19,1.19,0,0,1-.28.17c-.11.06-.22,0-.34,0v.11c.06,0,.11.06.17.06h.06A.64.64,0,0,1,174,38.57Zm.67-10.81c.06,0,.06.06.11.06Zm1.79-2.8v.11h.17V25c-.06-.06-.06-.06-.06-.11S176.57,25,176.51,25Zm6.22-12.82-.34.06-.17-.17a1.22,1.22,0,0,1-.28-.45v.06h-.06a1.21,1.21,0,0,1-.39.22h-.06l.06.39a1.78,1.78,0,0,1,.78.17h.39v-.17A.18.18,0,0,0,182.73,12.14Zm.34,2.13h0Zm.22,0h0v0Zm3-.5a.48.48,0,0,1,.17-.34v-.22a.21.21,0,0,0-.06-.17.58.58,0,0,1-.45.22.6.6,0,0,1-.56-.5,1,1,0,0,1-.28-.22l-.22-.17a.84.84,0,0,1-1-.17h-.11a.29.29,0,0,1,.11.22,1.18,1.18,0,0,1-.17.84c0,.06-.06.06-.06.11l.17.17a.48.48,0,0,1,.34.17.42.42,0,0,1,.22-.11.25.25,0,0,0,.17-.06.51.51,0,0,1,.39-.17h.62l.28.5Zm-1.79,16.13V30h.06Zm.11.11a.1.1,0,0,0,0-.17Zm2.3-14.39c-.06,0-.11-.06-.17-.17h-.17a1.18,1.18,0,0,1-.17.28l.06.06h.45Zm-.28,23.07h0Z"/></svg>