<?xml version="1.0" encoding="iso-8859-1"?>
<!-- Generator: Adobe Illustrator 20.0.0, SVG Export Plug-In . SVG Version: 6.00 Build 0)  -->
<svg version="1.1" id="Layer_1" xmlns="http://www.w3.org/2000/svg" xmlns:xlink="http://www.w3.org/1999/xlink" x="0px" y="0px"
	 viewBox="0 0 348 105.333" style="enable-background:new 0 0 348 105.333;" xml:space="preserve">
<g>
	<path style="fill:#FFFFFF;" d="M23.402,73.413c0,5.501,0,15.129,7.707,15.129c5.891,0,7.963-5.5,7.963-9.486
		c0-17.475-32.463-21.461-32.463-50.475c0-14.723,7.978-26.684,23.111-26.684c16.1,0,22.279,12.236,22.693,29.836H36.462
		c0-5.495,0-14.709-7.156-14.709c-4.271,0-6.746,3.574-6.746,8.937c0,16.643,32.461,22.283,32.461,50.759
		c0,14.984-8.525,26.949-24.613,26.949c-19.115,0-22.963-16.775-22.963-30.256H23.402z"/>
	<path style="fill:#FFFFFF;" d="M59.687,32.703h15.971v69.049H59.687V32.703z M59.687,3.825h15.971v15.948H59.687V3.825z"/>
	<path style="fill:#FFFFFF;" d="M108.122,57.872c-0.295-10.725-1.248-14.719-4.688-14.719c-3.57,0-4.395,4.129-4.395,25.857
		c0,17.328,1.365,21.46,5.082,21.46c4.816,0,5.096-7.979,6.057-15.126l12.23,0.41c-0.27,12.787-2.883,26.816-19.117,27.1
		c-12.516,0-22.133-9.498-22.133-35.635c0-26.127,9.617-35.617,22.133-35.617c15.404,0,18.014,12.101,19.117,25.857L108.122,57.872z
		"/>
	<polygon style="fill:#FFFFFF;" points="127.777,3.825 143.728,3.825 143.728,56.773 144.003,56.773 156.253,32.703 169.462,32.703 
		158.462,53.607 171.394,101.752 155.425,101.752 147.589,70.665 147.443,70.665 143.728,78.232 143.728,101.752 127.777,101.752 	
		"/>
	<polygon style="fill:#FFFFFF;" points="177.843,3.825 195.724,3.825 195.724,44.808 195.999,44.808 210.859,3.825 226.814,3.825 
		213.468,36.695 229.554,101.752 212.372,101.752 202.468,57.872 202.191,57.872 195.724,73.276 195.724,101.752 177.843,101.752 	
		"/>
	<path style="fill:#FFFFFF;" d="M234.095,32.703h15.959v69.049h-15.959V32.703z M234.095,3.825h15.959v15.948h-15.959V3.825z"/>
	<path style="fill:#FFFFFF;" d="M284.292,44.53c-0.676-1.244-2.336-2.195-4.396-2.195c-4.68,0-5.922,2.891-5.922,24.615
		c0,21.18,0.828,24.352,5.52,24.352c2.338,0,3.975-0.965,4.799-2.199V44.53z M284.988,96.242h-0.272
		c-3.174,3.581-5.785,6.612-12.1,6.612c-11.562,0-15.691-13.213-15.691-35.772c0-22.823,5.367-35.479,17.049-35.479
		c4.678,0,8.133,2.338,10.055,4.949h0.264V3.825h15.957v97.927h-15.262V96.242z"/>
	<path style="fill:#FFFFFF;" d="M332.165,51.956c-0.557-4.262-1.518-8.803-7.022-8.803c-3.021,0-4.814,2.89-4.814,5.918
		c0,11.285,25.869,12.377,25.869,33.42c0,11.969-7.979,20.363-20.373,20.363c-13.061,0-18.418-7.842-19.803-20.09l12.527-1.918
		c1.088,7.42,2.734,10.455,7.977,10.455c3.299,0,5.365-2.479,5.365-5.646c0-10.864-24.76-11.556-24.76-34.94
		c0-10.99,7.826-19.113,18.984-19.113c11.135,0,16.641,8.123,17.603,18.426L332.165,51.956z"/>
	<path style="fill:#FFFFFF;" d="M336.322,9.341h1.105c0.957,0,1.805-0.047,1.805-1.127c0-0.904-0.777-1.046-1.496-1.046h-1.414
		V9.341z M335.261,6.314h2.645c1.635,0,2.395,0.643,2.395,1.949c0,1.236-0.791,1.75-1.801,1.867l1.957,3.006h-1.139l-1.858-2.93
		h-1.139v2.93h-1.061V6.314z M337.554,14.726c2.691,0,4.791-2.152,4.791-5.024c0-2.788-2.1-4.958-4.791-4.958
		c-2.754,0-4.844,2.17-4.844,4.958C332.71,12.573,334.8,14.726,337.554,14.726z M337.554,3.886c3.193,0,5.857,2.514,5.857,5.815
		c0,3.362-2.664,5.882-5.857,5.882c-3.213,0-5.906-2.519-5.906-5.882C331.648,6.4,334.341,3.886,337.554,3.886z"/>
</g>
</svg>
