<?xml version="1.0" encoding="utf-8"?>
<!-- Generator: Adobe Illustrator 24.3.0, SVG Export Plug-In . SVG Version: 6.00 Build 0)  -->
<svg version="1.1" id="Layer_1" xmlns="http://www.w3.org/2000/svg" xmlns:xlink="http://www.w3.org/1999/xlink" x="0px" y="0px"
	 viewBox="0 0 482.5 48.09" style="enable-background:new 0 0 482.5 48.09;" xml:space="preserve">
<style type="text/css">
	.st0{fill:#00B3E2;}
	.st1{fill:#005BA8;}
	.st2{fill:none;stroke:#005BA8;stroke-width:2;stroke-miterlimit:10;}
	.st3{fill:#4CA1D2;}
	.st4{fill:#005FAB;}
</style>
<g>
	<g>
		<path class="st0" d="M10.12,32.3c0,2.2,0,6.06,3.09,6.06c2.36,0,3.19-2.21,3.19-3.8c0-7-13-8.6-13-20.22
			c0-5.9,3.2-10.69,9.26-10.69c6.45,0,8.92,4.9,9.09,11.95h-6.39c0-2.2,0-5.89-2.87-5.89c-1.71,0-2.7,1.43-2.7,3.58
			c0,6.67,13,8.93,13,20.33c0,6-3.42,10.8-9.86,10.8c-7.66,0-9.2-6.72-9.2-12.12H10.12z"/>
		<path class="st0" d="M24.65,15.99h6.4v27.66h-6.4V15.99z M24.65,4.42h6.4v6.39h-6.4V4.42z"/>
		<path class="st0" d="M44.06,26.07c-0.12-4.29-0.5-5.9-1.88-5.9c-1.43,0-1.76,1.65-1.76,10.36c0,6.94,0.55,8.6,2.04,8.6
			c1.93,0,2.04-3.2,2.43-6.06l4.9,0.17c-0.11,5.12-1.16,10.74-7.66,10.86c-5.02,0-8.87-3.8-8.87-14.28
			c0-10.47,3.85-14.27,8.87-14.27c6.17,0,7.22,4.85,7.66,10.36L44.06,26.07z"/>
		<polygon class="st0" points="51.93,4.42 58.32,4.42 58.32,25.63 58.43,25.63 63.34,15.99 68.63,15.99 64.22,24.36 69.4,43.65 
			63.01,43.65 59.87,31.2 59.81,31.2 58.32,34.23 58.32,43.65 51.93,43.65 		"/>
		<polygon class="st1" points="71.99,4.42 79.15,4.42 79.15,20.84 79.26,20.84 85.21,4.42 91.61,4.42 86.26,17.59 92.7,43.65 
			85.82,43.65 81.85,26.07 81.74,26.07 79.15,32.25 79.15,43.65 71.99,43.65 		"/>
		<path class="st1" d="M94.52,15.99h6.39v27.66h-6.39V15.99z M94.52,4.42h6.39v6.39h-6.39V4.42z"/>
		<path class="st1" d="M114.63,20.73c-0.27-0.5-0.94-0.88-1.76-0.88c-1.87,0-2.37,1.16-2.37,9.86c0,8.48,0.33,9.75,2.21,9.75
			c0.94,0,1.59-0.39,1.92-0.88V20.73z M114.91,41.45h-0.11c-1.27,1.43-2.32,2.65-4.85,2.65c-4.63,0-6.29-5.29-6.29-14.33
			c0-9.14,2.15-14.21,6.83-14.21c1.87,0,3.26,0.94,4.03,1.98h0.11V4.42h6.39v39.23h-6.11V41.45z"/>
		<path class="st1" d="M133.81,23.7c-0.22-1.71-0.61-3.53-2.81-3.53c-1.21,0-1.93,1.16-1.93,2.37c0,4.52,10.36,4.96,10.36,13.39
			c0,4.79-3.2,8.16-8.16,8.16c-5.23,0-7.38-3.14-7.93-8.05l5.02-0.77c0.44,2.97,1.1,4.19,3.2,4.19c1.32,0,2.15-0.99,2.15-2.26
			c0-4.35-9.92-4.63-9.92-14c0-4.4,3.14-7.66,7.61-7.66c4.46,0,6.67,3.26,7.05,7.38L133.81,23.7z"/>
		<path class="st1" d="M135.48,6.63h0.44c0.38,0,0.72-0.02,0.72-0.45c0-0.36-0.31-0.42-0.6-0.42h-0.57V6.63z M135.05,5.42h1.06
			c0.66,0,0.96,0.26,0.96,0.78c0,0.5-0.32,0.7-0.72,0.75l0.78,1.2h-0.46l-0.74-1.17h-0.46v1.17h-0.43V5.42z M135.97,8.79
			c1.08,0,1.92-0.86,1.92-2.01c0-1.12-0.84-1.99-1.92-1.99c-1.1,0-1.94,0.87-1.94,1.99C134.03,7.93,134.87,8.79,135.97,8.79z
			 M135.97,4.44c1.28,0,2.35,1.01,2.35,2.33c0,1.35-1.07,2.36-2.35,2.36c-1.29,0-2.37-1.01-2.37-2.36
			C133.6,5.45,134.68,4.44,135.97,4.44z"/>
	</g>
	<line class="st2" x1="162.87" y1="3.74" x2="162.87" y2="44.17"/>
	<g>
		<path class="st3" d="M199.78,4.37l8.85,39.36h-4.6l-2.48-11.39h-8.79l-2.42,11.39h-4.25l9.03-39.36H199.78z M200.84,28.68
			l-3.6-19.65l-3.72,19.65H200.84z"/>
		<path class="st3" d="M210.75,4.37h4.07v14.4c0.53-1.36,1.83-4.66,6.02-4.66c8.44,0,8.56,11.21,8.56,14.75
			c0,3.42-0.35,9.21-3.19,12.63c-1.3,1.59-3.54,2.77-5.96,2.77c-3.36,0-5.31-1.65-6.31-4.07l-1,3.54h-2.18V4.37z M214.82,32.64
			c0,1.36,0,4.54,1.42,6.43c0.47,0.65,1.59,1.89,3.3,1.89c4.37,0,5.37-5.61,5.37-11.98c0-7.49-1.12-11.39-4.9-11.39
			c-2.24,0-5.19,1.65-5.19,10.03V32.64z"/>
		<path class="st3" d="M250.81,29.45c0,9.03-2.6,14.99-9.62,14.99c-7.26,0-9.5-6.73-9.5-15.11c0-4.37,0.83-15.4,9.56-15.4
			C249.75,13.93,250.81,24.14,250.81,29.45z M237.65,19.72c-1.42,2.66-1.47,8.03-1.47,9.62c0,8.67,1.71,11.62,5.07,11.62
			c2.95,0,5.07-2.3,5.07-11.09c0-9.32-1.59-12.45-5.07-12.45C239.31,17.42,238.36,18.42,237.65,19.72z"/>
		<path class="st3" d="M269.93,43.73h-3.72v-3.48c-0.83,1.59-2.24,4.19-6.37,4.19c-1.18,0-4.13-0.29-5.55-2.71
			c-0.71-1.3-0.94-2.95-0.94-7.55V14.64h4.07v19.77c0,3.01,0,6.31,3.66,6.31c4.13,0,4.78-4.42,4.78-7.38V14.64h4.07V43.73z"/>
		<path class="st3" d="M272.41,14.64h3.3V7.33l4.07-0.47v7.79h4.96V18h-4.96v15.81c0,4.78,0.41,6.08,3.54,6.08
			c1,0,1.3-0.06,2.18-0.18v3.54c-0.53,0.24-1.47,0.59-3.48,0.59c-6.08,0-6.31-4.31-6.31-10.03V18h-3.3V14.64z"/>
		<path class="st4" d="M306.8,43.73l-8.26-20.65l-4.6,7.61v13.04h-4.48V4.37h4.48v19.77l10.98-19.77h4.84l-8.56,14.34l10.68,25.02
			H306.8z"/>
		<path class="st4" d="M318.48,4.37v5.01h-4.43V4.37H318.48z M314.24,14.64h4.07v29.09h-4.07V14.64z"/>
		<path class="st4" d="M339.96,43.73h-3.54v-3.78c-0.65,1.42-2.01,4.31-6.43,4.31c-7.85,0-8.67-9.74-8.67-14.52
			c0-11.62,4.48-15.64,9.09-15.64c3.83,0,4.96,2.66,5.49,3.84V4.37h4.07V43.73z M335.89,25.2c0-2.71-0.88-7.61-5.02-7.61
			c-4.48,0-5.07,6.08-5.07,11.27c0,1.47,0,6.67,1.36,9.5c0.83,1.65,1.89,2.6,3.84,2.6c1.53,0,2.77-0.71,3.66-2.07
			c1.18-1.65,1.24-3.89,1.24-5.84V25.2z"/>
		<path class="st4" d="M355.95,22.14c-0.59-2.12-1.42-4.72-4.6-4.72c-2.36,0-4.01,1.47-4.01,4.01c0,2.95,1.89,3.95,4.54,5.31
			c5.9,3.07,8.14,4.19,8.14,9.09c0,5.55-3.54,8.62-8.5,8.62c-7.91,0-8.85-6.2-9.15-8.14l3.6-0.94c0.41,2.01,1.06,5.61,5.49,5.61
			c2.71,0,4.37-1.77,4.37-4.48c0-3.25-1.48-4.01-5.96-6.25c-3.72-1.89-6.55-3.89-6.55-8.38c0-3.19,1.83-7.91,7.96-7.91
			c6.55,0,7.67,5.19,8.14,7.32L355.95,22.14z"/>
	</g>
	<g>
		<path class="st0" d="M377.84,19.87V4.39h8.07v39.28h-8.07v-16.9h-5.95v16.9h-8.07V4.39h8.07v15.49H377.84z"/>
		<path class="st0" d="M395.51,30.41c-0.12,5.12,0.36,8.01,3.18,8.01c2.24,0,2.71-1.88,3.12-4.77l6.18,0.53
			c-0.29,4.83-2.83,10.07-9.54,10.07c-7.66,0-10.48-5.89-10.48-14.9c0-7.13,2-15.31,10.42-15.31c4.89,0,7.24,2.89,8.54,5.89
			c1.36,3.12,1.36,7.95,1.36,10.48H395.51z M401.28,25.64c-0.06-4.53-0.88-6.3-2.71-6.3c-2.77,0-3,3.89-3.12,6.3H401.28z"/>
		<path class="st0" d="M422.72,43.66c-0.29-0.65-0.53-1.06-0.47-3.59c-1.29,2.36-3.53,4.18-6.18,4.18c-1.12,0-6.18-0.36-6.18-8.07
			c0-1.47,0.06-5.01,3.3-7.83c2.36-2,5.18-2.47,8.6-2.71c-0.06-4.42-0.24-6.12-2-6.12c-2.12,0-2.36,2.83-2.47,4.3l-6.6-0.77
			c0.65-5.54,3.59-9.01,9.36-9.01c1.71,0,5.42,0.41,7.54,3.24c1.36,1.83,1.41,5.06,1.41,8.36v11.78c0,4.3,0,4.77,0.35,6.24H422.72z
			 M417.42,35.42c0,2.06,0.41,3.59,1.88,3.59c2.53,0,2.53-3.24,2.47-9.3C418.24,30.3,417.42,32.36,417.42,35.42z"/>
		<path class="st0" d="M432.77,4.39h7.54v39.28h-7.54V4.39z"/>
		<path class="st0" d="M445.99,5.74l6.54-0.47v9.37h4.54v6.06h-4.54v12.25c0,3.18,0.29,4.54,3,4.54c0.88,0,1.41-0.06,1.88-0.18v6.01
			c-2.3,0.65-3.89,0.77-4.83,0.77c-2.35,0-4.95-0.82-6.01-2.3c-1.47-2-1.59-4.18-1.59-8.54V20.7h-3.12v-6.06h3.47L445.99,5.74z"/>
		<path class="st0" d="M459.33,4.39h7.54V18.4c0.71-1.88,1.83-4.36,5.89-4.36c6.18,0,6.36,4.95,6.36,8.66v20.96h-7.54V23.52
			c0-1.71,0-3.24-2.24-3.24c-2.3,0-2.47,1.41-2.47,3.54v19.84h-7.54V4.39z"/>
	</g>
</g>
</svg>
