<?xml version="1.0" encoding="utf-8"?>
<!-- Generator: Adobe Illustrator 16.0.0, SVG Export Plug-In . SVG Version: 6.00 Build 0)  -->
<!DOCTYPE svg PUBLIC "-//W3C//DTD SVG 1.1//EN" "http://www.w3.org/Graphics/SVG/1.1/DTD/svg11.dtd">
<svg version="1.1" id="Layer_1" xmlns="http://www.w3.org/2000/svg" xmlns:xlink="http://www.w3.org/1999/xlink" x="0px" y="0px"
	 width="30px" height="30px" viewBox="0 0 30 30" enable-background="new 0 0 30 30" xml:space="preserve">
<g>
	<rect fill="#65CCEF" width="30" height="30"/>
	<path fill="#FFFFFF" d="M22.51,11.078c-0.549,0.245-1.145,0.41-1.766,0.484c0.635-0.38,1.123-0.984,1.352-1.702
		c-0.595,0.353-1.252,0.607-1.953,0.746c-0.561-0.598-1.361-0.972-2.246-0.972c-1.697,0-3.075,1.379-3.075,3.077
		c0,0.241,0.027,0.475,0.079,0.701c-2.557-0.129-4.822-1.352-6.34-3.216c-0.265,0.457-0.417,0.985-0.417,1.549
		c0,1.066,0.542,2.009,1.369,2.561c-0.504-0.016-0.979-0.154-1.394-0.384v0.038c0,1.492,1.06,2.734,2.469,3.017
		c-0.259,0.072-0.53,0.107-0.812,0.107c-0.198,0-0.392-0.017-0.579-0.053c0.391,1.221,1.527,2.11,2.874,2.135
		c-1.053,0.825-2.379,1.317-3.821,1.317c-0.248,0-0.494-0.015-0.734-0.041c1.361,0.871,2.978,1.382,4.716,1.382
		c5.66,0,8.751-4.688,8.751-8.756c0-0.133-0.002-0.266-0.006-0.397C21.577,12.237,22.1,11.695,22.51,11.078"/>
</g>
</svg>
