<?xml version="1.0" encoding="UTF-8"?> <svg xmlns="http://www.w3.org/2000/svg" viewBox="0 0 248 51"><g fill="#002139"><path d="m115.9 16.6c-.3-.3-.7-.6-1.2-.7-.5-.2-1-.3-1.6-.3-1.4 0-2.5.5-3.4 1.5-.7-1-1.7-1.5-3.1-1.5-.5 0-1.1.1-1.6.3-.4.2-.8.4-1.2.8v-1h-2.3v10.9h2.3v-6.6c0-.8.2-1.4.6-1.7.4-.4.9-.6 1.5-.6s1.1.2 1.5.5c.4.4.6 1 .6 1.8v6.6h2.3v-6.8c0-.4.1-.7.2-1s.3-.5.5-.7.4-.3.7-.4.5-.1.8-.1c.6 0 1.1.2 1.5.5.4.4.6 1 .6 1.8v6.6h2.3v-7c0-.6-.1-1.2-.3-1.7.1-.3-.3-.8-.7-1.2"></path><path d="m119.8 15.7h2.3v10.9h-2.3z"></path><path d="m131.4 23.6c-.4.4-.7.7-1 .8s-.6.2-1.1.2c-.8 0-1.5-.3-1.9-.9-.2-.3-.4-.6-.5-1s-.1-.9-.1-1.6c0-.6 0-1.1.1-1.5s.3-.7.5-1c.5-.6 1.1-.9 1.9-.9.4 0 .8.1 1.1.2.3.2.6.4.9.8l.1.1 1.6-1.6-.1-.1c-.5-.5-1.1-.9-1.6-1.2-.6-.2-1.2-.4-2-.4-.6 0-1.2.1-1.8.3s-1.1.5-1.6 1c-.5.4-.8 1-1.1 1.7s-.4 1.6-.4 2.6.1 1.9.4 2.6.7 1.3 1.1 1.7c.5.4 1 .8 1.6 1s1.2.3 1.8.3c.8 0 1.4-.1 2-.4.6-.2 1.1-.6 1.6-1.2l.1-.1z"></path><path d="m142.8 16.7c-.3-.4-.7-.6-1.2-.8s-1-.3-1.6-.3c-.5 0-1.1.1-1.6.3-.4.2-.8.4-1.1.8v-5.3h-2.3v15.3h2.3v-6.7c0-.8.2-1.4.6-1.7.4-.4.9-.6 1.5-.6s1.1.2 1.5.5c.4.4.6.9.6 1.7v6.7h2.3v-7c0-.6-.1-1.1-.2-1.6-.3-.5-.5-.9-.8-1.3"></path><path d="m146.5 15.7h2.3v10.9h-2.3z"></path><path d="m157.8 16.7c-.4-.4-.8-.7-1.2-.9-.5-.2-1-.3-1.6-.3-1.1 0-2 .3-2.7 1-.5.5-.9 1.2-1 1.9s-.2 1.6-.2 2.5.1 1.8.2 2.5c.1.8.5 1.4 1 1.9.3.3.7.5 1.1.7s.9.3 1.5.3 1.1-.1 1.5-.3.8-.4 1.2-.8v1.1c0 .4 0 .7-.1 1s-.2.6-.4.8-.5.4-.8.6c-.3.1-.7.2-1.1.2-.5 0-1-.1-1.3-.2-.3-.2-.7-.4-1-.7l-.1-.1-1.5 1.5.1.1c.6.5 1.2.9 1.7 1.1.6.2 1.3.3 2.1.3.7 0 1.4-.1 2-.3s1.1-.6 1.5-1 .7-.9.9-1.5.3-1.2.3-1.9v-10.5h-2.3v1zm-.4 2c.2.3.2.7.3 1.1 0 .4.1.8.1 1.2s0 .8-.1 1.2c0 .4-.1.7-.3 1.1-.1.3-.4.5-.6.7-.3.2-.6.3-1.1.3s-.9-.1-1.1-.3c-.3-.2-.5-.4-.6-.7s-.2-.7-.3-1.1c0-.4-.1-.8-.1-1.2s0-.8.1-1.2c0-.4.1-.8.3-1.1.1-.3.4-.5.6-.7.3-.2.7-.3 1.1-.3.5 0 .8.1 1.1.3.2.2.4.4.6.7"></path><path d="m166.5 15.6c-.9 0-1.7.1-2.2.3-.6.2-1.2.6-1.7 1.2l-.1.1 1.6 1.5.1-.1c.3-.4.6-.6.9-.8.3-.1.8-.2 1.4-.2.8 0 1.4.2 1.8.5.3.3.5.8.5 1.5v.7h-2.8c-1.3 0-2.2.3-2.9.9-.6.6-1 1.4-1 2.3 0 1 .3 1.8.9 2.4.3.3.7.6 1.2.8s1.1.2 1.7.2c.7 0 1.2-.1 1.7-.3.4-.2.8-.4 1.1-.7v.9h2.3v-7.3c0-2.6-1.5-3.9-4.5-3.9m2.1 6.3v.8c0 .7-.1 1.2-.4 1.5s-.6.4-.9.5-.7.1-1.1.1c-.7 0-1.1-.1-1.4-.4-.3-.2-.4-.6-.4-1.1s.1-.8.5-1.1c.3-.3.8-.4 1.4-.4h2.3z"></path><path d="m181.5 16.6c-.3-.3-.7-.6-1.2-.7-.5-.2-1-.3-1.5-.3s-1.1.1-1.6.3c-.4.2-.8.4-1.2.8v-1h-2.3v10.9h2.3v-6.6c0-.8.2-1.4.6-1.7.4-.4.9-.6 1.5-.6s1.1.2 1.5.5c.4.4.6 1 .6 1.8v6.6h2.3v-7c0-.6-.1-1.2-.2-1.7-.1-.4-.4-.9-.8-1.3"></path><path d="m194.9 20.2-1.7-.1c-.6-.1-.9-.2-1.1-.4s-.3-.5-.3-.8c0-.4.1-.7.5-.9.3-.2.8-.4 1.4-.4.5 0 1 .1 1.4.2s.8.3 1.2.6l.1.1 1.5-1.5-.1-.1c-.5-.4-1.1-.8-1.8-1s-1.4-.3-2.3-.3c-.6 0-1.1.1-1.6.2-.5.2-.9.4-1.3.7s-.7.6-.9 1.1c-.2.4-.3.9-.3 1.4 0 1 .3 1.7.9 2.2s1.4.8 2.4.9l1.7.1c.5 0 .9.2 1.1.4s.3.5.3.8c0 .5-.2.8-.6 1s-1 .4-1.6.4c-.5 0-1.1-.1-1.6-.2s-1-.4-1.4-.9l-.1-.1-1.5 1.5.1.1c.6.6 1.4 1.1 2.1 1.3.8.2 1.6.3 2.5.3.6 0 1.2-.1 1.8-.2s1-.4 1.5-.7c.4-.3.7-.7 1-1.1.2-.4.4-.9.4-1.5 0-1-.3-1.7-.9-2.2-1-.5-1.8-.8-2.8-.9"></path><path d="m206.6 23.6c-.4.4-.7.7-1 .8s-.6.2-1.1.2c-.8 0-1.5-.3-1.9-.9-.2-.3-.4-.6-.5-1s-.1-.9-.1-1.6c0-.6 0-1.1.1-1.5s.3-.7.5-1c.5-.6 1.1-.9 1.9-.9.4 0 .8.1 1.1.2.3.2.6.4.9.8l.1.1 1.6-1.6-.1-.1c-.5-.5-1.1-.9-1.6-1.2-.6-.2-1.2-.4-2-.4-.6 0-1.2.1-1.8.3s-1.1.5-1.6 1c-.5.4-.8 1-1.1 1.7s-.4 1.6-.4 2.6.1 1.9.4 2.6.7 1.3 1.1 1.7c.5.4 1 .8 1.6 1s1.2.3 1.8.3c.8 0 1.4-.1 2-.4.6-.2 1.1-.6 1.6-1.2l.1-.1z"></path><path d="m217.9 16.7c-.3-.4-.7-.6-1.2-.8s-1-.3-1.6-.3c-.5 0-1.1.1-1.6.3-.4.2-.8.4-1.1.8v-5.3h-2.3v15.3h2.3v-6.7c0-.8.2-1.4.6-1.7.4-.4.9-.6 1.5-.6s1.1.2 1.5.5c.4.4.6.9.6 1.7v6.7h2.3v-7c0-.6-.1-1.1-.2-1.6-.2-.5-.4-.9-.8-1.3"></path><path d="m229 16.9c-.4-.4-.8-.7-1.4-.9-.5-.2-1.2-.4-1.9-.4s-1.4.1-1.9.4c-.5.2-1 .6-1.3.9-.5.5-.9 1.2-1 1.9-.2.7-.3 1.5-.3 2.4s.1 1.7.3 2.4.5 1.3 1 1.9c.4.4.8.7 1.3.9s1.2.4 1.9.4 1.4-.1 1.9-.4c.5-.2 1-.6 1.4-.9.5-.5.9-1.2 1-1.9.2-.7.3-1.5.3-2.4s-.1-1.7-.3-2.4c-.1-.7-.5-1.3-1-1.9m-3.3 7.8c-.6 0-1.1-.2-1.5-.6-.3-.3-.5-.7-.6-1.2s-.1-1.1-.1-1.7 0-1.1.1-1.7c.1-.5.3-.9.6-1.2.4-.4.9-.6 1.5-.6s1.1.2 1.5.6c.3.3.5.7.6 1.2s.1 1.1.1 1.7 0 1.1-.1 1.7c-.1.5-.3.9-.6 1.2-.4.4-.9.6-1.5.6"></path><path d="m240 16.9c-.4-.4-.8-.7-1.4-.9-.5-.2-1.2-.4-1.9-.4s-1.4.1-1.9.4c-.5.2-1 .6-1.3.9-.5.5-.9 1.2-1 1.9-.2.7-.3 1.5-.3 2.4s.1 1.7.3 2.4.5 1.3 1 1.9c.4.4.8.7 1.3.9s1.2.4 1.9.4 1.4-.1 1.9-.4c.5-.2 1-.6 1.4-.9.5-.5.9-1.2 1-1.9.2-.7.3-1.5.3-2.4s-.1-1.7-.3-2.4c-.1-.7-.5-1.3-1-1.9m-1.1 4.3c0 .6 0 1.1-.1 1.7-.1.5-.3.9-.6 1.2-.4.4-.9.6-1.5.6s-1.1-.2-1.5-.6c-.3-.3-.5-.7-.6-1.2s-.1-1.1-.1-1.7 0-1.1.1-1.7c.1-.5.3-.9.6-1.2.4-.4.9-.6 1.5-.6s1.1.2 1.5.6c.3.3.5.7.6 1.2.1.6.1 1.1.1 1.7"></path><path d="m246.1 24.4c-.2-.2-.2-.5-.2-.9v-12.1h-2.3v12.2c0 .4.1.8.2 1.2s.3.7.5 1 .6.5 1 .7.8.3 1.4.3h1.4v-2h-1c-.5-.1-.8-.2-1-.4"></path><path d="m147.7 11.2c-.7 0-1.4.6-1.4 1.4 0 .7.6 1.4 1.4 1.4.7 0 1.4-.6 1.4-1.4-.1-.8-.7-1.4-1.4-1.4"></path><path d="m121 11.2c-.7 0-1.4.6-1.4 1.4 0 .7.6 1.4 1.4 1.4.7 0 1.4-.6 1.4-1.4s-.6-1.4-1.4-1.4"></path><path d="m55.1 47.5-2.6 3.5h23.4l-11.7-15.7z"></path><path d="m37.9 24.4 9.1-12.2-9.1-12.2-37.9 51h18.2z"></path><path d="m64.2 0-13.1 17.6-24.8 33.4h18.2l15.7-21.2 4-5.4 19.7 26.6h18.2z"></path><path d="m115.7 39.2c-.1.4-.3.8-.6 1.1-.2.2-.5.4-.8.5s-.7.2-1.1.2-.8-.1-1.1-.2-.6-.3-.8-.5c-.3-.3-.5-.7-.6-1.1s-.2-.9-.2-1.4 0-1 .2-1.4c.1-.4.3-.8.6-1.1.2-.2.5-.4.8-.5s.7-.2 1.1-.2.8.1 1.1.2.6.3.8.5c.3.3.5.7.6 1.1s.1.9.1 1.4c.1.5 0 1-.1 1.4m-1.2-2.4c0-.3-.2-.6-.4-.8s-.6-.4-.9-.4c-.4 0-.7.1-.9.4-.2.2-.3.4-.4.8-.1.3-.1.6-.1 1s0 .7.1 1 .2.6.4.8c.3.3.6.4.9.4.4 0 .7-.1.9-.4.2-.2.3-.4.4-.8 0-.3.1-.6.1-1s0-.7-.1-1"></path><path d="m118.8 35.7v5.3h-1.3v-5.3h-.7v-1h.7v-1c0-.2 0-.4.1-.7.1-.2.2-.4.3-.6s.3-.3.5-.4.5-.2.8-.2h.8v1.1h-.6c-.2 0-.4.1-.5.2s-.2.3-.2.5v.9h1.3v1h-1.2z"></path><path d="m129.1 38.5c0 .3 0 .5-.1.7 0 .2-.1.5-.2.7s-.2.4-.4.6-.4.3-.7.4-.6.2-.9.2-.6-.1-.9-.2-.5-.3-.8-.6v3.2h-1.1v-8.9h1.3v.7c.2-.3.5-.5.8-.6s.6-.2.9-.2.6 0 .9.1.5.2.7.4.3.3.4.6c.1.2.2.4.2.7.1.2.1.5.1.7v.7c-.1.3-.1.6-.2.8m-1.3-1.5c0-.3-.1-.5-.2-.7s-.2-.3-.4-.5c-.2-.1-.4-.2-.7-.2s-.5.1-.7.2-.3.3-.4.5-.2.4-.2.7v.8.8c0 .3.1.5.2.7s.2.4.4.5.4.2.7.2.5-.1.7-.2.3-.3.4-.5.2-.4.2-.7 0-.5 0-.8c.1-.3.1-.6 0-.8"></path><path d="m135.1 39.9c-.1.3-.3.5-.6.6-.2.2-.5.3-.8.4s-.7.1-1.1.1c-.5 0-1-.1-1.4-.2s-.9-.4-1.2-.7l.8-.8c.3.3.5.4.9.5.3.1.6.1 1 .1s.7-.1 1-.2.4-.4.4-.7c0-.2-.1-.4-.2-.5s-.3-.2-.7-.2l-1-.1c-.6 0-1.1-.2-1.4-.5s-.5-.7-.5-1.3c0-.3.1-.6.2-.8s.3-.4.5-.6.5-.3.8-.4.6-.1.9-.1c.5 0 .9.1 1.3.2s.7.3 1 .6l-.8.8c-.2-.2-.4-.3-.7-.4s-.6-.1-.9-.1c-.4 0-.7.1-.9.2-.2.2-.3.3-.3.6 0 .2.1.4.2.5s.4.2.7.2l1 .1c.6.1 1.1.2 1.4.5s.5.7.5 1.3c.1.3.1.6-.1.9"></path><path d="m138.6 42.2c-.1.3-.3.6-.5.8s-.4.3-.6.4-.5.1-.7.1h-.5v-1.1h.3c.3 0 .5 0 .6-.1s.2-.3.3-.5l.4-1-2.2-6.1h1.3l1.5 4.5 1.5-4.5h1.4z"></path><path d="m145.8 40.8c-.3.1-.7.2-1.2.2-.4 0-.7-.1-1-.2s-.6-.3-.9-.6-.5-.6-.6-1c-.2-.4-.2-.9-.2-1.5s.1-1.1.2-1.5c.2-.4.4-.7.6-1 .3-.3.6-.4.9-.6.3-.1.7-.2 1-.2.4 0 .8.1 1.2.2.3.1.6.4.9.7l-.9.8c-.2-.2-.4-.4-.6-.5s-.4-.1-.6-.1c-.5 0-.9.2-1.2.6-.1.2-.2.4-.3.6s-.1.5-.1.9 0 .7.1.9.2.5.3.6c.3.4.7.6 1.2.6.3 0 .5 0 .6-.1.2-.1.4-.2.6-.5l.9.8c-.3.5-.6.8-.9.9"></path><path d="m151.8 40.9v-3.9c0-.5-.1-.8-.4-1.1-.2-.2-.5-.3-.9-.3s-.7.1-.9.3c-.3.2-.4.6-.4 1.1v3.9h-1.3v-8.9h1.3v3.2c.2-.2.5-.4.7-.5.3-.1.6-.2.9-.2.4 0 .7.1.9.2.3.1.5.3.7.5s.3.4.4.7.1.6.1.9v4.1z"></path><path d="m159.6 39.2c-.1.4-.3.8-.6 1.1-.2.2-.5.4-.8.5s-.7.2-1.1.2-.8-.1-1.1-.2-.6-.3-.8-.5c-.3-.3-.5-.7-.6-1.1s-.1-.9-.1-1.4 0-1 .1-1.4.3-.8.6-1.1c.2-.2.5-.4.8-.5s.7-.2 1.1-.2.8.1 1.1.2.6.3.8.5c.3.3.5.7.6 1.1s.1.9.1 1.4 0 1-.1 1.4m-1.2-2.4c0-.3-.2-.6-.4-.8s-.6-.4-.9-.4c-.4 0-.7.1-.9.4-.2.2-.3.4-.4.8-.1.3-.1.6-.1 1s0 .7.1 1 .2.6.4.8c.3.3.6.4.9.4.4 0 .7-.1.9-.4.2-.2.3-.4.4-.8.1-.3.1-.6.1-1s-.1-.7-.1-1"></path><path d="m162.9 40.9c-.3 0-.6 0-.8-.1s-.4-.2-.5-.4-.2-.3-.3-.6c-.1-.2-.1-.4-.1-.7v-7.1h1.3v7.1c0 .2 0 .4.2.5.1.1.3.2.5.2h.6v1.1z"></path><path d="m169.5 39.2c-.1.4-.3.8-.6 1.1-.2.2-.5.4-.8.5s-.7.2-1.1.2-.8-.1-1.1-.2-.6-.3-.8-.5c-.3-.3-.5-.7-.6-1.1s-.1-.9-.1-1.4 0-1 .1-1.4.3-.8.6-1.1c.2-.2.5-.4.8-.5s.7-.2 1.1-.2.8.1 1.1.2.6.3.8.5c.3.3.5.7.6 1.1s.1.9.1 1.4 0 1-.1 1.4m-1.2-2.4c0-.3-.2-.6-.4-.8s-.6-.4-.9-.4c-.4 0-.7.1-.9.4-.2.2-.3.4-.4.8-.1.3-.1.6-.1 1s0 .7.1 1 .2.6.4.8c.3.3.6.4.9.4.4 0 .7-.1.9-.4.2-.2.3-.4.4-.8.1-.3.1-.6.1-1-.1-.4-.1-.7-.1-1"></path><path d="m175.7 42c-.1.3-.3.6-.5.8s-.5.4-.9.6c-.3.1-.7.2-1.1.2-.5 0-.9-.1-1.2-.2s-.7-.3-1-.7l.8-.8c.2.2.4.3.6.4s.5.1.8.1.5 0 .7-.1.3-.2.5-.4c.1-.1.2-.3.3-.5s.1-.4.1-.6v-.8c-.2.3-.5.5-.8.6s-.6.2-.9.2-.6 0-.9-.1-.5-.2-.7-.4c-.3-.3-.5-.7-.6-1.1s-.1-.9-.1-1.5 0-1 .1-1.5c.1-.4.3-.8.6-1.1.4-.4.9-.5 1.5-.5.3 0 .6.1.9.2s.5.3.8.6v-.7h1.2v6.3c0 .3 0 .7-.2 1m-1.1-5.1c0-.2-.1-.5-.2-.6-.1-.2-.2-.3-.4-.5-.2-.1-.4-.2-.7-.2s-.5.1-.7.2-.3.3-.4.5-.1.4-.2.6v.7.7c0 .2.1.5.2.6.1.2.2.3.4.5.2.1.4.2.7.2s.5-.1.7-.2.3-.3.4-.5.2-.4.2-.6 0-.5 0-.7 0-.4 0-.7"></path><path d="m179.7 42.2c-.1.3-.3.6-.5.8s-.4.3-.6.4-.5.1-.7.1h-.5v-1.1h.3c.3 0 .5 0 .6-.1s.2-.3.3-.5l.4-1-2.2-6.1h1.4l1.5 4.5 1.5-4.5h1.4z"></path></g></svg> 