<svg width="18px" height="18px" viewBox="0 0 18 18" version="1.1" xmlns="http://www.w3.org/2000/svg" xmlns:xlink="http://www.w3.org/1999/xlink">
    <!-- Generator: Sketch 46.2 (44496) - http://www.bohemiancoding.com/sketch -->
    <desc>Created with Sketch.</desc>
    <defs></defs>
    <g id="-large" stroke="none" stroke-width="1" fill="none" fill-rule="evenodd" opacity="0.678498641">
        <g id="2---Basics---Large" transform="translate(-1112.000000, -95.000000)" fill-rule="nonzero">
            <g id="Header" transform="translate(1.000000, 0.000000)">
                <g id="Fattie" transform="translate(0.000000, 70.000000)">
                    <g id="Verified" transform="translate(1111.000000, 25.000000)">
                        <g id="check-red-small">
                            <path d="M17.2,9 C17.2,13.5 13.5,17.2 9,17.2 L9,17.2 C4.5,17.2 0.8,13.5 0.8,9 L0.8,9 C0.8,4.5 4.5,0.8 9,0.8 L9,0.8 C13.5,0.8 17.2,4.5 17.2,9 L17.2,9 Z" id="White_Circle_4_" stroke="#737E90" fill="#737E90"></path>
                            <g id="Red_Check__x28_Outlines_x29__Zapf_Dingbats_4_1_" transform="translate(4.000000, 5.000000)" fill="#FFFFFF">
                                <path d="M9.8,1 C9.8,1.5 9.6,1.9 9.2,2.3 L9.1,2.4 L5.5,6.2 C4.7,7 4,7.6 3.5,8 C3,8.4 2.6,8.7 2.4,8.7 C2.2,8.7 1.9,8.6 1.5,8.4 C1.2,8.2 0.9,8 0.8,7.7 C0.7,7.5 0.6,7.1 0.6,6.5 C0.5,5.9 0.5,5.2 0.5,4.4 C0.5,4 0.6,3.6 1,3.3 C1.3,3 1.7,2.8 2.1,2.8 C2.5,2.8 2.7,3.2 2.8,3.9 C2.8,4 2.8,4 2.8,4.1 C2.8,4.5 2.9,4.9 3,5.1 C3.1,5.3 3.2,5.4 3.3,5.4 C3.4,5.4 3.5,5.3 3.6,5.2 C3.8,5.1 4,5 4.2,4.8 L8,1.1 C8.3,0.8 8.6,0.6 8.8,0.4 C9,0.2 9.3,0.2 9.4,0.2 C9.5,0.2 9.6,0.2 9.7,0.3 C9.8,0.4 9.8,0.6 9.8,0.8 L9.8,1 Z" id="Shape"></path>
                            </g>
                        </g>
                    </g>
                </g>
            </g>
        </g>
    </g>
</svg>
