
<svg width="35px" height="35px" viewBox="0 0 35 35" version="1.1" xmlns="http://www.w3.org/2000/svg" xmlns:xlink="http://www.w3.org/1999/xlink">
    <!-- Generator: Sketch 46 (44423) - http://www.bohemiancoding.com/sketch -->
    <desc>Created with Sketch.</desc>
    <defs></defs>
    <g id="Symbols" stroke="none" stroke-width="1" fill="none" fill-rule="evenodd">
        <g id="meta-bar-profile" transform="translate(-93.000000, -36.000000)">
            <g id="social-media-icons" transform="translate(0.000000, 36.000000)">
                <g id="instagram" transform="translate(93.000000, 0.000000)">
                    <rect id="Rectangle" x="0" y="0" width="35" height="35"></rect>
                    <circle id="Oval" stroke="#FFFFFF" stroke-width="1.59090909" cx="17.5" cy="17.5" r="16.7045455"></circle>
                    <path d="M17.4999826,10.3266085 C19.8363447,10.3266085 20.1130639,10.3355002 21.0357161,10.3775968 C21.8888325,10.4165327 22.3521384,10.5590777 22.6604995,10.6788724 C23.0688923,10.837603 23.3604078,11.0272462 23.6665808,11.3334192 C23.9727538,11.6395922 24.162397,11.9311077 24.3210929,12.3395005 C24.4409223,12.6478616 24.5834673,13.1111675 24.6224032,13.9642491 C24.6644998,14.8869361 24.6733915,15.1636553 24.6733915,17.5000174 C24.6733915,19.8363794 24.6644998,20.1130987 24.6224032,21.0357509 C24.5834673,21.8888672 24.4409223,22.3521731 24.3210929,22.6605343 C24.162397,23.068927 23.9727538,23.3604426 23.6665808,23.6666156 C23.3604078,23.9727885 23.0688923,24.1624317 22.6604995,24.3211276 C22.3521384,24.4409571 21.8888325,24.583502 21.0357161,24.6224379 C20.1132029,24.6645345 19.8364836,24.6734262 17.4999826,24.6734262 C15.1634816,24.6734262 14.8867624,24.6645345 13.9642491,24.6224379 C13.1111328,24.583502 12.6478269,24.4409571 12.3395005,24.3211276 C11.931073,24.1624317 11.6395574,23.9727885 11.3333844,23.6666156 C11.0272115,23.3604426 10.8375683,23.068927 10.6788724,22.6605343 C10.5590429,22.3521731 10.416498,21.8888672 10.3775621,21.0357856 C10.3354655,20.1130987 10.3265738,19.8363794 10.3265738,17.5000174 C10.3265738,15.1636553 10.3354655,14.8869361 10.3775621,13.9642839 C10.416498,13.1111675 10.5590429,12.6478616 10.6788724,12.3395005 C10.8375683,11.9311077 11.0272115,11.6395922 11.3333844,11.3334192 C11.6395574,11.0272462 11.931073,10.837603 12.3395005,10.6788724 C12.6478269,10.5590777 13.1111328,10.4165327 13.9642144,10.3775968 C14.8869013,10.3355002 15.1636206,10.3266085 17.4999826,10.3266085 M17.4999826,8.75 C19.8763573,8.75 20.1743333,8.76007262 21.1075791,8.8026555 C22.0389493,8.84516891 22.6749833,8.99306279 23.2315825,9.20938103 C23.8069723,9.43299325 24.2949388,9.73218486 24.781377,10.218623 C25.2678151,10.7050612 25.5670068,11.1930277 25.790619,11.7684175 C26.0069372,12.3250167 26.1548311,12.9610507 26.1973445,13.8924209 C26.2399274,14.8256667 26.25,15.1236427 26.25,17.5000174 C26.25,19.8763921 26.2399274,20.174368 26.1973445,21.1076138 C26.1548311,22.038984 26.0069372,22.675018 25.790619,23.2316172 C25.5670068,23.8070071 25.2678151,24.2949735 24.781377,24.7814117 C24.2949388,25.2678499 23.8069723,25.5670415 23.2315825,25.7906537 C22.6749833,26.0069719 22.0389493,26.1548658 21.1075791,26.1973792 C20.1743333,26.2399621 19.8763573,26.25 17.4999826,26.25 C15.1236079,26.25 14.8256667,26.2399621 13.8923862,26.1973792 C12.961016,26.1548658 12.324982,26.0069719 11.7683828,25.7906537 C11.1929929,25.5670415 10.7050265,25.2678499 10.2185883,24.7814117 C9.73215012,24.2949735 9.43295851,23.8069723 9.2093463,23.2316172 C8.99302806,22.675018 8.84513418,22.038984 8.80262077,21.1076138 C8.76003789,20.174368 8.75,19.8763921 8.75,17.5000174 C8.75,15.1236427 8.76003789,14.8256667 8.80262077,13.8924209 C8.84513418,12.9610507 8.99302806,12.3250167 9.2093463,11.7684175 C9.43295851,11.1930277 9.73215012,10.7050612 10.2185883,10.218623 C10.7050265,9.73218486 11.1929929,9.43299325 11.7683828,9.20938103 C12.324982,8.99306279 12.961016,8.84516891 13.8923862,8.8026555 C14.8256667,8.76007262 15.1236079,8.75 17.4999826,8.75 Z M17.5173611,13.0208333 C15.0340084,13.0208333 13.0208333,15.0340084 13.0208333,17.5173611 C13.0208333,20.0007138 15.0340084,22.0138889 17.5173611,22.0138889 C20.0007138,22.0138889 22.0138889,20.0007138 22.0138889,17.5173611 C22.0138889,15.0340084 20.0007138,13.0208333 17.5173611,13.0208333 Z M17.5173611,20.4361678 C15.9053682,20.4361678 14.5985545,19.1293541 14.5985545,17.5173611 C14.5985545,15.9053682 15.9053682,14.5985545 17.5173611,14.5985545 C19.1293541,14.5985545 20.4361678,15.9053682 20.4361678,17.5173611 C20.4361678,19.1293541 19.1293541,20.4361678 17.5173611,20.4361678 Z M23.1944444,12.8124828 C23.1944444,12.2371808 22.728097,11.7708333 22.152795,11.7708333 C21.577493,11.7708333 21.1111111,12.2371808 21.1111111,12.8124828 C21.1111111,13.3877848 21.577493,13.8541667 22.152795,13.8541667 C22.728097,13.8541667 23.1944444,13.3877848 23.1944444,12.8124828 Z" id="Shape" fill="#FFFFFF"></path>
                </g>
            </g>
        </g>
    </g>
</svg>
