
<svg width="35px" height="34px" viewBox="0 0 35 34" version="1.1" xmlns="http://www.w3.org/2000/svg" xmlns:xlink="http://www.w3.org/1999/xlink">
    <!-- Generator: Sketch 46 (44423) - http://www.bohemiancoding.com/sketch -->
    <desc>Created with Sketch.</desc>
    <defs></defs>
    <g id="Symbols" stroke="none" stroke-width="1" fill="none" fill-rule="evenodd">
        <g id="meta-bar-profile" transform="translate(-46.000000, -37.000000)">
            <g id="social-media-icons" transform="translate(0.000000, 36.000000)">
                <g id="twitter" transform="translate(46.607143, 1.000000)">
                    <rect id="Rectangle" x="0" y="0" width="34.1785714" height="34"></rect>
                    <ellipse id="Oval" stroke="#FFFFFF" stroke-width="1.5" cx="17.0892857" cy="17" rx="16.3392857" ry="16.25"></ellipse>
                    <path d="M23.7122764,13.0171563 C24.4035733,12.5831878 24.9340144,11.8950665 25.1829579,11.0753483 C24.5357049,11.4781755 23.8204711,11.7694969 23.0573636,11.9272123 C22.4484096,11.2441138 21.5780649,10.8181818 20.6148451,10.8181818 C18.7669185,10.8181818 17.2694278,12.3903129 17.2694278,14.3291072 C17.2694278,14.6043557 17.2971946,14.8725723 17.354643,15.1287343 C14.5741359,14.982069 12.108638,13.5857353 10.4569938,11.4600935 C10.1687939,11.9804538 10.0041082,12.5831878 10.0041082,13.226104 C10.0041082,14.4436266 10.5948702,15.5185022 11.4929817,16.1493638 C10.9443485,16.1312818 10.4282696,15.9715573 9.97634141,15.7103725 L9.97634141,15.7535685 C9.97634141,17.4552874 11.1291412,18.8747259 12.6620585,19.196184 C12.3805609,19.2785576 12.0856586,19.3197445 11.7792667,19.3197445 C11.5638348,19.3197445 11.3531903,19.2986488 11.1502056,19.257462 C11.5753245,20.6517865 12.8114246,21.6683978 14.2763612,21.6955209 C13.1302638,22.637795 11.6873491,23.1983376 10.1199626,23.1983376 C9.84995472,23.1983376 9.58281922,23.1832692 9.32142857,23.1501188 C10.8026423,24.1456344 12.5615237,24.7272727 14.4515791,24.7272727 C20.6081428,24.7272727 23.9727096,19.3770042 23.9727096,14.7369572 C23.9727096,14.5842646 23.9707947,14.4325765 23.9640923,14.2828976 C24.6180477,13.7876512 25.1867878,13.1688443 25.6339286,12.4646501 C25.0335918,12.7439169 24.3882537,12.9327735 23.7122764,13.0171563 Z" id="Shape" fill="#FFFFFF"></path>
                </g>
            </g>
        </g>
    </g>
</svg>
