
<svg width="35px" height="34px" viewBox="0 0 35 34" version="1.1" xmlns="http://www.w3.org/2000/svg" xmlns:xlink="http://www.w3.org/1999/xlink">
    <!-- Generator: Sketch 46 (44423) - http://www.bohemiancoding.com/sketch -->
    <desc>Created with Sketch.</desc>
    <defs></defs>
    <g id="Symbols" stroke="none" stroke-width="1" fill="none" fill-rule="evenodd">
        <g id="meta-bar-profile" transform="translate(0.000000, -37.000000)">
            <g id="social-media-icons" transform="translate(0.000000, 36.000000)">
                <g id="facebook" transform="translate(0.000000, 1.000000)">
                    <rect id="Rectangle" x="0" y="0" width="34.1785714" height="34"></rect>
                    <ellipse id="Oval" stroke="#FFFFFF" stroke-width="1.5" cx="17.0892857" cy="17" rx="16.3392857" ry="16.25"></ellipse>
                    <path d="M18.1105303,27.0454545 L14.321786,27.0454545 L14.321786,18.1579692 L12.4285714,18.1579692 L12.4285714,15.0956399 L14.321786,15.0956399 L14.321786,13.2571206 C14.321786,10.7590226 15.3902281,9.27272727 18.427706,9.27272727 L20.9558507,9.27272727 L20.9558507,12.3361783 L19.3757602,12.3361783 C18.1932969,12.3361783 18.1151606,12.7641192 18.1151606,13.5627926 L18.1099515,15.0956399 L20.9732143,15.0956399 L20.6380962,18.1579692 L18.1099515,18.1579692 L18.1099515,27.0454545 L18.1105303,27.0454545 Z" id="Shape" fill="#FFFFFF"></path>
                </g>
            </g>
        </g>
    </g>
</svg>
