<svg width="37" height="37" viewBox="0 0 37 37" fill="none" xmlns="http://www.w3.org/2000/svg">
<circle cx="18.3975" cy="18.0513" r="18.0513" fill="#50ABF1"/>
<path d="M26.8215 13.6667C26.2309 13.9057 25.5973 14.0677 24.9315 14.1401C25.6113 13.7683 26.1317 13.1786 26.3783 12.4781C25.7406 12.8224 25.0367 13.0724 24.2867 13.2079C23.6862 12.6228 22.8319 12.2583 21.8843 12.2583C20.0665 12.2583 18.5926 13.6044 18.5926 15.2637C18.5926 15.499 18.6217 15.7289 18.6778 15.9486C15.9426 15.8232 13.5171 14.6263 11.8938 12.8077C11.6101 13.2509 11.4486 13.7674 11.4486 14.3186C11.4486 15.3617 12.0302 16.2819 12.9125 16.8204C12.3731 16.8039 11.8658 16.6684 11.4216 16.4431V16.4806C11.4216 17.9366 12.5566 19.1518 14.0616 19.4283C13.7859 19.4961 13.4951 19.5336 13.1943 19.5336C12.9817 19.5336 12.7762 19.5144 12.5746 19.4778C12.9937 20.6728 14.209 21.5418 15.6488 21.5656C14.5228 22.3715 13.103 22.8504 11.561 22.8504C11.2953 22.8504 11.0336 22.8357 10.7759 22.8092C12.2328 23.6635 13.9624 24.1617 15.8213 24.1617C21.8764 24.1617 25.1862 19.5813 25.1862 15.6089L25.1752 15.2197C25.8219 14.7985 26.3813 14.2692 26.8215 13.6667Z" fill="white"/>
</svg>
