<svg width="32" height="32" viewBox="0 0 32 32" fill="none" xmlns="http://www.w3.org/2000/svg">
<path opacity="0.82" d="M27.082 6.72021C27.0046 6.72021 26.8499 6.7599 26.7726 6.7599C26.8886 7.07739 26.9273 7.43456 26.9273 7.79173C26.9273 9.41885 25.6511 10.7682 24.0268 10.7682C23.2921 10.7682 22.596 10.4904 22.1319 10.0141C21.7452 10.411 21.3971 10.8475 21.0491 11.2444C21.3585 11.8 21.5518 12.435 21.7838 13.0699C22.944 12.3953 24.3362 11.8 26.0765 11.2047C29.2476 10.2522 30.2144 6.7599 27.082 6.72021Z" fill="white"/>
<path d="M18.9607 10.0934C16.6791 7.75195 13.1985 7.15666 10.1048 8.46629L20.3916 19.0227H5.77345C5.30938 20.2133 5 21.3642 5 22.7532C5 24.2215 5.38672 25.5708 5.88946 26.8408C7.24299 29.8966 9.95006 31.9999 13.1212 31.9999C16.2923 31.9999 18.9994 29.8569 20.3529 26.8805C20.8943 25.6502 21.2424 24.2215 21.2424 22.7928C21.2811 21.4038 21.0104 20.3323 20.5463 19.1814C21.7838 16.0463 21.2424 12.5142 18.9607 10.0934ZM15.9829 28.3488C15.1708 29.1822 14.3974 29.7378 13.1212 29.7378C11.845 29.7378 11.1102 29.2616 10.2594 28.3488C9.79537 27.8726 8.86724 26.563 8.86724 26.563H17.2591C17.3365 26.563 16.4857 27.8726 15.9829 28.3488Z" fill="white"/>
<path d="M14.552 17.991C14.552 18.0306 14.552 18.0306 14.552 18.0703H17.4911L12.309 12.7524C11.961 13.0302 11.6903 13.3874 11.4583 13.7843C13.1985 14.3002 14.552 16.0067 14.552 17.991Z" fill="white"/>
<path opacity="0.61" d="M22.1318 10.0142C22.5959 10.4905 23.292 10.7683 24.0268 10.7683C25.6124 10.7683 26.9272 9.45864 26.9272 7.79184C26.9272 7.39498 26.8499 7.0775 26.7725 6.76001C25.2643 6.95844 23.6401 8.38713 22.1318 10.0142Z" fill="white"/>
<path opacity="0.57" d="M11.0328 11.4824C10.7234 11.5618 10.414 11.6412 10.1433 11.7999C10.8007 12.2365 11.2261 12.9111 11.3422 13.7445C11.3422 13.7445 11.3422 13.7445 11.3808 13.7445H11.4195C11.6515 13.3477 11.9222 12.9905 12.2703 12.7127L11.0328 11.4824Z" fill="white"/>
<path d="M26.734 6.75989C26.3086 5.64869 25.2644 4.85498 24.0269 4.85498C22.4413 4.85498 21.1265 6.16461 21.1265 7.83141C21.1265 8.7045 21.4745 9.45853 22.0933 10.0141C23.6402 8.38701 25.2644 6.95832 26.734 6.75989C26.734 6.79958 26.734 6.79958 26.734 6.75989C26.7726 6.75989 26.7726 6.75989 26.734 6.75989Z" fill="white"/>
<path opacity="0.82" d="M11.4197 13.7444C11.4197 13.7841 11.4197 13.7841 11.4197 13.7444C11.4197 13.7841 11.4197 13.7841 11.4197 13.7444C11.3811 13.7841 11.3811 13.7841 11.4197 13.7444C11.4197 13.8634 11.4197 14.0619 11.4197 14.1809C11.4197 15.6096 10.4529 16.7605 9.17674 16.9986C9.02205 17.0383 8.79002 17.0383 8.63533 17.0383C8.4033 17.0383 8.20993 16.9986 8.01657 16.9589C7.9779 16.9589 7.93923 16.9192 7.90056 16.9192C7.78454 16.8796 7.59118 16.8399 7.47516 16.7605C7.43649 16.7208 7.39782 16.7208 7.35915 16.6811C7.24313 16.6017 7.08844 16.5224 6.97242 16.4033C6.93375 16.3636 6.93375 16.3636 6.89507 16.324C6.77906 16.2049 6.62437 16.0462 6.50835 15.8874C6.19897 16.5224 6.00562 17.1574 6.00562 17.9114C6.00562 17.9511 6.00562 17.9511 6.00562 17.9907H14.5135H14.6295C14.6295 17.9511 14.6295 17.9511 14.6295 17.9114C14.5522 16.0065 13.1987 14.3 11.4197 13.7444Z" fill="white"/>
<path d="M11.3809 13.7444C11.3809 13.7444 11.3809 13.7841 11.3809 13.7444C11.3809 13.7841 11.3809 13.7841 11.3809 13.7444C11.4205 13.7841 11.4205 13.7841 11.3809 13.7444C11.4205 13.7841 11.3809 13.7444 11.3809 13.7444Z" fill="white"/>
<path d="M11.4204 13.7844C11.4204 13.7447 11.3807 13.7447 11.4204 13.7844C11.3807 13.7447 11.3807 13.7447 11.4204 13.7844C11.3807 13.7447 11.4204 13.7844 11.4204 13.7844Z" fill="white"/>
<path d="M6.43095 15.9671C6.39228 15.9671 6.39228 15.9671 6.43095 15.9671C6.43095 15.9274 6.46961 15.8877 6.46961 15.8877C7.20439 14.4987 8.5966 13.5859 10.2208 13.5859C10.6076 13.5859 10.9556 13.6256 11.3037 13.7447C11.1876 12.951 10.7622 12.2763 10.1435 11.8398C10.1435 11.8398 10.1435 11.8398 10.1822 11.8398C9.75676 11.5223 9.21535 11.3635 8.63527 11.3635C7.12705 11.3635 5.85087 12.6335 5.85087 14.2209C5.81219 14.8956 6.04423 15.4512 6.43095 15.9671C6.39228 15.9671 6.39228 15.9671 6.43095 15.9671Z" fill="white"/>
<path d="M11.3035 13.7047C11.3422 13.7047 11.3422 13.7047 11.3808 13.7444C11.2648 12.9507 10.8394 12.2363 10.182 11.7998C10.182 11.7998 10.182 11.7998 10.1433 11.7998C10.7234 12.276 11.1875 12.9507 11.3035 13.7047Z" fill="white"/>
<path d="M9.17676 16.9988C10.4529 16.721 11.4198 15.5702 11.4198 14.1812C11.4198 15.6098 10.4529 16.7607 9.17676 16.9988Z" fill="white"/>
<path d="M6.43086 15.967C6.39219 15.967 6.39219 15.967 6.43086 15.967C6.54688 16.1258 6.70157 16.2845 6.81758 16.4036C6.66289 16.2448 6.5082 16.1258 6.43086 15.967Z" fill="white"/>
<path d="M10.221 13.5461C10.569 13.5461 10.9557 13.5858 11.3038 13.6652C10.9557 13.6255 10.569 13.5461 10.221 13.5461C8.59671 13.5064 7.2045 14.4589 6.46973 15.8082C7.2045 14.4986 8.63538 13.5461 10.221 13.5461Z" fill="white"/>
<path d="M11.3808 13.7445C11.3421 13.7445 11.3421 13.7048 11.3035 13.7048C11.3035 13.7445 11.3421 13.7445 11.3808 13.7445Z" fill="white"/>
<path d="M11.4195 14.1809C11.4195 14.0619 11.4195 13.8634 11.3809 13.7444C11.3809 13.9031 11.4195 14.0619 11.4195 14.1809Z" fill="white"/>
<path d="M6.39233 15.9669C6.43101 15.9272 6.43101 15.9272 6.43101 15.8875C6.43101 15.8478 6.43101 15.9272 6.39233 15.9669Z" fill="white"/>
<path opacity="0.61" d="M6.85635 16.443C6.97237 16.5224 7.12706 16.6018 7.24308 16.7208C7.28175 16.7605 7.32043 16.7605 7.3591 16.8002C7.47512 16.8796 7.66848 16.9193 7.7845 16.959C7.82317 16.959 7.86184 16.9986 7.90051 16.9986C8.13254 17.0383 8.28724 17.078 8.51927 17.078C8.67396 17.078 8.90599 17.078 9.06068 17.0383C10.3369 16.7605 11.3037 15.6096 11.3037 14.2206C11.3037 14.1016 11.3037 13.9032 11.265 13.7841C11.2263 13.7841 11.2263 13.7841 11.1877 13.7841C10.8396 13.7047 10.4916 13.665 10.1048 13.665C8.51927 13.665 7.08839 14.5778 6.35362 15.9271C6.35362 15.9668 6.31494 16.0065 6.31494 16.0065C6.43096 16.1652 6.58565 16.324 6.70166 16.443C6.81768 16.4034 6.85635 16.443 6.85635 16.443Z" fill="white"/>
<path d="M9.17667 16.9988C9.02198 17.0385 8.78994 17.0385 8.63525 17.0385C8.78994 17.1178 9.02198 17.0781 9.17667 16.9988Z" fill="white"/>
<path d="M11.3035 13.7444C11.3421 13.7444 11.3421 13.7841 11.3808 13.7841C11.3421 13.7444 11.3035 13.7444 11.3035 13.7444Z" fill="white"/>
<path d="M16.5629 7.35519C16.9883 7.51393 17.375 7.75205 17.7231 7.99017C18.4192 7.35519 18.9993 6.52179 18.9606 5.41059C18.9606 2.75165 17.4524 1.71982 16.2535 2.35479C15.0547 2.98976 15.0547 4.73594 16.1375 5.84714C16.6016 6.36305 16.6403 6.87896 16.5629 7.35519Z" fill="white"/>
<path d="M12.193 2.39452C12.193 2.43421 12.2317 2.4739 12.2317 2.4739C12.3091 2.59296 12.3864 2.79138 12.4637 2.91044C12.7344 3.54541 12.8891 4.1407 13.0052 4.85504C13.0052 4.85504 13.0052 4.85504 12.9665 4.85504V4.89473C13.3919 4.45818 13.7013 3.78353 13.7013 3.06918C13.7013 1.6405 12.5798 0.529297 11.2262 0.529297C11.0715 0.529297 10.8395 0.568983 10.6848 0.608669C11.3422 1.12458 11.8063 1.71987 12.193 2.39452Z" fill="white"/>
<g opacity="0.82">
<path opacity="0.82" d="M12.9667 4.93433C12.5413 5.37087 11.8838 5.64867 11.2264 5.64867C9.8342 5.64867 8.75137 4.53747 8.75137 3.10879C8.75137 2.95004 8.75136 2.75162 8.79004 2.63256C8.82871 2.47382 8.86739 2.31507 8.90606 2.15633C9.21544 1.44198 9.79552 0.926071 10.5303 0.687957C11.2264 1.08481 11.7291 1.6801 12.1159 2.35476C11.7678 1.64041 11.2651 1.08481 10.6076 0.64827C10.2596 0.410156 9.91154 0.251413 9.48615 0.132356C6.08298 -0.859787 4.88414 3.98187 7.5912 6.1249C8.24863 6.64082 8.94473 7.2361 9.52482 7.7917C10.5303 7.2361 11.6905 6.91862 13.0053 6.87893C13.16 6.20427 13.1213 5.60899 12.9667 4.93433Z" fill="white"/>
<path opacity="0.82" d="M12.4639 2.9502C12.7346 3.58517 12.8893 4.22014 12.9666 4.8948C12.9666 4.8948 12.9666 4.8948 13.0053 4.8948C12.8893 4.22014 12.7346 3.54548 12.4639 2.9502Z" fill="white"/>
</g>
<path opacity="0.61" d="M11.2649 5.64868C11.961 5.64868 12.5411 5.37088 13.0051 4.89465C12.9278 4.21999 12.7344 3.58502 12.5024 2.95005C12.4637 2.79131 12.3864 2.63256 12.2703 2.51351C12.2703 2.47382 12.2317 2.43414 12.2317 2.43414C11.845 1.71979 11.3422 1.16419 10.6461 0.767334C9.91134 1.00545 9.29257 1.52136 9.02187 2.23571C8.9832 2.35476 8.90586 2.55319 8.90586 2.71194C8.86718 2.87068 8.86718 3.02942 8.86718 3.18816C8.78984 4.53748 9.87267 5.64868 11.2649 5.64868Z" fill="white"/>
<path d="M20.0049 3.42614C20.6623 3.823 20.2756 4.61671 20.0436 5.09294C20.0436 5.09294 21.6678 4.18017 21.4358 2.87054C21.1651 1.56091 20.3143 1.20374 19.7729 1.64028C19.1928 2.11651 19.3474 2.94991 20.0049 3.42614Z" fill="white"/>
</svg>
