<svg width="92" height="31" viewBox="0 0 92 31" fill="none" xmlns="http://www.w3.org/2000/svg">
<path d="M31.1372 12.0126V3.97363H36.6108V5.48896H32.9445V7.08133H36.1719V8.57098H32.9445V10.5229H36.869V12.0382H31.1372V12.0126Z" fill="#87A2B2"/>
<path d="M40.7676 7.62294L41.981 5.90215H43.7884L41.6454 8.88143C42.136 9.44647 42.5749 9.98582 42.9363 10.5509C43.3236 11.0902 43.6076 11.6039 43.84 12.0148H41.981C41.9294 11.8864 41.852 11.758 41.7487 11.5782C41.6454 11.3984 41.5421 11.2186 41.4388 11.0388C41.3098 10.8591 41.2065 10.6793 41.0774 10.5509C40.9483 10.4224 40.8192 10.294 40.6901 10.1913C40.561 10.294 40.4577 10.3968 40.3286 10.5252C40.1996 10.6536 40.0963 10.8077 39.993 10.9875C39.8897 11.1673 39.7865 11.347 39.6832 11.5268C39.5799 11.7066 39.4766 11.8607 39.3992 12.0148H37.6177C37.721 11.835 37.85 11.6039 38.005 11.3214C38.1599 11.0388 38.3406 10.782 38.5213 10.4995C38.7021 10.217 38.9086 9.93445 39.141 9.67762C39.3733 9.42078 39.5799 9.16395 39.7864 8.9328C39.3992 8.39345 39.0377 7.87978 38.6762 7.36611C38.3148 6.87812 37.9791 6.36445 37.6435 5.87646H39.5283L40.7676 7.62294Z" fill="#87A2B2"/>
<path d="M50.5013 8.95917C50.5013 9.42147 50.4497 9.85809 50.3206 10.2433C50.1915 10.6286 50.0366 10.9625 49.8042 11.245C49.5718 11.5275 49.2878 11.733 48.9522 11.8871C48.6165 12.0412 48.2292 12.1182 47.7903 12.1182C47.558 12.1182 47.3256 12.0925 47.119 12.0412C46.9125 11.9898 46.7059 11.9384 46.4994 11.8357V14.1472H44.7695V6.1083C44.9244 6.05693 45.1052 6.00557 45.3117 5.97988C45.5183 5.92851 45.7248 5.90283 45.9572 5.87715C46.1896 5.85146 46.3961 5.82578 46.6285 5.8001C46.8608 5.77441 47.0674 5.77441 47.2998 5.77441C47.8161 5.77441 48.2551 5.85146 48.6423 6.00557C49.0296 6.15967 49.3653 6.36513 49.6493 6.64765C49.9333 6.93017 50.1398 7.26406 50.2689 7.64931C50.4497 8.03456 50.5013 8.47118 50.5013 8.95917ZM48.7456 9.01053C48.7456 8.47118 48.6165 8.06024 48.3842 7.72636C48.1518 7.39247 47.7903 7.23837 47.2998 7.23837C47.1449 7.23837 46.9899 7.23837 46.8608 7.26406C46.7318 7.26406 46.6285 7.28974 46.5252 7.31542V10.4488C46.6285 10.5259 46.7834 10.5772 46.9641 10.6286C47.1449 10.68 47.3256 10.7056 47.5063 10.7056C48.3325 10.68 48.7456 10.1149 48.7456 9.01053Z" fill="#87A2B2"/>
<path d="M54.2967 12.1433C53.7803 12.1433 53.3672 12.092 53.0573 11.9892C52.7475 11.8865 52.4893 11.7581 52.3085 11.5526C52.1278 11.3728 51.9987 11.1417 51.947 10.8848C51.8696 10.628 51.8438 10.3455 51.8438 10.0116V3.28252L53.5995 3V9.65202C53.5995 9.80612 53.5995 9.93454 53.6254 10.063C53.6512 10.1914 53.7028 10.2941 53.7545 10.3712C53.8319 10.4482 53.9094 10.5253 54.0385 10.5766C54.1676 10.628 54.3225 10.6537 54.5291 10.6794L54.2967 12.1433Z" fill="#87A2B2"/>
<path d="M61.2937 8.95916C61.2937 9.44715 61.2163 9.88377 61.0872 10.269C60.9581 10.68 60.7515 11.0138 60.4675 11.2964C60.2093 11.5789 59.8737 11.81 59.5122 11.9641C59.1508 12.1182 58.7377 12.1953 58.2729 12.1953C57.834 12.1953 57.4209 12.1182 57.0336 11.9641C56.6722 11.81 56.3365 11.5789 56.0783 11.2964C55.8202 11.0138 55.6136 10.68 55.4587 10.269C55.3038 9.85809 55.2263 9.42147 55.2263 8.95916C55.2263 8.47118 55.3038 8.03456 55.4587 7.64931C55.6136 7.26406 55.8202 6.93017 56.0783 6.64765C56.3365 6.36513 56.6722 6.15967 57.0336 6.00557C57.3951 5.85146 57.8082 5.77441 58.2471 5.77441C58.686 5.77441 59.0991 5.85146 59.4606 6.00557C59.8221 6.15967 60.1577 6.36513 60.4159 6.64765C60.6741 6.93017 60.8806 7.26406 61.0355 7.64931C61.2163 8.03456 61.2937 8.47118 61.2937 8.95916ZM59.5122 8.95916C59.5122 8.41981 59.409 8.00888 59.2024 7.70068C58.9959 7.39247 58.686 7.23837 58.2729 7.23837C57.8857 7.23837 57.5758 7.39247 57.3435 7.70068C57.1369 8.00888 57.0078 8.41981 57.0078 8.95916C57.0078 9.49852 57.1111 9.90945 57.3435 10.2433C57.55 10.5515 57.8598 10.7056 58.2729 10.7056C58.6602 10.7056 58.97 10.5515 59.2024 10.2433C59.409 9.90945 59.5122 9.47283 59.5122 8.95916Z" fill="#87A2B2"/>
<path d="M66.3281 7.44384C66.1732 7.39247 65.9924 7.36679 65.7859 7.31542C65.5793 7.26406 65.347 7.26406 65.1146 7.26406C65.0113 7.26406 64.8822 7.26406 64.7273 7.28974C64.5724 7.31542 64.4691 7.34111 64.3917 7.34111V12.0155H62.636V6.23672C62.9458 6.13398 63.3073 6.03125 63.7462 5.92852C64.1593 5.82578 64.6498 5.77441 65.1662 5.77441C65.2695 5.77441 65.3728 5.77441 65.5019 5.8001C65.631 5.8001 65.7601 5.82578 65.8892 5.85146C66.0182 5.87715 66.1473 5.90283 66.2764 5.92852C66.4055 5.9542 66.5088 5.97988 66.6121 6.03125L66.3281 7.44384Z" fill="#87A2B2"/>
<path d="M69.478 4.13037C69.478 4.43857 69.3747 4.6954 69.1681 4.87519C68.9616 5.05497 68.7292 5.15771 68.4452 5.15771C68.1611 5.15771 67.9288 5.05497 67.7222 4.87519C67.5156 4.6954 67.4124 4.43857 67.4124 4.13037C67.4124 3.82216 67.5156 3.56533 67.7222 3.38555C67.9288 3.20576 68.1611 3.10303 68.4452 3.10303C68.7292 3.10303 68.9616 3.20576 69.1681 3.38555C69.3747 3.56533 69.478 3.82216 69.478 4.13037ZM69.2972 12.0152H67.5673V5.90253H69.2972V12.0152Z" fill="#87A2B2"/>
<path d="M70.9497 6.1083C71.2337 6.03125 71.621 5.9542 72.0857 5.87715C72.5505 5.8001 73.041 5.77441 73.5574 5.77441C74.0738 5.77441 74.5127 5.85146 74.8483 5.97988C75.184 6.1083 75.468 6.31377 75.6745 6.54492C75.8811 6.80175 76.0102 7.08427 76.1135 7.41816C76.1909 7.75204 76.2426 8.13729 76.2426 8.54823V11.9898H74.5127V8.77938C74.5127 8.21434 74.4352 7.82909 74.2803 7.59794C74.1254 7.36679 73.8672 7.23837 73.4541 7.23837C73.325 7.23837 73.1959 7.23837 73.0668 7.26406C72.9377 7.26406 72.8087 7.28974 72.7054 7.31542V12.0412H70.9755V6.1083H70.9497Z" fill="#87A2B2"/>
<path d="M83.1105 11.2444C83.1105 12.2461 82.8523 12.9909 82.336 13.4789C81.8196 13.9669 81.045 14.198 79.9607 14.198C79.5992 14.198 79.2119 14.1723 78.8504 14.0953C78.489 14.0182 78.1275 13.9412 77.8177 13.8384L78.1275 12.3745C78.4115 12.4772 78.6955 12.58 78.9795 12.6313C79.2894 12.6827 79.625 12.7341 80.0123 12.7341C80.5028 12.7341 80.8643 12.6313 81.0709 12.4002C81.2774 12.1947 81.3807 11.9122 81.3807 11.5526V11.3215C81.2 11.3985 80.9934 11.4756 80.8127 11.5012C80.6061 11.5526 80.3996 11.5526 80.1672 11.5526C79.3152 11.5526 78.6697 11.2958 78.205 10.8078C77.7661 10.3198 77.5337 9.60067 77.5337 8.70174C77.5337 8.26512 77.6111 7.85419 77.7402 7.46894C77.8693 7.10937 78.0759 6.77548 78.3599 6.51865C78.6181 6.26181 78.9537 6.05635 79.341 5.90224C79.7283 5.74814 80.1672 5.69678 80.6578 5.69678C80.8643 5.69678 81.0967 5.69678 81.3032 5.72246C81.5356 5.74814 81.7421 5.77383 81.9745 5.79951C82.1811 5.8252 82.4134 5.87656 82.5942 5.90224C82.8007 5.95361 82.9814 5.9793 83.1364 6.03066V11.2444H83.1105ZM79.2894 8.75311C79.2894 9.72908 79.6766 10.2171 80.477 10.2171C80.6578 10.2171 80.8127 10.1914 80.9676 10.14C81.1225 10.0887 81.2516 10.0373 81.3549 9.98592V7.2121C81.2774 7.18642 81.1741 7.18642 81.045 7.16074C80.9159 7.16074 80.7869 7.13505 80.6319 7.13505C80.1672 7.13505 79.8316 7.28915 79.5992 7.59736C79.4185 7.90556 79.2894 8.29081 79.2894 8.75311Z" fill="#87A2B2"/>
<path d="M11.0504 15.5845C10.4308 17.6648 9.78531 19.6425 9.0882 21.466C8.41691 23.2895 7.66817 25.0617 6.86779 26.7825C6.58378 27.3989 6.29977 27.9382 5.98995 28.3492C5.70594 28.7858 5.3703 29.1453 5.03466 29.4279C4.69901 29.7104 4.28591 29.9159 3.87281 30.0443C3.43389 30.1727 2.91752 30.2497 2.34951 30.2497C1.85895 30.2497 1.42003 30.1984 1.00693 30.1213C0.593831 30.0443 0.258188 29.9415 0 29.8131L0.542193 27.3732C0.852018 27.4759 1.13602 27.553 1.39421 27.6043C1.6524 27.6557 1.91059 27.6557 2.19459 27.6557C2.73679 27.6557 3.17571 27.5016 3.45971 27.2191C3.76954 26.9109 4.00191 26.5256 4.20846 25.9863C3.51135 24.6251 2.78842 23.0584 2.09132 21.3633C1.39421 19.6425 0.722924 17.7419 0.103274 15.6102H3.38226C3.51135 16.1495 3.69208 16.7145 3.87281 17.3566C4.05354 17.973 4.26009 18.6151 4.46664 19.2572C4.67319 19.8993 4.87974 20.5157 5.11211 21.1321C5.31866 21.7485 5.52521 22.2879 5.73176 22.7758C5.91249 22.2879 6.09322 21.7228 6.29977 21.1321C6.50632 20.5157 6.68706 19.8993 6.86779 19.2572C7.04852 18.6151 7.22925 17.9987 7.40998 17.3566C7.59071 16.7402 7.74563 16.1495 7.87472 15.6102H11.0504V15.5845Z" fill="#4F667C"/>
<path d="M34.2615 26.0376C33.7451 26.1917 33.048 26.3202 32.2218 26.4486C31.3956 26.577 30.5178 26.6541 29.6141 26.6541C28.6846 26.6541 27.9101 26.5256 27.3162 26.2945C26.6966 26.0376 26.206 25.7038 25.8446 25.2415C25.4831 24.8048 25.2249 24.2655 25.07 23.6491C24.9151 23.0327 24.8376 22.3392 24.8376 21.6201V15.5845H27.9359V21.2348C27.9359 22.2365 28.065 22.9299 28.3232 23.3666C28.5814 23.8032 29.0719 24.0343 29.7948 24.0343C30.0272 24.0343 30.2596 24.0343 30.492 24.0087C30.7501 23.983 30.9567 23.9573 31.1632 23.9316V15.5845H34.2615V26.0376Z" fill="#4F667C"/>
<path d="M43.737 18.3086C43.453 18.2315 43.1432 18.1802 42.7559 18.1031C42.3945 18.0261 41.9814 18.0004 41.5424 18.0004C41.3617 18.0004 41.1294 18.0261 40.8453 18.0517C40.5872 18.0774 40.3806 18.1288 40.2257 18.1545V26.4246H37.1274V16.1512C37.6696 15.9714 38.3409 15.7659 39.0897 15.6118C39.8384 15.432 40.6904 15.355 41.5941 15.355C41.749 15.355 41.9555 15.355 42.1879 15.3807C42.4203 15.4063 42.6527 15.432 42.885 15.4577C43.1174 15.4834 43.3498 15.5348 43.5821 15.5861C43.8145 15.6375 44.021 15.6889 44.176 15.7659L43.737 18.3086Z" fill="#4F667C"/>
<path d="M51.896 20.6708C51.896 19.6691 51.7669 18.9757 51.5087 18.5647C51.2505 18.1538 50.8116 17.9483 50.1919 17.9483C50.0112 17.9483 49.8046 17.9483 49.5981 17.974C49.3915 17.9997 49.185 18.0254 49.0043 18.0511V26.4239H45.906V15.945C46.1642 15.868 46.474 15.8166 46.8355 15.7395C47.1969 15.6625 47.5584 15.5854 47.9457 15.5341C48.333 15.4827 48.7461 15.4313 49.1592 15.38C49.5723 15.3543 49.9854 15.3286 50.3727 15.3286C51.1472 15.3286 51.7927 15.4313 52.2832 15.6368C52.7738 15.8423 53.1869 16.0734 53.4967 16.356C53.9356 16.0478 54.452 15.7909 55.02 15.6111C55.588 15.4313 56.1302 15.3543 56.595 15.3543C57.4728 15.3543 58.1699 15.4827 58.7379 15.7139C59.3059 15.945 59.7449 16.3046 60.0805 16.7412C60.4161 17.1778 60.6485 17.6915 60.7518 18.3079C60.8809 18.9243 60.9325 19.5921 60.9325 20.3369V26.4496H57.8343V20.6965C57.8343 19.6948 57.7052 19.0013 57.447 18.5904C57.1888 18.1795 56.7499 17.974 56.1302 17.974C55.9753 17.974 55.743 18.0254 55.4331 18.1024C55.1233 18.1795 54.8909 18.2822 54.7102 18.4106C54.8135 18.7188 54.8651 19.0527 54.8909 19.4123C54.9168 19.7719 54.9426 20.1314 54.9426 20.5424V26.4496H51.8443V20.6708H51.896Z" fill="#223B53"/>
<path d="M66.8448 26.4229H63.7463V15.5845H66.8448V26.4229Z" fill="#223B53"/>
<path d="M69.7363 15.945C70.2527 15.7909 70.9498 15.6625 71.776 15.5341C72.6022 15.4057 73.48 15.3286 74.3837 15.3286C75.3132 15.3286 76.0877 15.457 76.6816 15.6882C77.3012 15.9193 77.7918 16.2789 78.1532 16.7155C78.5147 17.1521 78.7729 17.6658 78.9278 18.2822C79.0827 18.8986 79.1602 19.5664 79.1602 20.3112V26.4239H76.0619V20.6708C76.0619 19.6691 75.9328 18.9757 75.6746 18.5647C75.4165 18.1538 74.9259 17.9483 74.203 17.9483C73.9706 17.9483 73.7382 17.9483 73.5059 17.974C73.2477 17.9997 73.0411 18.0254 72.8346 18.0511V26.4239H69.7363V15.945Z" fill="#223B53"/>
<path d="M91.5533 26.0631C91.2693 26.1402 90.9594 26.2172 90.598 26.2943C90.2365 26.3713 89.875 26.4227 89.4619 26.4997C89.0747 26.5511 88.6616 26.6025 88.2485 26.6281C87.8354 26.6538 87.4481 26.6795 87.0866 26.6795C86.183 26.6795 85.3826 26.5511 84.6855 26.2943C83.9884 26.0374 83.3945 25.6522 82.904 25.1642C82.4134 24.6762 82.052 24.0855 81.7938 23.392C81.5356 22.6986 81.4065 21.9281 81.4065 21.0548C81.4065 20.1816 81.5098 19.3854 81.7421 18.6663C81.9745 17.9471 82.2843 17.3564 82.6974 16.8684C83.1105 16.3804 83.6269 15.9952 84.2207 15.7384C84.8146 15.4815 85.5117 15.3531 86.2862 15.3531C86.7252 15.3531 87.0866 15.4045 87.4481 15.4815C87.7837 15.5586 88.1194 15.687 88.4808 15.8411V10.9099L91.5791 10.4219V26.0631H91.5533ZM84.5822 20.9007C84.5822 21.851 84.7887 22.6215 85.2277 23.1866C85.6666 23.7516 86.2862 24.0598 87.1383 24.0598C87.4223 24.0598 87.6804 24.0598 87.9128 24.0341C88.1452 24.0084 88.3517 23.9828 88.4808 23.9571V18.3838C88.3001 18.2553 88.0419 18.1526 87.7321 18.0756C87.4223 17.9985 87.1124 17.9471 86.8026 17.9471C85.3051 17.9471 84.5822 18.9231 84.5822 20.9007Z" fill="#223B53"/>
<path d="M15.7494 3.8501C15.5686 3.8501 15.4137 3.87578 15.2588 3.90146C15.8527 4.56924 16.4465 5.64794 16.9629 7.266C17.4019 6.90643 17.6859 6.36708 17.6859 5.75068C17.6859 4.72334 16.808 3.8501 15.7494 3.8501Z" fill="#992976"/>
<path d="M15.2589 3.92773C14.4327 4.1332 13.813 4.90371 13.813 5.77694C13.813 6.82997 14.6909 7.70321 15.7495 7.70321C16.2143 7.70321 16.6274 7.54911 16.9373 7.29227C16.4467 5.67421 15.8528 4.5955 15.2589 3.92773Z" fill="#D576AC"/>
<path d="M26.0252 7.54745C24.8375 7.49608 23.8048 8.42069 23.779 9.60213C23.7531 10.2699 24.0372 10.8863 24.5019 11.2972C25.9477 9.83328 27.1096 9.16551 27.9874 8.96004C27.7034 8.18954 26.9289 7.59882 26.0252 7.54745Z" fill="#D22624"/>
<path d="M27.9875 8.98486C27.1096 9.19033 25.9477 9.8581 24.5017 11.3221C24.8632 11.6303 25.328 11.8357 25.8444 11.8614C27.0321 11.9128 28.0649 10.9882 28.1166 9.80673C28.1166 9.52422 28.0649 9.2417 27.9875 8.98486Z" fill="#F29224"/>
<path d="M19.8545 7.24065C20.345 7.78 20.3192 8.2423 20.0868 8.65324C20.1385 8.67892 20.1643 8.67892 20.2159 8.7046C20.5 8.83302 20.784 8.96144 21.068 9.11554C22.5914 8.16525 22.2299 6.57288 22.1525 6.23899C21.9976 5.62259 21.6361 5.08323 20.9906 5.00618C20.2676 4.92913 19.5962 5.4428 19.5188 6.16194C19.4413 6.57288 19.5963 6.95813 19.8545 7.24065Z" fill="#5467A8"/>
<path d="M23.3656 13.3014C23.0558 12.5309 22.5653 11.8375 21.9198 11.1954C21.2743 10.5533 20.5772 10.091 19.8027 9.78281C19.0797 9.50029 18.331 9.34619 17.5822 9.34619C17.5306 9.34619 17.479 9.34619 17.4273 9.34619C16.6269 9.37187 15.8266 9.55166 15.0004 9.91123C14.9745 9.91123 14.9745 9.93691 14.9487 9.93691L23.2107 18.0786C23.2107 18.0529 23.2365 18.0529 23.2365 18.0272C23.598 17.231 23.7787 16.4348 23.8046 15.6386C23.8304 14.8425 23.6755 14.072 23.3656 13.3014Z" fill="#4F667C"/>
<path d="M23.2108 17.873H11.5665C11.2567 18.9004 11.1018 19.6709 11.1018 20.6469C11.1018 21.6485 12.1346 27.4016 17.3758 27.4016C22.6428 27.4016 23.6239 21.6228 23.6239 20.6212C23.6497 19.6452 23.4948 18.8747 23.2108 17.873ZM14.2775 23.4977H20.6547C20.6806 23.4977 17.4532 28.5831 14.2775 23.4977Z" fill="#4F667C"/>
<path d="M24.0887 5.90461C24.0112 5.31389 23.9079 5.18547 23.6497 5.00568C23.3141 4.80022 22.8493 4.90295 22.6427 5.23684C22.4362 5.57072 22.5394 6.03302 22.8751 6.23849C23.5723 6.64943 22.8235 7.59972 22.8235 7.6254C23.7014 7.21446 24.1661 6.49533 24.0887 5.90461Z" fill="#A762A3"/>
<path d="M28.5812 8.93604C28.4005 8.93604 28.1939 8.93604 27.9874 8.9874C28.0907 9.24424 28.1165 9.52676 28.1165 9.80927C28.0648 10.9907 27.0579 11.9153 25.8444 11.864C25.328 11.8383 24.8633 11.6328 24.5018 11.3246C24.476 11.3503 24.4502 11.376 24.4244 11.4016C24.2695 11.5814 24.0888 11.7355 23.9338 11.8896C24.1146 12.1978 24.2953 12.5317 24.4244 12.8656C24.5018 13.0711 24.5793 13.2765 24.6309 13.482C25.4571 12.9427 26.3866 12.4804 27.3935 12.1978C30.1303 11.4787 30.2852 9.01309 28.5812 8.93604Z" fill="#ED7225"/>
<path d="M13.9419 9.14099L14.4066 8.88415C14.4324 8.85847 14.4582 8.85847 14.5099 8.83279C15.3877 8.44753 16.2914 8.21638 17.195 8.16502C17.195 8.13933 17.195 8.13933 17.195 8.11365C17.1176 7.80545 17.0401 7.52293 16.9626 7.26609C16.627 7.52293 16.2139 7.67703 15.775 7.67703C14.7164 7.67703 13.8386 6.80379 13.8386 5.75077C13.8386 4.85185 14.4582 4.10703 15.2844 3.90156C14.7422 3.28516 14.1742 3.02832 13.6578 3.02832C11.7473 3.02832 10.5338 6.59832 13.1156 8.42185C13.3997 8.653 13.6837 8.90984 13.9419 9.14099Z" fill="#D35D9D"/>
<path d="M13.8901 12.2749C12.7799 12.2749 11.8762 13.1738 11.8762 14.2782C11.8762 14.7919 12.057 15.2542 12.3668 15.6138C13.0122 14.7662 14.0708 14.2012 15.2327 14.2012C15.465 14.2012 15.6974 14.2268 15.9039 14.2525C15.9039 13.1738 15.0003 12.2749 13.8901 12.2749Z" fill="#ACCD6C"/>
<path d="M20.8098 17.3603L16.9111 13.5078C16.0075 14.2526 15.4395 15.4084 15.4395 16.6669C15.4395 16.898 15.4653 17.1292 15.5169 17.3603H20.8098Z" fill="#F29224"/>
<path d="M18.7957 17.3594C18.6666 15.767 17.2466 14.8167 17.2466 14.8167C16.8593 14.5599 16.4204 14.3801 15.9298 14.2773V14.303C15.9298 15.4074 15.0262 16.3063 13.916 16.3063C13.2963 16.3063 12.7541 16.0495 12.3927 15.6129C12.0054 16.1009 11.773 16.6916 11.6956 17.3594H18.7957Z" fill="#37B4AA"/>
<path d="M15.233 14.1997C14.0711 14.1997 13.0383 14.7647 12.3669 15.6123C12.7284 16.0232 13.2707 16.3058 13.8904 16.3058C15.0006 16.3058 15.9043 15.4068 15.9043 14.3024V14.2768C15.6978 14.2254 15.4654 14.1997 15.233 14.1997Z" fill="#CEDF99"/>
<path d="M16.1624 14.3295C16.369 14.0213 16.6272 13.7388 16.9112 13.5076L15.8267 12.4546C15.5943 12.506 15.3878 12.6344 15.207 12.7628C15.646 13.1224 15.9042 13.6617 15.93 14.2524C15.9816 14.2781 16.0849 14.3038 16.1624 14.3295Z" fill="#D22624"/>
</svg>
