<?xml version="1.0" encoding="utf-8"?>
<!-- Generator: Adobe Illustrator 16.0.0, SVG Export Plug-In . SVG Version: 6.00 Build 0)  -->
<!DOCTYPE svg PUBLIC "-//W3C//DTD SVG 1.1//EN" "http://www.w3.org/Graphics/SVG/1.1/DTD/svg11.dtd">
<svg version="1.1" id="Layer_1" xmlns="http://www.w3.org/2000/svg" xmlns:xlink="http://www.w3.org/1999/xlink" x="0px" y="0px"
	 width="28.441px" height="28.441px" viewBox="0 0 28.441 28.441" enable-background="new 0 0 28.441 28.441" xml:space="preserve">
<g id="Layer_1_1_">
	
		<line fill="none" stroke="#FFFFFF" stroke-width="1.63" stroke-linecap="round" stroke-linejoin="round" stroke-miterlimit="10" x1="10.505" y1="5.967" x2="10.491" y2="8.7"/>
	
		<line fill="none" stroke="#FFFFFF" stroke-width="1.63" stroke-linecap="round" stroke-linejoin="round" stroke-miterlimit="10" x1="17.838" y1="5.991" x2="17.824" y2="8.724"/>
	<circle fill="#E6EBF1" cx="14.22" cy="14.22" r="14.221"/>
	<path fill="#718096" d="M15.588,20.504c-0.066,0.932-0.842,1.651-1.775,1.647c-0.906-0.026-1.641-0.742-1.691-1.647
		c0.044-0.904,0.785-1.62,1.691-1.634C14.744,18.853,15.527,19.573,15.588,20.504z M19.334,10.882c0,2.817-1.973,4.044-4.41,4.466
		v0.986c0,0.604-0.493,0.958-1.155,0.958c-0.585,0.023-1.101-0.383-1.211-0.958v-1.803c-0.062-0.542,0.325-1.031,0.866-1.095
		c0.044-0.004,0.089-0.007,0.134-0.006c2.071-0.197,3.381-0.986,3.381-2.395c0-1.24-1.084-2.113-2.678-2.113
		c-1.146-0.01-2.252,0.424-3.085,1.211c-0.239,0.193-0.537,0.302-0.845,0.31c-0.684,0-1.245-0.542-1.268-1.226
		c0-0.364,0.159-0.708,0.437-0.944c1.23-1.275,2.935-1.984,4.706-1.958c3.1,0,5.141,1.733,5.141,4.509L19.334,10.882z"/>
</g>
<g id="Layer_2">
</g>
</svg>
