<?xml version="1.0" encoding="utf-8"?>
<!-- Generator: Adobe Illustrator 16.0.0, SVG Export Plug-In . SVG Version: 6.00 Build 0)  -->
<!DOCTYPE svg PUBLIC "-//W3C//DTD SVG 1.1//EN" "http://www.w3.org/Graphics/SVG/1.1/DTD/svg11.dtd">
<svg version="1.1" id="Layer_1" xmlns="http://www.w3.org/2000/svg" xmlns:xlink="http://www.w3.org/1999/xlink" x="0px" y="0px"
	 width="28.441px" height="28.441px" viewBox="0 0 28.441 28.441" enable-background="new 0 0 28.441 28.441" xml:space="preserve">
<g id="Layer_1_1_">
	<circle fill="#E6EBF1" cx="14.22" cy="14.22" r="14.221"/>
	<g>
		
			<path fill="none" stroke="#78869B" stroke-width="1.63" stroke-linecap="round" stroke-linejoin="round" stroke-miterlimit="10" d="
			M21.478,21.401c-1.768-1.06-2.783-3.028-2.619-5.085v-3.025c0,0,1.1-2.896-2.42-2.896H6.246c-1.232,0-1.695,0.407-1.695,1.431
			v6.956c0,1.111,0.551,2.619,3.303,2.619H21.478z"/>
		<path fill="#78869B" d="M7.442,22.146c0,0,1.661-0.535,1.661-4.551V9.212c0-1.229,0.568-1.854,2.423-1.854h9.384
			c2.98,0,2.98,0.717,2.98,2.617v8.327c0,1.706-0.422,3.833-2.412,3.833L7.442,22.146z"/>
		<path fill="#F7F9FC" d="M11.661,10.77h9.668c0.158,0,0.285,0.127,0.285,0.284v2.844c0,0.157-0.127,0.285-0.285,0.285h-9.668
			c-0.157,0-0.285-0.128-0.285-0.285v-2.844C11.377,10.897,11.504,10.77,11.661,10.77z"/>
	</g>
</g>
<g id="Layer_2">
</g>
</svg>
