<?xml version="1.0" encoding="iso-8859-1"?>
<!-- Generator: Adobe Illustrator 16.0.0, SVG Export Plug-In . SVG Version: 6.00 Build 0)  -->
<!DOCTYPE svg PUBLIC "-//W3C//DTD SVG 1.1//EN" "http://www.w3.org/Graphics/SVG/1.1/DTD/svg11.dtd">
<svg version="1.1" xmlns="http://www.w3.org/2000/svg" xmlns:xlink="http://www.w3.org/1999/xlink" x="0px" y="0px"
	 width="20.519px" height="20.348px" viewBox="0 0 20.519 20.348" style="enable-background:new 0 0 20.519 20.348;"
	 xml:space="preserve">
<g id="Classes_Icon">
	<g>
		<g>
			<g>
				<g>
					<path style="fill:#78889D;" d="M10.199,18.699c-0.4,0-0.727-0.326-0.727-0.729v-2.658c0-0.402,0.326-0.727,0.727-0.727
						c0.401,0,0.728,0.324,0.728,0.727v2.658C10.927,18.373,10.601,18.699,10.199,18.699z"/>
				</g>
				<g>
					<path style="fill:#78889D;" d="M17.789,20.348c-0.191,0-0.381-0.076-0.524-0.225l-4.244-4.412
						c-0.278-0.291-0.271-0.748,0.019-1.029c0.291-0.277,0.75-0.27,1.029,0.021l4.243,4.412c0.279,0.289,0.271,0.752-0.019,1.027
						C18.152,20.279,17.97,20.348,17.789,20.348z"/>
				</g>
				<g>
					<path style="fill:#78889D;" d="M2.743,20.348c-0.181,0-0.364-0.068-0.504-0.205c-0.29-0.275-0.298-0.738-0.019-1.027
						l4.244-4.412c0.278-0.291,0.738-0.299,1.027-0.021c0.29,0.281,0.296,0.738,0.021,1.029l-4.246,4.412
						C3.124,20.271,2.934,20.348,2.743,20.348z"/>
				</g>
				<g>
					<g>
						<path style="fill:#78889D;" d="M19.549,15.811H0.969C0.434,15.811,0,15.375,0,14.842c0-0.535,0.434-0.971,0.969-0.971h18.58
							c0.535,0,0.97,0.436,0.97,0.971C20.519,15.375,20.084,15.811,19.549,15.811z"/>
					</g>
				</g>
			</g>
		</g>
		<g>
			<g>
				<path style="fill:#78889D;" d="M18.399,1.6v9.072H1.862V1.6H18.399 M18.977,0H1.285C0.719,0,0.262,0.458,0.262,1.021V11.25
					c0,0.564,0.457,1.022,1.023,1.022h17.691c0.562,0,1.022-0.458,1.022-1.022V1.021C19.999,0.458,19.539,0,18.977,0L18.977,0z"/>
			</g>
		</g>
	</g>
</g>
<g id="Layer_1">
</g>
</svg>
