<?xml version="1.0" encoding="iso-8859-1"?>
<!-- Generator: Adobe Illustrator 16.0.0, SVG Export Plug-In . SVG Version: 6.00 Build 0)  -->
<!DOCTYPE svg PUBLIC "-//W3C//DTD SVG 1.1//EN" "http://www.w3.org/Graphics/SVG/1.1/DTD/svg11.dtd">
<svg version="1.1" xmlns="http://www.w3.org/2000/svg" xmlns:xlink="http://www.w3.org/1999/xlink" x="0px" y="0px"
	 width="28.442px" height="28.442px" viewBox="0 0 28.442 28.442" style="enable-background:new 0 0 28.442 28.442;"
	 xml:space="preserve">
<g id="Chrome_Extension-_Icon">
	<circle style="fill:#E6EBF1;" cx="14.221" cy="14.22" r="14.221"/>
	<path style="fill:#78869B;" d="M15.593,10.48h6.563c-1.41-2.898-4.384-4.895-7.824-4.895c-2.969,0-5.589,1.486-7.159,3.756
		l0.632,1.094v0.045h0.019l2.884,4.994L15.593,10.48z"/>
	<path style="fill:#B7C2D1;" d="M16.945,17.15l-3.282,5.686c3.216,0.227,6.431-1.35,8.151-4.328
		c1.484-2.571,1.506-5.584,0.326-8.078h-1.264l-0.039-0.023l-0.008,0.017h-5.768L16.945,17.15z"/>
	<path style="fill:#9FA9B9;" d="M10.479,14.998L7.197,9.312c-1.805,2.671-2.047,6.244-0.328,9.223
		c1.484,2.572,4.083,4.098,6.833,4.322l0.631-1.094l0.04-0.022l-0.01-0.017l2.884-4.994L10.479,14.998z"/>
	<circle style="fill:#FFFFFF;" cx="14.342" cy="14.221" r="3.802"/>
	<circle style="fill:#78869B;" cx="14.343" cy="14.221" r="3.169"/>
</g>
</svg>
