<?xml version="1.0" encoding="utf-8"?>
<!-- Generator: Adobe Illustrator 16.0.0, SVG Export Plug-In . SVG Version: 6.00 Build 0)  -->
<!DOCTYPE svg PUBLIC "-//W3C//DTD SVG 1.1//EN" "http://www.w3.org/Graphics/SVG/1.1/DTD/svg11.dtd">
<svg version="1.1" id="Layer_1" xmlns="http://www.w3.org/2000/svg" xmlns:xlink="http://www.w3.org/1999/xlink" x="0px" y="0px"
	 width="28.441px" height="28.441px" viewBox="0 0 28.441 28.441" enable-background="new 0 0 28.441 28.441" xml:space="preserve">
<g id="Layer_1_1_">
	<circle fill="#E6EBF1" cx="14.222" cy="14.22" r="14.221"/>
	<g>
		<g>
			<defs>
				<path id="SVGID_1_" d="M21.488,17.945c0.002,0.641-0.516,1.16-1.156,1.16h-0.002H8.113c-0.64,0-1.159-0.52-1.159-1.156
					c0-0.002,0-0.002,0-0.004v-7.72C6.947,9.585,7.459,9.061,8.1,9.055c0.004,0,0.008,0,0.013,0h12.214
					c0.641-0.001,1.16,0.517,1.16,1.156c0,0.002,0,0.003,0,0.004v7.72V17.945z"/>
			</defs>
			<clipPath id="SVGID_2_">
				<use xlink:href="#SVGID_1_"  overflow="visible"/>
			</clipPath>
			<path clip-path="url(#SVGID_2_)" fill="#718096" d="M7.19,8.831l0.024,0.71l5.418,5.24c1.167,1.168,2.082,1.23,3.312,0l5.291-5.3
				l-0.002-0.65L7.19,8.831z"/>
		</g>
	</g>
	<g>
		<g>
			<defs>
				<path id="SVGID_3_" d="M21.741,19.754c0,0.664-0.537,1.203-1.199,1.203H7.901c-0.662,0-1.199-0.535-1.2-1.197
					c0-0.002,0-0.004,0-0.006v-8.001c-0.001-0.661,0.534-1.198,1.196-1.2c0.002,0,0.002,0,0.004,0h12.643
					c0.66,0,1.197,0.539,1.197,1.2V19.754z"/>
			</defs>
			<clipPath id="SVGID_4_">
				<use xlink:href="#SVGID_3_"  overflow="visible"/>
			</clipPath>
			<path clip-path="url(#SVGID_4_)" fill="#718096" d="M6.271,22.338l0.104-11.302l0.595,0.013l5.6,5.422
				c1.209,1.209,2.153,1.273,3.428,0l5.479-5.476l0.609,0.021l-0.002,11.322H6.271L6.271,22.338z"/>
		</g>
	</g>
</g>
<g id="Layer_2">
</g>
</svg>
