<?xml version="1.0" encoding="iso-8859-1"?>
<!-- Generator: Adobe Illustrator 16.0.0, SVG Export Plug-In . SVG Version: 6.00 Build 0)  -->
<!DOCTYPE svg PUBLIC "-//W3C//DTD SVG 1.1//EN" "http://www.w3.org/Graphics/SVG/1.1/DTD/svg11.dtd">
<svg version="1.1" id="Layer_1" xmlns="http://www.w3.org/2000/svg" xmlns:xlink="http://www.w3.org/1999/xlink" x="0px" y="0px"
	 width="25.6px" height="16px" viewBox="0 0 25.6 16" style="enable-background:new 0 0 25.6 16;" xml:space="preserve">
<g id="Live_Sessions_Icon">
	<g>
		<path style="fill:none;stroke:#78889D;stroke-width:1.6;stroke-linejoin:round;stroke-miterlimit:10;" d="M24.309,1.138
			c-0.271-0.122-0.517-0.075-0.74,0.122c0,0-1.969,2.066-3.567,3.812V2.767C20,1.873,19.088,0.8,18.195,0.8H2.771
			C1.879,0.8,0.8,1.873,0.8,2.767v10.622c0,0.894,1.079,1.812,1.971,1.812h15.424c0.895,0,1.807-0.92,1.807-1.812v-2.332
			c1.601,1.745,3.547,3.812,3.547,3.812c0.141,0.125,0.271,0.188,0.452,0.188c0.104,0,0.231-0.022,0.334-0.066
			c0.271-0.124,0.468-0.396,0.468-0.692V1.831C24.8,1.532,24.58,1.261,24.309,1.138z"/>
		<circle style="display:none;fill:#78889D;" cx="12.88" cy="8.063" r="2.607"/>
		<g style="enable-background:new    ;">
			<path style="fill:#78889D;" d="M4.222,6.514c0-0.241,0.19-0.431,0.431-0.431c0.241,0,0.432,0.189,0.432,0.431v2.738h1.596
				c0.218,0,0.392,0.174,0.392,0.393c0,0.218-0.174,0.392-0.392,0.392H4.654c-0.241,0-0.431-0.19-0.431-0.432V6.514z"/>
			<path style="fill:#78889D;" d="M7.728,6.514c0-0.241,0.19-0.431,0.431-0.431s0.431,0.189,0.431,0.431v3.125
				c0,0.24-0.19,0.431-0.431,0.431s-0.431-0.19-0.431-0.431V6.514z"/>
			<path style="fill:#78889D;" d="M10.618,9.756l-1.271-3.04C9.319,6.648,9.296,6.581,9.296,6.508c0-0.24,0.19-0.425,0.432-0.425
				c0.224,0,0.369,0.128,0.437,0.302l0.98,2.537l0.991-2.564c0.056-0.141,0.207-0.274,0.415-0.274c0.235,0,0.425,0.179,0.425,0.414
				c0,0.067-0.022,0.14-0.044,0.19l-1.283,3.068c-0.089,0.213-0.252,0.342-0.487,0.342h-0.056
				C10.87,10.098,10.708,9.969,10.618,9.756z"/>
			<path style="fill:#78889D;" d="M13.636,9.604V6.547c0-0.24,0.19-0.431,0.432-0.431h2.172c0.213,0,0.387,0.174,0.387,0.387
				s-0.174,0.381-0.387,0.381h-1.746v0.795h1.494c0.213,0,0.387,0.174,0.387,0.387c0,0.212-0.174,0.38-0.387,0.38h-1.494v0.823
				h1.775c0.212,0,0.386,0.174,0.386,0.387s-0.174,0.381-0.386,0.381h-2.201C13.826,10.036,13.636,9.846,13.636,9.604z"/>
		</g>
	</g>
</g>
<g id="Layer_1_1_">
</g>
</svg>
