<?xml version="1.0" encoding="iso-8859-1"?>
<!-- Generator: Adobe Illustrator 16.0.0, SVG Export Plug-In . SVG Version: 6.00 Build 0)  -->
<!DOCTYPE svg PUBLIC "-//W3C//DTD SVG 1.1//EN" "http://www.w3.org/Graphics/SVG/1.1/DTD/svg11.dtd">
<svg version="1.1" xmlns="http://www.w3.org/2000/svg" xmlns:xlink="http://www.w3.org/1999/xlink" x="0px" y="0px"
	 width="24.062px" height="17.055px" viewBox="0 0 24.062 17.055" style="enable-background:new 0 0 24.062 17.055;"
	 xml:space="preserve">
<g id="TutoringIconV2-NotSelected">
	<g>
		<g>
			<path style="fill-rule:evenodd;clip-rule:evenodd;fill:none;stroke:#74879E;stroke-width:1.6;stroke-miterlimit:10;" d="
				M4.231,9.397h3.2c1.894,0,3.43,1.536,3.43,3.429l0,0v1.6c0,1.012-0.817,1.829-1.83,1.829H2.629c-1.01,0-1.829-0.817-1.829-1.829
				v-1.6C0.8,10.933,2.336,9.397,4.231,9.397z"/>
			
				<circle style="fill-rule:evenodd;clip-rule:evenodd;fill:none;stroke:#74879E;stroke-width:1.6;stroke-miterlimit:10;" cx="5.832" cy="3.924" r="3.124"/>
		</g>
		<g>
			<path style="fill-rule:evenodd;clip-rule:evenodd;fill:none;stroke:#74879E;stroke-width:1.6;stroke-miterlimit:10;" d="
				M16.632,9.397h3.2c1.894,0,3.43,1.536,3.43,3.429l0,0v1.6c0,1.012-0.817,1.829-1.83,1.829h-6.402
				c-1.01,0-1.829-0.817-1.829-1.829v-1.6C13.2,10.933,14.736,9.397,16.632,9.397z"/>
			
				<circle style="fill-rule:evenodd;clip-rule:evenodd;fill:none;stroke:#74879E;stroke-width:1.6;stroke-miterlimit:10;" cx="18.232" cy="3.924" r="3.124"/>
		</g>
	</g>
</g>
<g id="Layer_1">
</g>
</svg>
