<?xml version="1.0" encoding="utf-8"?>
<!-- Generator: Adobe Illustrator 16.0.0, SVG Export Plug-In . SVG Version: 6.00 Build 0)  -->
<!DOCTYPE svg PUBLIC "-//W3C//DTD SVG 1.1//EN" "http://www.w3.org/Graphics/SVG/1.1/DTD/svg11.dtd">
<svg version="1.1" id="Layer_1" xmlns="http://www.w3.org/2000/svg" xmlns:xlink="http://www.w3.org/1999/xlink" x="0px" y="0px"
	 width="28.441px" height="28.441px" viewBox="0 0 28.441 28.441" enable-background="new 0 0 28.441 28.441" xml:space="preserve">
<circle fill="#E6EBF1" cx="14.22" cy="14.22" r="14.221"/>
<g id="support_Icon_1_">
	<g>
		<path fill="none" stroke="#78889D" stroke-width="1.5" stroke-miterlimit="10" d="M10.856,21.913V19.97
			c0-0.26-0.144-0.367-0.212-0.381c-2.933-0.58-5.143-3.164-5.143-6.268c0-3.527,2.86-6.388,6.389-6.388
			c3.528,0,6.389,2.859,6.389,6.388c0,1.611-0.596,3.081-1.578,4.206c-0.617,0.703-2.376,2.256-5.281,4.652
			c-0.146,0.121-0.364,0.102-0.484-0.047C10.882,22.072,10.856,21.994,10.856,21.913z"/>
		<path fill="#78889D" d="M19.033,21.36v-1.221c0-0.189,0.105-0.27,0.156-0.277c2.137-0.424,3.748-2.311,3.748-4.572
			c0-2.573-2.086-4.661-4.66-4.661s-4.66,2.088-4.66,4.661c0,1.177,0.434,2.248,1.15,3.068c0.439,0.5,1.672,1.591,3.699,3.268
			c0.148,0.121,0.365,0.103,0.486-0.046C19.006,21.518,19.033,21.44,19.033,21.36z"/>
	</g>
</g>
</svg>
