<?xml version="1.0" encoding="iso-8859-1"?>
<!-- Generator: Adobe Illustrator 16.0.0, SVG Export Plug-In . SVG Version: 6.00 Build 0)  -->
<!DOCTYPE svg PUBLIC "-//W3C//DTD SVG 1.1//EN" "http://www.w3.org/Graphics/SVG/1.1/DTD/svg11.dtd">
<svg version="1.1" xmlns="http://www.w3.org/2000/svg" xmlns:xlink="http://www.w3.org/1999/xlink" x="0px" y="0px"
	 width="28.442px" height="28.441px" viewBox="0 0 28.442 28.441" style="enable-background:new 0 0 28.442 28.441;"
	 xml:space="preserve">
<g id="CARS_Daily_Passages-_Icon">
	<circle style="fill:#E6EBF1;" cx="14.221" cy="14.22" r="14.221"/>
	<path style="fill:#78889D;" d="M22,21.723c0,1.072-0.873,1.943-1.945,1.943H8.388c-1.074,0-1.946-0.871-1.946-1.943V8.113
		c0-1.075,0.872-1.947,1.946-1.947h11.667C21.127,6.166,22,7.038,22,8.113V21.723z"/>
	
		<line style="fill:none;stroke:#E6EBF1;stroke-width:1.0096;stroke-linecap:round;stroke-linejoin:round;stroke-miterlimit:10;" x1="14.094" y1="9.272" x2="20.072" y2="9.272"/>
	
		<line style="fill:none;stroke:#E6EBF1;stroke-width:1.0096;stroke-linecap:round;stroke-linejoin:round;stroke-miterlimit:10;" x1="14.094" y1="12.174" x2="20.072" y2="12.174"/>
	
		<line style="fill:none;stroke:#E6EBF1;stroke-width:1.0096;stroke-linecap:round;stroke-linejoin:round;stroke-miterlimit:10;" x1="8.666" y1="15.079" x2="20.072" y2="15.079"/>
	
		<line style="fill:none;stroke:#E6EBF1;stroke-width:1.0096;stroke-linecap:round;stroke-linejoin:round;stroke-miterlimit:10;" x1="14.295" y1="17.981" x2="20.072" y2="17.981"/>
	
		<line style="fill:none;stroke:#E6EBF1;stroke-width:1.0096;stroke-linecap:round;stroke-linejoin:round;stroke-miterlimit:10;" x1="8.666" y1="17.981" x2="14.295" y2="17.981"/>
	
		<line style="fill:none;stroke:#E6EBF1;stroke-width:1.0096;stroke-linecap:round;stroke-linejoin:round;stroke-miterlimit:10;" x1="8.666" y1="20.888" x2="20.072" y2="20.888"/>
	<path style="fill-rule:evenodd;clip-rule:evenodd;fill:#E6EBF1;" d="M8.57,8.702h3.053c0.242,0,0.438,0.195,0.438,0.436v2.834
		c0,0.241-0.195,0.437-0.438,0.437H8.57c-0.242,0-0.436-0.195-0.436-0.437V9.138C8.135,8.896,8.328,8.702,8.57,8.702"/>
</g>
<g id="Layer_1">
</g>
</svg>
