<?xml version="1.0" encoding="iso-8859-1"?>
<!-- Generator: Adobe Illustrator 16.0.0, SVG Export Plug-In . SVG Version: 6.00 Build 0)  -->
<!DOCTYPE svg PUBLIC "-//W3C//DTD SVG 1.1//EN" "http://www.w3.org/Graphics/SVG/1.1/DTD/svg11.dtd">
<svg version="1.1" xmlns="http://www.w3.org/2000/svg" xmlns:xlink="http://www.w3.org/1999/xlink" x="0px" y="0px"
	 width="28.442px" height="28.441px" viewBox="0 0 28.442 28.441" style="enable-background:new 0 0 28.442 28.441;"
	 xml:space="preserve">
<g id="CARS_Practice_Exams-_Icon">
	<circle style="fill:#E6EBF1;" cx="14.221" cy="14.22" r="14.221"/>
	<path style="fill-rule:evenodd;clip-rule:evenodd;fill:none;stroke:#78889D;stroke-width:1.5;stroke-miterlimit:10;" d="
		M19.359,8.596h1.059c0.469,0,0.848,0.379,0.848,0.846v12.152c0,0.468-0.379,0.847-0.848,0.847H9.625
		c-0.467,0-0.846-0.379-0.846-0.847v-0.665"/>
	<path style="fill-rule:evenodd;clip-rule:evenodd;fill:#78889D;" d="M7.059,6.041h10.793c0.469,0,0.848,0.378,0.848,0.845v12.152
		c0,0.468-0.379,0.847-0.848,0.847H7.059c-0.469,0-0.848-0.379-0.848-0.847V6.886C6.211,6.419,6.59,6.041,7.059,6.041z"/>
	
		<polyline style="fill:none;stroke:#E6EBF1;stroke-width:1.5;stroke-linecap:round;stroke-linejoin:round;stroke-miterlimit:10;" points="
		8.992,13.138 10.809,16.435 15.92,8.933 	"/>
</g>
</svg>
