<?xml version="1.0" encoding="iso-8859-1"?>
<!-- Generator: Adobe Illustrator 16.0.0, SVG Export Plug-In . SVG Version: 6.00 Build 0)  -->
<!DOCTYPE svg PUBLIC "-//W3C//DTD SVG 1.1//EN" "http://www.w3.org/Graphics/SVG/1.1/DTD/svg11.dtd">
<svg version="1.1" xmlns="http://www.w3.org/2000/svg" xmlns:xlink="http://www.w3.org/1999/xlink" x="0px" y="0px"
	 width="28.442px" height="28.441px" viewBox="0 0 28.442 28.441" style="enable-background:new 0 0 28.442 28.441;"
	 xml:space="preserve">
<g id="Retake_Calculator-_Icon">
	<circle style="fill:#E6EBF1;" cx="14.221" cy="14.22" r="14.221"/>
	<path style="fill:#78869B;" d="M20.452,21.626c0,0.373-0.302,0.675-0.675,0.675H8.263c-0.374,0-0.676-0.302-0.676-0.675V6.775
		c0-0.373,0.302-0.675,0.676-0.675h11.514c0.373,0,0.675,0.302,0.675,0.675V21.626z"/>
	<path style="fill:#E6EBF1;" d="M19.275,10.22c0,0.093-0.076,0.168-0.168,0.168H8.961c-0.094,0-0.169-0.075-0.169-0.168V7.698
		c0-0.093,0.075-0.168,0.169-0.168h10.146c0.092,0,0.168,0.075,0.168,0.168V10.22z"/>
	<circle style="fill:#E6EBF1;" cx="10.15" cy="13.628" r="1.182"/>
	<circle style="fill:#E6EBF1;" cx="14.034" cy="13.628" r="1.183"/>
	<circle style="fill:#E6EBF1;" cx="17.918" cy="13.628" r="1.182"/>
	<circle style="fill:#E6EBF1;" cx="10.15" cy="16.853" r="1.182"/>
	<circle style="fill:#E6EBF1;" cx="14.034" cy="16.853" r="1.183"/>
	<circle style="fill:#E6EBF1;" cx="17.918" cy="16.853" r="1.182"/>
	<circle style="fill:#E6EBF1;" cx="10.15" cy="20.077" r="1.182"/>
	<circle style="fill:#E6EBF1;" cx="14.034" cy="20.077" r="1.183"/>
	<circle style="fill:#E6EBF1;" cx="17.918" cy="20.077" r="1.182"/>
</g>
</svg>
