<svg xmlns="http://www.w3.org/2000/svg" viewBox="0 0 17.5 17.5"><style><![CDATA[.B{fill:#fff}]]></style><circle cx="8.75" cy="8.75" r="8.75" fill="#718096"/><path class="B" d="M2 11.78a.6.6 0 0 1-.23-.47.58.58 0 0 1 .58-.59.56.56 0 0 1 .37.13 1.2 1.2 0 0 0 .74.28c.48 0 .77-.28.77-.93v-3a.62.62 0 0 1 1.23 0v3.1A2 2 0 0 1 5 11.75a2 2 0 0 1-1.45.52A2.32 2.32 0 0 1 2 11.78zm4.4-4.4a.64.64 0 0 1-.05-.23.61.61 0 0 1 .65-.6.62.62 0 0 1 .6.44l1.1 3.43L9.8 7a.65.65 0 0 1 .62-.49h.1a.63.63 0 0 1 .62.49l1.12 3.4 1.1-3.4a.62.62 0 0 1 .6-.44.59.59 0 0 1 .6.59 1 1 0 0 1 0 .24L13 11.78a.68.68 0 0 1-.64.5h-.16a.65.65 0 0 1-.63-.5l-1.1-3.2-1.1 3.2a.65.65 0 0 1-.63.5H8.6a.69.69 0 0 1-.64-.5z"/></svg>