<svg xmlns="http://www.w3.org/2000/svg" xmlns:xlink="http://www.w3.org/1999/xlink" width="234" height="20"><defs><path id="A" d="M603 394.996c0 5.522-4.477 10-10 10H379c-5.523 0-10-4.478-10-10s4.477-10 10-10h214c5.523 0 10 4.478 10 10z"/><path id="B" d="M379 384.996c-5.523 0-10 4.478-10 10s4.477 10 10 10h200v-20z"/><path id="C" d="M590 394.996c0 5.522-4.477 10-10 10H379c-5.523 0-10-4.478-10-10s4.477-10 10-10h201c5.523 0 10 4.478 10 10z"/><path id="D" d="M573.668 378.996h-15.644l32.332 30H606zm-31.3 0h-15.643l32.332 30h15.644zm-31.288 0h-15.644l32.332 30h15.644zm-31.3 0h-15.643l32.332 30h15.644zm-31.288 0h-15.644l32.332 30h15.644zm-31.3 0H401.58l32.332 30h15.644zm-31.288 0H370.3l32.332 30h15.644zm-31.3 0H339l32.332 30h15.645z"/><clipPath id="E"><use xlink:href="#B"/></clipPath><clipPath id="F"><use xlink:href="#B"/></clipPath></defs><g transform="translate(-369 -385)"><g clip-path="url(#clip-0:2:c)"><use xlink:href="#A" fill="#e9d8ef"/></g><g clip-path="url(#E)"><use xlink:href="#C" fill="#e254c7"/></g><g clip-path="url(#F)"><use xlink:href="#D" fill="#aa0059"/></g></g></svg>