<?xml version="1.0" encoding="iso-8859-1"?>
<!-- Generator: Adobe Illustrator 16.0.0, SVG Export Plug-In . SVG Version: 6.00 Build 0)  -->
<!DOCTYPE svg PUBLIC "-//W3C//DTD SVG 1.1//EN" "http://www.w3.org/Graphics/SVG/1.1/DTD/svg11.dtd">
<svg version="1.1" xmlns="http://www.w3.org/2000/svg" xmlns:xlink="http://www.w3.org/1999/xlink" x="0px" y="0px"
	 width="34.654px" height="34.654px" viewBox="0 0 34.654 34.654" style="enable-background:new 0 0 34.654 34.654;"
	 xml:space="preserve">
<g id="Logo">
	<g>
		<linearGradient id="SVGID_1_" gradientUnits="userSpaceOnUse" x1="17.3276" y1="34.6543" x2="17.3276" y2="4.882812e-04">
			<stop  offset="0" style="stop-color:#43359D"/>
			<stop  offset="0.0674" style="stop-color:#453AA1"/>
			<stop  offset="0.3698" style="stop-color:#4A4EB0"/>
			<stop  offset="0.6783" style="stop-color:#4E59B9"/>
			<stop  offset="1" style="stop-color:#4F5DBC"/>
		</linearGradient>
		<circle style="fill:url(#SVGID_1_);" cx="17.327" cy="17.327" r="17.327"/>
		<g>
			<path style="fill:#FFFFFF;" d="M3.534,23.778c-0.287-0.218-0.522-0.633-0.522-1.065c0-0.739,0.577-1.334,1.317-1.334
				c0.343,0,0.559,0.089,0.829,0.288c0.56,0.414,1.048,0.633,1.679,0.633c1.083,0,1.733-0.633,1.733-2.095v-6.858
				c0-0.775,0.614-1.389,1.388-1.389c0.777,0,1.391,0.614,1.391,1.389v6.984c0,1.498-0.435,2.617-1.192,3.375
				c-0.776,0.775-1.913,1.173-3.284,1.173C5.43,24.879,4.329,24.392,3.534,23.778z"/>
			<path style="fill:#FFFFFF;" d="M12.973,13.833c-0.054-0.162-0.108-0.361-0.108-0.523c0-0.774,0.65-1.353,1.426-1.353
				c0.65,0,1.173,0.415,1.353,0.994l2.51,7.741l2.525-7.671c0.217-0.649,0.704-1.101,1.408-1.101h0.217
				c0.703,0,1.191,0.433,1.407,1.101l2.526,7.671l2.509-7.741c0.181-0.543,0.649-0.994,1.336-0.994c0.758,0,1.371,0.579,1.371,1.335
				c0,0.162-0.054,0.379-0.108,0.541l-3.537,9.925c-0.254,0.704-0.775,1.139-1.443,1.139h-0.289c-0.668,0-1.173-0.416-1.426-1.139
				l-2.49-7.236l-2.491,7.236c-0.252,0.723-0.758,1.139-1.426,1.139h-0.289c-0.667,0-1.192-0.435-1.443-1.139L12.973,13.833z"/>
		</g>
	</g>
</g>
<g id="Layer_1">
</g>
</svg>
