<svg xmlns="http://www.w3.org/2000/svg" width="652" height="90" viewBox="0 0 651.339 89.033"><style><![CDATA[.A{fill:#2E81CC}]]></style><path class="A" d="M2.503 79.617C1.192 78.424 0 76.4 0 74.133c0-3.933 3.1-7.03 7.032-7.03 1.907 0 3.218.596 4.53 1.668 4.052 4.172 7.985 6.437 13.587 6.437 8.104 0 13.468-5.244 13.468-16.448V10.846c0-4.053 3.337-7.27 7.4-7.27s7.4 3.218 7.4 7.27v48.4c0 9.892-2.98 17.282-7.866 22.17s-11.918 7.4-20.262 7.4c-10.13-.001-17.52-3.933-22.765-9.177zm57.745-10.13v-.238c0-13.587 10.607-20.262 25.982-20.262 7.032 0 12.038 1.072 16.925 2.622v-1.55c0-8.94-5.483-13.706-15.614-13.706-5.482 0-10.012.953-13.945 2.503-.834.238-1.55.357-2.264.357-3.337 0-6.08-2.622-6.08-5.96 0-2.622 1.788-4.887 3.933-5.72 5.96-2.265 12.038-3.695 20.262-3.695 9.416 0 16.448 2.503 20.857 7.032 4.648 4.53 6.794 11.204 6.794 19.428v31c0 3.933-3.1 6.912-7.032 6.912-4.17 0-7.032-2.86-7.032-6.078v-2.384c-4.3 5.125-10.846 9.178-20.5 9.178-11.8 0-22.287-6.794-22.287-19.428zm43.146-4.53v-4.3c-3.695-1.43-8.582-2.504-14.302-2.504-9.297 0-14.78 3.934-14.78 10.488v.238c0 6.08 5.363 9.535 12.276 9.535 9.534 0 16.805-5.482 16.805-13.467zm21.57-8.462v-.238c0-17.878 13.826-32.896 32.776-32.896 9.893 0 16.686 3.218 22.05 7.867.953.834 2.264 2.622 2.264 5.006 0 3.694-2.98 6.555-6.674 6.555a7.35 7.35 0 0 1-4.29-1.43c-3.695-3.1-7.747-5.364-13.468-5.364-10.488 0-18.235 9.06-18.235 20.024v.238c0 11.203 7.747 20.143 18.832 20.143 5.72 0 10.13-2.266 14.064-5.602.834-.716 2.264-1.55 3.933-1.55 3.456 0 6.198 2.86 6.198 6.317 0 1.906-.715 3.455-2.026 4.528-5.602 5.363-12.396 8.94-22.884 8.94-18.713.001-32.54-14.66-32.54-32.537zM190.516 7.15c0-3.933 3.1-7.15 7.15-7.15s7.27 3.218 7.27 7.15v46.482l27.056-26.58c1.907-1.907 3.695-3.1 6.198-3.1 3.814 0 6.317 3.1 6.317 6.555 0 2.384-1.192 4.17-3.218 6.08l-16.686 15.375 19.07 24.9c1.3 1.787 1.907 3.1 1.907 4.768 0 3.933-3.1 6.555-6.793 6.555-2.86 0-4.53-.953-6.317-3.218L214.473 61l-9.535 9.058v10.966c0 4.052-3.218 7.15-7.27 7.15-3.933 0-7.15-3.1-7.15-7.15V7.15zm89.504 6.437c-.357-.834-.596-1.907-.596-2.86 0-4.053 3.457-7.15 7.5-7.15 3.576 0 6.317 2.265 7.27 5.363l19.188 57.33 18.832-57.1c1.2-3.456 3.694-5.84 7.4-5.84h1.072c3.695 0 6.317 2.384 7.4 5.84l18.83 57.1 19.17-57.45c1.072-2.98 3.575-5.244 7.15-5.244 3.933 0 7.27 3.1 7.27 7.032 0 .954-.358 2.146-.716 2.98l-24.67 69.127c-1.312 3.695-4.053 6.078-7.628 6.078h-1.43c-3.575 0-6.197-2.264-7.5-6.078l-18.6-54.468-18.594 54.468c-1.3 3.814-4.052 6.078-7.628 6.078h-1.43c-3.575 0-6.198-2.264-7.628-6.078l-24.67-69.128zm148.76 75.446c-18.235 0-32.3-13.23-32.3-32.657v-.238c0-17.998 12.753-32.777 30.75-32.777 20.023 0 29.916 16.448 29.916 31 0 4.052-3.1 6.913-6.794 6.913h-39.45c1.55 10.25 8.82 15.97 18.116 15.97 6.078 0 10.846-2.146 14.898-5.482 1.072-.834 2.026-1.312 3.694-1.312 3.22 0 5.722 2.503 5.722 5.84 0 1.787-.835 3.337-1.907 4.4-5.72 5.124-12.872 8.342-22.645 8.342zm14.302-37.306c-.954-9.297-6.437-16.567-15.972-16.567-8.82 0-15.018 6.793-16.328 16.567h32.3zm20.498 29.56c-1.55-.835-2.74-2.623-2.74-5.006 0-3.22 2.503-5.84 5.84-5.84 1.2 0 2.265.358 3.1.835 6.078 4.052 12.396 6.078 18.116 6.078 6.198 0 9.773-2.622 9.773-6.793v-.24c0-4.886-6.675-6.556-14.063-8.82-9.297-2.623-19.666-6.437-19.666-18.474v-.238c0-11.92 9.893-19.2 22.407-19.2 6.674 0 13.706 1.907 19.784 5.125 2.026 1.073 3.457 2.98 3.457 5.482 0 3.337-2.622 5.84-5.96 5.84-1.2 0-1.906-.24-2.86-.715-5.125-2.622-10.37-4.3-14.78-4.3-5.602 0-8.82 2.622-8.82 6.198v.238c0 4.648 6.794 6.555 14.184 8.94 9.177 2.86 19.546 7.032 19.546 18.354v.238c0 13.23-10.25 19.785-23.36 19.785-7.988 0-16.7-2.502-23.958-7.507zM522.696 70.2V37.067h-2.384a6.15 6.15 0 0 1-6.198-6.198 6.15 6.15 0 0 1 6.198-6.198h2.384V13.945c0-3.933 3.218-7.15 7.27-7.15 3.933 0 7.15 3.218 7.15 7.15v10.727h11.323c3.456 0 6.316 2.742 6.316 6.198s-2.86 6.198-6.316 6.198h-11.323v30.87c0 5.602 2.86 7.867 7.747 7.867 1.67 0 3.1-.358 3.576-.358 3.218 0 6.078 2.622 6.078 5.96 0 2.62-1.787 4.767-3.813 5.602-3.1 1.072-6.08 1.668-9.893 1.668-10.607-.002-18.116-4.65-18.116-18.475zm39.806-62.453c0-4.3 3.576-7.032 8.225-7.032s8.224 2.74 8.224 7.032v.715c0 4.3-3.575 7.15-8.224 7.15s-8.225-2.86-8.225-7.15v-.715zm1.074 23.48c0-4.053 3.1-7.27 7.15-7.27a7.22 7.22 0 0 1 7.271 7.271v49.82c0 4.052-3.22 7.15-7.27 7.15-3.934 0-7.15-3.1-7.15-7.15v-49.82zm27.294 0c0-4.053 3.1-7.27 7.15-7.27a7.22 7.22 0 0 1 7.271 7.271v3.1c4.053-5.84 9.893-10.965 19.666-10.965 14.184 0 22.407 9.535 22.407 24.076v33.6c0 4.052-3.1 7.15-7.15 7.15s-7.27-3.1-7.27-7.15V51.846c0-9.773-4.887-15.375-13.468-15.375-8.343 0-14.184 5.84-14.184 15.613v28.963c0 4.052-3.218 7.15-7.27 7.15-3.933 0-7.15-3.1-7.15-7.15v-49.82z"/></svg>