<svg xmlns="http://www.w3.org/2000/svg" viewBox="0 0 159.77 140"><style><![CDATA[.A{fill:#548457}.B{fill:#98d99f}.C{fill:#8cc691}.D{fill:#649969}.E{fill:#bbe5bd}]]></style><path d="M76.73 83h9.18v57h-9.18z" class="A"/><path class="B" d="M123.83,80.15V21.86H57.63A27.46,27.46,0,0,0,30.17,49.31v27.5a6.13,6.13,0,0,0,1,3.34Z"/><path class="C" d="M30.86,43.26a28,28,0,0,0-.69,6.05v27.5A6.19,6.19,0,0,0,36.36,83H151.28V43.26Z"/><path class="B" d="M123.83 80V67.62H30.17v9.2a6.13 6.13 0 0 0 .9 3.17z"/><path class="D" d="M116 21.86h15.7a19.61 19.61 0 0 1 19.61 19.61v38.48a0 0 0 0 1 0 0H96.37a0 0 0 0 1 0 0v-38.5A19.61 19.61 0 0 1 116 21.86z"/><path class="B" d="M155.45 23.44a4.32 4.32 0 1 1 4.32-4.32 4.32 4.32 0 0 1-4.32 4.32zm0-6.7a2.38 2.38 0 1 0 2.38 2.37 2.37 2.37 0 0 0-2.38-2.37zM4.3 84.3A4.32 4.32 0 1 1 8.63 80a4.32 4.32 0 0 1-4.32 4.29zm0-6.7A2.38 2.38 0 1 0 6.69 80a2.38 2.38 0 0 0-2.38-2.4zm34.37-62.83a1 1 0 0 1-1-1V5.92a1 1 0 0 1 1.94 0v7.88a1 1 0 0 1-.94.97z"/><path class="B" d="M42.6 10.83h-7.88a1 1 0 1 1 0-1.94h7.88a1 1 0 0 1 0 1.94zm81.23 92.33a1 1 0 0 1-1-1V94.3a1 1 0 0 1 1.94 0v7.9a1 1 0 0 1-.94.97z"/><path class="B" d="M127.77 99.2h-7.9a1 1 0 0 1 0-1.94h7.9a1 1 0 0 1 0 1.94z"/><rect class="C" x="49.17" y="30.88" width="43.84" height="5.92" rx="2.11"/><path class="D" d="M78.73 50.5a6.4 6.4 0 1 0 6.39 6.39 6.39 6.39 0 0 0-6.39-6.39z"/><path class="A" d="M78.73 56.9a1.39 1.39 0 0 1-1.4-1.4V1.4a1.4 1.4 0 0 1 2.8 0v54.1a1.4 1.4 0 0 1-1.4 1.4z"/><path class="C" d="M62.6 3.6h14.74a0 0 0 0 1 0 0v10.2a0 0 0 0 1 0 0H62.6a1.42 1.42 0 0 1-1.42-1.42V5a1.42 1.42 0 0 1 1.42-1.4z"/><rect class="C" x="111.16" y="47.94" width="25.34" height="6.4" rx="3.2"/><path class="E" d="M114.36 47.94a3.2 3.2 0 1 0 0 6.4 3.2 3.2 0 0 0 3.2-3.2 3.21 3.21 0 0 0-3.2-3.2z"/><rect class="C" x="105.37" y="65.04" width="36.91" height="7.73" rx="2.76"/><path class="E" d="M142.28 68h-36.9a2.93 2.93 0 0 1 2.93-3h31.05a2.93 2.93 0 0 1 2.93 3z"/></svg>