<svg xmlns="http://www.w3.org/2000/svg" width="60" height="60" viewBox="0 0 59.375 59.374" fill-rule="evenodd"><circle cx="29.688" cy="29.687" r="29.688" fill="#408AF8"/><path d="M36.666 21.792l.01-8.324c-.054-4.383-2.967-7.454-7.055-7.484-4.205-.033-7.215 3.03-7.246 7.477l.003 16.65c.03 4.28 3.122 7.466 7.132 7.45 4.06-.016 7.074-3.127 7.148-7.443.047-2.775.008-5.55.008-8.327zm-7.143 27.22l10.797.002c.786 0 1.717.043 1.71-1.013-.008-1.02-.928-1.06-1.72-1.06-2.656-.004-5.313.018-7.97-.013-.733-.01-1.917.357-1.647-1.055.198-1.043-1.036-2.567 1.22-3.015 6.94-1.382 11.342-7.684 10.44-14.646-.098-.75-.39-1.268-1.176-1.262-.748.006-.97.576-.994 1.22-.045 1.12.024 2.253-.12 3.36-.557 4.29-2.83 7.393-6.908 8.837-4.104 1.455-7.914.688-11.127-2.4-2.68-2.563-3.406-5.82-3.266-9.377.027-.716.06-1.548-.92-1.617-.953-.068-1.082.7-1.154 1.45-.684 7.1 3.516 13.037 10.435 14.445 2.15.438.978 1.89 1.18 2.9.267 1.314-.786 1.167-1.6 1.168-2.656.007-5.314-.001-7.97.004-.79.002-1.714.042-1.72 1.062-.008 1.06.933 1.012 1.713 1.012h10.8z" fill="#5E6262"/><path d="M36.666 21.792l-.008 8.326c-.074 4.316-3.1 7.428-7.148 7.443-4 .015-7.1-3.17-7.132-7.45l-.003-16.65c.03-4.446 3.04-7.5 7.246-7.477 4.088.03 7 3.102 7.055 7.484l.006 8.324zm-7.143 27.22l-10.8.002c-.78 0-1.72.047-1.713-1.012.007-1.02.93-1.06 1.72-1.062l7.97-.004c.813-.001 1.866.146 1.6-1.168-.203-1 .97-2.452-1.18-2.9-6.92-1.408-11.118-7.335-10.435-14.445.072-.75.2-1.518 1.154-1.45.98.07.947.9.92 1.617-.14 3.557.585 6.813 3.266 9.377 3.213 3.077 7.023 3.845 11.127 2.4 4.078-1.444 6.352-4.546 6.908-8.837.144-1.106.074-2.24.12-3.36.025-.645.246-1.215.994-1.22.787-.006 1.078.5 1.176 1.262.9 6.962-3.5 13.264-10.44 14.646-2.255.447-1.02 1.972-1.22 3.015-.27 1.412.914 1.046 1.647 1.055l7.97.013c.793.002 1.713.042 1.72 1.06.008 1.056-.923 1.013-1.7 1.013L29.52 49.01z" fill="#FBFBFB"/></svg>