<svg xmlns="http://www.w3.org/2000/svg" width="60" height="60" viewBox="0 0 59.4 59.4"><style><![CDATA[.C{fill-rule:evenodd;clip-rule:evenodd;fill:#FBFCFC}]]></style><g fill-rule="evenodd"><circle cx="29.7" cy="29.7" r="29.7" fill="#55bc76"/><path d="M36.7 21.8v-8.3c-.1-4.4-3-7.5-7.1-7.5-4.2 0-7.2 3-7.2 7.5v16.7c0 4.3 3.1 7.5 7.1 7.5 4.1 0 7.1-3.1 7.1-7.4.1-3 .1-5.7.1-8.5zM29.5 49h10.8c.8 0 1.7 0 1.7-1s-.9-1.1-1.7-1.1h-8c-.7 0-1.9.4-1.6-1.1.2-1-1-2.6 1.2-3 6.9-1.4 11.3-7.7 10.4-14.6-.1-.8-.4-1.3-1.2-1.3-.7 0-1 .6-1 1.2 0 1.1 0 2.3-.1 3.4-.6 4.3-2.8 7.4-6.9 8.8-4.1 1.5-7.9.7-11.1-2.4-2.7-2.6-3.4-5.8-3.3-9.4 0-.7.1-1.5-.9-1.6s-1.1.7-1.2 1.4c-.7 7.1 3.5 13 10.4 14.4 2.1.4 1 1.9 1.2 2.9.3 1.3-.8 1.2-1.6 1.2h-8c-.8 0-1.7 0-1.7 1.1s.9 1 1.7 1c3.7.1 7.3.1 10.9.1z" fill="#5f6363"/></g><path class="C" d="M36.7 21.8v8.3c-.1 4.3-3.1 7.4-7.1 7.4s-7.1-3.2-7.1-7.5V13.3c0-4.4 3-7.5 7.2-7.5 4.1 0 7 3.1 7.1 7.5-.1 2.9-.1 5.7-.1 8.5zM29.5 49H18.7c-.8 0-1.7 0-1.7-1s.9-1.1 1.7-1.1h8c.8 0 1.9.1 1.6-1.2-.2-1 1-2.5-1.2-2.9-6.9-1.4-11.1-7.3-10.4-14.4.1-.7.2-1.5 1.2-1.4s.9.9.9 1.6c-.1 3.6.6 6.8 3.3 9.4 3.2 3.1 7 3.8 11.1 2.4s6.4-4.5 6.9-8.8c.1-1.1.1-2.2.1-3.4 0-.6.2-1.2 1-1.2s1.1.5 1.2 1.3c.9 7-3.5 13.3-10.4 14.6-2.3.4-1 2-1.2 3-.3 1.4.9 1 1.6 1.1h8c.8 0 1.7 0 1.7 1.1s-.9 1-1.7 1c-3.7-.1-7.3-.1-10.9-.1z"/></svg>