<svg xmlns="http://www.w3.org/2000/svg" xmlns:xlink="http://www.w3.org/1999/xlink" width="234" height="20"><path d="M234 10c0 5.5-4.5 10-10 10H10C4.5 20 0 15.5 0 10S4.5 0 10 0h214c5.5 0 10 4.5 10 10z" fill="#cce8d9"/><defs><path id="A" d="M210 20H10C4.5 20 0 15.5 0 10S4.5 0 10 0h200v20z"/></defs><clipPath id="B"><use xlink:href="#A"/></clipPath><path d="M221 10c0 5.5-4.5 10-10 10H10C4.5 20 0 15.5 0 10S4.5 0 10 0h201c5.5 0 10 4.5 10 10z" clip-path="url(#B)" fill="#d4e7b5"/><g clip-path="url(#B)"><path d="M237 24h-15.6L189-6h15.6L237 24zm-31.3 0h-15.6L157.7-6h15.6l32.4 30zm-31.3 0h-15.6L126.4-6H142l32.4 30zm-31.3 0h-15.6L95.2-6h15.6l32.3 30zm-31.3 0H96.2L63.9-6h15.6l32.3 30zm-31.2 0H64.9L32.6-6h15.6l32.4 30zm-31.3 0H33.6L1.3-6h15.6l32.4 30zM18 24H2.3L-30-6h15.6L18 24z" fill="#3dbeb3"/></g></svg>